<?xml version="1.0" encoding="UTF-8" standalone="no"?>
<!-- Created with Inkscape (http://www.inkscape.org/) -->

<svg
   width="43.386757mm"
   height="25.34359mm"
   viewBox="0 0 43.386757 25.34359"
   version="1.1"
   id="svg1427"
   inkscape:version="1.1.2 (b8e25be833, 2022-02-05)"
   sodipodi:docname="3dp.svg"
   xmlns:inkscape="http://www.inkscape.org/namespaces/inkscape"
   xmlns:sodipodi="http://sodipodi.sourceforge.net/DTD/sodipodi-0.dtd"
   xmlns="http://www.w3.org/2000/svg"
   xmlns:svg="http://www.w3.org/2000/svg">
  <sodipodi:namedview
     id="namedview1429"
     pagecolor="#ffffff"
     bordercolor="#666666"
     borderopacity="1.0"
     inkscape:pageshadow="2"
     inkscape:pageopacity="0.0"
     inkscape:pagecheckerboard="0"
     inkscape:document-units="mm"
     showgrid="false"
     fit-margin-top="0"
     fit-margin-left="0"
     fit-margin-right="0"
     fit-margin-bottom="0"
     inkscape:zoom="0.64052329"
     inkscape:cx="200.61722"
     inkscape:cy="305.9998"
     inkscape:window-width="1920"
     inkscape:window-height="1057"
     inkscape:window-x="-8"
     inkscape:window-y="-8"
     inkscape:window-maximized="1"
     inkscape:current-layer="layer1" />
  <defs
     id="defs1424" />
  <g
     inkscape:label="Layer 1"
     inkscape:groupmode="layer"
     id="layer1"
     transform="translate(-52.246816,-67.464506)">
    <g
       id="g1116"
       transform="matrix(0.35277777,0,0,-0.35277777,-8.3551326,253.37293)">
      <path
         d="m 214.7859,521.8853 c 1.0579,0.3023 2.1606,-0.3102 2.4629,-1.3681 0.3024,-1.0579 -0.3101,-2.1606 -1.368,-2.4629 -0.0478,-0.0137 0.1033,0.0299 -0.1662,-0.0785 l -1.1332,-0.2671 c -0.7622,-0.0923 -1.2772,-0.0158 -2.1791,-0.1002 l -5.9005,-0.6558 -7.5163,-0.9394 -6.6622,-1.0324 -5.6029,-0.9492 c -1.5804,-0.2301 -2.9799,-0.4561 -4.3915,-0.4923 -1.4528,-0.0373 -2.5298,0.2103 -3.4373,0.2904 -1.096,0.0967 -1.9061,1.0635 -1.8094,2.1595 0.0967,1.096 1.0635,1.9061 2.1595,1.8094 1.2058,-0.1064 2.0447,-0.3004 2.985,-0.2763 1.0618,0.0273 2.3301,0.2207 3.9196,0.4521 l 5.5416,0.9398 6.7488,1.0454 7.5948,0.9495 5.9996,0.6663 c 1.1704,0.1096 2.0624,0.0876 2.071,0.0887 0.385,0.0467 -0.0284,0.0176 0.6838,0.2211"
         style="fill:#000000;fill-opacity:1;fill-rule:nonzero;stroke:none"
         id="path876" />
      <path
         d="m 217.8639,505.452 c 1.0579,-0.3022 1.6705,-1.4049 1.3683,-2.4628 -0.3022,-1.0579 -1.4049,-1.6705 -2.4628,-1.3683 -0.7787,0.2225 -0.2219,0.1668 -0.6772,0.2204 l -2.0549,0.0819 -6.0042,0.1879 -7.3387,-2e-4 h -6.5166 c -2.3369,0 -3.4248,0.0579 -4.424,0.003 -1.602,-0.088 -2.0602,-0.101 -3.7889,-0.4383 l -3.5241,-1.001 c -1.0589,-0.2986 -2.1595,0.3177 -2.4582,1.3766 -0.2987,1.0589 0.3176,2.1595 1.3766,2.4582 1.2386,0.3494 2.7992,0.8732 3.8426,1.0768 1.8553,0.362 2.7433,0.4187 4.3334,0.5061 1.2585,0.0692 2.3712,0.003 4.6426,0.003 h 6.5166 l 7.3948,-2e-4 6.0846,-0.1898 2.3838,-0.1069 c 0.4613,-0.0543 0.8621,-0.1392 1.2069,-0.2867 0.3054,-0.1306 0.0189,-0.0367 0.0994,-0.0597"
         style="fill:#000000;fill-opacity:1;fill-rule:nonzero;stroke:none"
         id="path878" />
      <path
         d="m 212.9339,490.3852 c 1.0302,0.3862 2.1785,-0.1358 2.5648,-1.166 0.3863,-1.0302 -0.1357,-2.1785 -1.1659,-2.5648 -0.0955,-0.0358 -0.5409,-0.2983 -1.3679,-0.4968 -0.1837,-0.044 -0.6109,-0.1565 -1.6161,-0.1952 l -9.8632,-0.2845 -6.08,-3e-4 h -6.4223 -6.8944 c -1.3627,0 -4.8181,0.0667 -5.3695,0.0103 -1.5732,-0.1609 -0.9588,-0.3386 -2.3511,-0.7708 -1.0509,-0.3261 -2.1671,0.2614 -2.4932,1.3122 -0.3261,1.0508 0.2614,2.1671 1.3122,2.4932 l 0.661,0.3434 c 0.5839,0.2817 1.358,0.4725 2.4657,0.5857 1.4268,0.146 4.5167,0.0104 5.7749,0.0104 h 6.8944 6.4223 l 6.0089,-4e-4 9.7812,0.2822 c 0.7881,0.0304 0.4313,-0.01 0.8396,0.0882 0.4249,0.102 0.2882,0.1243 0.8986,0.3532"
         style="fill:#000000;fill-opacity:1;fill-rule:nonzero;stroke:none"
         id="path880" />
      <path
         d="m 254.2336,506.3192 c 1.0674,0.2668 2.149,-0.3822 2.4158,-1.4496 0.2668,-1.0675 -0.3822,-2.1491 -1.4496,-2.4159 -0.1503,-0.0375 0.3585,0.1234 0.072,0.01 -0.3176,-0.1259 -0.6173,-0.1704 -0.9235,-0.201 -0.6261,-0.0626 -1.0041,0.1389 -1.0723,0.1666 -0.0273,0.0111 0.5832,-0.004 0.1158,-0.1422 -1.6606,-0.4902 -4.3859,-1.305 -6.2448,-2.1643 -1.0526,-0.4866 -2.0909,-1.3031 -3.0769,-2.1012 -0.8941,-0.7239 -1.5651,-1.3862 -2.1289,-2.1205 -0.5684,-0.7403 -0.941,-1.3906 -1.3407,-2.3717 l -0.3255,-1.4707 c 0.0137,-0.6132 0.042,-0.618 0.2616,-0.9674 0.155,-0.2465 0.2852,-0.3805 0.7312,-0.6085 0.7345,-0.3754 1.4001,-0.6493 1.7417,-0.6338 0.6784,0.0309 1.6348,0.294 2.5568,0.8496 1.0982,0.6617 2.2893,1.605 3.3833,2.8904 1.1371,1.3361 2.5168,3.5807 3.4658,5.2608 1.2943,2.2913 1.9724,3.7341 3.2105,6.6083 0.4613,1.0709 1.541,4.1029 1.9122,5.286 0.6125,1.9526 0.7958,2.8739 0.9778,3.9054 0.1325,0.7509 0.0246,1.0743 0.0661,2.009 l 0.0933,1.9518 -8e-4,1.2653 v 0.9444 0.7555 0.85 0.7556 0.7556 0.4722 0.3778 l -0.007,0.0975 0.002,0.3346 c 0.0113,0.1404 -0.2357,0.3643 0.5111,1.1908 0.4677,0.5176 1.8,0.7483 2.4089,0.428 0.5237,-0.2756 0.6398,-0.5211 0.7339,-0.6622 0.6729,-1.0095 0.3834,-0.9277 0.4215,-1.0422 0.3479,-1.0438 -0.2162,-2.172 -1.26,-2.5199 -1.0438,-0.3479 -2.172,0.2163 -2.5199,1.2601 l -0.1157,0.3692 -0.0243,0.0757 0.0214,-0.0545 c -0.0185,0.0441 0.2868,-0.486 0.162,-0.2987 -0.0439,0.0657 0.2981,-0.3574 0.2006,-0.2532 -0.1014,0.1084 0.7537,-0.5252 0.4993,-0.3866 -0.1302,0.071 0.6775,-0.2336 0.4841,-0.1868 -0.1957,0.0474 0.8922,-0.0243 0.6577,-0.0468 -0.2323,-0.0222 0.8618,0.277 0.6625,0.1826 -0.3817,-0.1808 0.9065,0.835 0.7624,0.635 -0.1302,-0.1808 0.2844,0.5569 0.2398,0.4419 -0.0791,-0.2039 0.1237,0.4992 0.1102,0.4115 -0.0417,-0.2709 0.0204,0.3492 0.0212,0.3245 l 0.0121,-0.3005 v -0.3778 -0.4722 -0.7556 -0.7556 -0.85 -0.7555 -0.9444 l -9e-4,-1.3792 -0.0955,-2.0148 c -0.0195,-0.4381 0.1014,-1.2537 -0.1229,-2.5245 -0.1927,-1.0923 -0.4442,-2.3157 -1.0999,-4.4057 -0.4372,-1.3937 -1.4496,-4.2653 -2.0545,-5.6696 -1.2571,-2.9182 -2.0475,-4.5963 -3.4006,-6.9916 -1.0165,-1.7995 -2.4206,-4.1443 -3.9008,-5.8836 -1.3965,-1.6408 -2.9245,-2.8551 -4.3612,-3.7208 -1.4691,-0.8852 -3.0042,-1.3521 -4.4321,-1.417 -1.735,-0.0789 -3.0016,0.6908 -3.7361,1.0662 -0.9355,0.4781 -1.7571,1.1865 -2.291,2.0359 -0.4574,0.7275 -0.8453,1.8069 -0.8718,2.9993 -0.0249,1.1217 0.2171,2.0762 0.619,3.0626 0.5074,1.2454 1.107,2.3008 1.8704,3.2949 0.7866,1.0244 1.7108,1.9234 2.7822,2.7907 1.018,0.8241 2.2926,1.8724 3.912,2.621 2.2797,1.0539 5.0953,1.8692 6.7886,2.369 0.6886,0.2033 1.303,0.2896 1.8959,0.1899 l 0.615,-0.1773 c 0.0191,-0.008 -0.2766,0.0849 -0.1478,0.0489 0.148,-0.0414 -0.9501,0.0299 -0.6752,0.0574 0.2265,0.0226 -0.3822,-0.0739 0.2819,0.0921"
         style="fill:#000000;fill-opacity:1;fill-rule:nonzero;stroke:none"
         id="path882" />
      <path
         d="m 275.6844,498.918 c 0.1094,1.0948 1.0857,1.8936 2.1805,1.7841 1.0948,-0.1095 1.8935,-1.0857 1.7841,-2.1805 -6e-4,-0.006 0.0106,0.1974 0.0211,-0.1952 0.0115,-0.4288 -0.0611,-0.8481 -0.2033,-1.4683 l -0.9357,-3.2602 -5.7638,-18.4253 -3.0282,-9.5575 -1.9182,-5.6559 -1.0228,-2.7315 -0.4724,-1.0237 c -0.1162,-0.1963 -0.0618,-0.5787 -1.1195,-0.9772 -0.6432,-0.2423 -1.8359,0.0772 -2.2713,0.6018 -0.3823,0.4607 -0.4115,0.7688 -0.4493,0.9729 -0.1806,0.9748 0.005,1.0348 0.0763,1.4873 l 0.958,5.2573 c 0.1864,1.0844 1.2165,1.8124 2.3009,1.626 1.0843,-0.1864 1.8123,-1.2165 1.6259,-2.3009 l -0.6788,-3.6664 -0.2702,-1.5365 -0.0614,-0.4372 -0.005,-0.0441 c -0.001,-0.0263 -0.0762,0.5984 -0.0284,0.34 0.013,-0.0698 -0.1293,0.4216 -0.0812,0.2921 0.0502,-0.1351 -0.478,0.749 -0.3034,0.5323 0.1811,-0.2247 -1.3074,0.7646 -0.8968,0.6255 0.4016,-0.1361 -1.4624,-0.0518 -1.1488,0.0342 0.2871,0.0787 -0.7493,-0.3889 -0.6139,-0.2919 0.2379,0.1705 -0.4399,-0.4441 -0.3819,-0.3679 0.091,0.1197 -0.0933,-0.1414 -0.0852,-0.1255 l 1.1981,3.1324 1.8596,5.4885 3.0163,9.5202 5.7584,18.4081 0.8586,2.9731 c 0.2021,0.8817 0.0127,0.284 0.1013,1.1699"
         style="fill:#000000;fill-opacity:1;fill-rule:nonzero;stroke:none"
         id="path884" />
      <path
         d="m 276.7974,495.1002 c -0.5907,-0.9282 -1.822,-1.2019 -2.7503,-0.6112 -0.9282,0.5907 -1.2019,1.8221 -0.6112,2.7503 0.4134,0.6496 0.6111,0.8208 0.8906,1.3798 0.0945,0.1889 -0.1181,-0.3024 -0.1097,-0.2738 0.008,0.0262 0.1029,0.5966 0.3974,1.2685 0.434,0.9905 0.9672,2.1322 1.5859,3.2693 0.5427,0.9974 1.115,2.293 2.1884,3.6113 1.0256,1.2595 2.3768,2.6212 3.7564,3.6465 1.3766,1.0232 2.8307,1.6811 4.0692,2.1521 1.353,0.5145 2.6592,0.7284 3.7122,0.788 1.0529,0.0596 2.1862,-0.0742 3.1325,-0.7268 0.826,-0.5696 1.6803,-1.709 1.7107,-3.1077 0.0231,-1.0629 -0.1918,-2.4827 -1.0367,-3.8979 -0.5399,-0.9043 -1.421,-2.7599 -3.6808,-4.165 -3.3449,-2.0799 -8.0073,-3.8869 -11.8954,-5.7682 -0.9904,-0.4792 -2.1818,-0.0648 -2.661,0.9256 -0.4792,0.9904 -0.0648,2.1818 0.9256,2.661 4.0546,1.9619 8.6852,3.7982 11.5268,5.5652 1.4308,0.8896 1.6373,1.6072 2.3637,2.8238 0.388,0.6499 0.4842,1.3163 0.4744,1.7689 -10e-5,0.002 0.0933,-0.1427 0.0107,-0.0857 -0.0253,0.0174 -0.0764,0.061 -0.6453,0.0288 -0.6755,-0.0382 -1.643,-0.2002 -2.5212,-0.5342 -1.0304,-0.3919 -2.1552,-0.9171 -3.1086,-1.6257 -1.0037,-0.746 -2.2344,-1.9708 -3.0435,-2.9645 -0.7063,-0.8674 -1.1545,-1.8533 -1.7783,-2.9998 l -1.4363,-2.9641 c -0.0712,-0.1624 0.1686,-0.0935 -0.3734,-1.1775 -0.4585,-0.917 -0.8701,-1.387 -1.0928,-1.737"
         style="fill:#000000;fill-opacity:1;fill-rule:nonzero;stroke:none"
         id="path886" />
    </g>
  </g>
</svg>
