<?xml version="1.0" encoding="UTF-8" standalone="no"?>
<!-- Created with Inkscape (http://www.inkscape.org/) -->

<svg
   width="55.599865mm"
   height="20.916054mm"
   viewBox="0 0 55.599865 20.916054"
   version="1.1"
   id="svg1309"
   inkscape:version="1.1.2 (b8e25be833, 2022-02-05)"
   sodipodi:docname="drive.svg"
   xmlns:inkscape="http://www.inkscape.org/namespaces/inkscape"
   xmlns:sodipodi="http://sodipodi.sourceforge.net/DTD/sodipodi-0.dtd"
   xmlns="http://www.w3.org/2000/svg"
   xmlns:svg="http://www.w3.org/2000/svg">
  <sodipodi:namedview
     id="namedview1311"
     pagecolor="#ffffff"
     bordercolor="#666666"
     borderopacity="1.0"
     inkscape:pageshadow="2"
     inkscape:pageopacity="0.0"
     inkscape:pagecheckerboard="0"
     inkscape:document-units="mm"
     showgrid="false"
     fit-margin-top="0"
     fit-margin-left="0"
     fit-margin-right="0"
     fit-margin-bottom="0"
     inkscape:zoom="0.64052329"
     inkscape:cx="333.32121"
     inkscape:cy="229.49985"
     inkscape:window-width="1920"
     inkscape:window-height="1057"
     inkscape:window-x="-8"
     inkscape:window-y="-8"
     inkscape:window-maximized="1"
     inkscape:current-layer="layer1" />
  <defs
     id="defs1306" />
  <g
     inkscape:label="Layer 1"
     inkscape:groupmode="layer"
     id="layer1"
     transform="translate(-16.812029,-87.440438)">
    <g
       id="g1120"
       transform="matrix(0.35277777,0,0,-0.35277777,-44.337365,316.7736)">
      <path
         d="m 205.4581,615.004 c 0.5344,-0.9618 0.1879,-2.1747 -0.7739,-2.709 -0.9618,-0.5344 -2.1747,-0.1878 -2.709,0.7739 -0.4448,0.8006 -0.2745,0.7261 -0.4131,0.8724 -0.1513,0.1597 0.2684,-0.2322 0.2364,-0.2091 l -0.5029,0.2416 c -1.1684,0.4536 -1.6742,0.8454 -2.4647,0.9105 -1.1943,0.0984 -2.7303,0.062 -4.3813,-0.3305 -1.8787,-0.4465 -4.5288,-1.3045 -5.9767,-2.1455 -2.3353,-1.3566 -3.5187,-2.363 -5.9134,-4.7796 -0.7501,-0.7571 -3.0711,-3.8585 -3.652,-4.8751 -1.0713,-1.8748 -1.1893,-2.7905 -1.4886,-4.0873 -0.1999,-0.8664 -0.1307,-1.1708 0.0138,-1.9076 l 0.2119,-0.9152 0.007,-0.0355 c 0.0409,-0.0573 -0.4629,0.3369 -0.3038,0.2534 0.2598,-0.1364 0.2482,-0.2533 1.0499,0.1289 1.1906,0.5676 2.892,1.6835 4.7936,3.4421 2.0975,1.9398 4.6509,4.6208 7.0739,7.6266 2.4651,3.058 5.201,6.9818 7.5388,10.5201 2.3067,3.4912 4.4893,7.1513 6.244,10.3446 1.6892,3.074 3.0312,5.9479 4.065,8.407 0.9615,2.2873 1.4815,4.2632 2.0042,6.0273 0.4729,1.5962 0.7872,3.0746 0.8862,3.7082 l 0.1699,1.2684 c -6e-4,0.0226 0.0529,-0.27 0.032,-0.1847 -0.0347,0.1414 0.5076,-0.8719 0.3081,-0.6192 -0.2103,0.2666 1.2298,-0.7036 0.8962,-0.6055 -0.3381,0.0994 1.0555,-6e-4 0.8459,-0.0418 -0.1714,-0.0337 0.4508,0.1605 0.3694,0.1212 -0.1266,-0.0611 0.1636,0.0975 0.1625,0.0966 -0.0545,-0.0455 -0.3644,-0.3764 -0.7636,-0.9754 -0.5348,-0.8021 -1.323,-2.112 -2.4109,-4.3833 -0.6853,-1.4307 -2.1346,-4.7581 -2.7631,-6.4458 -1.0253,-2.753 -1.5031,-4.64 -2.2315,-6.9801 l -2.1649,-7.1537 -2.262,-7.7286 -1.9707,-6.943 -1.3949,-5.8587 c -0.3457,-1.6232 -0.6176,-3.2171 -0.7277,-4.0856 -0.1607,-1.2673 -0.2033,-1.3242 -0.1089,-1.8588 0.0403,-0.2289 -0.127,0.3772 -0.1054,0.3354 0.0266,-0.0516 -0.1934,0.2255 -0.1111,0.1446 0.0491,-0.0482 -0.4591,0.3008 -0.2931,0.2114 0.0897,-0.0483 -0.513,0.1814 -0.3595,0.141 0.1604,-0.0423 -0.819,0.0334 -0.5905,0.0517 0.1056,0.009 -0.1992,-0.0624 -0.109,-0.008 l 0.7673,0.5567 c 0.7398,0.5586 1.7473,1.3965 2.7196,2.3688 0.9966,0.9966 2.1664,2.3476 3.2961,3.6656 l 3.3715,4.1216 3.0346,3.6982 c 0.9572,1.1456 1.9499,2.3881 2.8244,3.307 1.1113,1.1678 1.7929,1.7096 2.9392,2.7477 l 2.2739,1.975 c 0.9276,0.7335 1.5702,1.1374 2.0687,1.4489 0.6341,0.3963 1.0744,0.5472 1.2982,0.6592 l 1.2068,0.6015 0.9031,0.3428 0.8459,0.2662 0.3943,0.075 c 0.4801,0.0507 1.1134,-0.1564 1.3626,-0.2988 0.1042,-0.0596 1.1418,-0.7555 1.2735,-1.8746 0.0891,-0.758 -0.0355,-1.1918 -0.0945,-1.6934 l -0.2879,-2.0198 -0.2745,-2.0965 -0.0861,-1.5729 -10e-4,-0.9674 0.017,-0.3303 c 0.002,-0.0165 -0.1027,0.3198 -0.0529,0.1904 0.0182,-0.0473 -0.6016,0.6102 -0.4375,0.5093 l 0.0181,8e-4 c 0.5521,-0.0592 0.5944,-0.0967 1.3352,-0.004 l 1.406,0.3091 c 0.7449,0.3385 1.1529,0.6239 1.6639,1.0838 0.3807,0.3426 0.8116,0.9592 1.3222,1.6676 l 1.2595,1.9853 0.8601,1.3379 0.6689,0.9926 c 0.3588,0.4567 0.6437,0.6668 0.7149,0.7302 l 0.7131,0.5242 c 0.5851,0.3342 -0.0213,0.3569 1.2718,0.3569 0.1056,0 0.5489,0.0572 1.1429,-0.304 0.5371,-0.3266 0.4219,-0.3411 0.4546,-0.3739 0.6921,-0.69 0.5186,-0.3412 0.6579,-1.3156 0.0689,-0.4824 0.0201,-0.7031 0.0201,-0.7542 l -0.003,-0.7716 -0.1129,-1.2204 c -0.0601,-0.4061 -0.1344,-1.032 -0.3345,-1.7523 l -0.7083,-2.0365 -0.8671,-2.3118 -0.8242,-2.008 -0.5091,-1.7863 -0.2472,-1.4097 -0.0787,-1.0474 -0.001,-0.8455 0.009,-0.303 c 0.006,-0.0761 -0.1431,0.4701 -0.0982,0.3739 0.008,-0.0167 -0.0674,0.0172 0.0176,-0.0519 l 0.3878,-0.1531 0.9611,-0.2798 1.1386,-0.0664 1.3441,-0.0212 c 0.525,0.0788 1.0368,0.1979 1.6071,0.4355 0.6519,0.2716 1.3718,0.6398 2.1098,1.1362 0.7527,0.5064 1.6578,1.259 2.5501,2.0282 l 2.6309,2.4498 2.4369,2.6159 c 0.7043,0.8336 1.3505,1.7581 1.995,2.6339 l 1.5585,2.1999 1.1529,1.8229 c 0.441,0.63 0.9427,1.1625 0.9827,1.2083 l 0.7271,0.716 c 1.2988,1.0384 2.7408,0.1729 3.1324,-0.8621 0.3625,-0.9581 -0.007,-1.5371 -0.1985,-1.8438 l -0.5679,-0.8006 -0.8805,-1.1375 -1.2819,-2.1091 -1.2139,-1.9604 -1.1016,-1.9279 -0.8117,-1.5329 -0.8861,-1.8554 -0.5973,-1.7118 -0.417,-1.5695 -0.1625,-1.5945 -0.0888,-1.5975 9e-4,-1.4526 -0.003,-0.9219 0.01,-0.2408 c 0.004,-0.0404 -0.0978,0.3913 -0.0562,0.2594 0.0448,-0.1421 -0.3802,0.6608 -0.2544,0.493 0.1907,-0.2541 -0.9456,0.624 -0.7387,0.5497 0.1734,-0.0622 -0.1974,0.0513 -0.1195,0.0409 l 0.6811,0.0174 h 1.3222 1.4167 l 1.3308,-0.008 1.1886,0.1998 1.3139,0.5876 1.5756,1.0838 1.6268,1.3585 1.6545,1.3776 1.5383,1.4487 1.6429,1.6422 1.7342,1.917 1.8482,2.2181 1.7718,2.2382 1.5997,2.0704 1.3743,1.7643 1.3132,1.4172 c 0.3399,0.354 0.6933,0.7746 1.2145,1.2011 0.5414,0.4429 1.0426,0.693 1.3024,0.8434 0.3039,0.1759 0.6448,0.384 1.1236,0.5436 0.5766,0.1921 0.6409,0.366 1.6816,0.158 0.02,-0.004 0.5399,0.1376 1.2679,-0.6718 0.6143,-0.6829 0.4157,-0.6903 0.4386,-0.7407 0.1416,-0.3116 0.3385,-0.6778 0.3664,-1.5135 0.0218,-0.655 0.0281,-1.4355 -0.1134,-2.426 -0.1439,-1.0073 -0.3932,-2.1667 -0.6991,-3.4066 l -1.1625,-4.1665 -1.3191,-3.9564 -0.9072,-3.4456 -0.4454,-2.6859 -0.1703,-1.5866 c -0.0147,-0.3987 -0.1428,0.2985 -0.0467,0.0582 0.1127,-0.2818 -0.7192,0.8629 -0.4721,0.6552 0.1316,-0.1106 -0.7761,0.389 -0.5426,0.3076 0.241,-0.084 -1.0937,0.0459 -0.8149,0.0831 0.2591,0.0345 0.1207,-0.0228 0.4462,0.1539 0.4747,0.2577 1.1168,0.6625 1.9409,1.2697 0.8841,0.6514 2.0177,1.5299 3.0929,2.4558 l 3.5392,3.2612 3.5397,3.2588 c 1.1088,1.0933 2.197,2.2275 3.0974,3.278 0.8916,1.0402 1.672,2.0693 2.3145,3.0256 0.5793,0.8623 1.0488,1.805 1.4984,2.6544 l 0.8933,1.8794 0.5347,1.2483 0.2231,0.587 0.0217,0.1335 c 0.0235,0.1874 -0.006,-0.2899 -0.009,-0.2626 -0.006,0.0607 -0.1687,0.2766 0.1355,1.038 0.1761,0.4402 0.5268,0.8004 0.7229,0.9511 l 0.107,0.078 c 0.0247,0.0176 -0.2988,-0.2697 -0.1995,-0.1704 0.1198,0.1199 -0.1457,-0.1622 -0.0461,-0.0422 l 0.6184,0.5305 c 0.7754,0.4651 0.2573,0.1114 0.5689,0.236 0.1393,0.0557 -0.3541,-0.1979 -0.311,-0.1674 0.1073,0.076 0.5439,0.3046 0.849,0.3656 0.6461,0.1292 0.6183,0.0386 0.6738,0.0386 h 0.2833 0.3778 0.5666 1.0389 1.0389 0.9445 0.6611 l 0.7653,-0.01 0.3653,-0.0362 c 0.4098,-0.0683 0.9024,-0.3602 1.0583,-0.4849 0.8887,-0.7107 0.6434,-0.8676 0.7008,-1.0419 l 0.1213,-0.5154 0.02,-0.6594 v -0.6611 -0.9445 -0.9444 l -0.0142,-0.8016 0.2381,-1.0763 0.2762,-1.0207 0.4801,-0.8625 c 0.2265,-0.2832 0.2267,-0.2229 0.8645,-0.7625 l 1.086,-0.8671 c 0.4757,-0.2953 0.6728,-0.3706 0.9054,-0.436 0.3394,-0.0954 0.3695,-0.0475 1.2363,-0.1217 l 1.5299,-0.0872 c 0.8302,0 1.2261,-0.0158 1.6018,0.0575 0.4743,0.0926 0.8523,0.2181 1.363,0.4794 0.6352,0.3249 1.3166,0.7253 1.7254,1.1042 0.4315,0.3999 0.9155,1.0716 1.3807,1.7919 0.4144,0.6417 0.8029,1.392 1.049,2.0136 0.2013,0.5087 0.3139,1.1585 0.4754,1.8763 l 0.2279,0.8952 0.0251,0.1244 c 10e-4,0.0151 0.0386,-0.3413 0.015,-0.2141 -0.0168,0.0907 0.2156,-0.3947 0.1364,-0.2937 -0.082,0.1047 0.4941,-0.3132 0.3518,-0.2585 -0.2294,0.0882 -0.002,0.1018 -0.2772,-0.003 -0.6118,-0.2325 -1.611,-0.7556 -2.4501,-1.4589 -0.9488,-0.7954 -2.0286,-1.9833 -3.1449,-3.3323 -1.0629,-1.2842 -2.303,-3.0247 -3.2855,-4.475 -0.9779,-1.4436 -1.9368,-2.9908 -2.4262,-3.9464 -0.6968,-1.3604 -0.8439,-1.8751 -1.291,-3.2835 -0.1219,-0.3839 -0.3911,-1.4425 -0.3809,-1.6678 0.024,-0.529 0.0313,-0.4291 0.0548,-0.4518 0.0865,-0.0836 -0.063,0.008 0.0314,-0.023 l 1.2589,-0.3593 2.4199,-0.5892 c 1.153,-0.1621 1.9604,-0.1377 3.0859,-0.1703 h 3.0965 l 3.3345,0.186 2.7694,0.1905 3.4366,0.0958 c 1.0998,0.0306 2.0162,-0.8363 2.0467,-1.9361 0.0306,-1.0998 -0.8362,-2.0162 -1.9361,-2.0467 l -3.3635,-0.0931 -2.7083,-0.1873 -3.4655,-0.1918 h -3.3257 c -1.0138,0.0294 -2.0748,0.004 -3.5253,0.2075 -1.049,0.1475 -2.395,0.5251 -3.0577,0.733 -0.979,0.3071 -1.9701,0.4534 -2.8652,1.3176 -0.755,0.7289 -1.2112,1.8977 -1.2676,3.1373 -0.0602,1.3247 0.3213,2.2911 0.5636,3.0543 0.4431,1.3959 0.7519,2.351 1.5423,3.8943 0.6314,1.2327 1.6316,2.8262 2.6738,4.3647 1.0283,1.518 2.3071,3.3215 3.5146,4.7806 1.1919,1.4403 2.3887,2.7841 3.655,3.8455 1.2539,1.0511 2.5544,1.7348 3.5943,2.1299 1.2296,0.4673 2.5166,0.2303 3.1228,-0.003 1.0908,-0.4196 1.809,-1.4135 1.9993,-2.4411 0.2406,-1.2992 -0.1935,-1.9386 -0.2986,-2.4057 -0.1277,-0.5677 -0.2622,-1.4683 -0.6579,-2.468 -0.36,-0.9096 -0.8479,-1.8436 -1.4066,-2.7088 -0.5269,-0.8157 -1.1466,-1.7436 -2.0194,-2.5525 -0.8862,-0.8214 -1.8584,-1.34 -2.619,-1.7291 -0.8065,-0.4126 -1.6134,-0.6865 -2.4147,-0.8429 -0.8904,-0.1737 -1.6122,-0.1313 -2.3649,-0.1313 l -1.8701,0.1017 c -0.6649,0.057 -1.1892,0.0351 -1.9748,0.2561 -0.5749,0.1616 -1.2212,0.4475 -1.9279,0.8862 -0.6717,0.4169 -1.2743,0.9703 -1.5585,1.2108 -0.5051,0.4273 -0.9238,0.7173 -1.4021,1.315 -0.3876,0.4846 -0.7276,1.074 -1.031,1.7821 -0.3054,0.7126 -0.4134,1.3597 -0.4794,1.6237 l -0.3286,1.568 c -0.0712,0.5928 -0.0142,0.9503 -0.0142,1.2764 v 0.9444 0.9445 0.6611 l 0.007,0.2765 c 5e-4,0.0135 0.0303,-0.2999 0.0132,-0.1807 -0.0123,0.0865 0.0574,-0.2246 0.0384,-0.1669 -0.0108,0.0328 0.1094,-0.2536 0.0673,-0.1654 -0.0233,0.0489 0.1768,-0.299 0.1159,-0.2057 -0.0667,0.1022 0.6657,-0.6556 0.4118,-0.4525 -0.0133,0.0106 0.3758,-0.2265 0.226,-0.1461 -0.2501,0.1341 0.7548,-0.21 0.679,-0.204 l -0.2366,0.018 c -0.2323,0.0233 0.0791,-0.007 -0.0176,-0.008 l -0.3509,-0.002 h -0.6611 -0.9445 -1.0389 -1.0389 -0.5666 -0.3778 -0.2833 l -0.2181,0.006 0.0502,3e-4 c -0.0472,-0.001 0.4252,0.0622 0.2753,0.0322 -0.2196,-0.0439 0.7342,0.3336 0.6718,0.2894 l -0.5115,-0.28 -0.3147,-0.1036 c -0.0267,-0.009 0.5424,0.2862 0.3162,0.1505 -0.1501,-0.0901 0.4676,0.4258 0.3974,0.3412 l -0.2022,-0.2303 -0.2971,-0.2495 c -0.1277,-0.0982 0.6836,1.0656 0.5489,0.7291 -0.076,-0.1903 0.1368,0.5898 0.1218,0.4699 -0.024,-0.1909 0.008,0.3733 0.0109,0.3295 l -0.005,-0.59 -0.1672,-0.8109 -0.3435,-0.9239 -0.5987,-1.3962 -0.9956,-2.0872 c -0.4197,-0.7927 -0.9562,-1.8863 -1.7126,-3.0121 -0.7353,-1.0945 -1.6066,-2.2417 -2.5966,-3.3967 -1.0049,-1.1724 -2.1607,-2.374 -3.3249,-3.522 -1.1967,-1.1801 -2.4688,-2.2755 -3.638,-3.3524 l -3.6386,-3.3498 c -1.1778,-1.0142 -2.377,-1.9425 -3.3293,-2.6442 -0.9435,-0.6952 -1.733,-1.1997 -2.4035,-1.5637 -0.7056,-0.383 -1.4481,-0.552 -1.8205,-0.6016 -1.4133,-0.1884 -2.1183,0.7283 -2.3964,1.4239 -0.0789,0.1972 -0.2552,1.0369 -0.2355,1.5689 l 0.2075,2.0025 c 0.1114,0.7796 0.2425,1.8177 0.499,2.9807 l 0.9817,3.7322 1.3253,3.977 1.1042,3.9556 0.6231,3.0156 c 0.1021,0.7142 0.0953,1.1388 0.0756,1.7297 -0.006,0.1924 0.05,-0.1376 -0.0115,-0.002 l -0.0959,0.2244 c -4e-4,9e-4 0.2616,-0.4502 0.1388,-0.2598 -0.1049,0.1626 0.7879,-0.7148 0.5456,-0.5531 -0.1776,0.1184 0.5819,-0.2643 0.4642,-0.2259 -0.1561,0.051 0.2116,-0.0548 0.2108,-0.0546 l -0.1239,0.0231 c -0.1572,0.0314 0.3313,-0.0351 0.2808,-0.0334 -0.2269,0.007 0.1682,0.0322 0.0789,0.002 l -0.3874,-0.2119 -0.7756,-0.479 -0.8633,-0.8766 -1.1423,-1.2273 -1.2702,-1.6357 -1.6113,-2.0852 -1.8171,-2.2951 -1.9296,-2.3151 -1.8547,-2.0498 -1.7571,-1.7578 -1.6728,-1.5735 -1.7455,-1.4557 -1.7732,-1.4749 c -0.6154,-0.4657 -1.2786,-0.9547 -2.0133,-1.3717 -0.6803,-0.3862 -1.381,-0.702 -2.086,-0.9235 -0.7649,-0.2404 -1.4564,-0.3154 -2.0225,-0.3669 -0.733,-0.0666 -1.3092,-0.008 -1.6915,-0.008 h -1.4167 -1.3222 c -0.2761,0 -0.6013,-0.0634 -1.2078,0.0174 -0.3247,0.0434 -1.2247,0.1978 -1.8026,0.9683 -0.6776,0.9035 -0.48,1.484 -0.4894,1.6451 l -0.004,1.1558 9e-4,1.5697 0.1001,1.8024 c 0.0453,0.5587 0.0753,1.2342 0.2153,1.9944 0.1343,0.7288 0.3339,1.3905 0.5274,2.0194 l 0.7249,2.066 1.0028,2.1113 0.8883,1.6782 1.1651,2.0387 1.2416,2.0062 1.3626,2.2354 1.0083,1.318 0.3766,0.5217 c 0.0674,0.1078 -0.2818,-0.7699 -0.218,-0.5167 0.0511,0.2032 0.0297,-1.1385 -0.0286,-0.8067 -0.0454,0.2584 0.5262,-1.0657 0.3398,-0.8063 -0.1411,0.1964 0.7372,-0.6388 0.5303,-0.5049 -0.3097,0.2003 1.425,-0.3217 1.0463,-0.3166 -0.1919,0.003 0.8138,0.1499 0.6036,0.0858 -0.2145,-0.0654 0.878,0.5222 0.66,0.3479 -0.2774,-0.2219 0.0991,0.1332 -0.2169,-0.228 l -0.7173,-0.8695 -1.1137,-1.7658 -1.6526,-2.3335 c -0.6098,-0.8288 -1.3096,-1.8366 -2.1606,-2.8439 -0.8233,-0.9746 -1.7565,-1.9553 -2.6631,-2.8619 l -2.8468,-2.6502 c -0.9314,-0.803 -1.92,-1.6384 -2.9277,-2.3163 -0.977,-0.6573 -1.9315,-1.1458 -2.8013,-1.5082 -0.9268,-0.3862 -1.7959,-0.585 -2.5484,-0.6979 -0.9328,-0.1399 -1.6557,-0.0332 -2.0559,-0.0211 -0.488,0.0148 -1.0388,0.009 -1.6949,0.1225 -0.6515,0.1123 -1.2192,0.3017 -1.6832,0.4757 -0.4098,0.1536 -0.939,0.3346 -1.5012,0.7914 -0.5962,0.4844 -0.8945,0.9853 -1.1157,1.4592 -0.3071,0.6581 -0.2719,1.2793 -0.2783,1.3931 l -0.001,1.2323 0.1102,1.4082 0.3195,1.8014 0.6242,2.1803 0.8758,2.1476 0.8329,2.2215 0.6139,1.7413 0.2322,1.2699 0.076,0.8574 -0.003,0.5506 c 0,0.3165 0.0472,10e-5 0.02,0.1905 -0.0346,0.2425 0.1594,-0.5287 0.1237,-0.4458 -0.0472,0.1097 0.1201,-0.2235 0.0979,-0.1881 l 0.0352,-0.0529 0.0326,-0.0447 c -0.0178,0.0236 0.372,-0.3984 0.1817,-0.2086 l -0.0983,0.1026 c -0.0161,0.0173 0.3542,-0.3018 0.2138,-0.1934 -0.2363,0.1825 1.1064,-0.4115 0.8774,-0.3766 -0.1932,0.0295 0.2363,-0.0196 0.2249,-0.0196 -0.2826,0 0.4434,0.0509 0.391,0.0399 -0.2218,-0.0467 0.7365,0.3694 0.3137,0.1279 -0.1593,-0.091 0.1587,0.1363 -0.0423,-0.0424 l -0.2292,-0.214 -0.4646,-0.7075 -0.8398,-1.3065 c -0.3332,-0.5216 -0.8027,-1.3626 -1.3851,-2.1703 -0.4684,-0.6497 -1.0165,-1.514 -1.8888,-2.2991 -0.7396,-0.6656 -1.6041,-1.2602 -2.6806,-1.7495 -1.0425,-0.4738 -1.959,-0.5602 -2.5605,-0.6354 -1.0439,-0.1304 -1.7832,-0.0544 -2.2538,-0.004 -0.669,0.0717 -1.227,0.2875 -1.682,0.5676 -0.5582,0.3434 -1.0219,1.0089 -1.193,1.4536 -0.2536,0.6593 -0.211,1.0968 -0.2247,1.3713 l -0.001,1.2992 0.1027,1.827 0.2922,2.248 0.2787,1.9469 0.0945,0.7623 c -0.0345,0.2933 0.7101,-1.1587 0.471,-0.9286 -0.1123,0.1081 0.3398,-0.2496 0.2776,-0.2126 -0.052,0.0309 0.0647,-0.0389 -0.0419,0.0221 -0.0482,0.0275 0.5604,-0.2035 0.3605,-0.1476 -0.159,0.0444 0.6925,-0.0623 0.5248,-0.066 -0.2354,-0.005 0.3486,0.0433 0.3473,0.043 l -0.2312,-0.0533 -0.2872,-0.1115 -0.6082,-0.2239 -1.0599,-0.5319 -0.9684,-0.4741 c -0.4993,-0.3121 -0.913,-0.5661 -1.7091,-1.1956 l -2.0706,-1.8028 c -1.2119,-1.0976 -1.7438,-1.5075 -2.7274,-2.5412 -0.6815,-0.7161 -1.6733,-1.9422 -2.6534,-3.1152 l -3.0099,-3.6684 -3.4285,-4.1895 c -1.1435,-1.3341 -2.3533,-2.7394 -3.5039,-3.89 -1.1332,-1.1332 -2.2602,-2.0699 -3.1359,-2.7311 -0.7376,-0.557 -1.4888,-1.2402 -2.7416,-1.3405 -1.4068,-0.1125 -1.8159,0.6256 -2.1255,1.0125 -0.298,0.3725 -0.5334,0.6857 -0.6564,1.3827 -0.1732,0.9816 -0.0771,1.813 0.0799,3.0523 0.133,1.0492 0.4156,2.6868 0.7835,4.4144 l 1.4384,6.0414 1.9959,7.0347 2.2714,7.7603 2.1795,7.2018 c 0.6969,2.2392 1.2132,4.2632 2.3019,7.1866 0.7169,1.925 2.1345,5.1708 2.9036,6.7764 1.1577,2.4172 2.0537,3.9192 2.6891,4.8723 0.4596,0.6894 0.8711,1.2171 1.3183,1.6396 0.4467,0.422 0.9963,1.2164 2.5069,0.7721 0.752,-0.2212 1.3267,-0.963 1.4917,-1.474 0.4147,-1.2848 0.0671,-1.8464 -0.0855,-2.8226 -0.1409,-0.9016 -0.4767,-2.4502 -1.0026,-4.225 -0.5018,-1.6934 -1.0756,-3.8804 -2.1514,-6.4395 -1.0814,-2.5723 -2.481,-5.5696 -4.2461,-8.7818 -1.8072,-3.2888 -4.0364,-7.0273 -6.4116,-10.6221 -2.3828,-3.6065 -5.1627,-7.601 -7.7612,-10.8243 -2.5553,-3.1699 -5.2177,-5.9678 -7.4705,-8.0512 -2.1599,-1.9975 -4.1451,-3.332 -5.7842,-4.1135 -1.7604,-0.8392 -3.592,-0.598 -4.6167,-0.06 -1.8406,0.9663 -1.8133,2.6421 -1.9734,3.4583 -0.1685,0.8592 -0.3264,2.0962 0.0138,3.5702 0.2661,1.153 0.5916,2.8584 1.9115,5.1682 0.9322,1.6313 2.9503,4.3596 4.2812,5.7027 2.4828,2.5055 4.1572,3.9188 6.7423,5.4204 2.1154,1.2289 4.9049,2.0652 7.0566,2.5767 2.1342,0.5073 4.0824,0.5525 5.6297,0.4251 1.7981,-0.1481 2.9596,-0.9265 3.5798,-1.1673 0.6405,-0.2486 0.8548,-0.0964 1.7169,-1.0064 0.7879,-0.8317 0.9947,-1.6617 1.0035,-1.6776"
         style="fill:#000000;fill-opacity:1;fill-rule:nonzero;stroke:none"
         id="path872" />
      <path
         d="m 259.8845,637.5725 c -0.3023,1.058 0.3103,2.1606 1.3683,2.4628 1.0579,0.3023 2.1605,-0.3103 2.4628,-1.3683 0.0485,-0.17 -0.1005,0.2468 -0.0968,0.2407 0.0743,-0.1248 0.7623,-1.3053 0.3339,-2.4683 -0.3857,-1.0467 -0.9766,-1.2685 -1.6852,-1.7557 l -4.4172,-2.8811 c -0.919,-0.5743 -1.5318,-0.8286 -1.5918,-0.8717 -0.1069,-0.0771 0.0357,0.0904 -0.1168,-0.1638 -0.1008,-0.168 0.0411,0.1662 -0.0311,-0.0181 -0.0894,-0.2283 -0.0465,1.2423 0.0379,0.9677 0.0561,-0.1822 -0.1849,0.4092 -0.1471,0.343 0.1842,-0.3221 -0.7098,0.4823 -0.3338,0.3032 l 0.9605,-0.2249 c 0.346,-0.071 1.11,-0.0824 2.3559,-0.3982 1.2999,-0.3296 3.0367,-0.9028 4.5181,-1.3441 1.0544,-0.3141 1.6546,-1.4235 1.3405,-2.478 -0.3141,-1.0544 -1.4235,-1.6546 -2.478,-1.3405 l -4.3597,1.3004 c -0.8802,0.2231 -1.312,0.1798 -2.1774,0.3573 -0.5388,0.1105 -1.1507,0.1868 -1.8729,0.5307 -0.8878,0.4228 -1.1952,0.4175 -1.6142,1.7794 -0.3359,1.0916 0.296,2.1243 0.3847,2.2721 0.1336,0.2227 0.5589,0.8818 1.2053,1.3472 0.7264,0.523 1.1937,0.633 1.8082,1.0171 l 4.2717,2.7856 0.5461,0.3958 c 0.008,0.007 -0.1607,-0.1855 -0.093,-0.1019 0.0768,0.0949 -0.317,-0.6276 -0.2494,-0.444 0.0599,0.1626 -0.0377,-0.8799 -0.0678,-0.6496 -0.0218,0.1673 0.1394,-0.4534 0.1046,-0.3763 -0.0753,0.167 -0.1586,0.0543 -0.3663,0.7815"
         style="fill:#000000;fill-opacity:1;fill-rule:nonzero;stroke:none"
         id="path874" />
    </g>
  </g>
</svg>
