<?xml version="1.0" encoding="UTF-8" standalone="no"?>
<!-- Created with Inkscape (http://www.inkscape.org/) -->

<svg
   width="79.773918mm"
   height="33.815838mm"
   viewBox="0 0 79.773918 33.815838"
   version="1.1"
   id="svg1140"
   inkscape:version="1.1.2 (b8e25be833, 2022-02-05)"
   sodipodi:docname="portfolio.svg"
   xmlns:inkscape="http://www.inkscape.org/namespaces/inkscape"
   xmlns:sodipodi="http://sodipodi.sourceforge.net/DTD/sodipodi-0.dtd"
   xmlns="http://www.w3.org/2000/svg"
   xmlns:svg="http://www.w3.org/2000/svg">
  <sodipodi:namedview
     id="namedview1142"
     pagecolor="#ffffff"
     bordercolor="#666666"
     borderopacity="1.0"
     inkscape:pageshadow="2"
     inkscape:pageopacity="0.0"
     inkscape:pagecheckerboard="0"
     inkscape:document-units="mm"
     showgrid="false"
     fit-margin-top="0"
     fit-margin-left="0"
     fit-margin-right="0"
     fit-margin-bottom="0"
     inkscape:zoom="2.5620932"
     inkscape:cx="167.63637"
     inkscape:cy="131.14277"
     inkscape:window-width="1920"
     inkscape:window-height="1057"
     inkscape:window-x="-8"
     inkscape:window-y="-8"
     inkscape:window-maximized="1"
     inkscape:current-layer="layer1" />
  <defs
     id="defs1137" />
  <g
     inkscape:label="Layer 1"
     inkscape:groupmode="layer"
     id="layer1"
     transform="translate(-1.4204139,-2.0934721)">
    <g
       id="g1135"
       transform="matrix(0.35277777,0,0,-0.35277777,-48.293249,274.58931)">
      <path
         d="m 157.0108,731.5094 c 0.252,1.071 1.3245,1.735 2.3955,1.483 1.071,-0.252 1.7349,-1.3245 1.4829,-2.3956 l -0.5698,-2.4214 c -0.1871,-0.7719 -0.415,-2.0941 -0.9744,-3.9348 -0.7852,-2.5839 -1.4866,-4.9785 -3.1465,-9.6294 -1.9256,-5.3951 -5.3593,-14.2774 -7.3693,-19.8406 -1.1483,-3.1781 -1.4648,-4.2169 -1.9389,-5.9059 -0.4646,-1.6552 -0.713,-3.0739 -1.0011,-4.5624 l -0.6442,-3.9599 -0.231,-1.5119 c -0.0232,-0.1692 -0.035,0.1043 -0.0258,-0.1073 0.003,-0.0751 -0.1699,0.7343 -0.0839,0.4629 0.0361,-0.1142 -0.3223,0.6303 -0.2064,0.4454 0.1082,-0.1725 -0.8153,0.7595 -0.5451,0.5716 0.2453,-0.1706 -1.2335,0.3797 -0.9029,0.3414 0.2858,-0.0331 -0.9859,-0.1243 -0.7701,-0.0627 0.3576,0.102 -0.8519,-0.4896 -0.7103,-0.3727 0.1928,0.1591 -0.3845,-0.4273 -0.3284,-0.3494 0.0508,0.0706 -0.1114,-0.1772 -0.0941,-0.1465 l 1.7613,4.7322 c 0.3885,1.0294 1.5379,1.549 2.5673,1.1605 1.0294,-0.3884 1.549,-1.5378 1.1605,-2.5672 -0.6427,-1.7032 -1.2788,-3.9676 -2.0164,-5.2789 l -0.2831,-0.4007 c -0.176,-0.1983 -0.5038,-0.6776 -1.498,-0.6858 -1.0071,-0.008 -1.6892,0.8222 -1.8581,1.2105 -0.4584,1.0534 -0.175,1.0444 -0.155,1.248 l 0.274,1.8654 0.6779,4.1623 c 0.2814,1.4534 0.5546,3.0218 1.0768,4.882 0.4827,1.7199 0.8638,2.9617 2.0277,6.183 2.0365,5.6364 5.4713,14.5229 7.3641,19.8261 1.6344,4.5794 2.2948,6.8421 3.0868,9.4484 0.495,1.6291 0.6763,2.7329 0.9144,3.7151 z"
         style="fill:#000000;fill-opacity:1;fill-rule:nonzero;stroke:none"
         id="path846" />
      <path
         d="m 151.4053,723.694 c -0.4653,-0.997 -1.6507,-1.4281 -2.6478,-0.9628 -0.997,0.4653 -1.4281,1.6507 -0.9628,2.6477 0.2383,0.5106 0.4343,1.217 1.0887,2.3075 0.2883,0.4805 0.7647,1.1281 1.4923,1.9491 0.9783,1.104 2.0258,2.4556 4.0083,4.2948 0.9598,0.8904 2.9718,2.4658 4.1998,3.3025 1.9175,1.3064 3.4066,2.1908 4.9003,2.8946 1.5369,0.7244 2.8151,0.9642 3.9311,1.2579 1.269,0.3339 2.6834,0.6529 3.8368,0.8042 0.9193,0.1206 1.9627,0.4659 3.3005,-0.1827 0.9717,-0.4711 2.0675,-1.7955 2.0675,-3.3037 0,-1.2723 -0.3741,-2.7166 -1.1319,-4.3379 -0.7569,-1.6196 -1.8919,-3.6662 -3.3381,-5.5601 -1.4332,-1.8768 -3.2488,-3.8328 -5.0688,-5.4675 -1.8607,-1.6711 -3.9471,-3.0285 -5.6058,-4.1396 -1.6907,-1.1326 -3.2238,-1.9353 -4.4857,-2.6364 -1.3803,-0.7668 -2.5623,-1.243 -3.2255,-1.653 -0.8342,-0.5157 -1.0316,-0.6125 -1.3639,-1.0397 -0.2558,-0.3289 -0.6617,-1.3522 -1.2197,-2.431 -0.5055,-0.9773 -1.7075,-1.3598 -2.6847,-0.8543 -0.9773,0.5055 -1.3598,1.7075 -0.8543,2.6848 0.3987,0.7708 0.7513,1.938 1.6136,3.0467 0.734,0.9436 1.5937,1.4755 2.4139,1.9826 1.1007,0.6804 2.2468,1.1142 3.3856,1.7469 1.309,0.7272 2.7078,1.4619 4.2032,2.4636 1.664,1.1148 3.5973,2.3894 5.1609,3.7937 1.6186,1.4538 3.3088,3.277 4.5645,4.9214 1.2117,1.5867 2.2465,3.441 2.8953,4.8289 0.5653,1.2097 0.757,2.1761 0.757,2.6509 0,0.0756 0.2459,-0.3141 0.1786,-0.2814 -0.1614,0.0782 0.2094,-0.0488 0.0379,-0.0562 l -1.0819,-0.1265 c -0.8482,-0.1113 -2.1958,-0.4055 -3.341,-0.7069 -1.2594,-0.3314 -2.1555,-0.4946 -3.2466,-1.0088 -1.27,-0.5986 -2.543,-1.3485 -4.3553,-2.5832 -0.9321,-0.6351 -3.1269,-2.368 -3.7335,-2.9308 -1.7907,-1.6613 -2.6489,-2.7894 -3.7362,-4.0163 -0.586,-0.6614 -0.9701,-1.2106 -1.0576,-1.3565 -0.4513,-0.7521 -0.4995,-1.0955 -0.8947,-1.9425"
         style="fill:#000000;fill-opacity:1;fill-rule:nonzero;stroke:none"
         id="path848" />
      <path
         d="m 189.5915,728.6206 c 0.5343,-0.9618 0.1878,-2.1746 -0.774,-2.709 -0.9618,-0.5343 -2.1746,-0.1878 -2.709,0.774 -0.2758,0.4965 -0.3422,0.8348 -0.3629,0.8883 l 0.1426,-0.1942 c -0.4408,0.3568 -0.4002,0.4182 -0.4044,0.4232 -0.0129,0.0155 0.2462,-0.2172 0.1538,-0.1453 -0.1516,0.1181 0.8947,-0.2861 0.6561,-0.2629 -0.2235,0.0218 0.3507,0.0298 0.3328,0.0224 -1.3918,-0.5742 -3.6915,-1.6326 -4.8841,-2.7369 -0.5153,-0.4771 -0.9875,-1.6612 -1.6984,-3.2983 -0.2495,-0.5746 -0.6648,-2.1362 -0.8291,-2.8592 -0.3068,-1.3496 -0.4593,-2.1158 -0.4326,-2.3825 0.0321,-0.3213 -0.0845,-0.108 0.2119,-0.3468 0.3851,-0.3102 0.8531,-0.5668 1.3519,-0.6035 0.7975,-0.0586 2.0732,0.0803 3.1644,0.4609 1.1454,0.3996 2.5299,1.1245 3.5792,1.9508 1.0764,0.8477 2.1775,2.0972 3.0061,3.2686 0.7772,1.0988 1.3603,2.3693 1.8454,3.6274 0.4354,1.1293 0.7622,2.4838 0.8166,3.2101 0.0932,1.2426 -0.0281,1.6555 -0.3446,3.2381 l -0.7025,2.2044 -0.6057,1.0667 c -0.006,0.007 0.1666,-0.1542 0.1005,-0.099 -0.1118,0.0933 0.8151,-0.3101 0.5711,-0.2637 -0.2402,0.0456 0.6229,0.0453 0.5339,0.0178 -0.2165,-0.0669 0.107,0.0481 -0.0648,-0.0945 -0.6324,-0.5245 -1.6171,-1.7127 -2.67,-2.6802 -0.8101,-0.7444 -2.0704,-0.6912 -2.8148,0.119 -0.7445,0.8101 -0.6912,2.0704 0.1189,2.8148 1.0254,0.9423 1.8638,2.9088 4.2541,3.6476 1.1039,0.3412 2.5804,-0.3318 3.1074,-1.0043 0.4766,-0.6083 0.6611,-1.0968 0.8924,-1.485 0.7093,-1.1905 0.9976,-2.518 1.1865,-3.4622 0.3104,-1.5522 0.5338,-2.6777 0.4109,-4.3175 -0.1012,-1.3483 -0.509,-2.8844 -1.0723,-4.3454 -0.5497,-1.4259 -1.2544,-3.0024 -2.3101,-4.4949 -1.0118,-1.4305 -2.298,-2.92 -3.7939,-4.0981 -1.4648,-1.1535 -3.1515,-2.0312 -4.732,-2.5825 -1.6587,-0.5787 -3.3338,-0.778 -4.7689,-0.6725 -1.5887,0.1168 -2.7872,0.8524 -3.5592,1.4743 -0.8142,0.6558 -1.556,1.8436 -1.677,3.0532 -0.1301,1.3013 0.215,2.3558 0.5119,3.6619 0.1968,0.8662 0.5454,2.3785 1.0597,3.5631 0.6476,1.4915 1.1398,3.2403 2.6461,4.635 1.9583,1.8133 4.5449,2.8666 6.0714,3.4965 0.8551,0.3528 1.9947,0.3275 2.7355,-0.1299 0.3488,-0.2154 0.5716,-0.4599 0.7017,-0.616 l 0.095,-0.118 c 0.007,-0.009 -0.4466,0.4043 -0.2439,0.2402 0.5396,-0.4368 0.9057,-1.0478 1.0685,-1.4702 z"
         style="fill:#000000;fill-opacity:1;fill-rule:nonzero;stroke:none"
         id="path850" />
      <path
         d="m 211.6589,713.4865 c 0,-1.1003 -0.892,-1.9922 -1.9922,-1.9922 -1.1003,0 -1.9922,0.8919 -1.9922,1.9922 v 0.9916 l 7e-4,0.8427 -0.0912,2.4783 -0.282,3.3808 -0.2876,4.425 c -0.0458,1.4059 -0.194,2.9894 0.0143,4.6564 0.1933,1.546 0.5723,3.0942 1.1884,4.5131 0.6021,1.3867 1.4206,2.6918 2.4589,3.7877 1.067,1.1263 2.3374,1.9459 3.5567,2.5735 1.3162,0.6774 2.6746,1.0352 3.8738,1.3054 1.2032,0.2712 2.3841,0.4265 3.7435,0.4265 1.5046,0 3.0263,-0.2669 4.3359,-0.3859 1.0958,-0.0996 1.9033,-1.0687 1.8037,-2.1644 -0.0997,-1.0957 -1.0687,-1.9033 -2.1644,-1.8036 -1.4872,0.1352 -2.9496,0.3696 -3.9752,0.3696 -1.0785,0 -1.8724,-0.1048 -2.8676,-0.3291 -1.0532,-0.2373 -2.0976,-0.5347 -2.9263,-0.9612 -0.9362,-0.4819 -1.8498,-1.0978 -2.4876,-1.771 -0.6693,-0.7064 -1.2616,-1.6323 -1.6967,-2.6344 -0.4312,-0.9931 -0.737,-2.2011 -0.8894,-3.4204 -0.1404,-1.1232 -0.035,-2.5206 0.0143,-4.0324 l 0.2791,-4.264 0.2846,-3.4191 0.0977,-2.6217 8e-4,-0.9518 z"
         style="fill:#000000;fill-opacity:1;fill-rule:nonzero;stroke:none"
         id="path852" />
      <path
         d="m 242.8918,771.0089 c 0.3162,1.0539 1.4268,1.6519 2.4807,1.3357 1.0538,-0.3161 1.6518,-1.4267 1.3357,-2.4806 l -0.3823,-1.2479 c -0.1039,-0.5021 -0.057,-0.0164 -0.1025,-1.0097 -0.3121,-6.8115 -0.5195,-14.6417 -0.9453,-22.4013 -0.1507,-2.7468 -0.5075,-5.8324 -0.7605,-8.6627 l -0.7549,-8.3039 -0.6613,-8.2185 -0.5727,-6.0095 c -0.1744,-1.4903 -0.3683,-2.4412 -0.4974,-3.087 -0.1039,-0.5194 -0.2606,-0.9146 -0.3813,-1.1904 l -0.1686,-0.3455 -0.1463,-0.2226 c -0.0768,-0.1015 0.5794,-1.2643 -1.9802,-0.7516 -3.0071,0.6023 -1.5816,2.2783 -1.5403,2.4416 0.2242,0.8878 0.1717,0.4508 0.2151,0.5336 l 1.2817,2.7514 c 0.4653,0.9971 1.6507,1.4281 2.6477,0.9629 0.9971,-0.4653 1.4281,-1.6508 0.9628,-2.6478 l -1.3627,-2.9152 -0.008,-0.0144 c -0.007,-0.0138 0.1067,0.2661 0.0594,0.1405 -0.0142,-0.0377 0.1033,0.3602 0.069,0.2219 -0.0413,-0.1668 -4.538,2.9857 -1.5719,2.4379 2.3484,-0.4336 -2.0135,-0.8372 -1.9298,-0.7302 0.1277,0.1629 -0.1662,-0.2483 -0.1488,-0.2187 0.1643,0.2803 0.0618,0.1619 0.095,0.328 0.1312,0.6563 0.2888,1.4166 0.447,2.7687 l 0.5606,5.8904 0.661,8.2148 0.7562,8.3183 c 0.2582,2.8896 0.6091,5.9477 0.7506,8.5263 0.422,7.69 0.6291,15.5034 0.9435,22.3653 0.0515,1.1243 0.1488,1.4797 0.1809,1.6348 0.173,0.8357 0.3785,1.288 0.4677,1.5854"
         style="fill:#000000;fill-opacity:1;fill-rule:nonzero;stroke:none"
         id="path854" />
      <path
         d="m 251.6,735.8786 c 1.1003,0 1.9922,-0.8919 1.9922,-1.9921 0,-1.1003 -0.8919,-1.9922 -1.9922,-1.9922 h -0.7083 l -0.9263,2e-4 c -1.5987,0.0233 -3.41,6e-4 -5.6288,0.0961 l -3.2909,0.2883 -3.5139,0.2785 -6.7649,0.1876 c -1.0998,0.0306 -1.9666,0.9469 -1.9361,2.0468 0.0306,1.0998 0.9469,1.9666 2.0467,1.9361 l 6.8352,-0.1902 c 1.6613,-0.0755 2.2958,-0.1742 3.6639,-0.2882 l 3.1312,-0.2782 c 2.1042,-0.0905 3.8502,-0.0685 5.5157,-0.0929 l 0.8682,2e-4 z"
         style="fill:#000000;fill-opacity:1;fill-rule:nonzero;stroke:none"
         id="path856" />
      <path
         d="m 283.0247,745.986 c -0.2027,-1.0814 -1.2438,-1.7937 -2.3252,-1.5909 -1.0814,0.2027 -1.7937,1.2438 -1.5909,2.3252 0.2029,1.0819 0.4045,1.1987 0.3913,1.8596 -0.004,0.1771 -0.1187,0.9939 -0.4121,1.8491 -0.5903,1.721 -1.0304,3.3295 -2.1334,5.3632 -0.6953,1.2819 -2.061,3.1666 -3.6166,5.2273 -0.8534,1.1305 -2.6727,3.2749 -3.346,3.9808 -1.1077,1.1613 -1.3304,1.2265 -2.0431,1.7132 l -0.6154,0.4142 c -0.002,9e-4 0.3101,-0.0822 0.1838,-0.057 -0.1381,0.0275 0.6598,0.0471 0.4967,0.009 -0.2176,-0.0507 0.2407,0.4001 0.1317,0.0401 -0.2234,-0.737 -0.3627,-2.2735 -0.4842,-4.4446 -0.127,-2.2701 -0.2013,-5.3208 -0.1858,-8.4734 0.0159,-3.2373 0.1389,-6.9835 0.2818,-10.6034 l 0.5652,-10.8292 0.5678,-9.5624 c 0.122,-2.7902 0.3262,-5.5185 0.1875,-7.9451 -0.133,-2.328 -0.4184,-4.4493 -1.085,-6.1073 -0.7959,-1.9796 -1.8678,-3.0822 -3.2026,-4.3725 -1.0502,-1.0152 -2.4022,-1.7652 -3.6018,-2.2232 -0.5918,-0.226 -1.1379,-0.4556 -1.8486,-0.5586 -0.7556,-0.1096 -2.0274,0.1452 -2.6986,1.0044 -0.9247,1.1836 -0.6389,2.0129 -0.604,2.7196 l 0.0881,1.6593 c -0.0323,1.0998 0.833,2.0176 1.9328,2.0499 1.0998,0.0324 2.0175,-0.8329 2.0499,-1.9327 0.0223,-0.7568 -0.0649,-1.4376 -0.0913,-1.973 l -0.002,-0.5259 c 0.003,-0.0271 -0.0334,0.1111 -0.014,0.0469 0.0235,-0.0775 -0.3659,0.5956 -0.22,0.4088 0.1397,-0.1788 -0.905,0.5142 -0.6621,0.444 0.1694,-0.0489 -0.3806,0.0402 -0.3339,0.0433 l 0.9822,0.3362 2.2537,1.3657 c 1.3536,1.3084 1.685,1.5262 2.2752,2.9941 0.3595,0.8944 0.6856,2.7792 0.8038,4.8483 0.1172,2.0501 -0.066,4.7037 -0.1902,7.5438 l -0.5655,9.5154 -0.5682,10.893 c -0.1437,3.6414 -0.2686,7.4226 -0.2848,10.741 -0.0159,3.2298 0.059,6.3386 0.1919,8.7155 0.1244,2.223 0.2075,3.9198 0.6492,5.3776 0.4707,1.5532 2.0357,2.5118 2.7761,2.6846 1.5942,0.3719 2.5121,-0.5632 3.0873,-0.9561 0.5403,-0.3689 1.3819,-0.8934 2.6792,-2.2534 0.907,-0.9509 2.6336,-2.9933 3.6429,-4.3303 1.5882,-2.1039 3.0249,-4.043 3.939,-5.7283 1.3064,-2.4087 1.8551,-4.3821 2.3998,-5.9701 0.4193,-1.2222 0.6104,-2.2387 0.6269,-3.0621 0.0288,-1.4421 -0.3893,-2.3033 -0.4588,-2.6736"
         style="fill:#000000;fill-opacity:1;fill-rule:nonzero;stroke:none"
         id="path858" />
      <path
         d="m 277.5566,730.6362 c 1.0215,-0.4087 1.5184,-1.5681 1.1098,-2.5896 -0.4087,-1.0216 -1.5681,-1.5185 -2.5896,-1.1098 -0.5527,0.221 -0.2418,0.1507 -0.4247,0.1938 l -0.5233,0.0432 -5.9029,0.1875 -4.687,-4e-4 -4.084,2e-4 c -1.7291,0.0198 -3.0763,-0.0653 -4.3976,0.112 -1.7487,0.2346 -2.8424,0.7322 -3.831,0.9923 -1.064,0.28 -1.6996,1.3696 -1.4196,2.4336 0.28,1.0641 1.3696,1.6996 2.4336,1.4196 1.3468,-0.3544 2.1145,-0.7312 3.3468,-0.8965 0.7791,-0.1045 2.0848,-0.0559 3.9136,-0.0769 l 4.0382,10e-5 4.7575,-3e-4 5.9971,-0.1903 1.2712,-0.1457 c 0.6491,-0.1527 0.8763,-0.3266 0.9919,-0.3728"
         style="fill:#000000;fill-opacity:1;fill-rule:nonzero;stroke:none"
         id="path860" />
      <path
         d="m 292.8355,730.4212 c 0.4334,1.0113 1.6046,1.4798 2.6159,1.0464 1.0113,-0.4334 1.4798,-1.6045 1.0464,-2.6158 -0.0423,-0.0986 0.0744,0.2004 -0.0177,-0.1347 -0.1054,-0.3835 -0.3221,-0.8042 -0.6004,-1.2062 -0.9369,-1.3532 -0.8232,-0.648 -1.1571,-1.271 -1.4611,-2.7267 -3.3486,-6.3271 -4.6285,-9.5267 l 0.0501,-0.738 c 0.1551,-0.4914 -0.003,-0.2568 0.1972,-0.3673 0.1806,-0.0998 0.7627,-0.2567 1.3956,-0.226 0.8236,0.0398 1.8987,0.2319 2.6799,0.5829 0.9221,0.4143 1.8741,1.0123 2.4188,1.6495 0.5646,0.6605 1.0978,1.8157 1.5201,3.0389 0.4046,1.1722 0.6905,2.4721 0.7428,3.6856 0.0528,1.2292 -0.1491,2.6704 -0.4329,4.0447 -0.2712,1.313 -0.6976,2.6621 -1.1849,3.7342 -0.4587,1.0092 -1.101,1.9708 -1.6781,2.6396 -0.5875,0.681 -1.0799,1.0423 -1.2754,1.1054 -0.5577,0.1799 -1.6535,0.0173 -3.1738,0.0953 -1.0988,0.0563 -1.9439,0.9928 -1.8875,2.0916 0.0563,1.0988 0.9928,1.9439 2.0916,1.8875 0.9411,-0.0482 2.4193,0.2897 4.1929,-0.2824 1.3706,-0.4422 2.282,-1.3825 3.069,-2.2946 0.8349,-0.9677 1.6531,-2.1958 2.2886,-3.5937 0.6366,-1.4006 1.1315,-2.9884 1.4596,-4.577 0.3203,-1.5508 0.5867,-3.2747 0.5115,-5.0219 -0.0727,-1.691 -0.4461,-3.334 -0.9572,-4.8145 -0.499,-1.4456 -1.1345,-3.0138 -2.2577,-4.3277 -1.1272,-1.3186 -2.5564,-2.1297 -3.8145,-2.6949 -1.4296,-0.6423 -2.9003,-0.8692 -4.1202,-0.9282 -1.2703,-0.0615 -2.4691,0.1402 -3.5154,0.7184 -0.9564,0.5285 -1.7439,1.6238 -2.0695,2.6549 -0.2806,0.8887 -0.5312,1.9644 0.0501,3.4175 1.3908,3.4772 3.333,7.1617 4.8159,9.9289 0.3866,0.7214 0.8388,1.2561 1.2301,1.6061 l 0.4102,0.3338 c 0.0375,0.0318 -0.3565,-0.4408 -0.2472,-0.2829 0.2116,0.3056 -0.1171,-0.1718 0.2317,0.6423"
         style="fill:#000000;fill-opacity:1;fill-rule:nonzero;stroke:none"
         id="path862" />
      <path
         d="m 317.1293,763.089 c 0.3236,1.0516 1.4384,1.6418 2.49,1.3182 1.0515,-0.3236 1.6417,-1.4384 1.3181,-2.49 l -0.538,-1.7389 -0.2729,-1.5143 -1.6058,-6.8013 -1.6045,-7.3619 -2.0719,-9.0397 c -0.5245,-2.5021 -0.8421,-4.4788 -1.2145,-6.6358 l -1.0288,-6.3578 c -0.24,-1.7245 -0.3614,-3.3601 -0.4634,-4.3655 l -0.188,-1.4477 c -0.0315,-0.2272 -0.0838,0.1977 -0.0437,0.0272 0.0302,-0.128 -0.2537,0.6178 -0.1664,0.4493 0.0876,-0.1692 -0.5671,0.6876 -0.3914,0.5207 0.1728,-0.1642 -0.8319,0.4857 -0.6096,0.3945 0.2126,-0.0871 -0.796,0.1553 -0.6102,0.1424 0.3438,-0.0238 -0.929,-0.1553 -0.7582,-0.0974 0.2881,0.0975 -0.5549,-0.299 -0.4785,-0.244 0.202,0.1454 -0.1216,-0.0994 -0.0462,-0.0201 l 0.4126,0.4011 c 0.8453,0.7044 2.1015,0.5902 2.8058,-0.2551 0.7044,-0.8452 0.5901,-2.1014 -0.2551,-2.8058 l -0.2036,-0.2178 -0.4823,-0.4019 c -0.1748,-0.1129 -0.4322,-0.3488 -1.1591,-0.3384 -0.8359,0.012 -1.7997,0.98 -1.9362,1.5597 -0.2664,1.1326 0.0345,1.6357 0.1461,2.7355 0.0922,0.9093 0.2204,2.6393 0.481,4.5123 l 1.0489,6.4867 c 0.3685,2.1341 0.6974,4.181 1.2411,6.7753 l 2.0837,9.0937 1.6066,7.3713 1.6053,6.7988 0.2937,1.6023 z"
         style="fill:#000000;fill-opacity:1;fill-rule:nonzero;stroke:none"
         id="path864" />
      <path
         d="m 327.584,732.8367 c -0.2669,1.0674 0.3821,2.149 1.4495,2.4158 1.0675,0.2668 2.1491,-0.3822 2.4159,-1.4496 l 0.4431,-1.7795 c 0.0104,-0.0499 0.1664,-0.6587 0.1825,-1.3992 0.0352,-1.6168 0.1611,-3.6141 -0.006,-5.6816 -0.1203,-1.489 -0.5096,-2.8908 -0.7993,-4.1563 l -1.0661,-4.0723 -1.3345,-4.2911 -0.8465,-2.7275 -0.4515,-1.5326 c -0.1466,-0.5567 -0.3385,-0.8038 -0.3786,-0.8742 l 0.017,0.0312 c -0.0167,-0.0315 0.2213,0.5992 0.134,0.322 -0.0235,-0.0744 0.0986,0.5292 0.0765,0.3513 -0.0239,-0.1921 -0.3846,1.5781 -0.1506,1.041 0.254,-0.5828 -2.3634,1.2212 -1.7406,1.1945 0.5396,-0.0232 -1.1445,-0.2926 -0.9744,-0.2077 0.2842,0.1419 -0.4871,-0.3405 -0.4233,-0.2845 0.1863,0.1637 -0.1939,-0.197 -0.1837,-0.185 l 0.1509,0.1858 2.4192,3.165 c 0.6683,0.874 1.9187,1.0407 2.7927,0.3723 0.874,-0.6683 1.0407,-1.9186 0.3723,-2.7926 l -2.4918,-3.2572 -0.2238,-0.2728 -0.0959,-0.1044 c -0.0588,-0.06 0.0586,-0.1852 -0.739,-0.4788 -0.2446,-0.09 -0.6818,-0.2348 -1.3241,-0.0186 -0.6723,0.2262 -1.1655,0.9171 -1.2874,1.3664 -0.3662,1.3486 0.0564,1.2285 0.0998,1.3275 0.2648,0.6029 0.0218,-0.1552 0.0976,0.1328 l 0.4929,1.6786 0.8534,2.7501 1.31,4.2089 1.0116,3.861 c 0.3056,1.3351 0.6313,2.5923 0.7118,3.5882 0.1383,1.7111 0.0311,3.5676 -0.006,5.274 l -0.1008,0.6785 z"
         style="fill:#000000;fill-opacity:1;fill-rule:nonzero;stroke:none"
         id="path866" />
      <path
         d="m 343.1359,729.9836 c -0.5907,0.9282 -0.317,2.1596 0.6112,2.7503 0.9283,0.5907 2.1596,0.317 2.7503,-0.6112 0.262,-0.4117 0.6329,-0.8809 1.065,-1.6834 0.0378,-0.0701 0.4314,-0.6921 0.5507,-1.5749 0.1513,-1.1198 0.6288,-2.7189 0.3825,-4.841 -0.2591,-2.2316 -1.2061,-4.6332 -1.6475,-6.4692 -0.3224,-1.3415 -0.6209,-2.4796 -0.7115,-3.3334 -0.1038,-0.9786 -0.0979,-1.5368 -0.0292,-1.7141 0.2032,-0.524 0.4562,-0.8029 0.5881,-0.8561 0.4332,-0.1748 1.4392,-0.2851 2.5796,-0.0766 1.3203,0.2413 3.0651,0.7887 4.495,1.5785 1.485,0.8203 3.1311,2.0511 4.3395,3.3158 1.1539,1.2075 2.1955,2.8823 2.9857,4.3733 0.7277,1.3731 1.1791,2.8451 1.5328,4.1986 0.3286,1.2571 0.4863,2.3313 0.4186,2.9695 -0.0675,0.6365 -0.2529,1.019 -0.6098,1.402 -0.4124,0.4426 -0.8903,0.7664 -1.8538,1.0555 -1.0931,0.3279 -2.7964,0.6172 -4.1878,0.5779 -1.6275,-0.0461 -2.8764,-0.1029 -4.4661,-0.7842 -1.6831,-0.7213 -4.0555,-2.5395 -6.4409,-4.0178 -0.9352,-0.5796 -2.1632,-0.2913 -2.7428,0.644 -0.5796,0.9352 -0.2913,2.1632 0.644,2.7427 2.157,1.3368 4.5246,3.2452 6.9702,4.2933 2.2387,0.9595 4.2228,1.0566 5.9228,1.1047 1.9697,0.0558 3.9349,-0.2911 5.4455,-0.7443 1.5069,-0.452 2.739,-1.2059 3.6239,-2.1555 0.9157,-0.9828 1.5083,-2.2962 1.657,-3.6981 0.1568,-1.479 -0.1428,-2.9314 -0.5259,-4.3972 -0.3875,-1.4827 -0.9173,-3.2647 -1.8672,-5.057 -0.8911,-1.6812 -2.0653,-3.6273 -3.6255,-5.26 -1.5444,-1.6163 -3.4418,-3.0279 -5.2937,-4.0509 -1.9157,-1.0581 -3.978,-1.6946 -5.7051,-2.0103 -1.7269,-0.3157 -3.3677,-0.2715 -4.787,0.3012 -1.6258,0.656 -2.4032,2.0565 -2.812,3.1106 -0.5211,1.3439 -0.3266,2.5513 -0.218,3.5747 0.1376,1.2975 0.4882,2.5489 0.7996,3.8444 0.5214,2.1691 1.3978,4.5689 1.5637,5.9974 0.1531,1.3194 -0.1709,2.3517 -0.3732,3.848 l -0.1104,0.2196 z"
         style="fill:#000000;fill-opacity:1;fill-rule:nonzero;stroke:none"
         id="path868" />
      <path
         d="m 330.8713,755.0301 c 0.8801,0.6602 2.1288,0.4819 2.789,-0.3982 0.6602,-0.8802 0.4819,-2.1289 -0.3982,-2.7891 -0.5908,-0.4431 -0.1943,-0.0612 -0.2202,-0.0929 -0.1425,-0.1741 0.236,0.3631 0.2065,0.3083 -0.0844,-0.1572 0.0627,0.1304 0.0503,0.0996 l -0.3875,-0.8078 -1.3628,-2.0463 -3.1371,-4.6576 c -0.2424,-0.3473 -0.5145,-0.6516 -0.8881,-0.8845 l -0.4294,-0.2095 c -0.0157,-0.006 0.3245,0.1487 0.1936,0.0836 -0.1139,-0.0566 0.8017,0.6695 0.5523,0.4077 -0.2037,-0.2138 0.5922,1.3871 0.5092,0.9771 -0.0619,-0.3054 -0.0594,1.0568 -0.008,0.829 0.0717,-0.3204 -0.3351,0.7474 -0.2587,0.6264 0.0692,-0.1095 -0.1839,0.2472 -0.1511,0.2078 l -0.0104,0.0109 c 0.1583,-0.1748 -1.132,0.5623 -0.9821,0.5395 l 0.4323,-0.0258 0.4842,0.0521 c 0.4707,0.0288 1.1012,0.0281 1.8869,-0.0612 1.6354,-0.1858 4.0868,-0.6368 6.1271,-0.9555 1.087,-0.1699 1.8306,-1.1888 1.6607,-2.2759 -0.1698,-1.0871 -1.1888,-1.8306 -2.2758,-1.6608 -2.1009,0.3283 -4.5816,0.7765 -5.9619,0.9333 -1.0688,0.1215 -1.1518,-0.0703 -2.1622,-0.009 l -0.9471,0.0921 c -0.5138,0.1091 -1.2385,0.7207 -1.3128,0.8098 l -0.3057,0.4995 c -0.1489,0.3496 -0.2458,1.0988 0.0613,1.6955 0.5229,1.0161 0.9784,0.9197 1.068,0.9539 0.0505,0.0193 -0.5946,-0.4206 -0.549,-0.3553 l 3.0963,4.598 1.2816,1.9203 0.0354,0.0898 c 0.0375,0.0907 -0.3371,-0.1637 0.4006,0.738 0.246,0.3007 0.5857,0.5855 0.8557,0.741 0.2293,0.132 -0.0641,-0.0749 0.0575,0.0162"
         style="fill:#000000;fill-opacity:1;fill-rule:nonzero;stroke:none"
         id="path870" />
    </g>
  </g>
</svg>
