<?xml version="1.0" encoding="UTF-8" standalone="yes"?><svg xmlns="http://www.w3.org/2000/svg" xmlns:xlink="http://www.w3.org/1999/xlink" width="297.000mm" height="210.000mm" viewBox="0.000000 0.000000 297.000000 210.000000" stroke-linejoin="round" stroke-linecap="round" fill="none" fill-rule="evenodd"><desc>Composer Export</desc><script type="text/ecmascript"><![CDATA[
if(typeof(top) != "undefined")
{
	top.ShowPaper = ShowPaper;
}
function ShowHotSpot(evt,hotspotid)
{
	var svgDocument = evt.target.ownerDocument;
	var strId = "hotspot."+hotspotid;
	var hotspot = svgDocument.getElementById(strId);
	if(hotspot)
		hotspot.setAttribute("opacity",".5");
}
function HideHotSpot(evt,hotspotid)
{
	var svgDocument = evt.target.ownerDocument;
	var strId = "hotspot."+hotspotid;
	var hotspot = svgDocument.getElementById(strId);
	if(hotspot)
		hotspot.setAttribute("opacity","0");

	var toolTip = svgDocument.getElementById('ToolTip');
	if(toolTip)
		toolTip.setAttribute("visibility","hidden");
}
function ShowToolTip(evt,hotspotid,strTooltip)
{
	if(strTooltip=="")
	return;

	// change text
	var svgDocument = evt.target.ownerDocument;
	var tiptext = svgDocument.getElementById('ToolTipText');
	if( !tiptext )
	return;
	tiptext.firstChild.nodeValue = " " + strTooltip + "  " ;

	// show tooltip before, else some refresh issue

	var toolTip = svgDocument.getElementById('ToolTip');
	if(!toolTip)
	return;

	toolTip.setAttribute("visibility","visible");
	toolTip.setAttribute("opacity",".95");

	// move tooltip
	// get viewbox

	var root = svgDocument.documentElement;
	var vbox = (root.getAttribute("viewBox")).split(' ');
	var x0 = parseFloat(vbox[0]);
	var y0 = parseFloat(vbox[1]);
	var vboxW = parseFloat(vbox[2]);
	var vboxH = parseFloat(vbox[3]);

	// get default width of svg

	var strW = root.getAttribute("width");
	var svgW = parseFloat(strW);
	if(strW.indexOf('mm') != -1)
	svgW *= 3.779;

	var strH = root.getAttribute("height");
	var svgH = parseFloat(strH);
	if(strH.indexOf('mm') != -1)
	svgH *= 3.779;  	// 96 dpi  -> 96/25.4 = 3.779

	// update the viewbox / width / height if svg is embedded in html with zoom fit all
	var realx0 = x0;
	var realy0 = y0;
	var realvboxW = vboxW;
	var realvboxH = vboxH;
	var realsvgW = svgW;
	var realsvgH = svgH;

	if ((typeof(top) == "undefined") || (typeof(top.svgctl1) != "undefined")) // embedded in html
	{
		// get window size in pxl

		svgW = window.innerWidth;
		svgH = window.innerHeight;

		// calculate real viewbox

		realsvgW = svgW;
		realsvgH = svgH;
		if((svgW / svgH) > (vboxW / vboxH))
		{
			realvboxW = (vboxH * svgW) / svgH;
			realvboxH = vboxH;
			realx0 = x0 - (realvboxW - vboxW)/2 ;
		}
		else
		{
			realvboxH = (vboxW * svgH) / svgW;
			realvboxW = vboxW;
			realy0 = y0 - (realvboxH - vboxH)/2 ;
		}
	}

	// get user zoom/pan

	var newScale = root.currentScale;
	var translation = root.currentTranslate;

	// transform pxl to user unit

	var xPos = (((evt.clientX+10- translation.x)/newScale) * realvboxW)/realsvgW  + realx0 ;
	var yPos = (((evt.clientY+5- translation.y)/newScale) * realvboxH)/ realsvgH  + realy0 ;
	var scaleForWidth = ( (1 / newScale) * realvboxH) / realsvgH;

	// move tooltip

	toolTip.setAttribute("transform", "translate(" + xPos + "," + yPos + ")" );

	// resize tooltip

	var fontsize = 12;
	tiptext.setAttribute("font-size",fontsize*scaleForWidth);
	tiptext.setAttribute("y", fontsize*scaleForWidth);
	var tipBG = svgDocument.getElementById('ToolTipBG');
	var outline = tiptext.getBBox();
	if(tipBG)
	{
		tipBG.setAttribute("stroke-width", 1*scaleForWidth);
		tipBG.setAttribute("width", Number(outline.width) );
		tipBG.setAttribute("height", Number(outline.height) + fontsize*.5*scaleForWidth );
	}
	var ToolTipShadow = svgDocument.getElementById('ToolTipShadow');
	if(ToolTipShadow)
	{
		ToolTipShadow.setAttribute("width", Number(outline.width) );
		ToolTipShadow.setAttribute("height", Number(outline.height) + fontsize*.5*scaleForWidth );
		ToolTipShadow.setAttribute("x", 3*scaleForWidth);
		ToolTipShadow.setAttribute("y", 3*scaleForWidth);
	}
}
function ShowPaper()
{
  var svgDocument = getDocument();
  var paper = svgDocument.getElementById("paperID");
  if(paper)
  {
    paper.setAttribute("transform","scale(1)");
    paper.setAttribute("opacity","1");
    paper.setAttribute("visibility","visible");
  }
  var svg = svgDocument.getRootElement();
  if(svg)
  {
    svg.setAttribute("width","307.000mm");
    svg.setAttribute("height","220.000mm");
    svg.setAttribute("viewBox","-5.000000 -5.000000 307.000000 220.000000");
  }
}
]]></script><defs/><g><g id="Actor_.0"><g style="stroke:#ffffff;stroke-width:0.705"><path d="M59.09,186.08L59.09,203.30L64.58,203.30L64.58,186.08"/><path d="M59.09,171.47L59.09,145.63L59.09,146.68"/><path d="M59.09,145.63L59.09,130.85L59.09,131.91"/><path d="M62.73,166.83L62.73,129.07L59.09,129.07L59.09,130.85"/><path d="M62.73,203.30L62.73,186.08"/><path d="M62.73,129.07L64.58,129.07L64.58,166.83"/><path d="M64.58,203.30L71.87,203.30L71.87,186.08"/><path d="M64.58,129.07L71.87,129.07L71.87,166.83"/><path d="M77.36,186.08L77.36,203.30L71.87,203.30"/><path d="M77.36,162.19L77.36,129.07L71.87,129.07"/><path d="M73.71,203.30L73.71,186.08"/><path d="M73.71,129.07L73.71,162.19"/></g></g><g id="Actor_.1"><g style="stroke:#ffffff;stroke-width:0.353"/><g style="stroke:#ffffff;stroke-width:0.705"><path d="M77.31,128.16L77.36,129.07L59.09,129.07L59.14,128.16L59.11,128.74L59.14,128.16L77.31,128.16L77.36,129.07"/><path d="M77.34,128.74L77.31,128.16"/></g></g><g id="Actor_.2"><g style="stroke:#ffffff;stroke-width:0.353"/><g style="stroke:#ffffff;stroke-width:0.705"><path d="M77.31,204.21L77.34,203.67L77.31,204.21L59.14,204.21L59.11,203.67L59.14,204.21"/><path d="M59.09,203.30L59.11,203.67L59.09,203.30L77.36,203.30L77.31,204.21"/><path d="M77.34,203.67L77.36,203.30"/></g></g><g id="Actor_.3"><g style="stroke:#ffffff;stroke-width:0.353"><path d="M84.56,143.69L84.43,143.68L84.15,143.56L83.92,143.35L83.77,143.07L83.72,142.77L83.77,142.46L83.92,142.19L84.15,141.98L84.43,141.86L84.74,141.83L85.04,141.91L85.30,142.08L85.49,142.32L85.59,142.61L85.60,142.77L85.59,142.92L85.49,143.22L85.30,143.46L85.04,143.63L84.74,143.71L84.56,143.69"/><path d="M85.73,142.95L85.62,143.29L85.40,143.57L85.10,143.76L84.75,143.85L84.57,143.84L84.39,143.82L84.07,143.68L83.80,143.44L83.63,143.12L83.57,142.77L83.63,142.42L83.80,142.10L84.07,141.86L84.39,141.71L84.56,141.70L84.75,141.68L85.10,141.77L85.40,141.97L85.62,142.25L85.73,142.59"/><path d="M84.98,143.25L84.66,142.77L84.37,142.27L84.43,142.24L84.61,142.19L84.80,142.21L84.95,142.27L84.98,142.28L85.12,142.41L85.21,142.58L85.24,142.77L85.21,142.96L85.12,143.12L84.98,143.25L84.95,143.27L84.80,143.33L84.61,143.35L84.43,143.30L84.37,143.27L84.27,143.20L84.15,143.04L84.09,142.86L84.08,142.77L84.09,142.67L84.15,142.49L84.27,142.34L84.37,142.27"/><path d="M84.27,143.20L84.66,142.77L84.08,142.77"/><path d="M85.21,142.58L84.66,142.77"/></g><g style="stroke:#ffffff;stroke-width:0.705"><path d="M83.88,143.52L83.92,143.57L84.07,143.68L84.22,143.76L84.39,143.82L84.57,143.85L84.75,143.85L84.93,143.82L85.10,143.76L85.26,143.68L85.40,143.57L85.52,143.44L85.62,143.29L85.69,143.12L85.73,142.95L85.75,142.77L85.73,142.59L85.69,142.42L85.62,142.25L85.52,142.10L85.40,141.97L85.26,141.86L85.10,141.77L84.93,141.71L84.75,141.68L84.57,141.68L84.39,141.71L84.22,141.77L84.07,141.86L83.92,141.97L83.80,142.10L83.70,142.25L83.63,142.42L83.59,142.59L83.57,142.77L83.59,142.95L83.63,143.12L83.70,143.29L83.80,143.44L83.88,143.52"/><path d="M84.15,143.14L84.56,143.38L84.08,143.10L84.08,142.43L84.66,142.10L85.24,142.43L85.24,143.10L84.66,143.44L84.15,143.14"/><path d="M84.56,143.38L84.64,143.43"/><path d="M84.95,143.27L85.21,143.12L84.67,143.43L84.95,143.27"/><path d="M85.21,142.42L84.95,142.27L85.21,142.42"/><path d="M84.95,142.27L84.67,142.10L84.95,142.27"/><path d="M84.56,142.16L84.64,142.11"/><path d="M85.74,142.72L85.75,142.77L85.74,142.82"/></g></g><g id="Actor_.4"><g style="stroke:#ffffff;stroke-width:0.705"><path d="M59.09,129.07L59.09,147.33"/><path d="M77.36,147.33L90.14,147.33L90.71,147.25L91.21,146.99L91.52,146.68L91.21,146.99"/><path d="M91.62,129.82L91.88,130.33L91.62,129.82L91.21,129.42L90.71,129.16L90.14,129.07L77.36,129.07"/><path d="M91.52,146.68L91.88,146.07L91.60,146.60"/><path d="M91.62,146.58L91.88,146.07L91.97,145.51L91.97,130.90L91.88,130.33"/></g></g><g id="Actor_.5"><g style="stroke:#ffffff;stroke-width:0.353"><path d="M84.56,134.56L84.43,134.55L84.15,134.42L83.92,134.21L83.77,133.94L83.72,133.64L83.77,133.33L83.92,133.06L84.15,132.85L84.43,132.72L84.74,132.70L85.04,132.77L85.30,132.94L85.49,133.19L85.59,133.48L85.60,133.64L85.59,133.79L85.49,134.08L85.30,134.33L85.04,134.50L84.74,134.57L84.56,134.56"/><path d="M85.73,133.81L85.62,134.15L85.40,134.44L85.10,134.63L84.75,134.72L84.57,134.70L84.39,134.69L84.07,134.55L83.80,134.30L83.63,133.99L83.57,133.64L83.63,133.28L83.80,132.97L84.07,132.73L84.39,132.58L84.56,132.57L84.75,132.55L85.10,132.64L85.40,132.84L85.62,133.12L85.73,133.46"/><path d="M84.43,134.17L84.37,134.14L84.27,134.06L84.15,133.91L84.09,133.73L84.08,133.64L84.09,133.54L84.15,133.36L84.27,133.21L84.37,133.13L84.66,133.64L84.98,134.12L84.95,134.14L84.80,134.20L84.61,134.21L84.43,134.17"/><path d="M84.27,134.06L84.66,133.64L84.08,133.64"/><path d="M84.37,133.13L84.43,133.10L84.61,133.06L84.80,133.07L84.95,133.13L84.98,133.15L85.12,133.28L85.21,133.45L85.24,133.64L85.21,133.82L85.12,133.99L84.98,134.12"/><path d="M84.66,133.64L85.21,133.45"/></g><g style="stroke:#ffffff;stroke-width:0.705"><path d="M84.07,134.55L83.92,134.44L83.80,134.30L83.70,134.15L83.63,133.99L83.59,133.81L83.57,133.64L83.59,133.46L83.63,133.28L83.70,133.12L83.80,132.97L83.92,132.84L84.07,132.73L84.22,132.64L84.39,132.58L84.57,132.55L84.75,132.55L84.93,132.58L85.10,132.64L85.26,132.73L85.40,132.84L85.52,132.97L85.62,133.12L85.69,133.28L85.73,133.46L85.75,133.64L85.73,133.81L85.69,133.99L85.62,134.15L85.52,134.30L85.40,134.44L85.26,134.55L85.10,134.63L84.93,134.69L84.75,134.72L84.56,134.72L84.39,134.69L84.22,134.63L84.07,134.55"/><path d="M84.37,134.14L84.17,134.02L84.37,134.14"/><path d="M84.17,134.02L84.08,133.97L84.08,133.30L84.66,132.97L85.24,133.30L85.24,133.97L84.66,134.31L84.15,134.01"/><path d="M84.37,134.14L84.56,134.24L84.37,134.14"/><path d="M84.37,133.13L84.14,133.26L84.37,133.13"/><path d="M84.56,134.24L84.64,134.29"/><path d="M84.67,134.30L85.16,134.02L84.67,134.30"/><path d="M85.21,133.28L84.95,133.13L85.21,133.28"/><path d="M84.56,133.03L84.64,132.98"/><path d="M84.67,132.97L84.95,133.13L84.67,132.97"/><path d="M85.16,134.02L85.21,133.99"/><path d="M85.74,133.58L85.75,133.64L85.74,133.69"/></g></g><g id="Actor_.6"><g style="stroke:#ffffff;stroke-width:0.705"><path d="M126.90,89.66L108.75,36.93L106.10,37.83L105.30,38.10L123.46,90.85"/><path d="M108.74,36.92L110.49,36.32L128.65,89.06"/><path d="M110.49,36.32L117.32,33.96L117.49,34.27L135.54,86.69"/><path d="M117.38,33.94L117.68,34.82L117.38,33.94L119.12,33.34L137.28,86.09"/><path d="M156.19,129.80L156.43,130.50L122.60,32.27L119.12,33.34"/><path d="M151.89,169.26L152.20,169.15L150.61,169.70L129.73,109.05"/><path d="M133.17,107.88L154.05,168.52L152.43,169.08"/><path d="M153.11,168.84L155.80,167.92L136.58,112.09"/><path d="M143.47,109.72L162.69,165.54L162.15,165.73"/><path d="M162.73,165.53L162.38,165.65L164.43,164.94L143.55,104.29"/><path d="M150.53,158.29L150.54,158.31"/><path d="M152.03,169.21L152.20,169.15L151.41,169.43L152.20,169.15L152.01,169.22"/><path d="M151.54,169.38L151.39,169.43L151.54,169.38"/><path d="M151.33,169.45L151.73,169.32L151.14,169.52L151.43,169.42"/><path d="M151.73,169.32L152.20,169.15L151.73,169.32"/><path d="M152.31,169.12L152.56,169.03"/><path d="M152.24,169.14L152.71,168.98L152.44,169.07"/><path d="M152.40,169.09L152.50,169.05"/><path d="M155.80,167.92L156.12,167.80L155.37,168.06L155.68,167.96"/><path d="M155.37,168.06L156.34,167.73"/><path d="M167.26,163.97L167.88,163.76L156.43,130.50"/><path d="M162.30,165.68L162.77,165.52"/><path d="M162.00,146.68L161.71,145.84"/><path d="M164.43,164.94L165.85,164.45"/><path d="M163.83,165.15L164.18,165.03"/><path d="M165.83,164.46L165.45,164.59L165.83,164.46"/><path d="M165.89,164.44L165.58,164.55"/><path d="M165.91,164.43L165.75,164.49L165.91,164.43"/><path d="M165.42,164.60L165.81,164.47L165.45,164.59"/><path d="M165.79,164.48L165.81,164.47"/><path d="M165.88,164.44L166.03,164.39"/><path d="M166.67,164.17L167.00,164.06L165.99,164.41"/><path d="M166.20,164.33L166.06,164.38"/><path d="M166.29,164.30L166.09,164.37"/><path d="M166.82,164.12L167.25,163.97L167.00,164.06"/><path d="M167.44,163.91L167.39,163.92"/><path d="M167.04,164.04L167.13,164.01"/></g></g><g id="Actor_.7"><g style="stroke:#ffffff;stroke-width:0.353"/><g style="stroke:#ffffff;stroke-width:0.705"><path d="M105.04,37.22L105.69,37.00L105.04,37.22L105.30,38.10"/><path d="M105.69,37.00L105.88,36.93L105.69,37.00"/><path d="M105.04,37.22L107.17,36.49"/><path d="M106.75,36.64L108.86,35.91L106.75,36.64"/><path d="M107.98,36.21L107.81,36.27L113.09,34.45L112.01,34.82"/><path d="M110.49,36.32L108.74,36.92"/><path d="M108.95,35.88L109.32,35.75"/><path d="M111.22,36.06L113.39,35.32"/><path d="M110.98,35.18L111.60,34.97"/><path d="M112.95,34.50L113.09,34.45L112.04,34.82L112.67,34.60"/><path d="M112.04,34.82L112.38,34.70L112.32,34.72"/><path d="M112.31,34.72L112.38,34.70L112.28,34.73"/><path d="M112.69,34.59L112.24,34.75"/><path d="M112.28,34.73L112.26,34.74L112.38,34.70L112.31,34.72"/><path d="M112.24,34.74L112.38,34.70L112.35,34.71"/><path d="M112.38,34.70L112.35,34.71"/><path d="M113.06,34.46L113.05,34.47"/><path d="M112.97,34.49L112.92,34.51"/><path d="M112.94,34.51L113.09,34.45L112.36,34.70"/><path d="M114.93,33.82L115.08,33.77L112.60,34.62L112.63,34.61"/><path d="M113.96,34.15L113.09,34.45L113.13,34.44"/><path d="M113.53,34.30L113.95,34.16L113.09,34.45L113.68,34.25"/><path d="M113.66,34.26L113.11,34.45"/><path d="M112.33,34.71L112.52,34.65"/><path d="M112.59,34.63L112.60,34.62"/><path d="M113.17,34.42L113.14,34.43"/><path d="M113.18,34.42L113.21,34.41"/><path d="M113.13,34.44L113.11,34.44"/><path d="M113.20,34.41L113.10,34.45"/><path d="M113.12,34.44L113.70,34.24"/><path d="M113.79,34.21L113.85,34.19"/><path d="M113.69,34.25L113.57,34.29"/><path d="M113.95,34.16L115.21,33.72L114.92,33.82"/><path d="M113.85,34.19L113.95,34.16"/><path d="M115.01,33.79L114.97,33.80"/><path d="M115.08,33.77L114.72,33.89"/><path d="M115.21,33.72L116.26,33.36L115.21,33.72L115.34,33.68"/><path d="M117.32,33.00L118.14,32.71L116.26,33.36L117.32,33.00L117.18,33.04"/><path d="M118.38,33.60L119.12,33.34L117.38,33.94"/><path d="M117.54,32.92L120.49,31.90L120.11,32.03"/><path d="M120.49,31.90L122.22,31.31L122.57,32.16"/><path d="M122.22,31.31L121.55,31.54"/></g></g><g id="Actor_.8"><g style="stroke:#ffffff;stroke-width:0.353"><path d="M156.55,167.32L156.81,166.74L157.68,165.83L158.80,165.24L160.04,165.05L161.29,165.28L162.39,165.90L163.23,166.84L163.72,168.00L163.81,169.26L163.63,169.90L163.48,170.48L162.77,171.53L161.76,172.29L160.56,172.68L159.30,172.66L158.11,172.23L157.13,171.44L156.45,170.38L156.16,169.15L156.22,168.52"/><path d="M156.39,169.13L156.51,167.95L157.00,166.87L157.82,166.01L158.87,165.46L160.04,165.28L161.21,165.50L162.24,166.08L163.03,166.96L163.49,168.06L163.57,169.24L163.27,170.38L162.60,171.37L161.66,172.08L160.53,172.45L159.34,172.43L158.23,172.03L157.30,171.29L156.67,170.29L156.39,169.13"/></g><g style="stroke:#ffffff;stroke-width:0.705"><path d="M156.22,168.52L156.28,167.89L156.17,168.51L156.16,169.15L156.26,169.77L156.45,170.38L156.75,170.94L157.13,171.44L157.59,171.88L158.11,172.23L158.69,172.50L159.30,172.66L159.93,172.72L160.56,172.68L161.18,172.53L161.76,172.29L162.30,171.95L162.77,171.53L163.17,171.03L163.48,170.48L163.69,169.88L163.81,169.26L163.81,168.63L163.72,168.00L163.52,167.40L163.23,166.84L162.85,166.33L162.39,165.90L161.86,165.54L161.29,165.28L160.68,165.11L160.04,165.05L159.41,165.10L158.80,165.24L158.21,165.49L157.68,165.83L157.20,166.25L156.81,166.74L156.50,167.29L156.28,167.89L156.25,168.27"/><path d="M156.36,167.72L156.28,167.89"/><path d="M156.36,167.72L156.55,167.32"/><path d="M158.86,168.41L159.09,168.04L158.87,168.38L158.76,168.77L158.79,169.17L158.95,169.55L159.22,169.85L159.57,170.05L159.97,170.12L160.37,170.06L160.17,170.09"/><path d="M159.60,170.05L159.81,170.09"/><path d="M158.83,169.26L158.79,169.17"/><path d="M159.22,169.85L159.10,169.72"/><path d="M159.58,167.74L159.60,167.74L159.42,167.80L159.09,168.04L159.20,167.96"/><path d="M159.60,167.74L159.80,167.67L159.90,167.67"/><path d="M160.37,170.06L160.65,169.91L160.37,170.06"/><path d="M160.65,169.91L160.73,169.87L161.01,169.58L161.18,169.21L161.21,168.84L161.19,169.07"/><path d="M160.65,167.86L160.91,168.07L160.59,167.81L160.21,167.68L159.80,167.67"/><path d="M160.52,167.79L160.48,167.77"/><path d="M160.73,169.87L161.01,169.58L161.10,169.38"/><path d="M161.21,168.84L161.22,168.80L161.12,168.41L160.91,168.07L161.12,168.41L161.18,168.66"/></g></g><g id="Actor_.9"><g style="stroke:#ffffff;stroke-width:0.353"><path d="M159.27,172.65L157.66,173.21"/></g><g style="stroke:#ffffff;stroke-width:0.705"><path d="M157.38,172.20L157.48,172.16L157.36,172.21"/><path d="M157.38,172.20L157.48,172.16L157.32,172.22L157.66,173.21L157.81,173.28L158.40,173.08L158.24,173.13"/><path d="M157.34,172.21L157.58,172.13L157.53,172.15"/><path d="M157.44,172.18L157.39,172.20"/><path d="M158.40,173.08L158.52,173.04L157.99,173.22"/><path d="M158.14,173.17L158.28,173.12L157.87,173.26L157.87,173.26"/><path d="M158.28,173.12L157.92,173.24L158.01,173.21"/><path d="M158.28,173.12L157.84,173.27"/><path d="M157.82,173.27L157.81,173.28L157.96,173.23"/><path d="M158.43,173.07L158.75,172.95"/><path d="M158.08,173.19L158.17,173.15"/><path d="M157.53,172.15L157.62,172.12"/><path d="M157.64,172.11L157.64,172.11L157.82,172.05L157.80,172.06"/><path d="M157.82,172.05L157.48,172.16"/><path d="M158.52,173.04L158.43,173.06"/><path d="M158.54,173.03L158.62,173.00"/><path d="M158.52,173.04L158.62,173.00"/><path d="M158.54,173.03L159.23,172.79L159.29,172.66"/><path d="M158.86,172.92L158.80,172.94"/><path d="M159.13,172.82L158.99,172.87L159.07,172.84"/><path d="M159.03,172.86L158.99,172.87L159.21,172.80"/><path d="M158.99,172.87L158.90,172.90"/><path d="M159.21,172.80L159.19,172.80"/><path d="M158.75,172.96L158.86,172.92"/></g></g><g id="Actor_.10"><g style="stroke:#ffffff;stroke-width:0.353"><path d="M167.48,170.10L169.52,169.40"/></g><g style="stroke:#ffffff;stroke-width:0.705"><path d="M167.93,170.10L168.05,170.06L167.66,170.19L167.48,170.10L167.04,168.87L167.36,168.76"/><path d="M167.87,170.12L167.68,170.19"/><path d="M167.85,170.13L167.94,170.10L167.72,170.17"/><path d="M167.77,170.16L168.03,170.07"/><path d="M167.83,170.14L168.04,170.06"/><path d="M168.07,170.05L168.05,170.06L168.45,169.92L168.43,169.93"/><path d="M167.13,168.84L167.13,168.84L167.32,168.78L167.20,168.82"/><path d="M168.01,168.54L167.25,168.80L167.33,168.77"/><path d="M167.25,168.80L167.55,168.70L167.54,168.70"/><path d="M168.00,168.55L167.80,168.61L168.05,168.53L168.00,168.55"/><path d="M168.45,169.92L168.52,169.90L168.06,170.06"/><path d="M168.10,170.04L168.37,169.95"/><path d="M168.18,170.01L169.11,169.69L168.57,169.88"/><path d="M168.52,169.90L168.97,169.74"/><path d="M169.01,169.73L169.00,169.73L169.10,169.70"/><path d="M169.00,169.73L168.72,169.83"/><path d="M168.41,168.40L169.08,168.17L169.52,169.40L169.43,169.58L169.11,169.69L169.23,169.65"/><path d="M169.08,169.70L168.79,169.80"/><path d="M169.04,169.72L168.57,169.88"/><path d="M169.02,169.73L168.69,169.84L168.77,169.81"/><path d="M168.52,168.37L168.33,168.43"/><path d="M168.17,168.48L168.14,168.50L168.75,168.28L168.71,168.30"/><path d="M168.83,168.26L168.91,168.23"/><path d="M168.14,168.50L168.05,168.53"/></g></g><g id="Actor_.11"><g style="stroke:#ffffff;stroke-width:0.353"><path d="M156.39,170.20L156.36,170.14L156.35,170.05"/><path d="M156.17,168.81L156.15,168.89L156.16,168.96"/><path d="M156.40,167.57L156.36,167.65L156.35,167.72"/><path d="M157.01,171.29L156.96,171.25L156.92,171.17"/><path d="M157.02,166.48L156.96,166.54L156.93,166.60"/><path d="M157.96,172.13L157.89,172.10L157.83,172.04"/><path d="M157.96,165.64L157.89,165.68L157.84,165.73"/><path d="M158.97,172.57L159.05,172.61L159.12,172.61"/><path d="M159.13,165.16L159.04,165.17L158.98,165.20"/><path d="M160.38,172.69L160.31,172.71L160.22,172.70"/><path d="M160.23,165.07L160.30,165.06L160.38,165.09"/><path d="M161.45,172.42L161.53,172.40L161.59,172.36"/><path d="M161.60,165.42L161.52,165.37L161.46,165.36"/><path d="M162.52,171.75L162.59,171.71L162.63,171.65"/><path d="M162.63,166.13L162.58,166.06L162.52,166.02"/><path d="M162.08,165.67L162.09,165.68"/><path d="M163.31,170.78L163.36,170.71L163.39,170.64"/><path d="M163.77,169.45L163.77,169.52L163.74,169.60"/><path d="M163.77,168.25L163.77,168.34"/><path d="M163.36,167.06L163.32,167.00"/></g><g style="stroke:#ffffff;stroke-width:0.705"><path d="M156.41,170.25L156.36,170.14L156.31,169.95"/><path d="M156.19,169.34L156.20,169.52L156.24,169.65"/><path d="M156.17,168.70L156.15,168.89L156.16,169.02"/><path d="M156.19,168.39L156.20,168.26L156.25,168.08"/><path d="M156.43,167.47L156.36,167.65L156.33,167.77"/><path d="M157.26,171.57L157.39,171.71L157.49,171.79"/><path d="M157.05,171.34L156.96,171.25L156.86,171.09"/><path d="M156.69,170.82L156.62,170.72L156.54,170.54"/><path d="M156.72,166.91L156.61,167.07L156.56,167.18"/><path d="M156.89,166.64L156.96,166.54L157.09,166.40"/><path d="M157.54,165.95L157.39,166.07L157.30,166.16"/><path d="M158.57,172.44L158.45,172.40L158.28,172.31"/><path d="M158.01,172.16L157.89,172.10L157.74,171.98"/><path d="M157.79,165.76L157.89,165.68L158.05,165.59"/><path d="M158.33,165.44L158.44,165.38L158.62,165.32"/><path d="M159.80,172.71L159.67,172.71L159.49,172.68"/><path d="M159.18,172.63L159.05,172.61L158.87,172.55"/><path d="M159.23,165.14L159.04,165.17L158.92,165.21"/><path d="M159.54,165.09L159.67,165.07L159.86,165.07"/><path d="M160.12,172.71L160.31,172.71L160.43,172.69"/><path d="M160.49,165.10L160.30,165.06L160.17,165.07"/><path d="M161.35,172.46L161.53,172.40L161.64,172.34"/><path d="M161.05,172.56L160.93,172.61L160.75,172.64"/><path d="M161.69,165.46L161.52,165.37L161.40,165.33"/><path d="M161.10,165.23L160.93,165.17L160.80,165.15"/><path d="M161.92,172.19L162.09,172.10L162.19,172.02"/><path d="M162.67,171.61L162.59,171.71L162.44,171.82"/><path d="M162.48,165.98L162.58,166.06L162.71,166.20"/><path d="M162.23,165.79L162.09,165.68L161.97,165.61"/><path d="M163.09,171.13L163.02,171.24L162.89,171.38"/><path d="M163.65,170.00L163.62,170.13L163.54,170.30"/><path d="M163.26,170.87L163.36,170.71L163.41,170.59"/><path d="M163.73,169.70L163.77,169.52L163.78,169.39"/><path d="M163.81,168.76L163.82,168.88L163.81,169.07"/><path d="M163.66,167.82L163.61,167.64L163.56,167.52"/><path d="M163.74,168.13L163.77,168.25L163.79,168.44"/><path d="M163.44,167.23L163.36,167.06L163.29,166.95"/><path d="M163.12,166.69L163.01,166.53L162.92,166.43"/></g></g><g id="Actor_.12"><g style="stroke:#ffffff;stroke-width:0.353"><path d="M159.59,169.74L159.89,169.82L160.19,169.81L160.48,169.69L160.72,169.49L160.87,169.22L160.93,168.91L160.92,168.76L160.89,168.61L160.75,168.33L160.52,168.11L160.24,167.98L159.93,167.95L159.63,168.02L159.37,168.18L159.17,168.42L159.06,168.71L159.06,169.02L159.15,169.31L159.33,169.56L159.59,169.74"/><path d="M161.07,168.92L161.01,169.27L160.83,169.58L160.56,169.81L160.23,169.95L159.87,169.97L159.52,169.87L159.38,169.77L159.23,169.67L159.02,169.38L158.91,169.04L158.92,168.68L159.04,168.35L159.27,168.07L159.58,167.88L159.93,167.80L160.28,167.84L160.61,167.99L160.86,168.24L161.02,168.56"/><path d="M159.43,169.06L159.52,169.23L159.66,169.36L159.77,169.43L159.83,169.45L160.02,169.47L160.21,169.42L160.34,169.34L160.37,169.32L159.99,168.89L159.41,168.97L159.43,169.06"/><path d="M159.41,168.97L159.41,168.87L159.44,168.69L159.54,168.52L159.63,168.43L159.68,168.39L159.86,168.32L160.05,168.31L160.21,168.35L160.23,168.36L160.39,168.47L160.50,168.63L159.99,168.89L159.66,169.36"/><path d="M160.37,169.32L160.49,169.18L160.56,169.00L160.56,168.81L160.50,168.63"/><path d="M159.99,168.89L159.63,168.43"/></g><g style="stroke:#ffffff;stroke-width:0.705"><path d="M161.06,168.74L161.02,168.56L160.96,168.40L160.86,168.24L160.74,168.11L160.61,167.99L160.45,167.90L160.28,167.84L160.11,167.81L159.93,167.80L159.75,167.83L159.58,167.88L159.42,167.96L159.27,168.07L159.15,168.20L159.04,168.35L158.97,168.51L158.92,168.68L158.90,168.86L158.91,169.04L158.95,169.21L159.02,169.38L159.11,169.53L159.23,169.67L159.37,169.78L159.52,169.87L159.69,169.93L159.87,169.97L160.05,169.97L160.23,169.95L160.40,169.89L160.56,169.81L160.70,169.71L160.83,169.58L160.93,169.43L161.01,169.27L161.06,169.09L161.07,168.92L161.06,168.74L161.07,168.78"/><path d="M159.37,168.64L159.60,168.46L159.37,168.64L159.46,169.30L159.41,168.94"/><path d="M160.54,168.63L160.52,168.48L159.89,168.22L159.60,168.46L159.89,168.22L160.52,168.48L160.61,169.14L160.08,169.55L159.46,169.30L159.41,168.97"/><path d="M159.60,169.36L160.08,169.55L159.60,169.36"/><path d="M160.08,169.55L160.34,169.34L160.08,169.55"/><path d="M160.52,168.48L159.89,168.22L159.63,168.43"/></g></g><g id="Actor_.13"><g style="stroke:#ffffff;stroke-width:0.705"><path d="M156.16,168.99L156.11,168.84L156.16,168.99"/><path d="M156.11,168.84L155.79,167.92L156.11,168.84"/><path d="M155.79,167.92L156.16,168.99"/><path d="M155.79,167.92L156.16,167.79"/><path d="M156.13,167.80L156.21,167.77L156.02,167.84"/><path d="M156.22,167.77L156.34,167.73L156.17,167.79L156.33,167.73"/><path d="M156.34,167.73L156.28,167.75"/><path d="M156.91,171.16L157.28,172.24L157.48,172.16L157.44,172.18"/><path d="M157.61,172.12L157.48,172.16L157.82,172.05L157.57,172.14"/><path d="M157.48,172.16L157.53,172.15"/><path d="M162.15,165.73L162.77,165.52L162.30,165.68L162.77,165.52L162.38,165.65L162.77,165.52L162.73,165.53"/><path d="M162.39,165.65L162.30,165.68L162.38,165.65"/><path d="M162.74,165.53L162.30,165.68L162.76,165.52L162.74,165.53"/><path d="M162.76,165.52L162.30,165.68L162.39,165.65"/><path d="M162.30,165.68L162.70,165.54"/><path d="M162.35,165.66L162.77,165.52L162.34,165.66"/><path d="M162.77,165.52L164.88,164.79L162.77,165.52L164.11,165.05"/><path d="M163.64,170.05L163.83,169.98L163.64,170.05"/><path d="M163.83,169.98L164.88,169.62L163.83,169.98"/><path d="M163.83,165.15L164.88,164.79L163.83,165.15"/><path d="M164.88,164.79L165.36,164.62L164.88,164.79"/><path d="M165.72,169.33L164.88,169.62L166.32,169.12"/><path d="M166.45,169.08L165.94,169.25L166.01,169.23"/><path d="M165.94,169.25L167.32,168.78"/><path d="M165.62,169.36L164.88,169.62"/><path d="M165.80,164.47L165.36,164.62L165.90,164.44L165.36,164.62L165.90,164.44L165.36,164.62L165.90,164.44L165.36,164.62L165.90,164.44L165.36,164.62L165.90,164.44L165.78,164.48"/><path d="M165.89,164.44L165.94,164.42L165.36,164.62L165.94,164.42L165.36,164.62L165.89,164.44L165.39,164.61"/><path d="M165.94,164.43L166.47,164.24L166.08,164.38L166.25,164.32"/><path d="M167.00,168.89L167.13,168.84L167.00,168.89"/><path d="M166.06,164.38L165.95,164.42L167.00,164.06L166.47,164.24L167.00,164.06L166.70,164.16"/><path d="M166.92,164.09L167.88,163.76L167.26,163.97L167.88,163.76L167.26,163.97L167.88,163.76L167.39,163.92"/><path d="M167.13,168.84L167.67,168.66"/><path d="M167.84,168.60L167.13,168.84L169.37,168.07L167.88,163.76L167.24,163.98L167.88,163.76L167.59,163.86"/><path d="M167.13,168.84L167.32,168.78L167.13,168.84"/><path d="M167.69,163.82L167.25,163.97L167.88,163.76L167.26,163.97L167.88,163.76L167.29,163.96"/><path d="M167.11,164.02L167.00,164.06L167.88,163.76L167.11,164.02L167.23,163.98"/><path d="M167.81,163.78L167.26,163.97L167.88,163.76L167.39,163.92"/><path d="M167.88,163.76L167.28,163.96L167.88,163.76"/><path d="M167.28,163.96L167.69,163.82"/><path d="M169.06,168.18L168.83,168.26L168.94,168.22"/><path d="M168.62,168.33L169.03,168.19L168.75,168.29"/><path d="M168.83,168.26L169.11,168.16L168.81,168.26"/><path d="M168.66,168.32L168.08,168.52"/><path d="M169.11,168.16L169.12,168.16"/></g></g><g id="Actor_.14"><g style="stroke:#ffffff;stroke-width:0.353"><path d="M120.69,93.05L120.73,93.14L120.74,93.28L120.69,93.63L120.55,93.96L120.47,94.08L120.39,94.13"/><path d="M129.01,97.25L128.90,97.09"/><path d="M128.81,96.95L128.75,96.83L128.95,95.94L129.25,95.07L129.36,94.99"/><path d="M128.76,96.84L128.87,97.07"/><path d="M129.78,97.09L129.91,97.15L129.99,97.16"/><path d="M129.74,97.07L130.03,97.16"/><path d="M129.04,97.25L129.20,97.44L129.63,97.69L130.12,97.78L130.61,97.71L131.05,97.48L131.40,97.13L131.61,96.68L131.66,96.18L131.55,95.70L131.29,95.28L130.90,94.96L130.44,94.79L129.94,94.78L129.70,94.85"/><path d="M130.00,97.41L129.75,97.36L129.42,97.17L129.17,96.88L129.02,96.53L129.00,96.15L129.04,95.96L129.10,95.78L129.32,95.47L129.63,95.24L129.99,95.12L130.37,95.13L130.73,95.26L131.03,95.51L131.23,95.83L131.31,96.20L131.27,96.58L131.11,96.93L130.84,97.20L130.50,97.38L130.13,97.43L130.00,97.41"/><path d="M129.59,97.09L129.89,97.23L130.21,97.27L130.53,97.19L130.81,97.02L131.02,96.77L131.13,96.46L131.14,96.13L131.04,95.82L130.85,95.55L130.58,95.37L130.26,95.28L129.93,95.30L129.63,95.42L129.38,95.64L129.22,95.92L129.16,96.25L129.20,96.57L129.35,96.86L129.59,97.09"/><path d="M130.13,95.66L129.94,95.70L129.76,95.81L129.63,95.96L129.56,96.14L129.55,96.34L129.60,96.53L129.72,96.69L129.82,96.78L129.80,96.85"/><path d="M129.77,96.97L129.77,96.97"/><path d="M129.26,96.10L129.26,96.29"/><path d="M129.34,96.68L129.43,96.82"/><path d="M129.26,95.06L129.47,94.93"/><path d="M129.68,94.84L129.51,94.92"/><path d="M130.49,95.76L130.59,95.85L130.70,96.01L130.76,96.20L130.75,96.40L130.67,96.59L130.55,96.74L130.37,96.84L130.18,96.88"/><path d="M131.05,96.26L131.05,96.45"/><path d="M130.57,95.47L130.28,95.38"/><path d="M130.97,95.86L130.87,95.71"/><path d="M130.66,95.51L130.60,95.49"/><path d="M130.31,95.39L130.40,95.40L130.55,95.46"/><path d="M130.55,95.43L130.25,95.35"/></g><g style="stroke:#ffffff;stroke-width:0.705"><path d="M120.39,94.13L120.14,94.31L119.85,94.39L119.43,94.36L119.14,94.23L118.84,93.93L118.71,93.67L118.67,93.32L118.69,93.13L118.80,92.86L119.02,92.58L119.26,92.42L119.67,92.32L119.98,92.36L120.36,92.55L120.57,92.77L120.69,93.05"/><path d="M120.68,93.03L129.67,94.84L129.94,94.78L130.19,94.76L130.44,94.79L130.68,94.86L130.90,94.96L131.11,95.10L131.29,95.28L131.44,95.48L131.55,95.70L131.62,95.94L131.66,96.18L131.65,96.43L131.61,96.68L131.52,96.91L131.40,97.13L131.24,97.32L131.06,97.48L130.84,97.61L130.61,97.71L130.37,97.76L130.12,97.78L129.87,97.75L129.63,97.69L129.41,97.58L129.20,97.44L129.01,97.25L120.37,94.15"/><path d="M129.04,97.25L128.87,97.07L128.81,96.95"/><path d="M129.84,96.71L130.00,96.12L129.74,97.07L130.03,97.16L130.10,97.17L130.12,97.09L130.10,97.15L130.11,97.11"/><path d="M130.77,96.96L130.51,97.13L130.21,97.20L130.00,97.18L130.21,97.20L130.41,97.15L130.21,97.20L129.91,97.17L129.63,97.04L129.73,97.09L129.62,97.03L129.42,96.83L129.30,96.60L129.41,96.82L129.63,97.03L129.41,96.83L129.27,96.55L129.30,96.60"/><path d="M129.80,96.84L130.00,96.12L129.77,96.94"/><path d="M129.95,96.30L129.78,96.94L129.79,96.90"/><path d="M129.77,96.95L129.77,96.97"/><path d="M129.75,97.05L129.75,97.04"/><path d="M129.86,96.64L129.78,96.94L129.80,96.85"/><path d="M130.05,95.96L129.81,96.82"/><path d="M129.78,96.91L129.79,96.90"/><path d="M129.74,97.07L129.64,97.02L129.43,96.82"/><path d="M129.27,96.11L129.25,96.40L129.34,96.68"/><path d="M129.26,96.10L129.37,95.82L129.45,95.70L129.56,95.59L129.75,95.47L129.81,95.43L130.10,95.36L130.39,95.40"/><path d="M129.27,96.55L129.23,96.25L129.27,96.55L129.23,96.25L129.28,95.95L129.44,95.68L129.29,95.94L129.44,95.68L129.67,95.48L129.95,95.37L129.84,95.41L129.95,95.37L130.15,95.35"/><path d="M130.00,95.36L130.25,95.35L130.55,95.43L130.80,95.60L130.98,95.85L131.01,95.94L130.98,95.85L130.80,95.60L130.58,95.45L130.69,95.53"/><path d="M129.70,94.85L129.47,94.93L129.36,94.99"/><path d="M130.10,97.15L130.11,97.11"/><path d="M130.10,97.16L130.12,97.09L130.10,97.16L130.11,97.12"/><path d="M130.10,97.17L130.21,97.18L130.50,97.11L130.75,96.96L130.94,96.73L131.05,96.45"/><path d="M130.58,97.09L130.77,96.97L130.58,97.09"/><path d="M130.10,97.17L130.10,97.16"/><path d="M130.12,97.07L130.12,97.09L130.41,96.03L130.12,97.09L130.13,97.06"/><path d="M130.13,97.05L130.12,97.09L130.18,96.88"/><path d="M130.06,95.92L130.03,96.03L130.04,95.97"/><path d="M130.18,95.50L130.18,95.48L130.03,96.03L130.21,95.37"/><path d="M130.97,95.86L131.06,96.15L131.04,96.44"/><path d="M130.12,97.09L130.35,96.26"/><path d="M130.41,96.03L130.53,95.61"/><path d="M130.77,96.97L130.96,96.73L131.07,96.45L131.07,96.14L130.98,95.86L130.80,95.60"/><path d="M130.56,95.51L130.54,95.58L130.57,95.48L130.40,95.41"/><path d="M130.55,95.53L130.49,95.76"/><path d="M130.56,95.50L130.53,95.61L130.55,95.55"/><path d="M130.60,95.49L130.57,95.47"/><path d="M130.21,95.40L130.16,95.57"/><path d="M130.18,95.51L130.21,95.38"/><path d="M130.16,95.54L130.17,95.53"/><path d="M130.66,95.51L130.87,95.71"/><path d="M130.55,95.43L130.50,95.41"/><path d="M130.51,95.70L130.55,95.56"/></g></g><g id="Actor_.15"><g style="stroke:#ffffff;stroke-width:0.353"><path d="M133.73,107.67L132.22,103.29"/><path d="M142.99,104.49L141.48,100.10"/></g><g style="stroke:#ffffff;stroke-width:0.705"><path d="M141.29,105.07L141.63,104.95L129.73,109.05L128.22,104.67L130.00,104.05L128.95,104.41L129.47,104.23"/><path d="M128.51,105.53L128.22,104.67L130.98,103.71"/><path d="M129.36,104.27L130.00,104.05L128.95,104.41L129.36,104.27"/><path d="M129.85,104.10L130.00,104.05L128.95,104.41L129.85,104.10"/><path d="M129.49,104.23L128.95,104.41L130.00,104.05L129.49,104.23"/><path d="M129.37,104.27L130.00,104.05L128.95,104.41L130.00,104.05L129.38,104.26"/><path d="M129.38,104.27L130.00,104.05L128.95,104.41"/><path d="M130.00,104.05L131.06,103.69L130.00,104.05L131.06,103.69L130.00,104.05L131.06,103.69L130.00,104.05L131.06,103.69L130.00,104.05L131.06,103.69L130.00,104.05L131.06,103.69L130.00,104.05L131.06,103.69L130.00,104.05L130.49,103.88"/><path d="M133.88,102.71L134.23,102.59L130.00,104.05L132.12,103.32L131.84,103.42L132.12,103.32L131.84,103.42L132.12,103.32L131.84,103.42L132.12,103.32L131.84,103.42L131.86,103.41"/><path d="M130.00,104.05L130.12,104.01"/><path d="M131.06,103.69L131.19,103.64"/><path d="M131.91,103.39L131.84,103.42L131.96,103.38L131.89,103.40"/><path d="M131.84,103.42L132.11,103.32L131.96,103.38"/><path d="M131.84,103.42L134.23,102.59L133.85,102.73"/><path d="M131.85,103.41L131.91,103.40"/><path d="M132.27,103.27L132.12,103.32L133.17,102.96L132.12,103.32L133.17,102.96L132.12,103.32L133.17,102.96L132.12,103.32L133.17,102.96L132.61,103.15"/><path d="M132.75,103.10L132.65,103.14L133.17,102.96L132.50,103.19"/><path d="M132.93,103.04L133.17,102.96L132.76,103.10L132.93,103.04L132.80,103.09"/><path d="M132.78,103.09L133.17,102.96L132.12,103.32"/><path d="M134.14,102.63L133.17,102.96L134.23,102.59L132.66,103.14"/><path d="M133.34,102.90L134.23,102.59L133.17,102.96L134.23,102.59L133.17,102.96L134.23,102.59L133.23,102.94"/><path d="M134.00,102.68L133.17,102.96L134.23,102.59L133.17,102.96L134.23,102.59L133.17,102.96L133.56,102.82"/><path d="M133.17,102.96L134.23,102.59L133.95,102.69"/><path d="M132.31,103.26L132.46,103.20"/><path d="M133.12,102.98L132.97,103.03"/><path d="M132.96,103.03L133.16,102.96"/><path d="M132.65,103.14L132.43,103.22"/><path d="M133.33,107.81L134.06,107.56"/><path d="M134.21,102.60L134.91,102.36L133.34,102.90"/><path d="M133.18,102.96L133.80,102.74"/><path d="M133.22,102.94L133.20,102.95"/><path d="M134.29,102.57L134.23,102.59L134.44,102.52"/><path d="M134.91,102.36L135.29,102.23L134.23,102.59"/><path d="M134.83,102.39L134.23,102.59L134.54,102.49"/><path d="M134.23,102.59L134.91,102.36L134.27,102.58"/><path d="M136.16,101.93L136.35,101.87L134.91,102.36"/><path d="M136.25,101.90L136.18,101.92L136.35,101.87L135.29,102.23L136.35,101.87L135.29,102.23L135.68,102.10"/><path d="M135.29,102.23L137.40,101.50L136.35,101.87L136.55,101.80"/><path d="M135.92,102.01L135.29,102.23L136.35,101.87L135.92,102.01"/><path d="M136.14,101.94L136.14,101.94"/><path d="M136.27,101.89L136.35,101.87L135.29,102.23L136.35,101.87L135.29,102.23L136.35,101.87L135.29,102.23L136.35,101.87L135.91,102.02"/><path d="M135.72,102.08L135.71,102.08"/><path d="M135.87,102.03L135.99,101.99L135.29,102.23L137.02,101.64"/><path d="M135.29,102.23L138.46,101.14L137.54,101.46"/><path d="M135.87,102.03L135.92,102.01"/><path d="M136.18,101.92L136.16,101.93"/><path d="M136.35,101.87L136.55,101.80"/><path d="M136.30,101.88L135.99,101.99"/><path d="M136.38,101.85L136.51,101.81L136.35,101.87L136.78,101.72"/><path d="M137.02,101.64L136.35,101.87L136.85,101.69L136.51,101.81L136.62,101.77"/><path d="M136.35,101.87L136.42,101.84"/><path d="M136.81,101.71L137.40,101.50L137.26,101.55"/><path d="M136.85,101.69L137.30,101.54"/><path d="M137.20,101.57L137.09,101.61"/><path d="M136.40,101.85L136.37,101.86"/><path d="M136.85,101.69L137.08,101.61"/><path d="M137.52,101.46L137.40,101.50L137.97,101.31L137.33,101.53"/><path d="M137.71,101.40L137.97,101.31L137.90,101.33"/><path d="M137.56,101.45L137.58,101.44"/><path d="M137.97,101.31L139.52,100.77L138.28,101.20"/><path d="M137.46,101.48L137.53,101.46"/><path d="M137.98,101.30L138.46,101.14L137.83,101.36"/><path d="M137.97,101.31L139.47,100.79"/><path d="M138.23,101.22L139.52,100.77L138.46,101.14L138.59,101.09"/><path d="M138.01,101.29L137.98,101.30"/><path d="M138.46,101.14L145.49,98.72L147.00,103.11L141.45,105.02"/><path d="M140.31,100.50L139.52,100.77L140.57,100.41L139.52,100.77L140.57,100.41L139.52,100.77L139.72,100.71"/><path d="M140.38,100.48L140.57,100.41L139.52,100.77L140.57,100.41L140.45,100.45L140.50,100.44"/><path d="M140.45,100.45L140.29,100.51"/><path d="M140.43,100.46L140.20,100.54"/><path d="M140.53,100.43L140.50,100.43"/><path d="M140.66,100.38L140.57,100.41L141.04,100.25L140.58,100.41L140.84,100.32"/><path d="M140.57,100.41L141.03,100.25L140.57,100.41"/><path d="M139.52,100.77L140.36,100.49"/><path d="M141.10,105.14L140.88,105.21"/><path d="M141.29,100.16L141.04,100.25L141.63,100.05L140.99,100.27"/><path d="M141.49,100.09L142.69,99.68L141.64,100.04"/><path d="M141.70,104.93L141.63,104.95L141.68,104.94"/><path d="M142.66,104.60L143.74,104.23L143.08,104.46"/><path d="M141.75,100.00L141.91,99.95"/><path d="M141.85,99.97L141.65,100.04L142.69,99.68L141.83,99.98"/><path d="M143.70,99.34L141.80,99.99"/><path d="M143.04,99.56L142.69,99.68L144.10,99.20L143.74,99.32L143.98,99.24"/><path d="M143.74,104.23L145.86,103.50L144.80,103.86"/><path d="M144.70,98.99L144.10,99.20L144.23,99.15"/><path d="M146.06,103.43L145.86,103.50L146.09,103.42L146.06,103.43"/><path d="M146.04,103.43L145.86,103.50L146.09,103.42L146.04,103.43"/><path d="M146.05,103.43L145.86,103.50L146.09,103.42L146.05,103.43"/><path d="M146.09,103.42L146.91,103.13L146.09,103.42"/></g></g><g id="Actor_.16"><g style="stroke:#ffffff;stroke-width:0.705"><path d="M124.15,92.86L124.47,93.79L123.46,90.85L124.72,90.42L123.74,90.75"/><path d="M125.61,97.09L125.78,97.58L125.19,95.88L125.24,96.03"/><path d="M125.14,90.27L125.78,90.05L124.72,90.42L125.14,90.27"/><path d="M130.87,103.75L131.06,103.69L128.22,104.67L126.33,99.20L126.70,100.25"/><path d="M126.33,99.20L125.78,97.58"/><path d="M125.78,90.05L127.89,89.32L126.83,89.69"/><path d="M127.79,103.42L127.42,102.36"/><path d="M130.38,88.47L127.89,89.32L128.74,89.03"/><path d="M131.06,103.69L131.84,103.42L131.22,103.63"/><path d="M130.00,88.60L134.23,87.14L133.72,87.32"/><path d="M131.85,103.42L132.12,103.32L131.84,103.42L132.09,103.33L131.96,103.38"/><path d="M131.84,103.42L132.10,103.33"/><path d="M132.68,103.13L132.12,103.32L133.17,102.96L132.68,103.13"/><path d="M133.04,103.01L134.67,102.44"/><path d="M132.12,103.32L132.28,103.27L132.12,103.32"/><path d="M134.61,102.46L134.91,102.36L134.23,102.59L134.54,102.49"/><path d="M135.18,102.27L134.91,102.36L135.16,102.28"/><path d="M134.91,102.36L136.35,101.87L135.29,102.23L136.32,101.88L135.29,102.23L136.16,101.93L135.71,102.08"/><path d="M134.23,87.14L136.00,86.53L135.29,86.78"/><path d="M136.11,101.95L135.29,102.23L136.34,101.87"/><path d="M136.30,101.88L135.87,102.03"/><path d="M136.16,101.93L136.26,101.90"/><path d="M136.30,101.88L136.32,101.88"/><path d="M136.00,86.53L136.48,86.37"/><path d="M136.35,86.41L137.72,85.94"/><path d="M136.81,101.71L136.35,101.87L137.40,101.50L136.35,101.87L136.80,101.71"/><path d="M136.35,101.87L136.81,101.71"/><path d="M138.84,101.01L139.52,100.77L136.55,101.80"/><path d="M136.54,101.80L136.45,101.83"/><path d="M137.40,86.05L140.73,84.90L141.63,87.52L141.03,85.77"/><path d="M139.07,100.93L139.52,100.77L139.02,100.95"/><path d="M139.97,100.62L140.57,100.41L139.52,100.77L140.57,100.41L140.17,100.55"/><path d="M139.52,100.77L140.57,100.41L140.28,100.51"/><path d="M140.81,100.33L140.39,100.47"/><path d="M140.63,100.39L140.57,100.41L141.63,100.05L141.36,100.14L141.51,100.09"/><path d="M140.42,100.46L140.52,100.43L140.42,100.46"/><path d="M140.77,100.34L140.67,100.38L140.78,100.34"/><path d="M141.44,100.11L141.48,100.10L141.44,100.11"/><path d="M141.55,87.28L142.69,90.59L142.38,89.70"/><path d="M141.77,100.00L142.69,99.68L141.64,100.04L142.69,99.68L141.78,99.99"/><path d="M142.69,90.59L143.36,92.54L142.74,90.75"/><path d="M142.02,88.64L141.91,88.32"/><path d="M143.12,99.53L142.69,99.68L143.74,99.32L143.12,99.53"/><path d="M143.19,99.51L142.71,99.67L143.74,99.32L143.19,99.51"/><path d="M142.69,99.68L144.80,98.96L144.10,99.20"/><path d="M143.47,92.86L143.74,93.66L143.36,92.54"/><path d="M145.49,98.72L144.80,98.96L145.49,98.72L144.80,98.96L145.49,98.72L144.56,96.03L144.86,96.92"/><path d="M144.56,96.03L143.74,93.66"/></g></g><g id="Actor_.17"><g style="stroke:#ffffff;stroke-width:0.705"><path d="M131.59,114.46L124.37,114.46L123.30,114.11L122.63,113.20L122.54,94.93"/><path d="M124.06,92.59L123.34,92.86L122.81,93.45"/><path d="M143.36,92.54L171.86,92.54L172.89,92.86L173.34,93.29L173.60,93.80L173.69,172.83L173.60,173.47L173.14,174.18"/><path d="M147.14,174.44L147.55,174.64L146.84,174.18"/><path d="M146.78,174.12L146.61,173.92"/><path d="M146.64,173.98L146.29,172.91L146.29,157.15"/><path d="M146.28,101.01L152.84,99.99L153.26,100.06L153.63,100.44L153.68,100.92L153.26,101.46L146.79,102.50"/><path d="M147.55,174.64L171.86,174.73L172.83,174.44"/><path d="M172.42,174.64L173.20,174.12"/><path d="M173.34,173.98L173.37,173.92"/></g></g><g id="Actor_.18"><g style="stroke:#ffffff;stroke-width:0.353"><path d="M135.37,111.36L143.97,108.40"/></g><g style="stroke:#ffffff;stroke-width:0.705"><path d="M138.83,113.45L139.52,113.22L138.83,113.45L135.37,111.36L134.06,107.56"/><path d="M140.03,113.04L139.52,113.22L140.10,113.02"/><path d="M139.80,113.12L140.39,112.91L140.31,112.94"/><path d="M139.52,113.22L139.74,113.14"/><path d="M141.01,112.70L140.39,112.91L140.46,112.89"/><path d="M141.33,112.59L141.63,112.49L141.55,112.51"/><path d="M142.45,112.21L141.39,112.57"/><path d="M141.63,112.49L142.53,112.18L143.97,108.40L142.66,104.60"/><path d="M141.56,112.51L140.57,112.85"/><path d="M142.38,112.23L142.19,112.29"/><path d="M142.23,112.28L142.03,112.35"/></g></g><g id="Actor_.19"><g style="stroke:#ffffff;stroke-width:0.353"/><g style="stroke:#ffffff;stroke-width:0.705"><path d="M247.53,98.10L247.53,147.33L251.17,147.33L251.17,146.74L251.17,147.33L253.02,147.33L253.02,96.10"/><path d="M251.17,40.81L251.17,8.15L247.53,8.15L247.53,40.81"/><path d="M251.17,146.45L251.17,146.68L251.17,144.57L251.17,145.29"/><path d="M251.17,146.12L251.17,146.12"/><path d="M251.17,145.95L251.17,145.78"/><path d="M251.17,146.28L251.17,146.61"/><path d="M251.17,146.34L251.17,146.40"/><path d="M251.17,145.33L251.17,145.54"/><path d="M251.17,144.57L251.17,131.02L251.17,131.91"/><path d="M251.17,130.97L251.17,131.21"/><path d="M251.17,130.88L251.17,129.80L251.17,130.43L251.17,129.80L251.17,130.18"/><path d="M251.17,96.78L251.17,129.77"/><path d="M251.17,130.69L251.17,130.50L251.17,130.85L251.17,130.69"/><path d="M251.17,8.15L253.02,8.15L253.02,40.81"/><path d="M253.02,147.33L260.30,147.33L260.30,145.63L260.30,146.55L260.30,145.78"/><path d="M253.02,8.15L260.30,8.15L260.30,40.81"/><path d="M260.30,147.33L262.12,147.33L262.15,146.77L262.15,93.78"/><path d="M260.30,146.68L260.30,146.58"/><path d="M260.30,145.95L260.30,144.57L260.30,145.58L260.30,145.33"/><path d="M260.30,146.35L260.30,146.60"/><path d="M260.30,146.28L260.30,146.39"/><path d="M260.30,145.54L260.30,145.29"/><path d="M260.30,131.91L260.30,130.98L260.30,144.57"/><path d="M260.30,130.87L260.30,131.21"/><path d="M260.30,130.98L260.30,130.98"/><path d="M260.30,130.85L260.30,128.74L260.30,129.80"/><path d="M260.30,129.99L260.30,130.18"/><path d="M260.30,129.77L260.30,93.78"/><path d="M260.30,8.15L262.12,8.15L262.15,8.44L262.15,40.81"/><path d="M262.15,147.33L265.79,147.33L265.79,8.15L262.15,8.15"/></g></g><g id="Actor_.20"><g style="stroke:#ffffff;stroke-width:0.705"><path d="M253.02,146.69L251.17,146.69"/><path d="M251.17,145.24L253.02,145.24"/><path d="M262.15,146.69L260.30,146.69"/><path d="M260.30,145.24L262.15,145.24"/></g></g><g id="Actor_.21"><g style="stroke:#ffffff;stroke-width:0.353"><path d="M239.47,126.12L237.31,126.12"/></g><g style="stroke:#ffffff;stroke-width:0.705"><path d="M239.47,126.40L239.47,126.12L239.32,125.98L237.45,125.98L237.31,126.12"/><path d="M237.31,126.12L237.31,126.59"/></g></g><g id="Actor_.22"><g style="stroke:#ffffff;stroke-width:0.705"><path d="M59.09,147.33L15.56,147.33L15.56,143.74L15.85,143.69L59.09,143.69"/><path d="M15.56,143.69L15.56,134.56L59.09,134.56"/><path d="M15.56,141.85L59.09,141.85"/><path d="M59.09,132.71L15.56,132.71L15.56,134.56"/><path d="M59.09,129.07L15.56,129.07L15.56,132.71"/><path d="M90.14,147.33L142.91,147.33"/><path d="M136.62,129.07L90.14,129.07"/><path d="M91.97,143.69L141.63,143.69"/><path d="M91.97,141.85L141.02,141.85"/><path d="M91.97,134.56L138.51,134.56"/><path d="M137.87,132.71L91.97,132.71"/><path d="M173.69,143.69L247.32,143.69L247.53,144.57L247.53,147.33L173.69,147.33"/><path d="M173.69,141.85L247.32,141.85L247.53,141.41L247.53,134.56L173.69,134.56"/><path d="M173.69,132.71L247.32,132.71L247.53,131.91L247.53,129.07L173.69,129.07"/></g></g><g id="Actor_.23"><g style="stroke:#ffffff;stroke-width:0.353"/><g style="stroke:#ffffff;stroke-width:0.705"><path d="M14.80,129.11L15.56,129.07L15.56,147.33L14.64,147.29L14.80,147.29L14.64,147.29L14.64,129.12L14.80,129.11L14.64,129.12"/><path d="M14.80,147.29L15.56,147.33"/></g></g><g id="Actor_.24"><g style="stroke:#ffffff;stroke-width:0.705"><path d="M253.02,131.16L251.17,131.16"/><path d="M251.17,129.72L253.02,129.72"/><path d="M262.15,131.16L260.30,131.16"/><path d="M260.30,129.72L262.15,129.72"/></g></g><g id="Actor_.25"><g style="stroke:#ffffff;stroke-width:0.353"><path d="M244.58,114.29L244.58,116.45"/></g><g style="stroke:#ffffff;stroke-width:0.705"><path d="M245.47,114.29L244.58,114.29L244.43,114.43L244.43,116.31L244.58,116.45L245.27,116.45"/><path d="M247.53,116.09L247.25,116.09"/><path d="M247.25,114.65L247.53,114.65"/></g></g><g id="Actor_.26"><g style="stroke:#ffffff;stroke-width:0.353"><path d="M170.19,142.59L170.08,142.25L169.86,141.97L169.56,141.77L169.21,141.68L168.85,141.71L168.53,141.86L168.39,141.98L168.26,142.10L168.09,142.42L168.03,142.77L168.09,143.12L168.26,143.44L168.53,143.68L168.85,143.82L169.11,143.84L169.21,143.85L169.56,143.76L169.86,143.57L170.08,143.29L170.19,142.95"/><path d="M168.89,143.68L168.61,143.56L168.38,143.35L168.23,143.07L168.18,142.77L168.23,142.46L168.38,142.19L168.61,141.98L168.89,141.86L169.20,141.83L169.50,141.91L169.76,142.08L169.95,142.32L170.05,142.61L170.06,142.77L170.05,142.92L169.95,143.22L169.76,143.46L169.67,143.52L169.50,143.63L169.20,143.71L168.89,143.68"/><path d="M169.44,143.25L169.12,142.77L168.83,142.27L168.89,142.24L169.07,142.19L169.26,142.21L169.41,142.27L169.44,142.28L169.58,142.41L169.67,142.58L169.70,142.77L169.67,142.96L169.58,143.12L169.44,143.25L169.41,143.27L169.26,143.33L169.07,143.35L168.89,143.30L168.83,143.27L168.73,143.19L168.61,143.04L168.55,142.86L168.54,142.77L168.55,142.67L168.61,142.49L168.73,142.34L168.83,142.27"/><path d="M168.73,143.19L169.12,142.77L169.67,142.58"/><path d="M168.54,142.77L169.12,142.77"/></g><g style="stroke:#ffffff;stroke-width:0.705"><path d="M170.20,142.87L170.19,142.95L170.15,143.12L170.08,143.29L169.98,143.44L169.86,143.57L169.72,143.68L169.56,143.76L169.39,143.82L169.21,143.85L169.03,143.85L168.85,143.82L168.68,143.76L168.53,143.68L168.38,143.57L168.26,143.44L168.16,143.29L168.09,143.12L168.05,142.95L168.03,142.77L168.05,142.59L168.09,142.42L168.16,142.25L168.26,142.10L168.38,141.97L168.53,141.86L168.68,141.77L168.85,141.71L169.03,141.68L169.21,141.68L169.39,141.71L169.56,141.77L169.72,141.86L169.86,141.97L169.98,142.10L170.08,142.25L170.15,142.42L170.19,142.59L170.20,142.67"/><path d="M168.54,143.10L168.54,142.46L168.54,143.10L169.12,143.44L169.70,143.10L169.70,142.46L169.70,143.10"/><path d="M169.70,142.46L169.70,142.43L169.12,142.10L168.54,142.43L168.54,142.77"/><path d="M169.10,143.43L168.83,143.27L169.10,143.43"/><path d="M168.83,143.27L168.54,143.11L168.83,143.27"/><path d="M168.54,142.43L169.10,142.11L168.54,142.43"/><path d="M169.70,143.10L169.41,143.27L169.70,143.10"/><path d="M169.41,143.27L169.13,143.43L169.41,143.27"/><path d="M169.41,142.27L169.70,142.43L169.41,142.27"/><path d="M169.13,142.10L169.41,142.27L169.13,142.10"/><path d="M170.19,142.59L170.21,142.77L170.19,142.95"/></g></g><g id="Actor_.27"><g style="stroke:#ffffff;stroke-width:0.705"><path d="M85.23,166.83L71.88,166.83L71.88,162.19L89.27,162.19L89.27,166.83L88.68,166.83"/></g></g><g id="Actor_.28"><g style="stroke:#ffffff;stroke-width:0.353"><path d="M170.19,133.46L170.08,133.12L169.86,132.84L169.56,132.64L169.21,132.55L168.85,132.58L168.53,132.73L168.27,132.96L168.09,133.28L168.03,133.64L168.09,133.99L168.26,134.30L168.53,134.55L168.85,134.69L169.11,134.71L169.21,134.72L169.56,134.63L169.86,134.44L170.08,134.15L170.19,133.81"/><path d="M169.11,134.57L168.89,134.55L168.61,134.42L168.38,134.21L168.23,133.94L168.18,133.64L168.23,133.33L168.38,133.06L168.61,132.85L168.89,132.72L169.20,132.70L169.50,132.77L169.76,132.94L169.95,133.19L170.05,133.48L170.06,133.64L170.05,133.79L169.95,134.08L169.76,134.33L169.50,134.50L169.20,134.57L169.11,134.57"/><path d="M169.44,134.12L169.41,134.14L169.26,134.20L169.07,134.21L168.89,134.17L168.83,134.14L168.73,134.06L169.12,133.64L169.44,134.12L169.58,133.99L169.67,133.82L169.70,133.64L169.67,133.45L169.58,133.28L169.44,133.15L169.41,133.13L169.26,133.07L169.07,133.06L168.89,133.10L168.83,133.13L168.73,133.21L168.61,133.36L168.55,133.54L168.54,133.64L168.55,133.73L168.61,133.91L168.73,134.06"/><path d="M168.83,133.13L169.12,133.64L168.54,133.64"/><path d="M169.12,133.64L169.67,133.45"/></g><g style="stroke:#ffffff;stroke-width:0.705"><path d="M170.19,133.46L170.21,133.64L170.19,133.81L170.15,133.99L170.08,134.15L169.98,134.30L169.86,134.44L169.72,134.55L169.56,134.63L169.39,134.69L169.21,134.72L169.03,134.72L168.85,134.69L168.68,134.63L168.53,134.55L168.38,134.44L168.26,134.30L168.16,134.15L168.09,133.99L168.05,133.81L168.03,133.64L168.05,133.46L168.09,133.28L168.16,133.12L168.26,132.97L168.38,132.84L168.53,132.73L168.68,132.64L168.85,132.58L169.03,132.55L169.21,132.55L169.39,132.58L169.56,132.64L169.72,132.73L169.86,132.84L169.98,132.97L170.08,133.12L170.15,133.28L170.19,133.46L170.20,133.53"/><path d="M168.83,134.14L169.10,134.30L168.83,134.14"/><path d="M168.54,133.97L168.83,134.14L168.54,133.97L168.54,133.30L168.54,133.97"/><path d="M168.63,134.02L169.12,134.31L169.70,133.97L169.70,133.30L169.12,132.97L168.54,133.30L168.54,133.64"/><path d="M168.83,133.13L169.10,132.98L168.54,133.30L168.83,133.13"/><path d="M169.61,134.02L169.70,133.97"/><path d="M169.70,133.97L169.70,133.30"/><path d="M169.41,133.13L169.70,133.30L169.13,132.97L169.41,133.13"/><path d="M170.19,133.81L170.20,133.74"/></g></g><g id="Actor_.29"><g style="stroke:#ffffff;stroke-width:0.353"><path d="M68.22,171.47L68.22,166.83"/></g><g style="stroke:#ffffff;stroke-width:0.705"><path d="M59.09,171.47L59.09,166.83L77.36,166.83L77.36,171.47L59.09,171.47"/></g></g><g id="Actor_.30"><g style="stroke:#ffffff;stroke-width:0.705"><path d="M77.36,171.47L77.36,186.08L59.09,186.08L59.09,171.47"/></g></g><g id="Actor_.31"><g style="stroke:#ffffff;stroke-width:0.353"><path d="M71.85,178.78L71.90,179.08L72.05,179.35L72.27,179.56L72.56,179.69L72.87,179.71L73.17,179.64L73.43,179.47L73.62,179.22L73.72,178.93L73.73,178.78L73.72,178.62L73.62,178.33L73.43,178.08L73.17,177.91L72.87,177.84L72.56,177.86L72.27,177.99L72.05,178.20L71.90,178.47L71.85,178.78"/><path d="M73.86,178.95L73.75,179.29L73.53,179.58L73.23,179.77L72.88,179.86L72.52,179.83L72.19,179.69L71.93,179.44L71.76,179.13L71.70,178.78L71.76,178.42L71.93,178.11L72.19,177.86L72.36,177.79L72.52,177.72L72.88,177.69L73.23,177.78L73.53,177.97L73.75,178.26L73.86,178.60"/><path d="M72.50,178.27L72.40,178.35L72.28,178.50L72.22,178.68L72.21,178.78L72.22,178.87L72.28,179.05L72.40,179.20L72.50,179.28L72.56,179.31L72.74,179.35L72.93,179.34L73.08,179.28L73.11,179.26L73.25,179.13L73.34,178.96L73.37,178.78L73.34,178.59L72.79,178.78L72.50,178.27L72.56,178.24L72.74,178.20L72.93,178.21L73.08,178.27L73.11,178.29L73.25,178.42L73.34,178.59"/><path d="M72.21,178.78L72.79,178.78L72.40,179.20"/><path d="M72.79,178.78L73.11,179.26"/></g><g style="stroke:#ffffff;stroke-width:0.705"><path d="M71.76,178.42L71.72,178.60L71.70,178.78L71.72,178.95L71.76,179.13L71.83,179.29L71.93,179.44L72.05,179.58L72.19,179.69L72.35,179.77L72.52,179.83L72.70,179.86L72.88,179.86L73.06,179.83L73.23,179.77L73.38,179.69L73.53,179.58L73.65,179.44L73.75,179.29L73.82,179.13L73.86,178.95L73.88,178.78L73.86,178.60L73.82,178.42L73.75,178.26L73.65,178.11L73.53,177.97L73.38,177.86L73.23,177.78L73.06,177.72L72.88,177.69L72.70,177.69L72.52,177.72L72.35,177.78L72.19,177.86L72.05,177.97L71.93,178.11L71.83,178.26L71.76,178.42"/><path d="M72.80,179.44L72.87,179.40L72.79,179.44L72.71,179.40L72.78,179.44"/><path d="M72.87,179.40L73.37,179.11L73.37,178.44L72.79,178.11L72.21,178.44L72.21,179.11L72.71,179.40"/><path d="M72.93,179.36L73.34,179.12L72.93,179.36"/><path d="M72.50,179.28L72.26,179.14L72.50,179.28"/><path d="M72.26,178.41L72.78,178.11L72.50,178.27"/><path d="M72.80,178.11L73.08,178.27L72.93,178.19"/><path d="M73.87,178.72L73.88,178.78L73.87,178.83"/></g></g><g id="Actor_.32"><g style="stroke:#ffffff;stroke-width:0.353"><path d="M86.67,167.95L86.58,167.93L86.32,167.76L86.13,167.52L86.03,167.23L86.02,166.92L86.12,166.62L86.31,166.38L86.57,166.20L86.87,166.12L87.17,166.15L87.46,166.27L87.58,166.36L87.69,166.48L87.84,166.75L87.89,167.05L87.85,167.36L87.70,167.63L87.48,167.84L87.19,167.97L86.89,168.00L86.67,167.95"/><path d="M87.54,166.14L87.21,166.00L86.85,165.98L86.51,166.07L86.21,166.27L85.99,166.55L85.88,166.89L85.88,167.07L85.88,167.25L86.00,167.59L86.23,167.87L86.53,168.06L86.88,168.15L87.23,168.11L87.56,167.97L87.82,167.72L87.99,167.40L88.01,167.23L88.04,167.05L87.98,166.70L87.80,166.38"/><path d="M86.39,166.94L86.40,166.88L86.49,166.71L86.63,166.58L86.77,166.51L86.81,166.50L87.00,166.48L87.18,166.53L87.34,166.63L87.46,166.78L87.52,166.96L87.53,167.15L87.52,167.18L87.47,167.33L87.35,167.48L87.19,167.59L87.13,167.61L87.01,167.64L86.82,167.63L86.64,167.55L86.57,167.49L86.50,167.42L86.41,167.26L86.37,167.07L86.39,166.94L86.95,167.06L87.53,167.15"/><path d="M86.57,167.49L86.95,167.06L87.01,167.64"/><path d="M86.95,167.06L87.18,166.53"/></g><g style="stroke:#ffffff;stroke-width:0.705"><path d="M88.03,166.88L88.04,167.05L88.03,167.23L87.99,167.40L87.91,167.57L87.82,167.72L87.70,167.85L87.56,167.97L87.40,168.05L87.23,168.11L87.06,168.14L86.88,168.15L86.70,168.12L86.53,168.06L86.37,167.98L86.23,167.87L86.10,167.74L86.00,167.59L85.93,167.43L85.88,167.25L85.87,167.08L85.88,166.89L85.92,166.72L85.99,166.55L86.09,166.40L86.21,166.27L86.35,166.16L86.51,166.07L86.68,166.01L86.85,165.98L87.03,165.98L87.21,166.00L87.37,166.06"/><path d="M87.46,166.73L87.09,166.41L87.59,166.85L87.45,167.51L86.81,167.72L86.32,167.27L86.39,166.94L86.32,167.27L86.53,167.46L86.32,167.27L86.46,166.61L86.67,166.54L86.46,166.61"/><path d="M86.43,166.73L86.45,166.64"/><path d="M87.52,167.18L87.59,166.85L87.52,167.18"/><path d="M87.13,167.61L87.37,167.54L87.13,167.61"/><path d="M87.52,167.18L87.46,167.49L87.52,167.18"/><path d="M87.13,167.61L86.88,167.70L87.13,167.61"/><path d="M86.81,167.72L86.67,167.59"/><path d="M87.59,166.18L87.67,166.25"/><path d="M87.39,166.07L87.54,166.14L87.68,166.25L87.80,166.38L87.90,166.52"/><path d="M86.77,166.51L87.07,166.42L86.67,166.54L87.09,166.41L87.34,166.63"/><path d="M87.70,166.27L87.69,166.26"/><path d="M88.02,166.86L87.98,166.70L87.91,166.55"/></g></g><g id="Actor_.33"><g style="stroke:#ffffff;stroke-width:0.705"><path d="M82.75,166.83L82.75,167.29"/><path d="M84.20,166.83L84.20,167.29"/></g></g><g id="Actor_.34"><g style="stroke:#ffffff;stroke-width:0.353"><path d="M87.63,165.48L87.40,165.38L86.83,165.33L86.28,165.46L85.79,165.77L85.44,166.21L85.24,166.75L85.23,167.32L85.41,167.87L85.76,168.33L86.23,168.64L86.79,168.79L87.07,168.77"/><path d="M88.13,166.99L88.15,167.08L88.08,167.46L87.88,167.81L87.59,168.07L87.23,168.22L86.84,168.25L86.46,168.15L86.13,167.93L85.90,167.61L85.78,167.24L85.78,166.85L85.91,166.48L86.16,166.17L86.49,165.96L86.87,165.87L87.16,165.90"/><path d="M87.62,168.64L87.89,168.53L88.31,168.15L88.59,167.65L88.69,167.09L88.61,166.56"/><path d="M88.61,166.54L88.57,166.44"/><path d="M88.19,165.87L88.34,166.01L88.38,166.08"/><path d="M87.97,165.66L87.93,165.62L87.82,165.57"/></g><g style="stroke:#ffffff;stroke-width:0.705"><path d="M85.64,168.19L85.57,168.11L85.41,167.87L85.37,167.77"/><path d="M85.23,167.21L85.23,167.32L85.30,167.60L85.34,167.70"/><path d="M85.27,166.64L85.24,166.75L85.21,167.04L85.22,167.14"/><path d="M85.88,165.70L85.79,165.77L85.60,165.97L85.54,166.06"/><path d="M85.29,166.57L85.32,166.47L85.44,166.21L85.50,166.12"/><path d="M86.07,168.56L85.98,168.50L85.76,168.33L85.68,168.24"/><path d="M86.14,168.59L86.23,168.65L86.50,168.74L86.61,168.76"/><path d="M86.95,165.33L86.83,165.33L86.55,165.37L86.45,165.40"/><path d="M85.94,165.65L86.02,165.59L86.28,165.46L86.38,165.42"/><path d="M87.28,168.76L87.36,168.75L87.63,168.66L87.72,168.62"/><path d="M87.18,168.78L87.07,168.80L86.79,168.79L86.68,168.77"/><path d="M87.07,168.77L87.36,168.75L87.55,168.67"/><path d="M87.62,168.64L87.36,168.75L87.25,168.77"/><path d="M88.01,165.68L87.93,165.62L87.66,165.47"/><path d="M87.51,165.42L87.40,165.38L87.12,165.33L87.02,165.33"/><path d="M88.19,168.28L88.11,168.36L87.88,168.53L87.79,168.58"/><path d="M88.23,168.23L88.31,168.15L88.47,167.91L88.52,167.82"/><path d="M88.65,166.70L88.67,166.80L88.69,167.09L88.68,167.20"/><path d="M88.68,167.27L88.67,167.37L88.59,167.65L88.54,167.75"/><path d="M88.44,166.17L88.49,166.25L88.61,166.54"/><path d="M88.07,165.73L88.15,165.80L88.34,166.01L88.40,166.11"/></g></g><g id="Actor_.35"><g style="stroke:#ffffff;stroke-width:0.705"><path d="M88.67,167.29L89.27,167.29L89.27,171.93L81.15,171.93L81.15,168.84L81.15,171.93"/><path d="M81.15,170.95L81.15,167.29L85.23,167.29"/><path d="M81.15,168.84L81.15,167.29"/></g></g><g id="Actor_.36"><g style="stroke:#ffffff;stroke-width:0.353"/><g style="stroke:#ffffff;stroke-width:0.705"><path d="M85.30,167.53L85.35,167.73L85.39,167.80"/><path d="M85.71,168.27L85.65,168.22L85.54,168.04"/><path d="M85.23,167.25L85.22,167.18L85.24,166.96"/><path d="M85.35,167.73L85.34,167.70"/><path d="M85.48,166.15L85.51,166.09L85.66,165.93"/><path d="M85.36,166.41L85.27,166.61L85.27,166.68"/><path d="M85.51,166.09L85.50,166.12"/><path d="M85.54,166.06L85.51,166.09L85.50,166.12"/><path d="M85.29,166.57L85.27,166.61"/><path d="M86.68,168.77L86.64,168.77L86.61,168.76"/><path d="M86.14,168.59L86.10,168.58L86.07,168.56"/><path d="M85.93,168.44L86.10,168.58L86.14,168.59"/><path d="M86.64,168.77L86.67,168.77L86.64,168.77L86.44,168.70"/><path d="M86.10,168.58L86.17,168.60"/><path d="M86.10,165.57L85.91,165.67L85.86,165.73"/><path d="M86.35,165.44L86.42,165.41L86.38,165.42"/><path d="M86.42,165.41L86.63,165.38"/><path d="M86.38,165.42L86.42,165.41L86.45,165.40"/><path d="M87.82,168.56L87.76,168.60L87.55,168.67"/><path d="M87.28,168.76L87.21,168.78L87.00,168.78"/><path d="M86.68,168.77L86.67,168.77L86.71,168.77"/><path d="M87.67,165.48L87.65,165.47L87.73,165.51L87.65,165.47L87.07,165.98"/><path d="M87.19,165.36L86.98,165.32L86.91,165.33"/><path d="M86.98,165.32L86.95,165.33"/><path d="M87.47,165.41L87.55,165.43L87.65,165.47L87.55,165.43L87.51,165.42"/><path d="M86.95,165.33L86.98,165.32L87.02,165.33"/><path d="M87.55,165.43L87.51,165.42"/><path d="M88.04,168.39L88.21,168.26L88.26,168.20"/><path d="M88.42,167.96L88.53,167.79L88.55,167.71"/><path d="M88.63,167.44L88.68,167.23L88.68,167.16"/><path d="M88.04,167.07L88.62,166.56L88.65,166.66L88.66,166.88"/><path d="M88.65,166.70L88.63,166.60"/><path d="M87.73,165.51L88.04,165.71L88.43,166.13L88.39,166.09"/><path d="M88.62,166.56L88.43,166.13L88.55,166.41"/><path d="M88.40,166.11L88.43,166.13L88.44,166.17"/></g></g><g id="Actor_.37"><g style="stroke:#ffffff;stroke-width:0.353"><path d="M229.04,65.97L227.46,61.61"/><path d="M236.65,58.26L238.24,62.62"/></g><g style="stroke:#ffffff;stroke-width:0.705"><path d="M225.14,62.45L225.66,62.26L223.47,63.06L225.06,67.42L227.63,66.48L226.19,67.01L227.24,66.62L226.19,67.01L227.24,66.62L226.19,67.01L226.70,66.82"/><path d="M225.23,62.42L229.36,60.92L228.43,61.25"/><path d="M227.24,66.62L228.30,66.24L226.19,67.01"/><path d="M226.19,62.07L228.56,61.21"/><path d="M227.63,66.48L230.57,65.41"/><path d="M228.84,66.04L228.30,66.24L229.15,65.93"/><path d="M228.30,66.24L229.37,65.85"/><path d="M227.93,61.44L228.30,61.30L227.75,61.50"/><path d="M228.30,61.30L228.69,61.16"/><path d="M228.30,66.24L229.37,65.85"/><path d="M228.81,61.12L229.36,60.92L228.83,61.11"/><path d="M229.03,61.03L228.56,61.21L231.86,60.00L231.47,60.15L231.57,60.11"/><path d="M230.41,65.47L230.46,65.45"/><path d="M230.41,60.53L231.19,60.25L230.41,60.53L230.93,60.34L230.91,60.35"/><path d="M236.14,63.38L236.33,63.32L230.53,65.43L230.68,65.37"/><path d="M230.92,65.28L230.53,65.43L230.80,65.33"/><path d="M230.53,65.43L231.34,65.13"/><path d="M231.34,60.19L231.15,60.26"/><path d="M231.19,60.25L230.41,60.53"/><path d="M230.93,60.34L231.05,60.30"/><path d="M230.99,60.32L230.94,60.34"/><path d="M231.86,60.00L232.16,59.90"/><path d="M232.49,59.77L232.08,59.92"/><path d="M232.43,59.80L232.53,59.76L232.08,59.92"/><path d="M231.99,59.96L231.71,60.06L232.40,59.81L232.30,59.85"/><path d="M232.99,59.59L232.92,59.62L233.58,59.38L232.93,59.62"/><path d="M232.56,59.75L232.53,59.76L233.58,59.38L232.53,59.76L232.91,59.62"/><path d="M234.15,59.17L233.83,59.29L234.36,59.10L232.82,59.66"/><path d="M233.12,59.55L233.15,59.54L233.02,59.58"/><path d="M235.00,58.86L234.64,58.99L235.70,58.61L234.36,59.10L234.64,58.99L234.40,59.08"/><path d="M233.83,59.29L234.39,59.08"/><path d="M234.36,59.10L239.93,57.07L234.64,58.99"/><path d="M234.64,58.99L235.70,58.61L234.70,58.97"/><path d="M235.49,58.69L235.70,58.61"/><path d="M237.81,57.84L240.64,56.81L242.22,61.17L236.33,63.32L236.49,63.26"/><path d="M236.60,63.22L236.55,63.24"/><path d="M236.36,58.37L235.70,58.61L236.18,58.43"/><path d="M238.23,62.63L237.92,62.74L238.44,62.55"/><path d="M238.14,62.66L237.92,62.74L238.42,62.56"/><path d="M239.93,57.07L238.87,57.45L239.93,57.07L238.87,57.45L239.19,57.34"/></g></g><g id="Actor_.38"><g style="stroke:#ffffff;stroke-width:0.705"><path d="M219.54,52.25L218.48,49.33L220.63,48.54L219.84,48.83"/><path d="M222.80,61.21L223.01,61.80L220.29,54.33"/><path d="M220.83,48.47L220.90,48.44L220.63,48.54L220.83,48.47"/><path d="M220.90,48.44L223.01,47.67L221.96,48.06"/><path d="M221.96,58.89L222.03,59.10"/><path d="M220.96,56.14L221.65,58.04"/><path d="M223.18,62.26L223.02,61.83L223.47,63.06"/><path d="M222.41,60.15L222.08,59.22"/><path d="M223.01,47.67L224.95,46.97"/><path d="M224.07,47.29L227.92,45.89L227.76,45.95"/><path d="M227.92,45.89L229.33,45.38L229.02,45.49"/><path d="M229.33,45.38L231.47,44.60L230.41,44.98"/><path d="M231.84,44.46L231.47,44.60L232.23,44.32L231.84,44.46"/><path d="M232.23,44.32L235.13,43.27L234.64,43.44"/><path d="M235.17,43.25L235.64,43.08L235.13,43.27L235.17,43.25"/><path d="M235.64,43.08L236.75,46.14L236.66,45.90"/><path d="M236.75,46.14L237.81,49.05L237.71,48.76"/><path d="M238.33,50.46L237.81,49.05L240.64,56.81"/></g></g><g id="Actor_.39"><g style="stroke:#ffffff;stroke-width:0.353"><path d="M230.74,69.63L239.29,66.51"/></g><g style="stroke:#ffffff;stroke-width:0.705"><path d="M234.40,71.60L234.64,71.51L234.24,71.66L230.74,69.63L229.37,65.85"/><path d="M234.64,71.51L235.20,71.31L234.64,71.51L234.83,71.44"/><path d="M235.60,71.16L235.70,71.13L235.21,71.30"/><path d="M235.41,71.23L235.70,71.13L235.49,71.20"/><path d="M235.70,71.13L236.70,70.76"/><path d="M236.20,70.94L236.08,70.99L237.77,70.37L236.94,70.67L237.62,70.43L237.41,70.50"/><path d="M236.68,70.77L236.64,70.78"/><path d="M235.78,71.10L236.08,70.99L235.73,71.11"/><path d="M235.86,71.07L236.38,70.88"/><path d="M235.90,71.05L236.21,70.94"/><path d="M235.93,71.04L236.13,70.97"/><path d="M236.08,70.99L235.79,71.09"/><path d="M237.77,70.37L237.81,70.36L237.62,70.43"/><path d="M237.43,70.49L236.96,70.67L237.91,70.32L239.29,66.51L237.92,62.74"/><path d="M237.81,70.36L237.89,70.33"/></g></g><g id="Actor_.40"><g style="stroke:#ffffff;stroke-width:0.353"><path d="M215.75,51.57L215.79,51.66L215.80,51.80L215.75,52.16L215.62,52.49L215.54,52.61L215.46,52.66"/><path d="M224.14,55.63L224.02,55.48"/><path d="M223.93,55.34L223.88,55.22L224.06,54.32L224.33,53.45L224.44,53.37"/><path d="M223.88,55.23L224.00,55.45"/><path d="M224.16,55.63L224.33,55.81L224.77,56.05L225.26,56.14L225.75,56.06L226.18,55.83L226.52,55.46L226.72,55.01L226.77,54.52L226.65,54.03L226.38,53.62L225.99,53.31L225.52,53.15L225.03,53.14L224.79,53.22"/><path d="M225.23,54.02L225.04,54.07L224.87,54.17L224.74,54.32L224.67,54.51L224.66,54.71L224.72,54.90L224.84,55.06L224.94,55.14"/><path d="M224.89,55.33L224.91,55.27"/><path d="M225.12,55.52L225.04,55.51L224.91,55.45"/><path d="M224.46,55.05L224.55,55.19"/><path d="M225.15,55.53L224.86,55.44"/><path d="M225.13,55.77L224.88,55.73L224.55,55.54L224.29,55.26L224.14,54.91L224.11,54.53L224.14,54.34L224.21,54.16L224.42,53.84L224.72,53.61L225.08,53.49L225.46,53.49L225.82,53.61L226.12,53.85L226.33,54.17L226.42,54.54L226.39,54.92L226.23,55.27L225.97,55.55L225.63,55.73L225.26,55.79L225.13,55.77"/><path d="M224.32,54.95L224.47,55.24L224.71,55.46L225.01,55.60L225.34,55.63L225.66,55.55L225.94,55.37L226.14,55.11L226.25,54.80L226.25,54.47L226.15,54.16L225.95,53.90L225.67,53.72L225.35,53.64L225.03,53.66L224.72,53.79L224.48,54.01L224.32,54.30L224.27,54.62L224.32,54.95"/><path d="M224.37,54.47L224.37,54.67"/><path d="M224.35,53.44L224.56,53.30"/><path d="M224.77,53.21L224.59,53.29"/><path d="M225.59,54.12L225.69,54.20L225.81,54.36L225.87,54.55L225.86,54.75L225.79,54.94L225.66,55.09L225.49,55.19L225.30,55.24"/><path d="M225.26,55.39L225.27,55.37"/><path d="M225.62,54.01L225.61,54.05"/><path d="M225.67,53.82L225.38,53.74"/><path d="M225.26,53.89L225.25,53.96"/><path d="M226.16,54.61L226.16,54.79"/><path d="M225.97,54.06L226.07,54.21"/><path d="M225.75,53.86L225.70,53.84"/><path d="M225.30,53.76L225.30,53.77"/><path d="M225.41,53.74L225.49,53.75L225.64,53.82"/><path d="M225.64,53.78L225.35,53.71"/><path d="M226.53,53.82L226.53,53.81"/></g><g style="stroke:#ffffff;stroke-width:0.705"><path d="M215.46,52.66L215.22,52.84L214.93,52.93L214.50,52.91L214.22,52.79L213.91,52.49L213.78,52.23L213.73,51.88L213.75,51.69L213.86,51.42L214.07,51.13L214.30,50.97L214.72,50.86L215.02,50.89L215.41,51.08L215.62,51.29L215.74,51.57"/><path d="M215.74,51.55L224.76,53.21L225.03,53.14L225.27,53.12L225.52,53.15L225.76,53.21L225.99,53.31L226.20,53.45L226.38,53.62L226.53,53.81L226.65,54.03L226.73,54.27L226.77,54.52L226.77,54.76L226.72,55.01L226.64,55.25L226.52,55.46L226.37,55.66L226.19,55.82L225.97,55.96L225.75,56.06L225.50,56.12L225.26,56.14L225.01,56.12L224.77,56.05L224.54,55.95L224.33,55.81L224.14,55.63L215.44,52.68"/><path d="M224.16,55.63L224.00,55.45L223.93,55.34"/><path d="M224.91,55.27L225.01,54.87L224.87,55.43L224.90,55.31"/><path d="M225.25,55.42L225.23,55.52L225.04,55.50L224.77,55.39L224.55,55.19"/><path d="M224.38,54.48L224.37,54.77L224.46,55.05"/><path d="M225.10,54.54L225.01,54.87L225.13,54.42"/><path d="M225.09,54.58L225.01,54.87L225.27,53.86L225.25,53.96L225.26,53.91"/><path d="M225.10,54.53L225.01,54.87L225.11,54.51"/><path d="M224.86,55.44L224.86,55.44"/><path d="M224.90,55.31L225.00,54.92"/><path d="M224.53,55.20L224.75,55.40L224.86,55.45L224.76,55.41L224.56,55.22L224.75,55.40L225.03,55.53L225.34,55.56L225.63,55.48L225.89,55.32L225.99,55.19L225.89,55.31L225.64,55.48L225.34,55.55L225.13,55.54L225.34,55.56L225.64,55.48L225.90,55.31L226.08,55.08L226.15,54.87L226.14,54.91"/><path d="M224.53,55.20L224.39,54.93L224.34,54.63L224.39,54.32L224.54,54.06L224.76,53.85L224.74,53.87"/><path d="M224.87,55.41L224.87,55.40"/><path d="M224.89,55.32L224.90,55.31"/><path d="M224.37,54.47L224.47,54.19L224.66,53.96L224.90,53.80L225.20,53.72L225.31,53.73L225.27,53.86"/><path d="M225.13,54.42L225.25,53.96"/><path d="M224.80,53.84L224.84,53.82L224.80,53.84"/><path d="M224.76,53.85L225.04,53.73L224.84,53.82L225.04,53.73L225.35,53.71L225.50,53.73L225.35,53.71"/><path d="M224.79,53.22L224.56,53.30L224.44,53.37"/><path d="M225.25,55.43L225.23,55.49L225.26,55.39"/><path d="M225.24,55.48L225.23,55.52L225.23,55.49"/><path d="M225.27,55.37L225.30,55.24L225.22,55.52"/><path d="M225.23,55.52L225.25,55.43"/><path d="M225.30,55.24L225.39,54.87L225.22,55.53"/><path d="M225.23,55.52L225.26,55.40"/><path d="M225.59,54.13L225.39,54.87L225.66,53.85L225.63,53.97L225.65,53.89"/><path d="M225.22,55.53L225.33,55.54L225.62,55.47L225.87,55.31L226.06,55.07L226.16,54.79"/><path d="M225.59,54.12L225.64,53.91"/><path d="M225.62,54.01L225.67,53.83L225.49,53.76"/><path d="M225.64,53.91L225.64,53.93L225.65,53.90L225.62,53.99"/><path d="M225.67,53.82L225.70,53.84"/><path d="M225.75,53.86L225.97,54.06"/><path d="M226.15,54.79L226.16,54.49L226.07,54.21"/><path d="M226.18,54.48L226.09,54.22"/><path d="M226.18,54.62L226.18,54.79L226.18,54.62"/><path d="M226.16,54.85L226.15,54.87L226.18,54.79L226.16,54.85"/><path d="M226.15,54.87L226.18,54.79L226.18,54.48"/><path d="M226.08,54.19L225.90,53.95L225.64,53.78L225.50,53.73L225.60,53.77"/><path d="M225.27,53.85L225.30,53.77"/><path d="M225.23,54.02L225.27,53.89"/><path d="M225.48,53.76L225.31,53.73"/></g></g><g id="Actor_.41"><g style="stroke:#ffffff;stroke-width:0.353"><path d="M251.43,46.05L251.69,46.23L251.98,46.31L252.29,46.30L252.58,46.18L252.82,45.98L252.97,45.72L253.04,45.41L253.03,45.26L252.99,45.10L252.86,44.83L252.64,44.61L252.36,44.48L252.05,44.44L251.75,44.50L251.48,44.67L251.28,44.90L251.17,45.19L251.16,45.50L251.25,45.80L251.43,46.05"/><path d="M253.18,45.42L253.11,45.77L252.93,46.08L252.66,46.31L252.32,46.44L252.15,46.45L251.97,46.46L251.62,46.36L251.33,46.15L251.12,45.86L251.02,45.52L251.03,45.16L251.16,44.83L251.39,44.55L251.69,44.37L251.87,44.33L252.04,44.29L252.40,44.34L252.72,44.49L252.98,44.74L253.13,45.06"/><path d="M252.47,45.82L252.45,45.84L252.31,45.92L252.12,45.96L251.93,45.94L251.87,45.92L251.76,45.85L251.62,45.72L251.54,45.55L251.52,45.46L251.52,45.36L251.55,45.17L251.65,45.01L251.74,44.92L252.09,45.38L252.47,45.82L252.59,45.67L252.66,45.49L252.67,45.30L252.61,45.12L252.50,44.97L252.35,44.86L252.32,44.84L252.16,44.80L251.97,44.81L251.79,44.88L251.74,44.92"/><path d="M251.52,45.46L252.09,45.38L251.76,45.85"/><path d="M252.09,45.38L252.61,45.12"/></g><g style="stroke:#ffffff;stroke-width:0.705"><path d="M251.12,45.86L251.21,46.02L251.33,46.15L251.47,46.27L251.62,46.36L251.79,46.42L251.97,46.46L252.15,46.47L252.32,46.44L252.50,46.39L252.66,46.31L252.80,46.20L252.93,46.08L253.03,45.93L253.11,45.77L253.16,45.60L253.18,45.42L253.17,45.24L253.13,45.06L253.07,44.90L252.98,44.74L252.86,44.61L252.72,44.49L252.61,44.42L252.57,44.40L252.40,44.34L252.22,44.30L252.04,44.29L251.86,44.32L251.69,44.37L251.53,44.45L251.39,44.55L251.26,44.68L251.16,44.83L251.08,44.99L251.03,45.16L251.01,45.34L251.02,45.52L251.05,45.70L251.12,45.86"/><path d="M252.63,44.99L252.71,45.64L252.18,46.04L252.61,45.72L252.18,46.04L251.56,45.79L251.48,45.12L251.49,45.20"/><path d="M251.48,45.12L252.01,44.72L251.55,45.07L252.01,44.72L252.63,44.97L252.68,45.38"/><path d="M251.87,45.92L252.11,46.01L251.87,45.92"/><path d="M251.87,45.92L251.58,45.79L251.87,45.92"/><path d="M252.61,44.96L252.62,44.97"/></g></g><g id="Actor_.42"><g style="stroke:#ffffff;stroke-width:0.353"><path d="M211.11,6.71L211.12,6.70"/><path d="M212.08,6.35L212.08,6.35"/><path d="M211.99,6.38L211.98,6.39"/><path d="M211.90,6.42L211.90,6.42"/></g><g style="stroke:#ffffff;stroke-width:0.705"><path d="M208.34,8.69L208.22,8.73L209.01,8.44L204.23,10.18L203.96,9.31L209.24,7.39L208.88,7.52"/><path d="M209.01,8.44L209.27,8.35L209.01,8.44"/><path d="M208.34,7.71L209.27,7.37L209.25,7.38"/><path d="M209.27,7.37L210.33,6.99L209.81,7.18"/><path d="M216.23,5.81L216.67,5.65L209.27,8.35L209.39,8.30"/><path d="M211.40,6.60L212.14,6.33L210.33,6.99"/><path d="M211.07,6.72L211.23,6.66L211.07,6.72"/><path d="M211.09,6.71L211.23,6.66"/><path d="M211.22,6.67L211.12,6.70"/><path d="M211.24,6.66L211.20,6.67"/><path d="M211.95,6.40L211.90,6.42L211.96,6.40"/><path d="M211.90,6.42L212.02,6.37L211.90,6.42"/><path d="M211.93,6.41L211.91,6.41"/><path d="M211.92,6.41L212.03,6.37L212.00,6.38"/><path d="M211.89,6.42L212.14,6.33L212.02,6.37"/><path d="M211.93,6.41L211.86,6.43"/><path d="M211.60,6.53L211.47,6.57L212.14,6.33L211.60,6.53L211.73,6.48"/><path d="M211.71,6.49L212.14,6.33L212.07,6.36"/><path d="M211.46,6.58L211.47,6.57"/><path d="M212.29,6.28L212.14,6.33L212.44,6.22L212.14,6.33"/><path d="M212.27,6.28L212.44,6.22L212.14,6.33"/><path d="M212.42,6.23L212.44,6.22L212.36,6.25"/><path d="M212.79,6.09L212.86,6.07L212.44,6.22L213.50,5.83L212.44,6.22L213.30,5.91"/><path d="M213.50,5.83L214.56,5.45L212.72,6.12"/><path d="M212.53,6.19L212.86,6.07L212.69,6.13"/><path d="M212.44,6.22L212.86,6.07L212.44,6.22L212.86,6.07L212.70,6.13"/><path d="M214.18,5.59L214.56,5.45L214.21,5.58"/><path d="M214.11,5.61L214.56,5.45L214.51,5.47"/><path d="M215.04,5.28L214.56,5.45L216.67,4.68L216.08,4.90"/><path d="M215.62,5.07L217.73,4.30L216.56,4.72"/><path d="M217.25,4.47L221.03,3.09L221.39,3.93L216.67,5.65"/><path d="M217.97,5.18L217.73,5.27L217.78,5.25"/><path d="M221.03,3.09L217.73,4.30"/><path d="M219.84,3.53L220.83,3.17"/><path d="M221.39,3.93L221.09,3.22"/></g></g><g id="Actor_.43"><g style="stroke:#ffffff;stroke-width:0.353"><path d="M261.06,90.13L260.97,90.12L260.69,89.99L260.47,89.77L260.33,89.50L260.29,89.19L260.35,88.89L260.50,88.62L260.74,88.41L261.02,88.30L261.33,88.28L261.63,88.37L261.88,88.54L261.96,88.64L262.07,88.79L262.16,89.09L262.17,89.24L262.15,89.40L262.04,89.69L261.84,89.93L261.58,90.09L261.28,90.16L261.06,90.13"/><path d="M262.29,89.43L262.17,89.76L261.94,90.04L261.64,90.22L261.29,90.30L261.11,90.28L260.93,90.26L260.61,90.11L260.35,89.86L260.19,89.54L260.14,89.19L260.21,88.83L260.39,88.52L260.66,88.29L260.99,88.16L261.35,88.14L261.69,88.23L261.99,88.44L262.14,88.64L262.20,88.73L262.30,89.07"/><path d="M261.53,89.71L261.50,89.73L261.35,89.78L261.16,89.79L260.98,89.74L260.92,89.71L260.82,89.63L260.71,89.48L260.65,89.30L260.65,89.20L260.66,89.10L260.73,88.93L260.85,88.78L260.95,88.71L261.23,89.22L261.53,89.71L261.67,89.59L261.77,89.42L261.81,89.23L261.78,89.04L261.69,88.87L261.56,88.74L261.53,88.72L261.39,88.66L261.20,88.64L261.01,88.68L260.95,88.71"/><path d="M260.82,89.63L261.23,89.22L260.65,89.20"/><path d="M261.23,89.22L261.78,89.04"/></g><g style="stroke:#ffffff;stroke-width:0.705"><path d="M260.25,89.70L260.35,89.86L260.47,90.00L260.61,90.11L260.76,90.20L260.93,90.26L261.11,90.30L261.29,90.30L261.46,90.28L261.64,90.22L261.80,90.14L261.94,90.04L262.07,89.91L262.17,89.76L262.25,89.60L262.29,89.43L262.31,89.25L262.30,89.07L262.27,88.89L262.20,88.73L262.10,88.57L261.99,88.44L261.85,88.32L261.69,88.23L261.52,88.17L261.35,88.14L261.17,88.13L260.99,88.16L260.82,88.21L260.66,88.29L260.51,88.40L260.39,88.52L260.29,88.67L260.21,88.83L260.16,89.01L260.14,89.19L260.15,89.36L260.19,89.54L260.25,89.70"/><path d="M261.80,89.40L261.82,88.90L261.40,88.64L261.82,88.90L261.80,89.57L261.21,89.89L260.90,89.70L260.92,89.71"/><path d="M261.40,88.64L261.25,88.55L260.66,88.87L260.64,89.53L260.90,89.70L260.64,89.53L260.65,89.09L260.65,89.20"/><path d="M261.56,89.70L261.77,89.58L261.56,89.70"/><path d="M261.50,89.73L261.23,89.88L261.50,89.73"/><path d="M261.82,88.90L261.53,88.72"/><path d="M261.07,88.64L261.23,88.56L261.07,88.64"/><path d="M262.31,89.25L262.31,89.18"/></g></g><g id="Actor_.44"><g style="stroke:#ffffff;stroke-width:0.705"><path d="M221.36,57.25L212.82,57.25L212.26,57.16L211.75,56.90L211.39,56.54L211.09,55.99L211.00,55.43L211.00,42.64L211.09,42.07L211.35,41.57L211.75,41.16L212.26,40.90L215.38,40.81"/><path d="M218.97,50.69L217.14,51.81"/><path d="M219.48,52.24L219.52,52.21"/><path d="M233.83,91.81L233.83,91.51L233.92,92.52L234.18,93.03L234.50,93.35L234.38,93.23"/><path d="M234.05,92.78L233.92,92.52"/><path d="M234.81,40.81L238.87,40.81L237.81,40.81"/><path d="M248.38,40.81L249.44,40.81L238.87,40.81"/><path d="M249.65,40.81L250.18,40.81L249.44,40.81L249.65,40.81"/><path d="M250.49,40.81L251.55,40.81L249.44,40.81"/><path d="M252.62,40.81L253.67,40.81L251.55,40.81"/><path d="M252.61,40.81L261.06,40.81L260.01,40.81"/><path d="M265.79,91.81L265.79,90.81L265.70,92.52L265.45,93.03L265.04,93.43L265.29,93.18L264.53,93.69L263.97,93.78L254.09,93.78"/><path d="M261.75,40.81L261.06,40.81L262.12,40.81L261.75,40.81"/><path d="M262.12,40.81L264.53,40.90L265.29,41.41L265.04,41.16"/><path d="M265.29,41.41L265.70,42.07L265.79,42.64L265.79,90.75"/><path d="M265.03,41.16L264.99,41.14"/><path d="M265.79,88.64L265.79,87.59"/><path d="M265.79,85.48L265.79,84.42"/><path d="M265.79,80.20L265.79,79.15"/><path d="M265.79,67.54L265.79,66.48"/><path d="M265.79,60.15L265.79,59.10"/><path d="M265.79,53.82L265.79,52.76"/><path d="M265.79,50.65L265.79,49.60"/><path d="M265.79,46.43L265.79,45.38"/></g></g><g id="Actor_.45"><g style="stroke:#ffffff;stroke-width:0.353"><path d="M242.13,89.69L242.15,89.64L242.42,89.37L242.73,89.21L242.76,89.20L243.14,89.14L243.45,89.21"/></g><g style="stroke:#ffffff;stroke-width:0.705"><path d="M243.31,89.01L242.10,89.42L242.04,89.72"/><path d="M243.57,89.16L243.36,88.99L242.55,89.27L243.03,89.10"/><path d="M242.09,89.44L242.10,89.42"/><path d="M243.10,89.08L243.31,89.01"/><path d="M243.36,88.99L243.57,89.16L243.36,88.99"/></g></g><g id="Actor_.46"><g style="stroke:#ffffff;stroke-width:0.705"><path d="M238.87,91.85L238.97,91.81L238.82,91.87L240.25,95.81"/><path d="M239.19,91.73L238.97,91.81L238.99,91.80"/><path d="M239.30,91.69L239.93,91.46L238.97,91.81L239.72,91.54"/><path d="M239.58,91.59L239.93,91.46L239.06,91.78L240.24,91.35L239.93,91.46L240.24,91.35L239.93,90.49L240.98,90.11L240.25,90.37"/><path d="M240.77,91.16L240.57,91.23"/><path d="M240.74,91.16L240.76,91.16"/><path d="M240.36,91.30L239.93,91.46L240.13,91.39"/><path d="M240.37,91.30L239.93,91.46L244.15,89.92L243.38,90.20"/><path d="M239.96,91.45L239.93,91.46"/><path d="M240.82,91.14L240.78,91.15"/><path d="M240.41,91.28L240.44,91.27"/><path d="M243.04,89.36L243.10,89.34L240.98,90.11L241.88,89.78"/><path d="M241.94,90.73L241.94,90.73"/><path d="M243.12,89.33L241.83,89.80"/><path d="M242.41,90.56L242.40,90.56"/><path d="M242.54,89.54L242.74,89.47"/><path d="M243.65,90.10L243.65,90.11"/><path d="M243.15,90.29L243.15,90.29"/><path d="M243.59,90.13L243.84,90.04"/><path d="M244.15,89.92L244.77,89.70L244.15,89.92"/><path d="M244.08,88.98L244.15,88.95L243.56,89.17"/><path d="M243.20,89.30L243.66,89.13L243.10,89.34"/><path d="M244.58,88.80L244.15,88.95L245.00,88.64L244.78,88.72"/><path d="M244.15,88.95L245.21,88.57L245.00,88.64"/><path d="M243.44,89.21L243.66,89.13"/><path d="M244.75,89.71L244.75,89.71"/><path d="M244.27,89.88L244.29,89.87"/><path d="M244.42,89.83L244.40,89.83"/><path d="M244.98,89.62L244.97,89.63"/><path d="M244.86,89.67L244.77,89.70L245.21,89.54L244.86,89.67"/><path d="M245.87,89.30L245.41,89.47L246.27,89.15L246.01,89.25L246.20,89.18"/><path d="M246.01,89.25L245.70,88.39L245.21,88.57L245.53,88.45L245.47,88.47"/><path d="M245.71,89.36L245.66,89.38"/><path d="M246.05,89.23L246.27,89.15L245.21,89.54L245.76,89.34"/><path d="M245.21,89.54L245.72,89.35"/><path d="M245.87,89.30L245.87,89.30"/><path d="M245.71,89.36L245.72,89.35"/><path d="M245.53,88.45L245.54,88.45"/><path d="M247.23,88.80L247.32,88.77L247.09,88.85"/><path d="M247.17,88.82L247.32,88.77L246.27,89.15L247.34,88.76"/><path d="M247.32,88.77L247.35,88.76L248.78,92.71"/></g></g><g id="Actor_.47"><g style="stroke:#ffffff;stroke-width:0.353"><path d="M252.17,91.48L252.03,91.53"/></g><g style="stroke:#ffffff;stroke-width:0.705"><path d="M204.23,10.18L219.54,52.25"/><path d="M207.65,8.94L221.90,48.08"/><path d="M223.63,47.45L209.39,8.30L210.04,8.07"/><path d="M230.48,44.96L216.23,5.81"/><path d="M232.21,44.33L217.97,5.18"/><path d="M236.34,97.24L235.96,97.37L236.58,97.15L235.96,97.37L220.29,54.33"/><path d="M222.65,7.39L223.01,8.39L221.39,3.94"/><path d="M223.01,8.39L235.64,43.08"/><path d="M225.13,67.61L225.49,68.59"/><path d="M227.26,20.05L227.34,20.28"/><path d="M235.97,97.37L239.39,96.13L228.48,66.17"/><path d="M231.96,70.34L239.68,91.55"/><path d="M236.36,97.23L235.96,97.37L236.51,97.17"/><path d="M236.63,97.13L236.73,97.09L235.96,97.37L236.46,97.20"/><path d="M236.55,97.16L236.49,97.18"/><path d="M236.58,97.15L235.96,97.37"/><path d="M236.61,97.14L236.73,97.09"/><path d="M237.46,96.83L237.84,96.69"/><path d="M237.31,96.88L237.51,96.81"/><path d="M236.94,97.02L236.79,97.07"/><path d="M236.76,97.08L237.09,96.96"/><path d="M237.63,96.77L237.72,96.73"/><path d="M238.38,96.50L238.38,96.50"/><path d="M238.02,96.62L237.93,96.66"/><path d="M238.35,96.50L238.87,96.32L238.48,96.46"/><path d="M238.85,96.32L238.45,96.47L238.85,96.32"/><path d="M238.81,67.84L246.53,89.06"/><path d="M248.78,92.71L250.18,92.20L249.70,92.37L238.80,62.42"/><path d="M238.87,96.32L240.25,95.81"/><path d="M239.13,63.32L238.98,62.91"/><path d="M240.24,71.76L240.43,72.28"/><path d="M242.22,61.17L253.13,91.13L251.85,91.59L252.53,91.35L252.22,91.46L252.41,91.39"/><path d="M249.04,92.61L250.18,92.20L249.85,92.32"/><path d="M249.44,92.47L250.49,92.09L250.26,92.17"/><path d="M250.49,92.09L251.18,91.84L251.06,91.88"/><path d="M251.09,91.87L251.22,91.82L250.64,92.03L251.11,91.86"/><path d="M251.13,91.85L251.25,91.81L250.70,92.01L250.94,91.92"/><path d="M251.21,91.83L250.56,92.06L251.22,91.82"/><path d="M251.12,91.86L250.82,91.97L251.05,91.88"/><path d="M250.92,91.93L250.97,91.91"/><path d="M250.82,91.97L250.56,92.06"/><path d="M251.14,91.85L251.52,91.71"/><path d="M251.45,91.74L251.25,91.81L251.42,91.75"/><path d="M251.41,91.75L251.39,91.76"/><path d="M251.85,91.59L251.55,91.70L251.85,91.59"/><path d="M251.67,91.66L251.55,91.70L251.68,91.65"/><path d="M252.39,91.39L252.35,91.41"/><path d="M251.73,91.64L251.60,91.68L252.17,91.48L252.03,91.53"/><path d="M252.38,91.40L252.17,91.48"/></g></g><g id="Actor_.48"><g style="stroke:#ffffff;stroke-width:0.353"><path d="M241.53,100.28L239.95,95.92"/><path d="M250.73,96.94L249.14,92.58"/></g><g style="stroke:#ffffff;stroke-width:0.705"><path d="M247.14,93.31L247.32,93.24L235.96,97.37L237.55,101.73L237.81,101.64L237.55,101.73L237.81,101.64L237.55,101.73L237.81,101.64L237.55,101.73L237.81,101.64L237.79,101.65"/><path d="M236.42,97.21L236.55,97.16"/><path d="M236.41,97.21L236.57,97.15L236.41,97.21"/><path d="M237.93,101.60L237.81,101.64L237.96,101.59L237.55,101.73L237.78,101.65L237.70,101.68"/><path d="M237.92,101.60L237.81,101.64L237.96,101.59L237.87,101.62"/><path d="M236.78,97.08L237.12,96.95L237.01,96.99"/><path d="M238.91,96.30L237.45,96.84"/><path d="M237.60,96.78L237.74,96.73"/><path d="M237.28,96.90L237.13,96.95"/><path d="M238.65,101.34L238.72,101.31L237.81,101.64L238.63,101.34"/><path d="M238.72,101.31L239.16,101.15"/><path d="M240.22,100.76L237.81,101.64L238.01,101.57"/><path d="M237.95,96.65L237.93,96.66L238.87,96.32L237.93,96.66L238.87,96.32L237.94,96.66L238.87,96.32L237.96,96.65"/><path d="M238.91,96.30L238.87,96.32L239.07,96.24"/><path d="M238.87,96.32L239.46,96.10L238.87,96.32"/><path d="M239.82,100.91L239.93,100.87L239.62,100.98"/><path d="M240.19,100.77L239.93,100.87L240.76,100.57L239.93,100.87L240.22,100.76"/><path d="M240.07,100.82L239.93,100.87L240.05,100.82"/><path d="M239.99,100.85L239.93,100.87L240.99,100.48"/><path d="M239.93,100.87L240.19,100.77"/><path d="M239.90,100.88L239.69,100.96"/><path d="M240.07,100.82L239.03,101.20"/><path d="M239.93,100.87L244.15,99.33L243.50,99.57"/><path d="M239.72,100.94L239.76,100.93"/><path d="M240.98,100.48L241.22,100.40"/><path d="M244.10,99.35L244.15,99.33"/><path d="M243.50,99.57L245.21,98.95L244.52,99.20L245.16,98.96"/><path d="M243.32,99.63L244.15,99.33L243.84,99.44"/><path d="M244.92,99.05L245.21,98.95L244.15,99.33"/><path d="M245.15,98.97L245.21,98.95L244.52,99.20L244.99,99.03"/><path d="M244.52,99.20L246.27,98.56L245.21,98.95L246.27,98.56L245.67,98.78"/><path d="M245.21,98.95L245.31,98.91"/><path d="M246.77,98.38L247.32,98.18L246.24,98.57"/><path d="M245.93,98.69L246.13,98.61"/><path d="M245.94,98.68L245.58,98.81"/><path d="M246.61,98.44L247.32,98.18L246.56,98.45"/><path d="M247.53,98.10L248.38,97.79L247.05,98.28"/><path d="M246.57,98.45L247.32,98.18L246.51,98.47L246.57,98.45"/><path d="M246.84,98.35L247.32,98.18L246.51,98.47L247.32,98.18L246.55,98.46"/><path d="M246.50,98.48L246.27,98.56L247.32,98.18L246.27,98.56L247.32,98.18L246.27,98.56L247.32,98.18L246.55,98.46"/><path d="M247.07,98.27L247.32,98.18L246.32,98.54"/><path d="M247.32,98.18L247.53,98.10L247.32,98.18"/><path d="M247.10,98.26L247.11,98.26"/><path d="M247.19,98.22L247.25,98.21"/><path d="M247.32,93.24L250.49,92.09L248.78,92.71"/><path d="M249.63,97.34L247.53,98.10L247.80,98.00"/><path d="M247.53,98.10L248.38,97.79L247.92,97.96"/><path d="M247.53,93.17L247.65,93.12"/><path d="M249.47,97.39L250.18,97.14L248.38,97.79"/><path d="M249.44,97.41L252.57,96.27L249.44,97.41L249.62,97.34"/><path d="M249.13,97.52L248.38,97.79"/><path d="M248.38,97.79L249.44,97.41L248.56,97.73"/><path d="M248.78,92.71L253.13,91.13L254.71,95.49L248.83,97.63"/><path d="M250.49,92.09L250.43,92.11"/><path d="M251.16,91.84L250.49,92.09L251.35,91.77"/><path d="M250.49,92.09L251.14,91.85"/><path d="M249.44,92.47L250.18,92.20L249.44,92.47L250.18,92.20L249.59,92.42"/><path d="M250.49,92.09L252.61,91.32L252.31,91.43"/><path d="M252.52,96.28L252.61,96.25L251.55,96.64L252.61,96.25L251.55,96.64L252.33,96.35L251.55,96.64L252.29,96.37"/><path d="M253.01,96.11L251.55,96.64L252.61,96.25L251.55,96.64L252.61,96.25L251.55,96.64L252.61,96.25L252.33,96.35"/><path d="M251.97,96.48L250.49,97.02L250.60,96.98"/><path d="M251.25,91.81L251.29,91.80"/><path d="M251.55,91.70L252.61,91.32L252.06,91.52"/><path d="M251.31,91.79L251.29,91.79"/><path d="M252.57,96.27L252.71,96.21"/><path d="M252.33,91.42L252.61,91.32L252.33,91.42"/><path d="M252.35,91.41L252.49,91.36L252.32,91.42"/><path d="M252.49,91.36L252.52,91.35"/><path d="M253.29,96.00L253.24,96.03L253.67,95.87L252.61,96.25L253.22,96.03L252.61,96.25L253.22,96.03L253.10,96.07"/><path d="M253.22,96.03L253.67,95.87L253.24,96.03"/><path d="M252.61,96.25L252.88,96.16"/><path d="M253.22,96.03L254.51,95.56"/><path d="M254.36,95.61L253.67,95.87L253.69,95.86"/><path d="M253.76,95.84L253.67,95.87L254.22,95.67"/><path d="M253.67,95.87L254.66,95.51L254.49,95.57"/><path d="M252.93,91.20L253.13,91.13L252.65,91.30"/><path d="M253.13,91.13L252.61,91.32L253.13,91.13L252.61,91.32L253.13,91.13L252.61,91.32L253.13,91.13L252.68,91.29L253.13,91.13L252.79,91.25"/><path d="M252.61,91.32L253.13,91.13L252.79,91.25"/><path d="M252.65,91.30L253.13,91.13L252.93,91.20"/><path d="M254.12,95.70L254.01,95.74L254.67,95.50"/><path d="M254.01,95.74L253.85,95.80"/><path d="M254.67,95.50L254.49,95.57L254.66,95.51"/><path d="M254.49,95.57L254.36,95.62"/><path d="M254.14,95.70L254.55,95.55"/><path d="M253.98,95.75L253.79,95.82"/></g></g><g id="Actor_.49"><g style="stroke:#ffffff;stroke-width:0.353"/><g style="stroke:#ffffff;stroke-width:0.705"><path d="M238.69,101.32L238.72,101.31L237.97,101.58L238.18,101.50"/><path d="M238.30,101.46L238.07,101.54"/><path d="M238.07,101.55L238.46,101.40"/><path d="M238.71,101.31L238.71,101.31"/><path d="M238.02,101.56L238.23,101.49L237.96,101.59"/><path d="M238.68,101.32L238.87,101.25L238.72,101.31"/><path d="M238.34,101.45L238.23,101.49L238.49,101.39"/><path d="M238.79,101.28L238.87,101.25L238.81,101.28"/><path d="M239.63,100.98L238.87,101.25L239.47,101.03L239.46,101.04"/><path d="M238.87,101.25L239.57,101.00L239.51,101.02"/><path d="M239.36,101.07L239.01,101.20L239.11,101.17"/><path d="M239.66,100.96L239.72,100.94L239.59,100.99"/><path d="M239.00,101.21L239.51,101.02"/><path d="M239.50,101.02L239.27,101.11L239.31,101.09"/><path d="M239.10,101.17L239.28,101.11"/><path d="M239.01,101.20L239.18,101.14"/><path d="M239.57,101.00L239.69,100.96L239.68,100.96"/><path d="M239.69,100.96L239.72,100.94"/></g></g><g id="Actor_.50"><g style="stroke:#ffffff;stroke-width:0.353"><path d="M232.74,126.12L234.90,126.12"/></g><g style="stroke:#ffffff;stroke-width:0.705"><path d="M233.11,129.07L233.11,128.80"/><path d="M234.91,126.81L234.90,126.12L234.76,125.98L232.89,125.98L232.74,126.12L232.75,127.01"/><path d="M234.55,129.07L234.55,128.80"/></g></g><g id="Actor_.51"><g style="stroke:#ffffff;stroke-width:0.353"><path d="M232.66,127.02L232.67,127.02"/><path d="M233.83,126.91L233.72,126.92"/><path d="M234.56,126.84L234.65,126.84"/><path d="M234.98,126.81L234.99,126.80"/><path d="M234.99,126.81L234.99,126.81"/><path d="M237.77,126.55L237.73,126.56"/><path d="M238.40,126.50L238.42,126.49"/><path d="M237.99,126.53L238.02,126.53"/><path d="M239.57,126.39L239.58,126.39"/><path d="M239.34,126.41L239.39,126.41"/><path d="M244.85,121.11L244.85,121.13"/><path d="M244.85,121.10L244.85,121.10"/><path d="M244.90,120.56L244.90,120.57"/><path d="M244.96,119.87L244.94,120.11"/><path d="M245.02,119.21L245.03,119.12"/><path d="M245.06,118.78L245.06,118.78"/><path d="M245.26,116.53L245.26,116.53"/><path d="M245.31,115.99L245.31,116.02"/><path d="M245.37,115.37L245.38,115.26"/><path d="M245.48,114.21L245.48,114.20"/></g><g style="stroke:#ffffff;stroke-width:0.705"><path d="M232.73,127.01L232.53,127.03L233.58,126.93L232.53,127.03L232.41,127.06L232.25,127.19L232.19,127.39L232.19,129.07L233.08,129.07L233.08,128.80L233.58,128.80L233.08,128.80L233.38,128.80"/><path d="M232.22,127.25L232.25,127.19"/><path d="M233.58,128.80L234.64,128.80L233.58,128.80L234.56,128.80"/><path d="M233.08,129.07L232.53,129.07L233.08,129.07"/><path d="M233.21,128.80L233.10,128.80"/><path d="M232.71,127.01L232.75,127.01"/><path d="M232.74,127.01L232.72,127.01"/><path d="M232.53,127.03L233.14,126.97"/><path d="M234.05,126.89L233.58,126.93L234.64,126.84L234.51,126.85"/><path d="M233.11,126.98L233.00,126.99"/><path d="M234.07,128.80L234.28,128.80"/><path d="M234.45,128.80L234.64,128.80L234.55,128.80"/><path d="M237.81,129.07L238.87,129.07L234.93,129.07L234.93,128.80L234.64,128.80"/><path d="M234.64,126.84L235.70,126.74L234.64,126.84"/><path d="M236.71,126.65L236.75,126.64L234.91,126.81"/><path d="M234.82,126.82L234.80,126.82"/><path d="M235.26,126.78L235.00,126.80"/><path d="M236.55,126.66L236.88,126.63L236.82,126.64"/><path d="M238.38,126.50L238.87,126.45L236.88,126.63L237.81,126.55L236.88,126.63L237.81,126.55L236.88,126.63L237.81,126.55L237.48,126.58"/><path d="M237.81,126.55L239.93,126.36L238.87,126.45L239.93,126.36L239.16,126.43"/><path d="M237.34,126.59L237.40,126.59"/><path d="M237.32,126.59L237.39,126.59"/><path d="M238.87,129.07L242.21,129.07L242.21,128.80L244.06,128.80L244.06,129.07L247.27,129.07L247.53,128.81L247.53,125.60L247.25,125.60L247.25,123.75L247.53,123.75L247.53,116.47L247.25,116.47L247.25,114.62L247.53,114.62L247.53,113.73L245.85,113.73L245.65,113.79L245.51,113.95L245.06,118.79"/><path d="M242.03,126.17L238.87,126.45L239.93,126.36L239.39,126.41"/><path d="M239.11,126.43L239.49,126.40L238.87,126.45"/><path d="M239.48,126.40L239.55,126.39L239.47,126.40"/><path d="M242.14,126.14L242.02,126.17"/><path d="M242.04,126.16L242.22,126.12L242.37,126.01L244.15,124.23L243.94,124.44"/><path d="M242.03,126.17L242.01,126.17"/><path d="M242.03,126.16L242.02,126.17"/><path d="M244.79,125.90L244.97,125.87L245.17,125.90L245.35,126.00L245.49,126.14L245.58,126.31L245.61,126.51L245.58,126.71L245.49,126.89L245.35,127.03L245.17,127.12L244.97,127.15L244.77,127.12L244.60,127.03L244.45,126.89L244.36,126.71L244.39,126.75"/><path d="M244.36,126.71L244.33,126.51L244.39,126.26"/><path d="M244.53,126.97L244.62,127.04"/><path d="M244.97,125.87L244.77,125.90L244.60,126.00L244.45,126.14L244.36,126.31"/><path d="M244.52,126.07L244.69,125.95"/><path d="M244.98,125.87L245.17,125.90"/><path d="M244.63,123.47L244.57,123.76L244.47,123.91L244.51,123.84"/><path d="M244.63,123.49L244.59,123.71"/><path d="M244.65,123.31L244.62,123.57L244.63,123.48"/><path d="M244.15,124.23L244.47,123.91"/><path d="M244.69,122.82L244.63,123.47L244.67,123.03"/><path d="M244.68,122.96L244.63,123.47L244.67,123.05"/><path d="M244.64,123.40L244.63,123.47L244.68,122.99"/><path d="M244.63,123.46L244.70,122.78"/><path d="M244.64,123.41L244.63,123.47L244.64,123.35"/><path d="M244.74,122.31L244.63,123.47L244.64,123.43"/><path d="M244.76,122.03L244.73,122.41L244.92,120.30L244.83,121.36L244.92,120.34L244.83,121.36L244.85,121.12"/><path d="M244.86,121.02L244.85,121.10"/><path d="M244.85,121.10L244.85,121.11"/><path d="M244.87,120.89L244.86,120.94"/><path d="M244.92,120.34L245.02,119.25L244.99,119.57"/><path d="M245.01,119.31L245.02,119.25L244.92,120.30L244.93,120.24"/><path d="M245.07,118.67L245.11,118.19L245.02,119.25L245.11,118.19L245.06,118.77L245.08,118.57"/><path d="M245.11,118.19L245.02,119.25L245.11,118.19L245.05,118.85L245.08,118.52"/><path d="M245.06,118.78L245.05,118.85"/><path d="M245.21,117.14L245.19,117.39"/><path d="M245.23,116.90L245.21,117.13L245.31,116.08L245.25,116.67"/><path d="M245.24,116.79L245.21,117.13L245.24,116.85"/><path d="M245.40,115.04L245.21,117.13L245.31,116.08L245.21,117.13L245.30,116.09L245.25,116.66"/><path d="M245.21,117.13L245.28,116.34"/><path d="M245.35,127.03L245.37,127.01"/><path d="M245.35,126.00L245.40,126.04"/><path d="M245.24,116.81L245.26,116.61"/><path d="M245.24,116.83L245.25,116.65"/><path d="M245.35,115.60L245.40,115.03L245.31,116.08L245.40,115.03L245.31,116.08L245.33,115.78"/><path d="M245.46,114.38L245.40,115.03L245.49,114.08"/><path d="M245.49,114.08L245.49,114.06L245.40,115.03L245.49,114.07"/><path d="M245.46,114.39L245.40,115.03L245.49,114.06L245.47,114.28"/><path d="M245.40,115.03L245.49,114.06"/><path d="M245.41,114.97L245.49,114.08"/><path d="M245.47,114.21L245.47,114.29L245.47,114.26"/><path d="M245.47,114.29L245.47,114.27"/><path d="M245.48,114.21L245.51,113.97L245.48,114.12"/><path d="M245.45,114.47L245.44,114.65L245.49,114.06L245.48,114.11"/><path d="M245.49,114.07L245.47,114.23"/><path d="M245.49,114.06L245.48,114.20"/><path d="M245.43,114.75L245.44,114.65"/></g></g><g id="Actor_.52"><g style="stroke:#ffffff;stroke-width:0.353"><path d="M244.58,118.85L244.58,121.02"/></g><g style="stroke:#ffffff;stroke-width:0.705"><path d="M245.05,118.85L244.58,118.85L244.43,119.00L244.43,120.87L244.58,121.02L244.86,121.02"/></g></g><g id="Actor_.53"><g style="stroke:#ffffff;stroke-width:0.353"/><g style="stroke:#ffffff;stroke-width:0.705"><path d="M265.75,7.24L265.79,8.15L247.53,8.15L247.57,7.39L247.53,8.15"/><path d="M265.75,7.39L265.75,7.24L247.58,7.24L247.57,7.39L247.58,7.24"/></g></g><g/><g id="paperID" visibility="hidden" opacity="0.00" transform="scale(0.000100)"><path style="stroke:#000000;stroke-width:0.500;fill:#e6e6e6;fill-rule:evenodd" d="M-2000.00,-2000.00L2297.00,-2000.00L2297.00,2210.00L-2000.00,2210.00zM0.00,0.00L297.00,0.00L297.00,210.00L0.00,210.00z"/><path style="fill:#000000;fill-opacity:0.118" d="M3.00,210.00L297.00,210.00L297.00,3.00L300.00,3.00L300.00,213.00L3.00,213.00z"/></g><g id="ToolTip" visibility="hidden" opacity="0" transform="translate(0,0)"><rect id="ToolTipShadow" opacity="0.20" fill="black" stroke="none" x="0" y="0" width="30" height="8"/><rect id="ToolTipBG" fill="#ffffe1" stroke="black" x="0" y="0" width="30" height="8"/><text xml:space="preserve" id="ToolTipText" fill="black" x="0" y="0" width="30" height="8">tooltip</text></g></g></svg>