<?xml version="1.0" encoding="UTF-8" standalone="no"?>
<!-- Generator: Adobe Illustrator 23.0.1, SVG Export Plug-In . SVG Version: 6.00 Build 0)  -->

<svg
   version="1.1"
   id="Layer_1"
   x="0px"
   y="0px"
   viewBox="0 0 3000 3000"
   xml:space="preserve"
   sodipodi:docname="blueglass_icon.svg"
   inkscape:version="1.1.2 (b8e25be833, 2022-02-05)"
   width="31.25in"
   height="31.25in"
   xmlns:inkscape="http://www.inkscape.org/namespaces/inkscape"
   xmlns:sodipodi="http://sodipodi.sourceforge.net/DTD/sodipodi-0.dtd"
   xmlns="http://www.w3.org/2000/svg"
   xmlns:svg="http://www.w3.org/2000/svg"><defs
   id="defs75" /><sodipodi:namedview
   id="namedview73"
   pagecolor="#ffffff"
   bordercolor="#666666"
   borderopacity="1.0"
   inkscape:pageshadow="2"
   inkscape:pageopacity="0.0"
   inkscape:pagecheckerboard="0"
   showgrid="false"
   inkscape:zoom="0.2204"
   inkscape:cx="2497.7314"
   inkscape:cy="1501.8149"
   inkscape:window-width="1920"
   inkscape:window-height="1057"
   inkscape:window-x="-8"
   inkscape:window-y="-8"
   inkscape:window-maximized="1"
   inkscape:current-layer="Layer_1"
   units="in"
   inkscape:document-units="in" />



























<path
   d="M 1429.2203,47.845047 C 1139.0202,62.35505 857.5261,163.92509 625.366,338.04512 445.442,474.43917 300.342,648.55922 198.7719,848.79732 30.4558,1182.5273 -1.4661,1565.5916 108.8099,1925.4396 c 55.1379,179.9241 148.002,351.142 264.082,496.2421 182.8261,223.4541 429.4962,388.8682 702.2843,470.1242 359.8481,107.374 740.0102,75.452 1076.6423,-89.9621 203.14,-101.5699 374.3581,-246.67 510.7521,-426.5942 188.6301,-252.4739 293.1021,-560.086 293.1021,-873.5021 0,-313.4162 -101.5701,-621.02825 -293.1021,-873.50229 C 2500.0585,413.49715 2288.2124,250.98511 2038.6404,152.31707 1850.0104,73.963052 1638.1643,36.237045 1429.2203,47.845047 Z m 162.512,29.020006 c 0,0 11.608,2.902001 23.216,2.902001 20.3141,2.902 60.9421,5.804001 107.3741,11.608002 40.628,5.804001 124.7859,23.216004 174.12,40.628014 8.706,2.902 17.412,5.804 20.314,5.804 5.804,0 89.962,29.02002 110.276,40.62802 5.804,2.902 8.7061,2.902 11.608,5.804 5.804,0 11.608,2.902 26.1181,11.608 8.7059,2.902 20.3139,8.70601 26.1179,11.60801 8.7061,2.902 20.3141,8.706 31.9221,14.51 8.7059,5.804 17.412,8.706 20.3139,8.706 2.9021,0 60.9421,31.92201 66.7461,34.82401 0,0 8.7059,5.804 17.412,8.706 11.608,5.804 23.216,14.51 29.02,17.412 0,0 11.608,8.70601 26.1179,17.41201 31.9221,20.314 52.236,34.824 69.648,49.33402 8.7061,5.804 14.5101,11.608 17.412,11.608 2.9021,2.90201 14.5101,11.60801 40.6281,31.92201 8.706,8.706 17.412,14.51 17.412,14.51 0,0 5.804,5.80401 11.608,8.70601 5.804,5.804 17.412,17.412 26.118,23.216 17.412,14.51 78.3541,75.45202 78.3541,75.45202 0,0 8.706,8.706 20.314,20.314 11.608,11.608 20.314,20.31402 20.314,23.21602 0,0 2.902,2.902 5.804,5.804 2.902,2.902 2.902,2.902 2.902,2.902 0,0 14.51,17.41201 17.412,23.21601 2.902,2.902 20.3141,23.216 20.3141,26.118 0,2.902 2.9019,2.902 2.9019,2.902 0,0 0,0 0,0 0,0 0,2.902 2.9021,2.902 2.9019,0 2.9019,2.902 2.9019,2.902 0,0 2.9021,2.902 5.804,5.804 8.7061,11.60801 29.02,37.72601 60.9421,87.06002 2.9019,5.804 5.804,11.608 8.7059,14.51001 2.9021,2.902 2.9021,5.804 5.804,8.706 2.9021,2.902 2.9021,5.804 5.804,5.804 0,0 2.9021,2.902 0,2.902 0,0 0,2.902 2.9021,2.902 0,0 2.9019,2.90199 2.9019,2.90199 0,0 0,0 0,0 0,0 2.9021,0 0,0 0,0 2.9021,5.804 5.804,8.70607 14.5101,20.31393 40.628,69.64802 37.7261,69.64802 0,0 0,0 0,0 0,0 0,0 0,2.90192 0,2.90208 0,2.90208 0,2.90208 0,0 0,0 0,0 0,0 2.9019,11.608 11.608,23.216 20.3139,37.72594 31.9219,66.74594 31.9219,69.64802 0,0 0,0 0,0 0,0 2.9021,0 0,2.90192 0,0 0,2.90208 0,2.90208 0,0 0,0 0,2.90192 0,0 0,2.90208 0,2.90208 0,0 2.9021,0 0,2.90192 0,0 0,5.80401 2.9021,8.70608 11.608,23.21601 40.628,101.56996 40.628,110.27606 0,2.9019 0,2.9019 2.9019,2.9019 0,0 0,0 0,2.9021 0,0 0,5.804 2.9021,14.5099 8.7059,29.02 11.608,37.7261 17.412,60.9421 11.608,49.3339 26.1179,110.276 23.216,116.08 0,2.9019 0,2.9019 0,2.9019 0,0 0,2.9021 0,5.8041 0,2.902 0,5.804 0,5.804 0,0 0,2.902 0,5.804 0,2.902 2.9019,17.412 2.9019,34.824 2.9021,31.922 8.7061,72.55 8.7061,81.256 0,2.9021 0,5.804 2.9019,5.804 0,0 2.9021,31.9221 2.9021,92.8641 0,60.942 0,92.8641 -2.9021,92.8641 0,0 -2.9019,2.9019 -2.9019,5.804 0,11.608 -2.9021,49.3339 -8.7061,81.256 -2.9019,14.5099 -2.9019,31.9219 -2.9019,34.824 0,2.9019 0,5.804 0,5.804 0,0 0,2.9019 0,5.804 0,2.9019 0,5.804 0,5.804 0,0 0,0 0,2.9019 0,5.804 -11.608,66.7461 -23.216,116.08 -5.804,23.216 -8.7061,31.9221 -17.412,60.9421 -2.9021,5.804 -2.9021,11.608 -2.9021,14.51 0,0 0,2.902 0,2.902 0,0 0,2.902 -2.9019,2.902 0,5.804 -29.02,84.1581 -40.628,110.276 -2.9021,5.804 -2.9021,8.7061 -2.9021,8.7061 0,0 0,2.9019 0,2.9019 0,0 0,0 0,2.9021 0,0 0,2.9019 0,2.9019 0,0 0,0 0,2.9021 0,0 0,2.9019 0,2.9019 0,0 -2.9019,0 0,0 0,2.9021 -11.608,31.9221 -31.9219,69.648 -5.804,11.608 -11.608,23.216 -11.608,23.216 0,0 0,0 0,0 0,0 0,0 0,2.9021 0,0 0,2.9019 0,2.9019 0,0 -2.9021,0 0,0 0,2.9021 -26.1181,49.3341 -37.7261,69.648 -2.9019,5.804 -5.804,8.7061 -5.804,8.7061 0,0 0,0 0,0 0,0 -2.9019,0 0,0 0,0 0,2.9019 -2.9019,2.9019 0,0 -2.9021,2.9021 -2.9021,2.9021 0,0 0,2.9019 0,2.9019 0,0 -2.9019,2.9021 -5.804,5.804 -2.9019,2.9021 -2.9019,5.804 -5.804,8.7061 -2.9019,2.9019 -5.804,8.7059 -8.7059,14.5099 -34.824,52.236 -52.236,78.3541 -60.9421,87.06 -2.9019,2.9021 -5.804,5.8041 -5.804,5.8041 0,0 0,2.902 -2.9019,2.902 -2.9021,0 -2.9021,2.902 -2.9021,2.902 0,0 0,0 0,0 0,0 -2.9019,0 -2.9019,2.902 0,2.902 -17.4121,23.216 -20.3141,26.118 -2.902,2.902 -20.314,23.216 -17.412,23.216 0,0 0,2.902 -2.902,2.902 -2.902,2.902 -5.804,5.804 -5.804,5.804 0,2.902 -8.706,11.608 -20.314,23.216 -11.608,11.608 -20.314,20.3141 -20.314,20.3141 0,2.9019 -60.9421,60.942 -78.3541,75.452 -8.706,8.706 -20.314,17.412 -26.118,23.216 -5.804,5.804 -11.608,8.706 -11.608,8.706 0,0 -8.706,5.804 -17.412,14.51 -26.118,20.314 -37.726,31.922 -40.6281,31.922 -2.9019,0 -8.7059,5.804 -17.412,11.608 -14.5099,11.608 -37.7259,26.1181 -69.648,49.3341 -14.5099,8.7059 -23.216,17.412 -26.1179,17.412 -2.9021,2.9019 -14.5101,8.7059 -29.02,17.412 -8.7061,2.9019 -14.5101,8.7059 -17.412,8.7059 -2.9021,2.9021 -63.844,34.824 -66.7461,34.824 0,0 -8.7059,2.9021 -20.3139,8.7061 -8.7061,5.804 -23.216,11.608 -31.9221,14.5099 -5.804,2.9021 -20.3139,8.7061 -26.1179,11.608 -14.5101,5.804 -20.3141,8.7061 -26.1181,11.608 -2.9019,0 -8.7059,2.9021 -11.608,5.804 -20.314,8.7061 -104.472,40.628 -110.276,40.628 -2.902,0 -11.608,2.9021 -20.314,5.804 -52.236,14.5101 -136.3941,34.824 -174.12,40.628 -46.432,5.804 -84.1581,11.608 -107.3741,11.608 -14.5099,0 -23.216,2.9021 -23.216,2.9021 0,0 -40.628,0 -92.864,0 -49.3341,0 -92.864,0 -92.864,0 0,0 -11.6081,-2.9021 -23.2161,-2.9021 -20.314,-2.9019 -60.942,-5.804 -107.374,-11.608 -40.6281,-5.804 -124.786,-23.216 -174.1201,-40.628 -8.7059,-2.9019 -17.412,-5.804 -20.3139,-5.804 -5.804,0 -89.9621,-29.02 -110.276,-40.628 -5.804,-2.9019 -8.7061,-2.9019 -11.608,-5.804 -5.804,0 -11.608,-2.9019 -26.1181,-11.608 -8.7059,-2.9019 -20.3139,-8.7059 -26.118,-11.608 -5.804,-2.9019 -20.314,-8.7059 -31.922,-14.5099 -8.706,-5.804 -17.412,-8.7061 -20.314,-8.7061 -2.902,0 -60.942,-31.9219 -66.746,-34.824 0,0 -8.706,-5.804 -17.4121,-8.7059 -11.608,-5.804 -23.216,-14.5101 -29.02,-17.412 0,0 -11.608,-8.7061 -26.1179,-17.412 -31.9221,-20.3141 -52.236,-34.824 -69.648,-49.3341 -5.804,-5.804 -14.5101,-11.608 -17.412,-11.608 -2.9021,-2.9019 -14.5101,-11.608 -40.628,-31.922 -8.7061,-8.706 -17.412,-14.51 -17.412,-14.51 0,0 -5.804,-5.804 -11.608,-8.706 -5.804,-5.804 -17.412,-17.412 -26.1181,-23.216 -17.412,-14.51 -78.3541,-75.452 -78.3541,-75.452 0,0 -8.7059,-8.7061 -20.3139,-20.3141 -11.608,-11.608 -20.3141,-20.314 -20.3141,-23.216 0,0 -2.9019,-2.902 -5.804,-5.804 -2.9019,-2.902 -2.9019,-2.902 -2.9019,-2.902 0,0 -14.5101,-17.412 -17.412,-23.216 -2.9021,-2.902 -20.3141,-23.216 -20.3141,-26.118 0,-2.902 -2.9019,-2.902 -2.9019,-2.902 0,0 0,0 0,0 0,0 0,-2.902 -2.9021,-2.902 -2.9019,0 -2.9019,-2.902 -2.9019,-2.902 0,0 -2.9021,-2.902 -2.9021,-5.8041 -8.7059,-11.608 -29.02,-37.7259 -60.9419,-87.06 -2.9021,-5.804 -5.8041,-11.608 -8.7061,-14.5099 -2.902,-2.9021 -2.902,-5.804 -5.804,-8.7061 -2.902,-2.9019 -2.902,-5.804 -5.804,-5.804 0,0 -2.902,-2.9019 0,-2.9019 0,0 0,-2.9021 -2.902,-2.9021 0,0 -2.902,-2.9019 -2.902,-2.9019 0,0 0,0 0,0 0,0 -2.902,0 0,0 0,0 -2.902,-5.804 -5.804,-8.7061 -14.51,-20.3139 -40.628,-69.648 -37.726,-69.648 0,0 0,0 0,0 0,0 0,0 0,-2.9019 0,0 0,-2.9021 0,-2.9021 0,0 0,0 0,0 0,0 -2.902,-11.608 -11.608,-23.216 -20.314,-37.7259 -31.922,-66.7459 -31.922,-69.648 0,0 0,0 0,0 0,0 -2.902,0 0,-2.9019 0,0 0,-2.9021 0,-2.9021 0,0 0,0 0,-2.9019 0,0 0,-2.9021 0,-2.9021 0,0 -2.902,0 0,-2.9019 0,0 0,-5.804 -2.902,-8.7061 -11.608,-23.216 -40.628,-101.57 -40.628,-110.276 0,-2.902 0,-2.902 -2.9021,-2.902 0,0 0,0 0,-2.902 0,0 0,-5.804 -2.9019,-14.51 -8.7061,-29.02 -11.608,-37.7261 -17.412,-60.9421 -11.608,-49.3339 -26.1181,-110.276 -23.216,-116.08 0,-2.9019 0,-2.9019 0,-2.9019 0,0 0,-2.9021 0,-5.804 0,-2.9021 0,-5.804 0,-5.804 0,0 0,-2.9021 0,-5.804 0,-2.9021 -2.9021,-17.412 -2.9021,-34.824 -2.9019,-31.9221 -8.7059,-72.5501 -8.7059,-81.256 0,-2.9021 0,-5.804 -2.9021,-5.804 0,0 -2.9019,-31.9221 -2.9019,-92.8641 0,-60.942 0,-92.8641 2.9019,-92.8641 0,0 2.9021,-2.9019 2.9021,-5.804 0,-11.608 2.9019,-49.334 8.7059,-81.256 2.9021,-14.51 2.9021,-31.922 2.9021,-34.824 0,-2.902 0,-5.804 0,-5.804 0,0 0,-2.902 0,-5.804 0,-2.902 0,-5.8041 0,-5.8041 0,0 0,0 0,-2.9019 0,-5.804 11.608,-66.7461 23.216,-116.08 5.804,-23.216 8.7059,-31.9221 17.412,-60.9421 2.9019,-5.804 2.9019,-11.608 2.9019,-14.5099 0,0 0,-2.9021 0,-2.9021 0,0 0,-2.9019 2.9021,-2.9019 0,-5.804 29.02,-84.15813 40.628,-110.27606 2.902,-5.804 2.902,-8.70608 2.902,-8.70608 0,0 0,-2.90192 0,-2.90192 0,0 0,0 0,-2.90208 0,0 0,-2.90192 0,-2.90192 0,0 0,0 0,-2.90208 0,0 0,-2.90192 0,-2.90192 0,0 2.902,0 0,0 0,-2.90208 11.608,-31.92208 31.922,-69.64802 5.804,-11.608 11.608,-23.216 11.608,-23.216 0,0 0,0 0,0 0,0 0,0 0,-2.90208 0,0 0,-2.90192 0,-2.90192 0,0 2.902,0 0,0 0,-2.90208 26.118,-49.33409 37.726,-69.64802 2.902,-5.804 5.804,-8.70607 5.804,-8.70607 0,0 0,0 0,0 0,0 2.902,0 0,0 -2.902,0 0,-2.90199 2.902,-2.90199 0,0 2.902,-2.902 2.902,-2.902 0,0 0,-2.902 0,-2.902 0,0 2.902,-2.902 5.804,-5.804 2.902,-2.902 2.902,-5.804 5.804,-8.706 2.902,-2.90201 5.804,-8.70601 8.7061,-14.51001 34.824,-52.23601 52.236,-78.35401 60.9419,-87.06002 2.9021,-2.902 5.804,-5.804 5.804,-5.804 0,0 2.9021,-2.902 2.9021,-2.902 2.9019,0 2.9019,-2.902 2.9019,-2.902 0,0 0,0 0,0 0,0 2.9021,0 2.9021,-2.902 0,-2.902 17.412,-23.216 20.3139,-26.118 2.9021,-2.902 20.3141,-23.21601 17.412,-23.21601 0,0 0,-2.902 2.9021,-2.902 2.9019,-2.902 5.804,-5.804 5.804,-5.804 0,-2.902 8.7059,-11.60802 20.3139,-23.21602 11.608,-11.608 20.3141,-20.314 20.3141,-20.314 0,0 60.9421,-60.94202 78.3541,-75.45202 8.7059,-8.706 20.3139,-17.412 26.1179,-23.216 5.804,-5.80401 11.608,-8.70601 11.608,-8.70601 0,0 8.7061,-5.804 17.412,-14.51 26.1181,-20.314 37.7261,-31.92201 40.628,-31.92201 2.9021,0 8.7061,-5.804 17.412,-11.608 14.5101,-11.60801 37.7261,-26.11802 69.648,-49.33402 14.5101,-8.706 26.1181,-17.41201 26.1181,-17.41201 2.9019,-2.902 14.5099,-8.706 29.02,-17.412 8.706,-2.902 14.51,-8.706 17.412,-8.706 2.902,-2.902 63.844,-34.82401 66.746,-34.82401 0,0 8.706,-2.902 20.314,-8.706 8.706,-5.804 23.216,-11.608 31.922,-14.51 8.7061,-2.902 20.3141,-8.70601 26.1181,-11.60801 14.5099,-5.804 20.3139,-8.706 26.1179,-11.608 2.9021,0 8.7061,-2.902 11.608,-5.804 20.3141,-8.706 104.472,-40.62802 110.276,-40.62802 2.9021,0 11.608,-2.902 20.3141,-5.804 52.236,-14.51001 136.3939,-34.824013 174.12,-40.628014 46.432,-5.804001 84.158,-11.608002 107.374,-11.608002 14.5101,0 23.216,-2.902001 23.216,-2.902001 0,0 40.628,0 92.8641,0 49.334,0 89.962,0 89.962,0 z"
   id="path14"
   style="stroke-width:29.02" /><path
   d="m 2087.9745,242.2791 c -8.7061,2.902 -14.5101,5.804 -29.02,20.31401 -8.7061,5.804 -20.3141,17.412 -29.02,26.118 -20.3141,17.41201 -40.6281,37.72601 -58.0401,58.04002 -29.02,31.92202 -49.334,52.23602 -75.452,72.55002 -23.216,17.41201 -31.9221,26.11801 -46.432,46.43201 -5.804,5.80401 -11.608,14.51001 -14.5101,14.51001 -2.9019,2.902 -17.412,11.608 -31.9219,17.412 -20.3141,8.706 -34.824,17.412 -49.3341,26.11801 -8.7059,5.804 -23.216,14.51 -31.9219,20.314 -20.3141,11.608 -55.1381,29.02002 -66.7461,37.72602 -5.804,2.902 -11.608,5.804 -14.5099,5.804 -2.9021,0 -11.608,2.902 -17.412,5.80401 -11.608,5.804 -26.1181,5.804 -113.1781,5.804 -46.432,0 -69.648,0 -69.648,0 -2.9021,0 -2.9021,-5.804 -5.804,-11.60801 -2.9021,-5.804 -5.804,-11.608 -8.7061,-17.412 -2.9019,-2.902 -5.804,-11.60802 -8.7059,-14.51002 -2.9021,-5.804 -8.7061,-14.51 -11.608,-20.314 -2.9021,-8.706 -8.7061,-20.31401 -11.6081,-26.11801 -2.902,-8.706 -8.706,-17.412 -11.608,-26.118 -2.902,-8.706 -8.706,-17.41201 -8.706,-23.21601 -2.902,-5.804 -5.804,-14.51 -5.804,-17.412 -2.902,-2.902 -8.706,-14.51 -14.51,-26.11801 -11.608,-20.314 -11.608,-23.216 -37.726,-49.33401 -5.804,-5.804 -8.706,-8.706 -8.706,-8.706 0,0 -5.804,-2.90201 -11.608,-8.70601 -5.804,-2.902 -14.51,-8.70601 -20.314,-11.60801 -8.706,-5.804 -34.8241,-8.706 -63.8441,-11.608 -11.608,0 -23.216,-2.902 -23.216,-2.902 -8.7059,-2.902 -37.7259,0 -63.844,5.804 -23.216,5.804 -37.7259,14.51 -46.432,29.02002 -2.9019,2.902 -8.7059,8.706 -11.608,11.608 -5.804,5.80401 -8.7059,8.70601 -14.5099,17.41201 -2.9021,5.804 -8.7061,14.51 -14.5101,20.314 -5.804,5.804 -11.608,14.51001 -14.5099,20.31401 -2.9021,5.804 -8.7061,17.412 -14.5101,23.216 -5.804,8.706 -11.608,14.51 -11.608,20.31401 0,2.902 -8.7059,14.51 -14.5099,26.118 -23.216,31.92201 -31.9221,46.43201 -34.824,52.23601 -2.9021,8.706 -5.804,20.31402 -5.804,29.02002 0,2.902 0,8.706 -2.9021,11.608 -2.9019,2.90201 -5.804,8.70601 -8.7059,14.51001 -2.9021,5.804 -5.804,11.608 -5.804,14.51 -2.9021,5.804 -11.608,23.21601 -14.5101,31.92201 0,5.804 -2.902,14.51 -2.902,20.314 0,11.608 -2.902,14.51 -5.804,23.21601 -14.51,29.02 -17.412,31.922 -20.314,58.04001 -2.902,20.31406 -2.902,20.31406 -17.412,34.82399 -8.706,8.70608 -11.608,14.51008 -14.51,20.31408 -2.902,8.70593 -11.608,26.11793 -17.412,31.92193 -2.902,2.90208 -8.706,5.804 -17.412,11.608 -23.216,11.60801 -31.922,20.31408 -43.5301,43.53009 -5.804,11.608 -8.7059,14.50993 -29.02,34.824 -11.608,11.60801 -29.02,31.92194 -37.7259,40.62801 -8.7061,8.70593 -20.3141,20.31393 -29.02,26.11793 -5.804,5.80403 -17.412,14.51013 -26.1181,23.21603 -11.608,11.608 -29.02,23.216 -69.648,46.432 -17.412,11.608 -43.5299,29.02 -55.1379,37.7261 -5.804,5.804 -14.5101,11.608 -17.412,14.5099 -5.804,2.9021 -8.7061,8.7061 -11.608,11.608 -2.9021,2.9021 -2.9021,5.804 -5.804,8.7061 -2.9021,2.9019 -5.804,8.7059 -11.608,14.5099 -2.9021,5.804 -11.608,17.412 -14.5101,23.216 -5.804,5.804 -11.608,14.5101 -14.5101,23.216 -2.9019,5.804 -14.5099,23.216 -23.216,37.7261 -20.3139,29.02 -46.432,84.158 -58.04,110.276 -2.9019,2.902 -2.9019,11.608 -5.804,14.51 -17.412,31.922 -31.9219,58.04 -34.824,69.648 -5.804,17.412 -20.3139,60.9421 -20.3139,69.6481 0,5.804 -2.9021,8.706 -5.804,14.51 -2.9021,2.902 -5.804,8.706 -5.804,11.608 0,2.9021 -2.9021,5.804 -2.9021,8.7061 -5.804,5.804 -11.608,26.1179 -11.608,40.628 -2.902,17.412 -5.804,63.844 -2.902,63.844 0,0 2.902,37.7259 2.902,81.256 2.902,87.06 2.902,142.1979 5.804,182.826 2.902,29.02 5.804,87.06 5.804,92.864 0,5.804 2.9021,31.9221 8.7061,46.432 2.9019,5.804 2.9019,14.5101 2.9019,14.5101 0,2.9019 11.608,31.9219 17.412,43.5299 2.9021,2.9021 5.804,8.7061 5.804,11.608 2.9021,2.9021 5.804,8.7061 8.7061,17.412 2.9019,5.804 11.608,20.3141 17.412,31.9221 5.804,11.608 17.412,26.1179 20.3139,31.9219 5.804,5.804 11.608,17.412 11.608,20.3141 2.9021,5.804 8.7061,11.608 17.412,20.3139 5.804,5.804 17.412,17.412 23.216,26.1181 17.412,23.216 49.3341,52.236 69.6482,66.7459 5.804,5.804 14.5099,11.608 17.412,14.5101 5.804,5.804 14.5099,11.608 40.628,20.3139 20.3139,8.7061 34.824,14.5101 43.5299,14.5101 2.9021,0 8.7061,2.902 14.5101,5.804 11.608,5.804 26.1179,8.706 58.04,17.412 23.216,5.804 26.1179,5.804 49.3339,17.412 11.608,5.804 31.9221,14.51 40.628,20.314 8.7061,5.804 23.2161,14.51 34.8241,17.412 23.216,11.608 40.628,20.314 60.942,34.8241 29.02,20.314 52.236,29.02 81.2561,31.922 23.216,2.902 31.9219,5.804 43.5299,8.706 5.804,0 17.412,2.902 26.1181,5.804 29.02,5.804 46.432,14.51 69.648,34.824 20.3139,17.412 37.7259,31.922 55.1379,43.53 8.7061,5.804 17.412,11.608 23.216,17.412 5.804,2.9021 14.5101,11.608 20.3141,14.5101 5.804,5.804 17.412,11.608 20.3139,14.5099 20.3141,14.5101 58.04,31.9221 87.0601,40.628 5.804,2.9021 17.412,2.9021 26.118,2.9021 8.706,0 23.216,2.9019 31.922,5.804 8.706,2.9019 20.314,2.9019 23.216,2.9019 2.902,0 11.608,2.9021 20.314,5.804 5.804,2.9021 17.4121,5.804 23.2161,8.7061 5.804,2.9019 17.412,5.804 20.3139,8.7059 11.608,5.804 31.9221,14.5101 49.3341,17.412 37.726,11.608 60.9421,20.3141 75.452,31.9221 8.7061,5.804 31.9221,17.412 78.3541,40.628 11.608,5.804 26.1179,14.5099 31.9219,17.412 5.804,2.9019 11.608,8.7059 17.412,8.7059 5.804,2.9021 8.7061,5.804 14.5101,8.7061 5.804,5.804 5.804,5.804 17.412,11.608 26.1179,8.7059 49.3339,8.7059 60.9419,0 8.7061,-5.804 11.608,-11.608 14.5101,-26.1181 2.9019,-14.5099 2.9019,-17.412 2.9019,-69.648 0,-60.9419 -2.9019,-87.06 -5.804,-101.5699 -5.804,-17.412 -14.5099,-58.0401 -17.412,-69.6481 0,-5.804 -2.9019,-14.51 -2.9019,-17.412 -2.9021,-17.412 -20.3141,-69.648 -29.02,-81.256 -17.412,-34.8241 -20.3141,-43.5301 -23.216,-92.8641 -2.9021,-63.8441 -5.804,-87.0601 -17.412,-110.2761 -2.9021,-5.804 -5.804,-14.5099 -8.7061,-20.3139 -14.5099,-34.824 -40.628,-92.864 -52.236,-110.276 -2.9019,-5.804 -5.804,-11.608 -8.7059,-14.5101 -2.9021,-8.7059 -17.412,-26.1179 -26.1181,-34.824 -2.9019,-2.9019 -8.7059,-8.7059 -14.5099,-11.608 -5.804,-2.9019 -8.7061,-5.804 -11.608,-8.7059 -2.9021,-8.7061 -2.9021,-8.7061 66.7459,-5.804 63.844,2.9019 78.3541,2.9019 110.276,8.7059 17.412,2.9021 26.1181,5.804 37.7261,11.608 5.804,2.9021 14.5099,5.804 20.3139,8.7061 17.412,5.804 23.216,8.7059 40.628,26.1179 8.7061,8.7061 20.3141,17.412 23.216,20.3141 5.804,2.9019 23.2161,14.5099 29.0201,23.216 8.706,8.7059 14.51,11.608 29.02,20.3139 26.118,14.5101 26.118,17.412 37.726,20.3141 5.804,2.9019 14.51,2.9019 17.412,5.804 11.608,5.804 34.8241,11.608 52.2361,11.608 8.7059,0 37.7259,2.9019 60.9419,2.9019 49.3341,0 55.1381,0 69.648,-11.608 5.804,-2.9019 14.5101,-8.7059 17.412,-11.608 5.804,-2.9019 14.5101,-8.7059 20.3141,-14.5099 23.216,-17.412 23.216,-17.412 31.9219,-20.3141 2.9021,-2.9019 11.608,-8.7059 20.3141,-14.5099 14.5099,-14.5101 23.216,-20.3141 37.7259,-29.02 11.608,-8.7061 20.3141,-17.412 34.824,-40.628 11.608,-17.412 14.5101,-26.1181 14.5101,-46.432 v -17.412 l 2.9019,-2.9021 c 2.9021,0 8.7061,-2.9019 14.5101,-2.9019 20.314,-2.9021 20.314,-2.9021 26.118,-8.7061 2.902,-2.9019 14.51,-14.5099 23.216,-26.118 17.412,-17.412 29.02,-31.922 40.628,-49.334 2.902,-5.804 8.706,-11.608 11.608,-17.412 14.51,-20.314 17.412,-29.02 31.922,-78.354 2.9021,-8.7061 2.9021,-14.5101 2.9021,-31.9221 0,-20.3139 0,-23.216 -2.9021,-29.02 -2.9019,-8.7059 -5.804,-11.608 -14.51,-17.412 -2.902,-2.9019 -5.804,-5.804 -5.804,-5.804 0,0 2.902,-8.7059 8.706,-14.5099 5.804,-5.804 8.7061,-14.5101 8.7061,-14.5101 0,0 2.9019,-5.804 5.804,-11.608 5.804,-8.7059 5.804,-11.608 5.804,-20.3139 0,-5.804 0,-14.5101 -2.9021,-20.3141 0,-5.804 -2.9019,-11.608 -2.9019,-14.5099 0,-2.9021 -2.9021,-8.7061 -5.804,-11.608 -5.8041,-5.804 -5.8041,-8.7061 -5.8041,-20.3141 -2.902,-23.216 -2.902,-29.02 -11.608,-43.5299 -2.902,-8.7061 -5.804,-17.412 -8.706,-20.3141 -2.902,-2.9019 -5.804,-14.5099 -8.706,-26.1179 -8.706,-20.3141 -20.314,-37.7261 -31.922,-52.2361 -5.804,-5.804 -14.51,-17.412 -20.314,-26.118 -8.706,-8.706 -14.51,-20.3141 -17.412,-23.216 -5.804,-5.804 -8.706,-14.5101 -11.608,-26.1181 0,-8.7059 -2.902,-11.608 -5.8041,-14.5099 -2.9019,-2.9021 -5.804,-8.7061 -5.804,-11.608 -2.9019,-5.804 -8.7059,-26.1181 -5.804,-31.9221 0,-5.804 0,-40.628 -2.9019,-58.04 0,-5.804 -2.9021,-14.51 -5.804,-17.412 -5.804,-11.608 -8.7061,-14.51 -8.7061,-23.216 0,-5.8041 0,-11.6081 2.9021,-14.51 2.9019,-8.7061 11.608,-17.412 20.3139,-23.216 2.9021,-2.9021 8.7061,-5.804 8.7061,-8.7061 2.902,-2.9019 0,-46.432 -2.9021,-58.04 0,-5.804 -2.9019,-11.608 -2.9019,-17.412 0,-17.412 -5.804,-58.04 -11.608,-84.1579 -2.9021,-11.608 -2.9021,-23.216 -2.9021,-31.9221 0,-17.412 0,-20.3139 -8.7059,-29.02 -2.9021,-2.9019 -8.7061,-8.7059 -8.7061,-14.50995 -2.9019,-8.70608 -17.412,-23.21601 -29.02,-37.72608 -2.9019,-2.90193 -14.5099,-8.70593 -26.1179,-14.50993 -26.1181,-11.60801 -37.7261,-20.31408 -49.3341,-34.82401 -5.804,-5.804 -8.7059,-11.608 -11.608,-14.51008 -2.9019,-2.90192 -5.804,-8.70593 -8.7059,-11.608 -2.9021,-5.804 -5.804,-11.608 -8.7061,-14.50993 -2.9019,-2.90207 -5.804,-11.608 -8.7059,-17.412 -2.9021,-5.804 -11.608,-17.41201 -17.412,-23.21601 -20.3141,-23.216 -26.1181,-31.92208 -31.9221,-43.53008 -2.9019,-5.804 -8.7059,-14.50993 -11.608,-20.31393 -2.9019,-2.90207 -5.804,-8.70606 -8.7059,-8.70606 0,0 0,-5.804 2.9019,-11.608 2.9021,-8.70601 2.9021,-11.60801 2.9021,-46.43201 0,-20.31401 0,-58.04001 2.9019,-87.06002 0,-26.11801 0,-58.04003 2.9021,-69.64803 0,-26.11801 2.9019,-46.43201 8.7059,-63.84401 2.9021,-5.804 5.804,-14.51001 5.804,-20.31401 2.9021,-11.608 11.608,-29.02 17.412,-37.726 5.804,-8.70601 11.608,-20.31401 11.608,-37.72601 0,-8.706 2.9021,-17.41201 2.9021,-20.31401 2.9019,-11.60801 2.9019,-58.04002 0,-69.64803 -5.804,-17.412 -14.5101,-31.922 -31.9221,-40.628 -17.412,-11.60801 -46.432,-14.51001 -60.9419,-11.60801 z m 60.9419,49.33401 c 8.7061,2.902 8.7061,11.60801 8.7061,31.92201 0,23.21601 -2.9021,37.72602 -11.608,55.13803 -2.9021,8.706 -5.804,14.51 -5.804,20.314 -2.9021,8.706 -8.7061,26.11801 -14.5101,37.72601 -8.7059,17.412 -14.5099,31.922 -14.5099,52.23601 0,8.706 -2.9021,23.216 -5.804,29.02 -5.804,29.02001 -5.804,63.84403 -2.9021,156.70805 0,52.23601 0,58.04001 -11.608,58.04001 -2.9019,0 -5.804,-2.902 -11.608,-8.706 -5.804,-5.804 -11.608,-8.706 -14.5099,-11.608 -14.5101,-5.804 -20.3141,-8.706 -23.216,-14.51 -2.9021,-5.804 -2.9021,-8.70601 -2.9021,-17.41201 2.9021,-17.412 2.9021,-34.824 5.804,-40.62801 0,-2.902 2.9021,-11.608 2.9021,-20.314 2.9019,-14.51 2.9019,-11.608 -8.7061,-49.33401 -2.9019,-8.706 -5.804,-14.51002 -5.804,-20.31402 -2.9019,-8.706 2.9021,-23.216 8.7061,-37.72601 5.804,-11.608 8.7059,-14.51 23.216,-31.922 23.216,-23.21601 29.02,-37.72601 23.216,-46.43201 -5.804,-8.706 -20.3141,0 -46.432,26.118 -23.216,23.21601 -31.9221,34.82401 -40.6281,58.04001 -5.804,11.60801 -14.51,26.11801 -17.412,34.82401 -5.804,8.70602 -11.608,17.41202 -11.608,23.21602 -2.902,8.706 -5.804,11.608 -11.608,11.608 -2.902,0 -2.902,0 -2.902,-5.804 0,-2.902 0,-11.608 0,-17.412 0,-8.70602 2.902,-11.60802 8.706,-20.31402 2.902,-5.804 8.706,-11.608 11.608,-17.412 5.804,-5.804 17.412,-23.21601 20.314,-31.92201 2.902,-8.706 8.706,-23.216 20.3141,-34.82401 5.804,-5.804 8.7059,-17.412 11.608,-20.314 2.9019,-5.804 5.804,-11.608 11.608,-17.412 5.804,-5.80401 11.608,-14.51001 17.412,-20.31401 5.804,-5.804 11.608,-14.51 17.412,-17.412 14.5099,-11.608 17.412,-14.51001 23.216,-26.11801 11.608,-23.21602 14.5099,-29.02002 20.3139,-43.53002 2.9021,-8.706 5.804,-14.51 8.7061,-17.412 2.9019,-2.90201 5.804,-5.80401 14.5099,-5.80401 0,-2.902 2.9021,-2.902 5.804,0 z m -922.8362,60.94202 c 14.5099,2.902 40.628,11.60801 49.334,17.41201 2.902,2.90201 8.706,8.70601 14.51,11.60801 5.804,2.902 11.608,14.51 17.412,20.314 5.804,5.804 14.51,14.51 17.412,20.31401 2.902,5.804 8.706,14.51 14.51,20.314 8.706,11.608 14.51,23.216 20.314,40.62801 5.804,17.412 8.706,29.02 17.412,37.72601 2.902,5.804 11.608,20.314 17.412,31.922 8.706,11.60802 14.51,26.11802 17.4121,31.92202 2.9019,11.60801 8.7059,37.72601 8.7059,75.45202 0,17.412 2.9021,23.216 5.804,31.92201 2.9021,8.706 5.804,17.412 8.7061,34.824 2.9019,14.51001 2.9019,29.02001 5.804,37.726 2.9019,11.608 2.9019,20.31407 0,34.824 0,23.21601 0,23.21601 8.7059,34.82401 11.608,14.51008 14.5101,29.02001 5.804,37.72608 -8.7059,8.70593 -17.412,11.608 -31.9219,11.608 -8.7061,0 -17.412,2.90193 -20.3141,2.90193 -26.118,5.804 -58.04,11.608 -84.158,11.608 -20.314,0 -23.216,2.90208 -34.824,5.804 -8.706,2.90208 -11.608,2.90208 -17.412,2.90208 -14.5101,-2.90208 -17.412,-5.804 -14.5101,-34.82401 0,-17.412 0,-20.31408 -2.9019,-29.02 -2.9021,-5.80401 -2.9021,-20.31408 -5.804,-40.62801 l -2.9021,-31.92208 -5.804,-5.804 c -2.9019,-2.90199 -8.7059,-11.60799 -11.608,-17.41199 -8.7059,-14.51001 -17.412,-17.41201 -26.1179,-17.41201 -8.7061,0 -11.608,2.902 -11.608,11.60801 0,5.804 2.9019,14.51 11.608,26.11806 8.7059,8.70593 20.3139,29.02001 23.216,37.72593 5.804,14.51008 2.9019,52.23601 -2.9021,69.64802 -2.9019,8.70607 -5.804,14.51007 -5.804,23.216 -2.9019,20.31408 -5.804,26.11808 -23.216,26.11808 -14.5099,2.90193 -29.02,8.70593 -31.9219,17.41201 -2.9021,2.90192 -8.7061,11.608 -14.5101,17.412 -8.7059,11.608 -14.5099,14.50993 -20.3139,8.70593 -2.9021,-2.90193 -2.9021,-2.90193 -2.9021,-14.50993 0,-11.608 0,-11.608 -5.804,-20.31408 -8.7059,-8.70593 -8.7059,-17.412 -8.7059,-34.82401 0,-5.804 0,-8.70593 -2.9021,-11.608 -2.9019,-2.90193 -5.804,-2.90193 -5.804,-2.90193 -5.804,0 -5.804,2.90193 -8.7059,17.41201 -2.9021,8.70593 -2.9021,11.608 0,20.31393 2.9019,17.412 0,31.92208 -5.804,58.04001 -8.7061,29.02003 -8.7061,46.43203 -8.7061,69.64803 0,23.216 0,26.1181 8.7061,29.02 14.5099,2.9021 17.412,5.804 26.1179,23.216 2.9021,5.804 2.9021,8.7061 2.9021,20.3141 0,8.7059 0,11.608 -2.9021,20.3139 -5.804,8.7061 -11.608,14.5101 -17.412,14.5101 -5.804,0 -14.5099,-8.7061 -17.412,-11.608 0,-2.9021 -2.9019,-5.804 -2.9019,-8.7061 0,-2.9019 -2.9021,-8.7059 -5.804,-11.608 -11.608,-14.5099 -20.3141,-29.02 -26.1181,-37.7259 -2.9019,-2.9021 -5.804,-8.7061 -8.7059,-14.5101 -2.9021,-5.804 -8.7061,-11.608 -11.608,-20.3139 -2.9021,-8.7061 -8.7061,-17.412 -14.5101,-23.216 -2.9019,-2.9021 -8.7059,-8.7061 -8.7059,-11.608 0,-2.9021 -5.804,-8.7061 -8.7061,-14.5101 -5.804,-5.80403 -8.7059,-11.60803 -8.7059,-14.50995 0,-2.90208 -2.9021,-8.70608 -5.804,-11.60801 -14.5101,-17.412 -31.9221,-55.13808 -37.7261,-72.55009 -2.9019,-5.804 -5.804,-17.412 -5.804,-29.02 -2.9019,-11.608 -2.9019,-20.31393 -5.804,-23.21601 -2.9019,-5.804 -11.608,-29.02 -14.51,-40.62801 -2.902,-5.804 -2.902,-8.70592 -2.902,-20.31393 0,-8.70607 0,-14.51007 0,-17.412 0,-2.90207 0,-8.70607 5.804,-34.82407 0,-5.804 2.9021,-11.608 2.9021,-17.412 0,-2.902 2.9019,-11.608 5.804,-14.51 2.9019,-5.804 5.804,-11.608 5.804,-17.41201 0,-5.804 2.9019,-14.51 5.804,-17.412 0,-5.804 2.9019,-11.608 2.9019,-14.51 -2.9019,-14.51 8.7061,-43.53001 23.216,-63.84401 5.804,-8.70601 14.5101,-29.02001 14.5101,-40.62803 0,-14.51 11.608,-34.82401 26.1179,-58.04001 2.9021,-5.804 5.804,-11.608 8.7061,-14.51 2.9019,-2.902 5.804,-8.706 11.608,-14.51001 8.7059,-8.706 11.608,-14.51 23.216,-37.726 2.9019,-5.804 5.804,-11.60801 8.7059,-11.60801 5.804,-8.706 40.628,-43.53 49.3341,-49.33401 8.7059,-5.804 34.824,-17.41201 49.3339,-17.41201 17.412,0 63.844,0 78.3541,2.902 z m 351.1422,281.49408 c 5.804,0 11.608,2.902 14.5099,2.902 17.412,8.70601 52.236,11.60801 98.668,5.80401 31.9221,-2.90201 63.844,-2.90201 95.7661,0 23.216,2.902 31.9219,2.902 60.9419,5.804 8.7061,0 20.3141,2.902 26.1181,2.902 5.804,0 17.412,2.902 23.216,2.902 17.412,5.804 31.922,8.706 46.432,8.706 14.51,2.902 31.922,11.608 49.334,23.216 5.804,5.80401 17.412,11.60801 20.3141,14.51001 2.9019,2.902 14.5099,11.608 20.3139,17.412 8.7061,8.706 14.5101,14.51 14.5101,14.51 0,0 2.9019,2.902 5.804,5.804 2.9019,2.90201 8.7059,5.80401 11.608,5.80401 2.9019,0 8.7059,5.804 14.5099,11.608 5.804,5.804 11.608,11.60806 17.412,14.50999 11.608,5.804 11.608,8.70607 20.3141,23.216 2.9019,5.804 8.7059,14.51008 8.7059,14.51008 2.9021,2.90192 5.804,8.70593 8.7061,17.412 11.608,26.11793 34.824,52.23601 58.04,69.64802 5.804,5.804 14.5099,14.50993 20.3139,17.412 5.804,5.804 14.5101,14.50993 26.1181,23.216 11.608,8.70593 23.216,20.31393 29.02,26.11794 37.7259,40.62803 52.236,55.13813 55.1379,58.04003 0,2.9021 2.9021,8.7061 5.804,11.608 5.804,8.7061 8.7061,17.412 8.7061,37.7261 0,8.7059 2.9019,17.412 2.9019,20.3139 0,2.9021 2.9021,11.608 2.9021,20.3141 0,8.7059 2.9019,20.3139 2.9019,26.1179 2.9021,11.608 8.7061,60.9421 5.804,66.7461 0,5.804 -11.608,17.412 -23.216,26.1179 -11.608,8.7061 -17.412,14.5101 -17.412,20.3141 0,2.9019 2.9021,8.7059 5.804,14.5099 8.7061,20.3141 11.608,40.6281 14.5101,72.5501 0,23.216 2.9019,29.02 5.804,37.726 2.9019,5.804 2.9019,11.608 2.9019,14.51 0,5.804 2.9021,11.608 8.7061,23.2161 2.9019,5.804 8.7059,17.412 11.608,23.216 11.608,31.9219 14.51,34.824 37.726,55.138 11.608,8.706 20.314,17.412 23.216,20.314 5.804,8.706 14.51,26.1181 20.314,37.7261 2.902,5.804 5.804,11.608 5.804,14.5099 0,2.9021 2.902,8.7061 5.804,14.5101 0,5.804 2.902,14.5099 5.804,20.3139 l 5.804,8.7061 v 29.02 c 0,23.216 0,29.02 -2.902,31.9219 -2.902,2.9021 -5.804,2.9021 -23.216,2.9021 -29.02,0 -89.962,2.9019 -104.4721,5.804 -5.804,0 -17.412,2.9019 -20.3139,5.804 -11.608,2.9019 -26.1181,2.9019 -43.5301,0 -14.5099,-2.9021 -14.5099,-2.9021 -34.824,-11.608 -26.1179,-8.7061 -40.628,-17.412 -43.5299,-23.216 -2.9021,-2.9021 -5.804,-8.7061 -8.7061,-14.5101 l -5.804,-11.608 v -55.1379 c 0,-60.9421 -2.9019,-87.0601 -2.9019,-95.7661 0,-2.9021 -5.804,-11.608 -8.7061,-17.412 -2.9019,-5.804 -5.804,-11.608 -8.7059,-14.5101 -2.9021,-8.7059 -14.5101,-11.608 -17.412,-2.9019 -2.9021,5.804 0,8.7059 8.7059,20.3139 11.608,14.5101 11.608,14.5101 11.608,60.9421 0,23.216 0,52.236 0,69.648 0,23.216 0,29.02 -2.9019,31.9221 -2.9021,2.9019 -11.608,5.804 -26.1181,8.7059 -5.804,0 -11.608,2.9021 -14.5099,5.804 -2.9021,2.9021 -8.7061,5.804 -11.608,5.804 -8.7061,2.9021 -31.9221,14.5101 -40.628,20.3141 -5.804,2.9019 -14.5101,8.7059 -20.3141,11.608 -5.804,2.9019 -14.5099,5.804 -20.3139,8.7059 -2.9021,2.9021 -11.608,5.804 -14.5101,5.804 -2.902,0 -8.706,2.9021 -14.51,5.804 l -8.706,5.804 h -84.158 c -95.7661,0 -89.9621,0 -107.3741,14.5101 -17.412,11.608 -26.1179,26.1179 -20.3139,37.7259 2.9019,8.7061 0,14.5101 -8.7061,20.3141 -8.7059,5.804 -11.608,14.5099 -14.5099,23.216 0,5.804 -2.9021,14.5099 -5.804,20.3139 l -2.9021,14.5101 v 49.3339 49.3341 l 5.804,8.706 c 5.804,11.608 5.804,14.51 0,20.314 -8.7059,8.706 -23.216,5.804 -37.7259,-5.804 -2.9021,-2.902 -11.608,-8.706 -17.412,-11.608 -14.5101,-5.804 -23.216,-14.51 -40.628,-29.02 -8.7061,-5.804 -14.5101,-11.608 -14.5101,-11.608 0,0 -2.9019,2.902 -2.9019,2.902 -2.9021,2.902 -2.9021,2.902 0,5.804 2.9019,5.804 11.608,11.608 20.3139,14.51 2.9021,0 8.7061,5.804 11.608,8.706 2.9021,2.902 11.608,8.706 17.412,11.608 5.804,2.902 14.5101,8.706 20.3141,14.51 14.5099,11.608 23.216,14.51 34.824,14.51 5.804,0 8.7059,0 49.3339,23.216 14.5101,8.706 29.02,14.51 34.824,17.412 5.804,2.902 29.02,11.608 52.236,23.216 23.2161,11.608 46.4321,23.216 52.2361,23.216 11.608,2.9021 11.608,2.9021 14.51,2.9021 2.902,-2.9021 5.804,-2.9021 5.804,-5.804 0,-5.804 -2.902,-8.7061 -17.412,-11.608 -5.804,-2.9021 -14.51,-5.804 -17.412,-5.804 -2.902,-2.9021 -8.706,-5.804 -14.51,-5.804 -11.608,-2.9021 -46.4321,-23.2161 -58.0401,-31.9221 -5.804,-2.902 -11.608,-8.706 -11.608,-8.706 -5.804,-2.902 -8.7059,-8.706 -8.7059,-17.412 0,-5.804 0,-8.706 5.804,-8.706 2.9019,-2.902 5.804,-2.902 8.7059,0 2.9021,0 11.608,2.902 17.412,5.804 5.804,0 17.412,2.902 23.216,5.804 17.4121,5.804 31.9221,8.706 55.1381,11.608 14.51,2.902 26.118,2.902 34.824,8.706 26.118,8.706 26.118,8.706 29.02,0 2.902,-11.608 0,-14.51 -23.216,-20.314 -8.706,-2.902 -20.314,-5.804 -29.02,-5.804 -8.706,-2.902 -20.314,-5.804 -29.02,-5.804 -8.706,-2.902 -20.314,-5.804 -26.118,-5.804 -5.8041,-2.902 -14.51,-2.902 -14.51,-2.902 -2.9021,0 -8.7061,-2.902 -11.608,-5.804 -11.608,-5.804 -14.5101,-14.51 -14.5101,-26.118 0,-5.804 0,-8.706 2.9021,-11.608 5.804,-8.706 11.608,-8.706 43.53,-8.706 23.216,0 31.922,0 46.432,2.902 14.51,2.902 20.314,2.902 43.53,2.902 23.216,0 26.118,0 31.922,-2.902 2.9021,-2.902 5.804,-2.902 5.804,-8.706 0,-2.902 0,-5.804 -2.9019,-8.7061 -2.9021,-2.9019 -5.804,-2.9019 -23.2161,-5.804 -23.216,0 -29.02,-2.9019 -43.53,-8.7059 l -11.608,-2.9021 h -26.118 c -23.216,0 -26.118,0 -37.7261,-2.9019 -11.608,-2.9021 -26.1179,-11.608 -29.02,-17.412 -2.9019,-2.9021 -2.9019,-11.608 -2.9019,-23.216 -2.9021,-20.3141 -2.9021,-20.3141 0,-26.1181 2.9019,-2.9019 5.804,-5.804 5.804,-8.7059 2.9019,-2.9021 5.804,-2.9021 14.5099,2.9019 11.608,5.804 31.9221,11.608 37.7261,11.608 8.706,0 49.334,8.7061 60.942,11.608 8.706,2.9021 17.412,2.9021 29.02,5.804 23.216,2.9021 29.02,2.9021 52.236,17.412 17.412,11.608 26.1181,14.5101 31.9221,8.7061 2.9019,-2.9021 2.9019,-14.5101 0,-20.3141 -2.9021,-5.804 -5.804,-5.804 -14.5101,-11.608 -5.804,-2.9019 -14.5099,-5.804 -17.412,-8.7059 -11.608,-5.804 -49.334,-11.608 -66.746,-11.608 -14.51,0 -20.314,-2.9021 -26.118,-5.804 -5.804,-2.9021 -11.608,-5.804 -17.412,-8.7061 -5.804,-2.9019 -14.51,-5.804 -20.314,-5.804 -5.804,0 -20.314,-5.804 -29.02,-8.7059 -8.7061,-2.9021 -20.3141,-5.804 -23.216,-8.7061 -5.804,-2.9019 -8.7061,-2.9019 -23.216,-20.3139 -5.804,-5.804 -11.608,-14.5101 -14.5101,-14.5101 -2.9019,-2.9019 -2.9019,-5.804 -2.9019,-11.608 2.9019,-5.804 5.804,-5.804 69.648,-5.804 84.158,0 113.178,-2.9019 130.59,-11.608 5.804,-2.9019 11.608,-5.804 14.5101,-5.804 11.608,-2.9019 29.02,-8.7059 49.3339,-20.3139 11.608,-5.804 20.3141,-11.608 20.3141,-11.608 0,0 5.804,-2.9021 8.7059,-5.804 8.7061,-5.804 8.7061,-5.804 17.412,-8.7061 5.804,0 14.5101,0 17.412,-2.9019 11.608,-2.9021 14.5101,-2.9021 20.3141,5.804 14.5099,14.5099 23.216,20.3139 31.9219,26.1179 5.804,2.9021 11.608,5.804 14.5101,8.7061 8.7059,8.7059 17.412,11.608 26.1179,11.608 11.608,0 17.412,2.9019 23.216,8.7059 l 2.9021,5.804 -2.9021,8.7061 c -2.9019,5.804 -2.9019,8.7059 0,17.412 2.9021,17.412 8.7061,26.1179 40.628,55.1379 17.412,14.5101 20.3141,23.216 23.216,37.7261 0,5.804 2.9021,14.5099 2.9021,17.412 5.804,11.608 5.804,17.412 2.9019,31.9219 -2.9019,8.7061 -2.9019,17.4121 -2.9019,20.3141 0,5.804 -5.804,29.02 -8.7061,40.628 -2.9019,5.804 -5.804,11.608 -14.5099,23.216 -5.804,8.706 -14.5101,20.314 -20.3141,26.118 -8.7059,8.706 -23.216,23.216 -34.824,31.9221 -5.804,2.9019 -11.608,8.7059 -17.412,14.5099 -5.804,5.804 -14.5099,11.608 -26.1179,17.412 -8.7061,5.804 -20.3141,11.608 -23.216,14.5101 -2.9021,2.9019 -11.608,5.804 -14.5101,8.7059 -5.804,2.9021 -11.608,5.804 -14.5099,5.804 -5.804,2.9021 -8.7061,5.804 -31.9221,8.7061 -8.7059,2.9019 -17.412,2.9019 -78.3539,2.9019 -72.5501,0 -72.5501,0 -78.3541,5.804 -2.902,5.804 -2.902,17.412 0,17.412 0,0 11.608,2.9021 23.216,2.9021 11.608,0 23.216,2.9019 29.02,2.9019 14.5101,2.9021 20.3141,2.9021 60.9421,2.9021 46.432,-2.9021 55.1379,-2.9021 72.5499,-8.7061 20.3141,-5.804 31.9221,-11.608 63.844,-34.824 23.216,-14.5099 31.9221,-23.216 43.5301,-34.824 20.3139,-20.3139 37.7259,-31.922 43.5299,-31.922 5.804,2.902 11.608,5.8041 14.5101,8.706 2.9019,2.9021 2.9019,26.1181 0,34.824 -2.9021,5.804 -11.608,20.3141 -20.3141,31.9221 -2.9019,5.804 -8.7059,14.5099 -14.5099,20.3139 -8.7061,14.5101 -26.1181,34.824 -40.628,46.432 -5.804,2.9021 -14.5101,11.608 -20.3141,14.5101 -20.3139,17.412 -31.9219,26.1179 -52.236,31.9219 -5.804,2.9021 -14.5099,5.804 -17.412,5.804 -11.608,5.804 -26.1179,5.804 -69.648,5.804 -37.7259,0 -69.648,-2.9019 -84.158,-8.7059 -2.902,-2.9021 -11.608,-5.804 -37.726,-23.216 -2.902,-2.9021 -11.608,-11.608 -20.314,-20.3141 -8.706,-8.7059 -17.412,-17.412 -20.314,-17.412 -2.902,0 -8.706,-5.804 -14.51,-11.608 -5.804,-5.804 -17.412,-14.5099 -26.1181,-20.3139 -8.7059,-5.804 -17.412,-14.5101 -20.3139,-14.5101 -2.9021,-5.804 -17.412,-14.5099 -29.02,-20.3139 -26.1181,-11.608 -49.3341,-17.412 -89.9621,-20.3141 -11.608,0 -29.02,-2.9019 -37.7259,-2.9019 -8.7061,0 -34.824,-2.9021 -60.9421,-2.9021 -26.1179,0 -55.1379,-2.9019 -69.648,-2.9019 -11.608,0 -40.628,-2.9021 -60.942,-2.9021 -40.6281,0 -43.53,0 -66.746,5.804 -5.804,2.9021 -20.3141,5.804 -29.02,5.804 -8.7061,2.9021 -23.2161,5.804 -34.8241,5.804 -17.412,2.9021 -20.314,2.9021 -52.236,2.9021 -29.02,0 -34.824,0 -49.334,-2.9021 -8.706,-2.9019 -23.2161,-2.9019 -31.922,-2.9019 -14.5101,0 -66.7461,-8.7061 -92.864,-11.608 -20.3141,-2.9021 -34.824,-11.608 -78.3541,-49.3341 -5.804,-5.804 -14.5099,-11.608 -14.5099,-14.51 -5.804,-5.804 -11.608,-23.216 -14.5101,-34.824 -2.9019,-14.51 -11.608,-34.824 -17.412,-46.432 -2.9019,-5.804 -11.608,-17.412 -20.3139,-23.216 -11.608,-11.608 -14.5101,-14.5101 -17.412,-14.5101 -2.9021,0 -5.804,0 -5.804,2.9021 -2.9021,2.9019 -2.9021,17.412 0,20.3139 0,0 5.804,5.8041 11.608,11.6081 11.608,8.706 17.412,14.51 20.3139,23.216 2.9021,5.804 11.608,40.628 11.608,43.53 0,2.902 0,5.804 2.9021,8.706 14.5099,26.118 20.3139,34.824 43.5299,60.9421 14.5101,14.5099 17.412,17.412 40.628,26.1179 20.3141,8.7061 40.628,11.608 92.864,17.412 8.7061,0 23.216,2.9021 31.9221,5.804 8.7059,2.9021 23.216,2.9021 40.628,5.804 75.452,5.804 84.158,5.804 92.864,2.9021 5.804,0 23.2161,-2.9021 40.6281,-2.9021 26.1179,0 34.824,0 52.236,-2.9019 11.608,-2.9021 31.922,-5.804 43.53,-5.804 11.6081,0 23.2161,-2.9021 26.118,-2.9021 8.7061,-2.9019 8.7061,-2.9019 8.7061,69.648 0,81.256 0,104.472 -5.804,118.9821 -2.9021,5.804 -5.804,14.5099 -5.804,17.412 0,2.9019 -2.9021,8.7059 -2.9021,11.608 0,2.9019 -2.9019,11.608 -5.804,20.3139 -2.9019,8.7061 -5.804,17.412 -8.706,23.216 -5.804,11.608 -17.412,46.4321 -17.412,49.3341 0,2.902 -2.902,5.804 -5.804,11.608 -2.902,2.902 -8.706,14.51 -11.608,23.216 -11.6081,26.118 -29.0201,55.138 -37.726,66.7461 -23.216,26.118 -43.5301,46.432 -58.0401,60.942 -11.608,8.706 -17.412,17.412 -17.412,23.216 0,5.804 5.804,11.608 11.608,11.608 8.706,0 29.0201,-14.51 58.0401,-43.53 14.5099,-14.51 31.9219,-37.7261 43.53,-58.0401 2.902,-8.706 8.706,-14.51 11.608,-17.412 5.804,-5.804 14.51,-26.118 17.412,-34.824 0,-2.902 5.804,-17.412 11.6081,-29.02 5.804,-11.608 8.7059,-20.314 8.7059,-23.216 0,-2.902 2.9021,-5.8041 5.804,-14.51 8.7061,-17.412 17.412,-46.432 20.3141,-63.844 5.804,-40.628 23.216,-107.3741 29.02,-121.884 2.9019,-2.9021 2.9019,-8.7061 2.9019,-14.5101 2.9021,-8.7059 5.804,-14.5099 8.7061,-14.5099 0,0 8.7059,5.804 14.5099,11.608 11.608,11.608 14.5101,17.412 31.9221,58.04 2.9019,8.7059 8.7059,20.3139 11.608,26.1179 2.9019,5.804 8.7059,14.5101 11.608,20.3141 2.9019,5.804 5.804,11.608 8.7059,14.5099 2.9021,5.804 5.804,26.1181 5.804,40.628 0,5.804 0,17.412 2.9021,31.9221 0,11.608 2.9019,34.824 2.9019,49.334 2.9021,31.922 2.9021,43.53 20.3141,75.452 2.9019,5.804 5.804,14.51 8.7059,17.4121 2.9021,2.9019 5.804,11.608 5.804,17.412 2.9021,5.804 5.804,17.412 8.7061,26.118 5.804,14.51 8.7059,20.314 11.608,49.334 0,8.706 2.9019,20.314 5.804,26.118 8.7059,34.824 11.608,78.3541 5.804,130.5901 -2.9021,26.1179 -2.9021,26.1179 0,40.628 0,5.804 0,11.608 0,14.5099 -2.9021,5.804 -14.5101,8.7061 -23.216,11.608 -5.804,0 -14.5101,2.9021 -20.3141,2.9021 -8.7059,0 -11.608,0 -17.412,0 -14.5099,-5.804 -31.9219,-14.5101 -43.5299,-20.3141 -5.804,-5.804 -20.3141,-11.608 -26.1181,-14.5099 -5.804,-2.9021 -17.412,-8.7061 -20.3139,-11.608 -8.7061,-5.804 -26.1181,-17.412 -37.7261,-20.3141 -2.9019,0 -11.608,-5.804 -17.412,-8.7059 -5.804,-2.9021 -14.5099,-5.804 -14.5099,-5.804 0,0 -5.804,-2.9021 -8.7061,-5.804 -11.608,-8.7061 -43.53,-26.1181 -55.1381,-29.02 -2.9019,0 -11.608,-2.9021 -17.412,-5.804 -26.1179,-11.608 -37.7259,-14.5101 -49.3339,-17.412 -5.804,0 -31.9221,-2.9021 -58.0401,-2.9021 -55.138,-2.9019 -58.04,-2.9019 -92.864,-17.412 -29.02,-14.5099 -34.824,-17.412 -55.1381,-31.922 -8.7059,-5.804 -17.412,-14.51 -20.3139,-14.51 -2.9021,0 -8.7061,-5.804 -11.608,-8.706 -2.9021,-2.902 -11.608,-8.706 -17.412,-11.608 -5.804,-2.902 -17.412,-11.608 -23.216,-17.412 -5.804,-5.804 -14.5101,-11.608 -17.412,-14.51 -2.9021,-2.902 -11.608,-8.706 -23.216,-14.51 -8.7061,-5.804 -20.3141,-14.51 -23.216,-17.412 -2.9021,-2.902 -14.5101,-11.608 -23.216,-17.412 -14.5101,-14.5101 -14.5101,-14.5101 -31.9221,-20.3141 -8.7059,-2.902 -20.3139,-8.706 -23.216,-8.706 -5.804,-2.902 -17.412,-8.706 -31.9219,-11.608 -8.7061,-2.902 -17.412,-2.902 -34.824,-2.902 -11.6081,0 -26.1181,-2.902 -29.0201,-2.902 -11.608,-2.902 -34.824,-14.51 -58.04,-26.118 -34.824,-17.412 -55.1381,-29.02 -63.844,-31.922 -5.804,-2.902 -11.608,-5.804 -11.608,-5.804 -2.9021,0 -14.5101,-5.804 -26.1181,-11.608 -23.216,-11.6081 -31.9219,-14.51 -52.236,-17.4121 -11.608,-2.9019 -26.1179,-5.804 -55.1379,-14.5099 -26.1181,-8.7061 -29.02,-8.7061 -40.628,-17.412 -5.804,-2.9021 -11.608,-5.804 -11.608,-5.804 0,0 -8.7061,-2.9021 -17.412,-5.804 -26.1181,-11.608 -37.7261,-20.3141 -55.1381,-37.7261 -8.7059,-8.7059 -20.3139,-17.412 -23.216,-20.3139 -11.608,-8.7061 -34.824,-29.02 -40.628,-40.628 -5.804,-5.804 -14.5101,-20.3141 -26.1181,-29.02 -14.5099,-17.412 -26.1179,-29.02 -31.9219,-40.628 0,-2.9021 -8.7061,-11.608 -14.5101,-20.3141 -14.5099,-17.412 -26.1179,-34.824 -29.02,-46.432 -5.804,-11.608 -11.608,-49.3339 -11.608,-78.354 0,-11.608 -2.9019,-23.216 -2.9019,-31.922 -2.9021,-11.608 -2.9021,-17.412 -2.9021,-75.452 0,-81.2561 0,-139.2961 -2.9019,-142.198 0,0 0,-8.7061 -2.9021,-14.5101 0,-8.7059 -2.9019,-20.3139 -2.9019,-26.1179 -2.9021,-14.5101 0,-87.06 2.9019,-107.3741 0,-5.804 2.9021,-20.3139 2.9021,-29.02 0,-14.5099 2.9019,-23.216 8.7059,-52.236 5.804,-20.314 8.7061,-37.726 11.608,-43.53 0,-5.804 5.804,-20.314 11.608,-34.8241 5.804,-14.5099 11.608,-29.02 14.5101,-34.824 2.9019,-8.7059 5.804,-14.5099 8.7059,-20.314 2.9021,-5.804 11.608,-20.314 17.412,-31.922 5.804,-11.608 11.608,-26.118 14.5101,-29.02 2.9019,-5.804 8.7059,-17.412 11.608,-29.02 14.5099,-31.922 29.02,-58.0401 37.7259,-72.55 5.804,-5.804 14.5101,-20.3141 20.3141,-34.824 14.5101,-26.1181 20.3141,-31.9221 34.824,-52.236 14.5101,-17.412 52.236,-49.3341 66.7461,-58.04 5.804,-2.9021 17.412,-11.608 26.1179,-17.412 8.7061,-5.804 17.412,-11.608 23.216,-14.5101 20.3141,-11.608 26.1181,-14.5099 31.9221,-20.3139 2.9019,-2.9021 8.7059,-8.7061 14.5099,-11.608 2.9021,-2.9021 8.7061,-5.804 8.7061,-8.7061 8.7059,-11.608 26.1179,-29.02003 37.7259,-34.82403 8.7061,-5.804 17.412,-11.608 34.824,-29.02001 11.608,-11.608 23.216,-23.216 23.216,-26.11793 0,-2.90207 2.9021,-5.804 5.804,-5.804 2.9021,-2.90207 2.9021,-2.90207 11.6081,0 17.412,5.804 20.314,8.70593 23.216,37.72594 2.902,14.51007 2.902,23.216 5.804,29.02 2.902,5.804 5.804,17.41203 11.608,29.02003 2.902,11.608 8.706,29.02 11.608,37.7261 5.804,20.3139 23.216,46.432 31.922,58.04 2.902,2.9019 11.608,14.5099 17.412,23.216 5.804,11.608 14.51,17.412 20.314,23.216 8.7061,8.7059 17.412,17.412 23.216,31.9219 2.9021,8.7061 14.5101,43.5301 17.412,55.1381 2.9021,14.5099 8.7061,29.02 14.5101,29.02 2.9019,0 2.9019,2.902 5.804,0 2.9019,-2.9021 2.9019,-5.804 0,-11.608 -5.804,-5.804 -5.804,-14.5101 -5.804,-34.824 0,-11.608 2.9019,-20.3141 2.9019,-23.216 2.9021,-2.9021 5.804,-5.804 20.3141,-5.804 11.608,0 17.412,-2.9021 20.3139,-5.804 2.9021,-2.9021 17.412,-8.7061 31.9221,-11.608 14.5099,-5.804 31.9219,-11.608 40.628,-14.5101 8.7059,-2.9019 17.412,-5.804 26.1179,-5.804 8.7061,0 14.5101,-2.9019 14.5101,-2.9019 8.7059,-5.804 14.5099,-29.02 11.608,-46.432 0,-5.804 -2.9021,-17.412 -2.9021,-29.02 0,-8.7061 -2.9019,-17.412 -2.9019,-20.3141 0,-2.9019 -2.9021,-14.5099 -2.9021,-29.02 v -26.1179 l 2.9021,-8.7061 c 2.9019,-5.80403 8.7059,-11.60803 17.412,-20.31396 8.7059,-8.70607 14.5099,-17.412 17.412,-20.31407 11.608,-14.50993 26.1179,-26.11794 46.432,-31.92194 8.7059,-2.90207 11.608,-2.90207 17.412,-8.70607 5.804,-8.70593 11.608,-8.70593 20.3139,-5.804 11.608,2.90207 26.1181,2.90207 40.6281,-5.804 17.412,-8.70593 23.216,-8.70593 55.138,-8.70593 31.922,0 43.53,-2.90208 58.0401,-8.70608 5.804,-2.90193 14.5099,-5.804 20.3139,-5.804 43.5301,-5.804 46.432,-8.70593 52.236,-20.31393 2.9021,-5.804 2.9021,-8.70608 2.9021,-26.11808 0,-29.02001 0,-29.02001 -5.804,-31.92193 -2.9021,-2.90208 -5.804,-2.90208 -5.804,-11.608 0,-5.80401 -2.9021,-14.51008 -2.9021,-20.31408 0,-8.70593 0,-14.50999 -2.9019,-20.31399 -2.9021,-2.902 -2.9021,-11.608 -2.9021,-14.51 0,-5.80401 -2.9019,-14.51001 -5.804,-20.31401 -2.9019,-8.706 -5.804,-20.314 -5.804,-26.118 0,-8.70601 -2.9019,-20.31401 -5.804,-26.11801 -2.9019,-5.804 -2.9019,-14.51 -2.9019,-20.314 0,-8.70601 0,-8.70601 2.9019,-14.51001 2.9021,-2.902 5.804,-5.804 8.7061,-5.804 2.9019,0 11.608,-2.902 20.3139,-5.804 14.5101,-2.902 14.5101,-2.902 55.1381,-2.902 26.1181,11.608 49.3341,14.51 55.1381,14.51 z m 879.3061,1166.60429 c 5.804,5.804 8.706,20.3141 8.706,37.7261 0,14.5099 0,17.412 -5.804,34.824 -5.804,20.314 -11.608,34.824 -20.314,49.334 -2.902,5.804 -8.706,14.51 -11.608,20.314 -2.902,5.804 -11.608,17.412 -14.51,23.216 -8.706,14.51 -46.432,49.334 -52.236,52.2361 -26.1181,5.804 -37.7261,5.804 -46.432,0 -2.9021,-2.9021 -5.804,-2.9021 -5.804,-8.7061 0,-8.706 2.9019,-11.608 8.7059,-17.412 5.804,-2.902 11.608,-17.412 14.5101,-31.922 0,-5.804 2.9019,-23.216 2.9019,-40.628 0,-20.314 2.9021,-37.7261 2.9021,-43.5301 2.9019,-8.7059 2.9019,-11.608 8.7059,-17.412 2.9021,-2.9019 11.608,-8.7059 17.412,-14.5099 5.804,-2.9021 14.5101,-11.608 20.3141,-17.412 11.608,-11.608 23.216,-17.412 43.53,-26.1181 17.412,-5.804 23.216,-5.804 29.02,0 z"
   id="path16"
   style="stroke-width:29.02" /><path
   d="m 1037.4501,767.5413 c -5.804,2.90193 -17.412,14.50993 -17.412,23.216 0,2.90193 2.9021,11.60801 8.7061,20.31393 0,2.90208 5.804,8.70608 8.7059,17.41201 2.9021,8.70607 8.7061,17.412 11.608,20.31408 2.9021,2.90192 5.804,8.70592 5.804,11.608 8.7061,17.412 17.412,29.02 20.3141,29.02 0,0 5.804,-5.804 11.608,-11.608 8.7059,-8.70607 11.608,-11.608 11.608,-17.412 0,-11.608 -8.7061,-20.31408 -17.412,-20.31408 -5.804,0 -14.5101,-2.90193 -20.3141,-5.804 -2.9019,-2.90193 -8.7059,-11.608 -11.608,-20.31393 l -8.7059,-17.412 5.804,-8.70608 c 2.9019,-5.804 5.804,-11.608 5.804,-14.50993 2.9019,-2.90207 2.9019,-2.90207 0,-5.804 -2.9021,-2.90207 -8.7061,-2.90207 -14.5101,0 z"
   id="path18"
   style="stroke-width:29.02" /><path
   d="m 956.1941,796.56131 c -5.804,8.70592 -8.7059,14.50992 -5.804,26.11793 2.9021,11.608 8.7061,23.216 20.3141,37.72608 5.804,5.804 11.608,14.50993 14.5099,17.412 5.804,5.804 8.7061,8.70593 14.5101,2.90193 2.9019,-2.90193 2.9019,-2.90193 2.9019,-5.804 0,-2.90193 -2.9019,-5.804 -5.804,-8.70593 -2.9019,-2.90207 -8.7059,-11.608 -14.5099,-17.412 -11.608,-11.60801 -14.5101,-17.41201 -17.412,-29.02001 0,-5.804 0,-5.804 2.9019,-11.608 5.804,-8.70608 8.7061,-11.608 5.804,-14.51008 -8.7059,-2.90193 -11.608,-2.90193 -17.412,2.90208 z"
   id="path20"
   style="stroke-width:29.02" /><path
   d="m 1873.2264,732.71723 c -2.9021,0 -5.804,2.902 -5.804,2.902 0,2.902 5.804,8.70601 14.5099,17.41201 14.5101,17.41199 23.2161,23.21599 40.6281,34.82399 14.51,8.70608 17.412,14.51008 26.118,31.92208 2.902,8.70593 8.706,17.412 11.608,20.31393 5.804,8.70608 37.726,37.72608 46.432,43.53008 11.6081,5.804 26.118,29.02001 29.0201,40.62801 2.9019,8.70593 0,5.804 37.7259,43.52994 26.1181,23.216 29.02,26.11808 34.824,26.11808 11.608,0 8.7061,-20.31408 -5.804,-40.62801 -2.9019,-2.90208 -11.608,-11.608 -20.3139,-20.31408 -23.216,-17.412 -26.1181,-23.216 -34.824,-34.82401 -8.7061,-14.50993 -31.9221,-34.824 -43.5301,-40.62801 -8.706,-5.804 -20.314,-14.50992 -31.922,-29.02 -5.804,-5.804 -8.706,-11.608 -11.608,-23.21601 l -5.804,-14.50993 -26.118,-23.216 c -14.51,-14.51006 -29.02,-26.11806 -31.922,-31.92207 -2.902,-5.804 -8.706,-8.706 -11.608,-11.608 -2.9021,5.804 -2.9021,5.804 -11.608,8.706 z"
   id="path22"
   style="stroke-width:29.02" /><path
   d="m 1609.1443,959.07334 c -5.804,2.90193 -23.216,8.70593 -29.02,14.50993 -2.9019,2.90207 -8.7059,5.804 -14.5099,5.804 -11.608,2.90207 -14.5101,5.804 -11.608,14.51008 2.9019,8.70595 5.804,8.70595 29.02,-2.90208 34.824,-17.412 43.5299,-20.31393 55.1379,-20.31393 5.804,0 14.5101,0 17.412,2.90193 8.7061,2.90207 11.608,2.90207 14.5101,-2.90193 2.9019,-5.804 -2.9021,-8.70607 -11.608,-11.608 -2.9021,-2.90208 -40.628,-2.90208 -49.3341,0 z"
   id="path24"
   style="stroke-width:29.02" /><path
   d="m 1867.4224,1049.0353 c -2.9021,2.9021 -5.804,2.9021 -5.804,5.804 -2.9021,5.804 2.9019,8.7061 17.412,11.608 5.804,0 14.51,2.9021 20.314,2.9021 5.804,0 8.706,2.9019 11.608,2.9019 2.902,0 8.706,2.9021 14.51,2.9021 8.706,2.9019 11.608,5.804 31.922,26.1179 11.608,11.608 26.118,23.216 26.118,26.1181 2.902,2.9019 11.608,11.608 11.608,11.608 0,0 2.902,2.9019 2.902,8.7059 8.706,14.5101 14.5101,23.216 17.412,34.824 2.9021,5.804 5.804,17.412 8.7061,23.216 2.9019,5.804 8.7059,17.412 11.608,26.1181 2.9019,8.7059 5.804,17.412 8.7059,17.412 2.9021,2.9019 8.7061,2.9019 14.5101,0 2.9019,-2.9021 5.804,-8.7061 2.9019,-14.5101 0,-2.9019 -2.9019,-5.804 -2.9019,-11.608 0,-2.9019 -2.9021,-8.7059 -5.804,-11.608 -5.804,-8.7059 -14.5101,-26.1179 -17.412,-31.9219 0,-2.9021 -2.9021,-8.7061 -2.9021,-11.608 0,-8.7061 -8.7059,-29.02 -20.3139,-40.628 -5.8041,-5.804 -11.6081,-14.5101 -17.4121,-17.412 -11.608,-14.5101 -20.314,-23.216 -31.922,-26.1181 -2.902,-2.9019 -8.706,-5.804 -8.706,-8.7059 -11.608,-14.5101 -23.216,-20.3141 -52.236,-26.1181 -17.412,-2.9019 -26.1181,-2.9019 -34.824,0 z"
   id="path26"
   style="stroke-width:29.02" /><path
   d="m 2169.2305,1063.5454 c -5.804,5.804 0,14.5099 11.608,20.3139 8.7059,5.804 14.5099,11.608 20.3139,26.1181 2.9021,5.804 5.804,14.5099 8.7061,17.412 2.9019,2.9019 5.804,11.608 8.7059,17.412 2.9021,5.804 5.804,14.5099 8.7061,17.412 2.9019,5.804 5.804,8.7059 5.804,14.5099 0,2.9021 0,8.7061 2.9019,11.608 0,2.9021 2.9021,11.608 2.9021,20.3141 2.9019,20.3139 2.9019,26.1179 8.7059,26.1179 2.9021,2.9021 5.804,2.9021 8.7061,0 2.9019,0 5.804,-2.9019 5.804,-5.804 2.9019,-8.7059 -2.9021,-55.1379 -8.7061,-66.7459 -2.9019,-5.804 -5.804,-14.5101 -8.7059,-20.3141 -2.9021,-5.804 -5.804,-14.5099 -8.7061,-17.412 0,-2.9019 -2.9019,-8.7059 -8.7059,-11.608 -2.9021,-5.804 -8.7061,-11.608 -8.7061,-14.5099 -2.9019,-8.7061 -8.7059,-17.412 -14.5099,-23.216 -2.9021,-2.9021 -8.7061,-5.804 -11.608,-8.7061 -11.608,-5.804 -20.3141,-5.804 -23.216,-2.9019 z"
   id="path28"
   style="stroke-width:29.02" /><path
   d="m 1406.0043,1104.1734 c -8.7061,5.804 -17.4121,17.412 -20.3141,26.1179 -2.902,8.7061 -11.608,14.5101 -20.314,17.412 -8.706,2.9021 -11.608,5.804 -11.608,11.608 0,5.804 0,5.804 5.804,5.804 2.902,0 8.706,0 14.51,-2.9019 5.804,-2.9021 11.608,-5.804 23.216,-20.3141 17.412,-17.412 26.1181,-29.02 26.1181,-34.824 0,-2.9019 -5.804,-11.608 -8.7061,-11.608 -2.9019,2.9021 -5.804,5.804 -8.7059,8.7061 z"
   id="path30"
   style="stroke-width:29.02" /><path
   d="m 1588.8304,1130.2913 c -20.3141,23.216 -37.7261,46.432 -34.824,52.236 0,2.9021 8.7059,5.804 14.5099,2.9021 2.9021,0 5.804,-5.804 8.7061,-14.5101 2.9019,-5.804 8.7059,-17.412 11.608,-20.3139 14.5099,-20.3141 17.412,-23.216 17.412,-26.1181 0,-2.9019 0,-2.9019 -5.804,-2.9019 -2.9021,0 -5.804,0 -11.608,8.7059 z"
   id="path32"
   style="stroke-width:29.02" /><path
   d="m 1754.2443,1252.1753 c -5.804,0 -17.412,2.9021 -26.1179,2.9021 -5.804,0 -20.3141,2.9019 -31.9221,2.9019 -26.1179,2.9021 -31.9219,2.9021 -43.5299,11.608 -5.804,2.9021 -14.5101,5.804 -17.412,8.7061 -5.804,2.902 -11.608,5.804 -11.608,8.706 0,5.804 5.804,8.706 17.412,17.412 8.7059,5.804 17.412,11.608 26.1179,20.314 14.5101,14.51 14.5101,14.51 20.3141,31.922 5.804,14.51 5.804,17.412 23.216,31.922 8.7059,8.706 14.5099,11.608 23.216,17.4121 l 11.608,5.804 h 26.1179 c 20.3141,0 26.1181,0 34.824,-2.9021 5.804,-2.9019 17.412,-2.9019 26.1181,-2.9019 8.7059,0 17.412,-2.9021 23.216,-2.9021 2.9019,-2.902 8.7059,-2.902 11.608,-2.902 2.9019,0 11.608,-2.902 17.412,-5.804 l 11.608,-5.804 h 17.412 17.412 l 17.412,11.608 c 11.608,5.8041 23.216,17.4121 31.922,23.2161 14.51,11.608 23.216,17.412 26.118,14.5099 2.902,0 5.8041,-5.804 8.706,-8.7059 8.7061,-11.608 8.7061,-20.3141 -11.608,-43.5301 -20.314,-23.216 -26.118,-29.02 -66.746,-43.53 -26.118,-8.706 -34.824,-14.51 -46.432,-29.02 -14.5101,-17.412 -17.412,-20.314 -17.412,-23.216 0,-5.804 -8.7061,-17.412 -14.5101,-23.216 -5.804,-2.9021 -20.3139,-8.7061 -34.824,-14.5101 -11.608,-2.9019 -17.412,-2.9019 -37.7259,-2.9019 -8.7061,2.9019 -23.216,2.9019 -31.9221,2.9019 z m 55.1381,26.1181 c 23.216,2.902 29.02,5.804 31.9219,8.706 2.9021,2.902 2.9021,5.804 -2.9019,14.51 -2.9021,5.804 -5.804,17.412 -5.804,26.118 -2.9021,20.314 -5.804,29.02 -11.608,37.726 -8.7061,11.608 -17.412,20.314 -26.1181,23.216 -11.608,5.804 -14.5099,5.804 -31.9219,0 -14.5101,-5.804 -14.5101,-5.804 -34.824,-23.216 -20.3141,-17.412 -23.216,-23.216 -26.1181,-43.53 0,-11.608 0,-14.51 2.9021,-20.314 2.9019,-2.902 5.804,-8.706 5.804,-8.706 5.804,-5.804 23.216,-14.51 31.9219,-14.51 17.412,-2.9021 43.5301,-2.9021 66.7461,0 z"
   id="path34"
   style="stroke-width:29.02" /><path
   d="m 1765.8523,1295.7054 c -8.7059,5.804 -14.5099,20.314 -8.7059,31.922 2.9019,8.706 8.7059,11.608 23.216,14.51 11.608,2.902 14.5099,0 20.3139,-2.902 5.804,-5.804 5.804,-11.608 8.7061,-23.216 0,-8.706 0,-11.608 -2.9021,-14.51 -5.804,-5.804 -14.5099,-8.706 -26.1179,-8.706 -8.7061,0 -14.5101,0 -14.5101,2.902 z"
   id="path36"
   style="stroke-width:29.02" /><path
   d="m 1136.1181,1374.0594 c -2.9019,2.902 -2.9019,2.902 -5.804,11.608 0,11.608 -2.9019,23.216 -8.7059,31.9221 -2.9021,2.9019 -2.9021,8.7059 -5.804,14.5099 -2.9021,5.804 -5.804,11.608 -8.7061,17.412 -2.9019,2.9021 -8.7059,11.608 -11.608,14.5101 -2.9019,5.804 -8.7059,11.608 -11.608,14.51 -8.7059,8.706 -14.5099,23.216 -14.5099,29.02 2.9019,5.804 8.7059,5.804 17.412,2.902 5.804,-2.902 14.5099,-17.412 17.412,-26.118 2.9019,-5.804 8.7059,-14.51 17.412,-26.118 5.804,-5.804 11.608,-14.5101 11.608,-17.412 2.9019,-5.804 5.804,-11.608 11.608,-17.412 8.7059,-8.7061 8.7059,-14.5101 5.804,-23.2161 0,-2.902 -2.9021,-11.608 -2.9021,-14.51 2.9021,-8.706 -2.9019,-14.51 -11.608,-11.608 z"
   id="path38"
   style="stroke-width:29.02" /><path
   d="m 802.3881,1385.6674 c -2.902,0 -8.706,11.608 -8.706,26.1181 0,5.804 -2.902,17.412 -2.902,23.216 -2.902,5.804 -2.902,17.412 -2.902,23.216 0,14.5099 -8.706,43.53 -11.6081,55.138 -2.9019,5.804 -2.9019,11.608 -2.9019,29.0201 0,11.608 -2.9021,29.02 -2.9021,34.824 0,8.7059 0,17.412 2.9021,29.02 8.706,43.5299 8.706,66.7459 2.9019,87.06 -2.9019,8.7059 -2.9019,14.5099 -2.9019,43.5299 0,20.3141 0,37.7261 0,40.628 0,8.7061 5.804,11.608 8.706,11.608 8.706,-2.9019 11.608,-17.412 14.51,-69.648 2.902,-37.7259 2.902,-116.08 0,-191.532 0,-20.314 0,-26.118 2.902,-34.824 2.902,-14.51 5.804,-26.1181 5.804,-46.432 2.902,-20.3141 5.804,-34.824 11.608,-46.4321 2.902,-5.804 2.902,-11.608 2.902,-11.608 -5.804,0 -14.51,-2.902 -17.412,-2.902 z"
   id="path40"
   style="stroke-width:29.02" /><path
   d="m 1429.2203,1507.5515 c 0,0 -2.9021,2.902 -5.804,5.804 -2.9021,2.902 -5.804,8.706 -8.7061,11.608 -5.804,8.706 -8.7059,14.51 -8.7059,26.118 0,5.804 0,8.7061 -2.9021,11.608 0,2.9021 -2.9019,5.804 -2.9019,8.7061 0,5.804 5.804,5.804 11.608,0 5.804,-5.804 8.7059,-11.608 8.7059,-20.3141 0,-11.608 5.804,-20.3139 11.608,-23.216 8.7061,-5.804 8.7061,-14.51 2.9021,-20.314 0,0 -2.9021,-2.902 -5.804,0 z"
   id="path42"
   style="stroke-width:29.02" /><path
   d="m 1524.9864,1536.5716 c -2.9021,2.9019 -2.9021,5.804 5.804,20.3139 17.412,23.216 43.5299,43.5301 72.5499,60.9421 5.804,2.9019 11.608,5.804 17.412,8.7059 2.9021,2.9021 8.7061,5.804 11.608,5.804 2.9021,2.9021 8.7061,5.804 11.608,8.7061 2.9021,2.9019 8.7061,5.804 8.7061,5.804 2.9019,2.9019 5.804,5.804 5.804,8.7059 2.9019,8.7061 5.804,11.608 11.608,11.608 2.9019,0 8.7059,2.9021 11.608,5.804 8.7059,2.9021 11.608,2.9021 11.608,-2.9019 0,-5.804 -5.804,-14.5101 -34.824,-40.628 -29.02,-29.02 -29.02,-29.02 -49.3341,-40.628 -37.7259,-23.216 -49.3339,-29.02 -55.1379,-43.5301 -8.7061,-14.5099 -8.7061,-14.5099 -20.3141,-14.5099 -2.9019,2.9019 -5.804,2.9019 -8.7059,5.804 z"
   id="path44"
   style="stroke-width:29.02" /><path
   d="m 883.6441,1614.9255 c -2.902,2.9021 -2.902,5.804 -5.804,14.5101 -2.902,20.3139 -2.902,34.824 -5.804,40.628 -8.706,26.1179 -11.608,84.1579 -5.804,116.08 2.902,11.608 14.51,34.824 23.216,43.5299 5.804,5.804 8.706,8.7061 8.706,14.5101 0,2.9019 2.902,5.804 2.902,8.7059 0,0 2.902,5.804 2.902,11.608 2.902,14.5101 5.804,17.412 11.608,11.608 2.9021,-2.9019 2.9021,-2.9019 2.9021,-20.3139 0,-17.412 -2.9021,-26.1181 -11.6081,-34.824 -5.804,-5.804 -8.706,-11.608 -20.314,-37.7261 -8.706,-20.3139 -11.608,-52.236 -2.902,-72.5499 5.804,-17.412 8.706,-34.824 8.706,-60.9421 2.902,-34.824 0,-43.5299 -8.706,-34.824 z"
   id="path46"
   style="stroke-width:29.02" /><path
   d="m 2140.2105,1707.7895 c -2.9021,2.9021 -5.804,8.7061 0,8.7061 0,0 5.804,2.9019 8.7059,2.9019 8.7061,2.9021 17.412,5.804 26.1181,11.608 2.9019,2.9021 5.804,5.804 8.7059,8.7061 2.9021,0 5.804,5.804 8.7061,5.804 5.804,8.7059 17.412,17.412 20.3139,17.412 0,0 2.9021,0 5.804,-2.9021 2.9021,-2.9019 2.9021,-2.9019 2.9021,-8.7059 0,-8.7061 -5.804,-14.5101 -11.608,-17.412 -2.9021,0 -8.7061,-2.9021 -11.608,-5.804 -5.804,-2.9021 -11.608,-5.804 -14.5101,-8.7061 -14.5099,-8.7059 -34.824,-17.412 -43.5299,-11.608 z"
   id="path48"
   style="stroke-width:29.02" /><path
   d="m 1159.3341,1728.1036 c -2.9019,5.804 0,8.7059 17.412,14.5099 l 14.5101,8.7061 2.9019,-2.9021 c 2.9021,-2.9019 2.9021,-8.7059 0,-11.608 -2.9019,-2.9019 -23.216,-8.7059 -29.02,-11.608 -2.9019,0 -2.9019,0 -5.804,2.9021 z"
   id="path50"
   style="stroke-width:29.02" /><path
   d="m 1385.6902,1774.5356 c -2.902,2.9019 2.902,11.608 5.804,14.5099 5.804,2.9021 116.0801,2.9021 118.9821,0 0,0 0,-2.9019 0,-5.804 0,-2.9019 -2.902,-5.804 -5.804,-5.804 -5.804,-2.9019 -8.706,-2.9019 -60.9421,-2.9019 -46.432,0 -55.138,0 -58.04,0 z"
   id="path52"
   style="stroke-width:29.02" /><path
   d="m 526.698,1864.4975 c -8.7059,2.9021 -8.7059,8.7061 0,14.5101 2.9021,2.9019 11.608,8.7059 17.412,11.608 11.608,8.706 23.216,17.412 34.824,34.824 11.608,14.51 23.216,29.02 46.432,49.334 8.7061,8.706 20.3141,17.412 26.1181,26.118 17.412,23.2161 34.824,34.8241 63.844,52.2361 17.412,8.7059 40.628,29.02 52.236,37.7259 2.9019,2.9021 14.51,8.7061 20.314,14.5101 l 11.608,5.804 h 20.314 c 26.118,0 34.824,2.9019 63.844,11.608 14.51,2.9019 29.0201,5.804 40.6281,5.804 26.1179,2.9019 40.628,2.9019 58.04,5.804 23.216,5.804 31.9219,2.9019 34.824,-5.804 0,-2.9021 0,-5.804 0,-8.7061 -2.9021,-5.804 -5.804,-5.804 -20.3141,-8.7059 -5.804,0 -14.5099,-2.9021 -14.5099,-2.9021 -5.804,-2.9019 -49.3341,-8.7059 -72.5501,-11.608 -29.02,-2.9019 -46.432,-5.804 -60.942,-11.608 -11.608,-5.804 -34.824,-11.608 -49.334,-14.5099 -17.412,-2.9021 -37.726,-11.608 -49.334,-20.3141 -2.9021,-2.9019 -11.608,-8.7059 -17.412,-14.5099 -5.804,-2.9021 -14.5101,-11.608 -20.3141,-20.3141 -5.804,-5.804 -14.5099,-14.51 -20.3139,-20.314 -11.608,-8.706 -31.9221,-29.02 -37.7261,-37.726 -2.9019,-5.804 -26.1179,-26.118 -26.1179,-26.118 0,0 -2.9021,-2.902 -5.804,-8.706 -2.9021,-5.804 -11.608,-14.51 -20.3141,-23.216 -8.7059,-8.706 -14.5099,-17.4121 -20.3139,-20.314 -5.804,-8.7061 -20.3141,-17.412 -26.1181,-23.216 -5.804,8.7059 -23.216,5.804 -29.02,8.7059 z"
   id="path54"
   style="stroke-width:29.02" /><path
   d="m 1104.1962,2299.7976 c -2.9021,2.9021 -2.9021,8.7061 -2.9021,43.5301 v 40.628 l 5.804,11.608 c 8.7061,17.412 17.412,37.726 20.3141,46.432 2.9019,2.902 5.804,11.608 5.804,17.412 2.9019,5.804 5.804,11.608 5.804,17.412 2.9019,5.804 5.804,11.608 8.7059,8.706 2.9021,0 5.804,-5.804 2.9021,-14.51 0,-2.902 -2.9021,-11.608 -2.9021,-17.412 -2.9019,-17.412 -8.7059,-46.432 -14.5099,-58.04 -5.804,-8.706 -5.804,-11.608 -5.804,-26.1181 0,-8.7059 -2.9021,-17.412 -2.9021,-23.216 0,-2.9019 -2.9019,-11.608 -2.9019,-20.3139 -2.9021,-23.216 -11.608,-37.7261 -17.412,-26.1181 z"
   id="path56"
   style="stroke-width:29.02" />







</svg>
