<?xml version="1.0" encoding="UTF-8" standalone="no"?>
<svg
   width="24"
   height="24"
   fill-rule="evenodd"
   clip-rule="evenodd"
   version="1.1"
   id="svg826"
   sodipodi:docname="cv-white.svg"
   inkscape:version="1.1.2 (b8e25be833, 2022-02-05)"
   xmlns:inkscape="http://www.inkscape.org/namespaces/inkscape"
   xmlns:sodipodi="http://sodipodi.sourceforge.net/DTD/sodipodi-0.dtd"
   xmlns="http://www.w3.org/2000/svg"
   xmlns:svg="http://www.w3.org/2000/svg">
  <defs
     id="defs830" />
  <sodipodi:namedview
     id="namedview828"
     pagecolor="#ffffff"
     bordercolor="#666666"
     borderopacity="1.0"
     inkscape:pageshadow="2"
     inkscape:pageopacity="0.0"
     inkscape:pagecheckerboard="0"
     showgrid="false"
     inkscape:zoom="48.583333"
     inkscape:cx="11.989708"
     inkscape:cy="12"
     inkscape:window-width="3440"
     inkscape:window-height="1417"
     inkscape:window-x="-8"
     inkscape:window-y="-8"
     inkscape:window-maximized="1"
     inkscape:current-layer="svg826" />
  <path
     d="M 4.2041166,22.394511 H 20.662093 V 2.4716981 h -0.86621 V 21.528302 H 4.2041166 Z M 18.929674,1.6054889 H 3.3379074 V 20.662093 H 18.929674 Z M 18.063465,2.4716981 H 4.2041166 V 19.795883 H 18.063465 Z M 16.331046,16.331046 H 5.9365352 v 0.86621 H 16.331046 Z m 0,-2.598627 H 5.9365352 v 0.866209 H 16.331046 Z m 0,-2.598628 H 5.9365352 V 12 H 16.331046 Z M 9.9661407,7.7876244 10.787307,8.0474871 c -0.1256,0.4582247 -0.335223,0.798645 -0.628002,1.0203945 -0.2927784,0.2226158 -0.6643822,0.3334906 -1.114811,0.3334906 -0.5569726,0 -1.014331,-0.190566 -1.3729417,-0.5708319 C 7.3129417,8.4502744 7.1336364,7.9296827 7.1336364,7.2696312 c 0,-0.6981646 0.1801715,-1.2404116 0.5405145,-1.626741 0.3603431,-0.3863293 0.8341596,-0.579494 1.4223157,-0.579494 0.5127958,0 0.9294424,0.1515867 1.2499404,0.4547599 0.191432,0.1793053 0.334356,0.4374357 0.429639,0.7726587 L 9.9375557,6.4909091 C 9.8881818,6.2734906 9.7842367,6.1019811 9.6274528,5.9763808 9.4698027,5.8499142 9.2783705,5.7875472 9.0531561,5.7875472 c -0.3109691,0 -0.563036,0.111741 -0.7570669,0.3343568 -0.1931647,0.2234819 -0.2901801,0.5846912 -0.2901801,1.0844939 0,0.5309863 0.095283,0.9086536 0.2867153,1.1330018 0.190566,0.2252144 0.4383018,0.3378216 0.7432075,0.3378216 0.2252144,0 0.4192453,-0.071029 0.5812264,-0.2148199 0.1619812,-0.1429246 0.2789194,-0.368139 0.3490824,-0.674777 z M 12.584691,9.3294768 11.085283,5.1352916 h 0.918182 l 1.061972,3.104494 1.027325,-3.104494 h 0.898259 l -1.502007,4.1941852 z"
     id="path824"
     style="fill:#c8ccc7;fill-opacity:1;stroke-width:0.866209" />
</svg>
