<?xml version="1.0" encoding="UTF-8" standalone="yes"?><svg xmlns="http://www.w3.org/2000/svg" xmlns:xlink="http://www.w3.org/1999/xlink" width="297.000mm" height="210.000mm" viewBox="0.000000 0.000000 297.000000 210.000000" stroke-linejoin="round" stroke-linecap="round" fill="none" fill-rule="evenodd" style="background-color:white;"><desc>Composer Export</desc><script type="text/ecmascript"><![CDATA[
if(typeof(top) != "undefined")
{
	top.ShowPaper = ShowPaper;
}
function ShowHotSpot(evt,hotspotid)
{
	var svgDocument = evt.target.ownerDocument;
	var strId = "hotspot."+hotspotid;
	var hotspot = svgDocument.getElementById(strId);
	if(hotspot)
		hotspot.setAttribute("opacity",".5");
}
function HideHotSpot(evt,hotspotid)
{
	var svgDocument = evt.target.ownerDocument;
	var strId = "hotspot."+hotspotid;
	var hotspot = svgDocument.getElementById(strId);
	if(hotspot)
		hotspot.setAttribute("opacity","0");

	var toolTip = svgDocument.getElementById('ToolTip');
	if(toolTip)
		toolTip.setAttribute("visibility","hidden");
}
function ShowToolTip(evt,hotspotid,strTooltip)
{
	if(strTooltip=="")
	return;

	// change text
	var svgDocument = evt.target.ownerDocument;
	var tiptext = svgDocument.getElementById('ToolTipText');
	if( !tiptext )
	return;
	tiptext.firstChild.nodeValue = " " + strTooltip + "  " ;

	// show tooltip before, else some refresh issue

	var toolTip = svgDocument.getElementById('ToolTip');
	if(!toolTip)
	return;

	toolTip.setAttribute("visibility","visible");
	toolTip.setAttribute("opacity",".95");

	// move tooltip
	// get viewbox

	var root = svgDocument.documentElement;
	var vbox = (root.getAttribute("viewBox")).split(' ');
	var x0 = parseFloat(vbox[0]);
	var y0 = parseFloat(vbox[1]);
	var vboxW = parseFloat(vbox[2]);
	var vboxH = parseFloat(vbox[3]);

	// get default width of svg

	var strW = root.getAttribute("width");
	var svgW = parseFloat(strW);
	if(strW.indexOf('mm') != -1)
	svgW *= 3.779;

	var strH = root.getAttribute("height");
	var svgH = parseFloat(strH);
	if(strH.indexOf('mm') != -1)
	svgH *= 3.779;  	// 96 dpi  -> 96/25.4 = 3.779

	// update the viewbox / width / height if svg is embedded in html with zoom fit all
	var realx0 = x0;
	var realy0 = y0;
	var realvboxW = vboxW;
	var realvboxH = vboxH;
	var realsvgW = svgW;
	var realsvgH = svgH;

	if ((typeof(top) == "undefined") || (typeof(top.svgctl1) != "undefined")) // embedded in html
	{
		// get window size in pxl

		svgW = window.innerWidth;
		svgH = window.innerHeight;

		// calculate real viewbox

		realsvgW = svgW;
		realsvgH = svgH;
		if((svgW / svgH) > (vboxW / vboxH))
		{
			realvboxW = (vboxH * svgW) / svgH;
			realvboxH = vboxH;
			realx0 = x0 - (realvboxW - vboxW)/2 ;
		}
		else
		{
			realvboxH = (vboxW * svgH) / svgW;
			realvboxW = vboxW;
			realy0 = y0 - (realvboxH - vboxH)/2 ;
		}
	}

	// get user zoom/pan

	var newScale = root.currentScale;
	var translation = root.currentTranslate;

	// transform pxl to user unit

	var xPos = (((evt.clientX+10- translation.x)/newScale) * realvboxW)/realsvgW  + realx0 ;
	var yPos = (((evt.clientY+5- translation.y)/newScale) * realvboxH)/ realsvgH  + realy0 ;
	var scaleForWidth = ( (1 / newScale) * realvboxH) / realsvgH;

	// move tooltip

	toolTip.setAttribute("transform", "translate(" + xPos + "," + yPos + ")" );

	// resize tooltip

	var fontsize = 12;
	tiptext.setAttribute("font-size",fontsize*scaleForWidth);
	tiptext.setAttribute("y", fontsize*scaleForWidth);
	var tipBG = svgDocument.getElementById('ToolTipBG');
	var outline = tiptext.getBBox();
	if(tipBG)
	{
		tipBG.setAttribute("stroke-width", 1*scaleForWidth);
		tipBG.setAttribute("width", Number(outline.width) );
		tipBG.setAttribute("height", Number(outline.height) + fontsize*.5*scaleForWidth );
	}
	var ToolTipShadow = svgDocument.getElementById('ToolTipShadow');
	if(ToolTipShadow)
	{
		ToolTipShadow.setAttribute("width", Number(outline.width) );
		ToolTipShadow.setAttribute("height", Number(outline.height) + fontsize*.5*scaleForWidth );
		ToolTipShadow.setAttribute("x", 3*scaleForWidth);
		ToolTipShadow.setAttribute("y", 3*scaleForWidth);
	}
}
function ShowPaper()
{
  var svgDocument = getDocument();
  var paper = svgDocument.getElementById("paperID");
  if(paper)
  {
    paper.setAttribute("transform","scale(1)");
    paper.setAttribute("opacity","1");
    paper.setAttribute("visibility","visible");
  }
  var svg = svgDocument.getRootElement();
  if(svg)
  {
    svg.setAttribute("width","307.000mm");
    svg.setAttribute("height","220.000mm");
    svg.setAttribute("viewBox","-5.000000 -5.000000 307.000000 220.000000");
  }
}
]]></script><defs/><g><path style="fill:#FFFFFF;fill-opacity:0.098;fill-rule:evenodd" d="M185.07,44.11L186.02,43.71L194.67,42.20L195.74,41.68L196.07,61.15L196.40,69.94L196.74,74.68L197.42,80.77L198.26,85.69L199.11,88.90L199.95,91.44L201.31,94.65L202.01,95.81L203.86,98.36L205.06,99.20L206.05,100.06L206.41,100.97L205.99,101.58L204.82,102.28L202.50,102.27L200.74,102.07L200.45,102.48L200.48,104.86L200.06,105.30L199.11,105.87L196.36,107.01L194.70,107.01L194.05,106.65L192.70,105.63L191.86,104.61L190.15,101.76L188.78,98.38L187.77,94.48L187.10,90.25L186.59,85.01L186.25,77.90L186.19,49.29L187.90,48.97L188.90,48.45L188.98,47.76L185.07,44.90zM166.90,46.92L174.86,45.58L175.60,45.57L175.59,48.34L174.91,63.91L174.58,67.97L173.89,69.99L172.82,72.49L172.55,72.50L169.84,71.12L167.97,70.79L167.80,70.29L167.30,67.41L167.13,62.50L166.96,53.53zM116.36,55.79L116.98,55.39L126.14,53.71L127.01,53.21L127.21,53.02L127.36,68.76L127.53,75.70L127.70,80.10L128.21,87.54L128.89,93.13L129.56,96.85L130.40,100.24L131.59,103.79L132.78,106.33L134.13,108.53L135.48,110.06L136.86,111.04L137.70,112.07L137.70,112.65L137.45,113.09L136.29,113.78L132.95,113.77L132.03,113.62L131.75,114.50L131.77,116.54L131.26,117.04L127.99,118.52L125.83,118.52L123.83,116.97L122.96,115.81L121.60,113.61L120.08,109.72L119.07,105.65L118.40,101.42L117.89,95.67L117.72,91.94L117.55,85.51L117.55,68.64L117.66,60.80L118.86,60.65L120.19,60.12L120.42,59.60L120.09,59.11L116.37,56.40zM98.20,58.43L107.05,57.06L106.72,66.28L106.05,79.14L105.02,82.18L104.17,84.05L103.85,84.01L100.98,82.63L99.21,82.36L98.60,78.40zM229.91,129.51L227.32,129.51L110.73,149.14L106.50,149.99L105.31,150.49L103.45,151.68L99.97,155.47L98.54,156.42L96.91,157.15L85.06,159.18L82.63,159.35L82.63,141.18L86.58,140.73L250.90,112.99L253.04,112.25L253.96,111.65L254.29,111.23L254.29,129.40L253.87,130.01L252.53,130.70L248.86,131.59L238.66,133.23L237.02,133.23L235.99,133.07L234.32,132.20L231.09,129.85zM48.85,133.41L44.79,134.13L43.38,134.27L45.13,131.77L46.32,131.70z"/><g id="Actor_.0"><g style="stroke:#000000;stroke-width:0.176"><path d="M254.29,111.07L254.19,111.38L254.08,111.54L253.97,111.67L253.62,111.95L253.13,112.23L252.45,112.51L250.82,112.97L248.07,113.50L87.01,140.64L84.14,141.06L82.98,141.17L80.99,141.23L79.26,141.12L78.46,141.00L77.68,140.83L76.89,140.59L76.19,140.33L75.53,140.02L74.88,139.65L37.41,112.66L36.62,112.06L36.20,111.66L35.86,111.18L35.74,110.90L35.71,110.56"/><path d="M43.12,134.40L43.60,134.10L44.09,133.39L44.60,132.43L45.10,131.79L45.60,131.57L46.24,131.66L46.94,132.06L48.85,133.44"/><path d="M86.30,112.57L87.87,111.24L88.54,110.41L88.33,110.82"/><path d="M87.87,111.24L87.54,111.65"/><path d="M88.54,110.41L89.07,109.36L88.95,109.43"/><path d="M89.07,109.36L89.53,108.44L89.47,108.60"/><path d="M89.53,108.44L90.74,105.11L91.70,101.39L92.01,99.70"/><path d="M122.06,96.52L121.76,93.87L121.28,87.42L120.91,79.65L120.65,70.61L120.45,59.64L120.27,60.03L119.75,60.38L118.94,60.64L118.07,60.79L116.96,60.85L115.86,60.77L114.88,60.58L114.23,60.33L114.09,60.25L110.57,57.73L110.09,57.42L109.44,57.20L108.70,57.07L107.76,57.01L106.83,57.06L99.19,58.34L98.16,58.46L97.06,58.47L95.98,58.35L95.55,58.26L94.77,57.98L94.48,57.81L94.17,57.44"/><path d="M100.93,50.78L100.94,50.43L101.03,50.80L101.45,51.16L104.85,53.61L105.13,53.92L105.09,54.26L104.82,54.53L104.28,54.78L103.46,54.98L100.84,55.42"/><path d="M100.91,51.91L100.92,51.36"/><path d="M105.09,54.26L105.12,54.03"/><path d="M120.45,59.64L120.24,59.26L116.45,56.50L116.22,56.18L116.30,55.86L116.41,55.74L116.90,55.45L117.61,55.24L125.76,53.85L126.46,53.62L127.02,53.28L127.23,52.90"/><path d="M121.78,94.05L122.04,95.95"/><path d="M122.05,96.45L121.99,95.87"/><path d="M122.47,98.06L122.48,98.11L121.95,95.30"/><path d="M121.86,94.75L121.76,93.81"/><path d="M123.70,102.40L122.40,97.69"/><path d="M122.59,98.58L122.57,98.50"/><path d="M134.44,108.98L133.06,106.90L131.79,104.28L130.63,101.09L129.64,97.25L128.95,93.47"/><path d="M134.38,108.90L135.88,110.55L135.55,110.19"/><path d="M135.38,110.00L136.30,110.69L136.12,110.57"/><path d="M154.93,101.00L156.50,99.69L156.18,100.09"/><path d="M156.50,99.69L157.17,98.85"/><path d="M156.97,99.25L157.70,97.79L157.59,97.86"/><path d="M157.70,97.79L158.11,97.03L159.37,93.55L160.34,89.83L160.65,88.13"/><path d="M162.78,45.70L162.94,46.09L163.37,46.40L164.14,46.68L165.13,46.86L166.24,46.92L167.18,46.87L175.38,45.51L176.29,45.44L177.58,45.53L178.35,45.71L178.93,45.97L182.77,48.72L183.51,49.01L184.50,49.21L185.59,49.28L186.70,49.23L187.57,49.08L188.39,48.81L188.60,48.67L188.91,48.47L189.08,48.08L189.29,59.05L189.55,68.09L189.91,75.85L190.40,82.30"/><path d="M169.47,43.85L172.22,43.39L172.96,43.20L173.49,42.94L173.77,42.61L173.73,42.29L173.38,41.97L169.73,39.30L169.56,38.95"/><path d="M173.75,42.47L173.74,42.65"/><path d="M195.86,41.36L195.80,41.53L195.41,41.90L194.70,42.20L193.78,42.40L186.16,43.69L185.47,43.91L185.01,44.21L184.86,44.51L184.96,44.81L185.35,45.13L188.92,47.74L189.08,48.08"/><path d="M191.13,87.12L190.67,84.04L191.12,86.54"/><path d="M190.67,84.04L190.53,83.09L190.56,83.32"/><path d="M190.53,83.09L190.39,82.18"/><path d="M192.34,90.84L191.06,86.19"/><path d="M197.59,81.91L198.27,85.69L199.27,89.52L200.42,92.72L201.70,95.33L203.07,97.41"/><path d="M204.19,98.62L204.47,98.94L203.02,97.33"/><path d="M204.02,98.44L204.94,99.12"/><path d="M204.51,98.98L204.47,98.94"/><path d="M231.10,129.85L232.03,130.35L233.70,131.72"/><path d="M254.29,129.24L254.29,129.29"/></g><g style="stroke:#000000;stroke-width:0.529"><path d="M36.43,130.11L37.41,130.89L41.65,133.94L42.49,134.38L43.12,134.40L48.85,133.44L64.50,144.73L65.35,145.50L65.98,146.39L66.46,147.38L66.95,148.80L67.45,150.49L67.96,151.86L68.46,152.80L69.09,153.62L69.79,154.24L74.89,157.88L75.52,158.24L76.24,158.58L76.96,158.84L77.69,159.06L79.24,159.34L81.02,159.46L83.05,159.39L85.39,159.12L95.77,157.39L96.71,157.19L98.24,156.63L99.46,155.90L100.52,154.97L102.19,153.04L103.48,151.67L104.62,150.81L106.02,150.13L107.80,149.66L227.28,129.53L228.22,129.42L229.73,129.45L230.97,129.78L234.99,132.65L236.13,133.13L237.53,133.34L239.31,133.20L249.77,131.42L251.76,130.95L252.53,130.70L253.14,130.45L253.62,130.18L253.96,129.91L254.19,129.61L254.29,129.29L254.27,110.74L254.11,110.38L253.81,109.97L253.39,109.58L252.59,108.97L215.98,82.57L215.13,81.99L214.47,81.61L213.81,81.30L213.12,81.04L212.34,80.81L211.55,80.64L209.90,80.44L208.06,80.41L207.02,80.47L204.73,80.72L197.59,81.91L197.45,81.14L196.81,75.74L196.35,69.33L196.06,61.69L195.91,52.53L195.86,41.36L195.73,40.97L195.52,40.79L194.88,40.47L193.98,40.24L192.91,40.12L191.80,40.14L190.77,40.27L183.58,41.48L182.63,41.58L181.72,41.57L180.90,41.47L180.16,41.27L179.63,41.01L176.23,38.56L175.68,38.22L174.87,37.95L173.84,37.79L172.72,37.75L171.63,37.84L171.07,37.95L170.26,38.22L169.73,38.56L169.56,38.95L169.47,43.85L164.40,44.72L163.55,44.97L162.99,45.32L162.78,45.70L162.73,56.56L162.58,65.72L162.29,73.40L161.83,79.90L161.21,85.07L160.65,88.13L128.95,93.47L128.81,92.70L128.17,87.30L127.72,80.90L127.43,73.25L127.27,64.09L127.23,52.90L127.07,52.51L126.64,52.20L125.87,51.92L124.88,51.74L123.75,51.68L122.65,51.75L114.82,53.06L113.92,53.15L112.97,53.13L112.09,53.00L111.40,52.79L110.90,52.50L107.18,49.84L106.48,49.58L105.50,49.39L104.40,49.31L103.30,49.37L102.71,49.46L101.82,49.70L101.21,50.03L100.94,50.43L100.84,55.42L96.27,56.19L95.33,56.39L94.62,56.69L94.21,57.07L94.17,57.44L94.10,68.13L93.94,77.28L93.65,84.97L93.20,91.47L92.58,96.64L92.01,99.70L41.94,108.14L39.18,108.66L37.54,109.13L36.88,109.40L36.38,109.68L36.03,109.96L35.81,110.25L35.71,110.56L35.71,128.80L35.75,129.15L35.91,129.51L36.20,129.88L36.43,130.11"/><path d="M100.91,52.50L100.91,51.91"/><path d="M100.93,50.78L100.92,51.36"/></g></g><g/><g id="paperID" visibility="hidden" opacity="0.00" transform="scale(0.000100)"><path style="stroke:#000000;stroke-width:0.500;fill:#e6e6e6;fill-rule:evenodd" d="M-2000.00,-2000.00L2297.00,-2000.00L2297.00,2210.00L-2000.00,2210.00zM0.00,0.00L297.00,0.00L297.00,210.00L0.00,210.00z"/><path style="fill:#000000;fill-opacity:0.118" d="M3.00,210.00L297.00,210.00L297.00,3.00L300.00,3.00L300.00,213.00L3.00,213.00z"/></g></g></svg>