<svg id="Layer_1" data-name="Layer 1" xmlns="http://www.w3.org/2000/svg" xmlns:xlink="http://www.w3.org/1999/xlink" viewBox="0 0 549.1 261.76"><defs><style>.cls-1,.cls-12,.cls-3{fill:none;}.cls-2{clip-path:url(#clip-path);}.cls-3{stroke:#d2d2d2;stroke-width:1.16px;}.cls-12,.cls-3{stroke-linejoin:round;}.cls-4{clip-path:url(#clip-path-2);}.cls-5{clip-path:url(#clip-path-3);}.cls-6{clip-path:url(#clip-path-4);}.cls-7{clip-path:url(#clip-path-5);}.cls-8{clip-path:url(#clip-path-6);}.cls-9{clip-path:url(#clip-path-7);}.cls-10{clip-path:url(#clip-path-8);}.cls-11{clip-path:url(#clip-path-9);}.cls-12{stroke:#f4de3b;stroke-width:1.07px;}.cls-13{font-size:9.6px;}.cls-13,.cls-18,.cls-19{fill:#fff;}.cls-13,.cls-18{font-family:LMRoman10-Regular, Latin Modern Roman;}.cls-14{letter-spacing:4.54em;}.cls-15{letter-spacing:0em;}.cls-16{letter-spacing:4.04em;}.cls-17{letter-spacing:3.79em;}.cls-18{font-size:12px;}.cls-19{font-size:18px;font-family:LMRoman10-Bold, Latin Modern Roman;font-weight:700;}.cls-20{clip-path:url(#clip-path-10);}.cls-21{clip-path:url(#clip-path-11);}.cls-22{clip-path:url(#clip-path-12);}.cls-23{clip-path:url(#clip-path-13);}.cls-24{clip-path:url(#clip-path-14);}.cls-25{clip-path:url(#clip-path-15);}.cls-26{clip-path:url(#clip-path-16);}.cls-27{clip-path:url(#clip-path-17);}.cls-28{clip-path:url(#clip-path-18);}.cls-29{clip-path:url(#clip-path-19);}.cls-30{clip-path:url(#clip-path-20);}.cls-31{fill:#f4de3b;}.cls-32{letter-spacing:4.96em;}.cls-33{letter-spacing:4.71em;}.cls-34{letter-spacing:4.46em;}</style><clipPath id="clip-path" transform="translate(-12.5 -11.58)"><rect class="cls-1" x="50.18" y="229" width="223.43" height="2"/></clipPath><clipPath id="clip-path-2" transform="translate(-12.5 -11.58)"><rect class="cls-1" x="50.18" y="171" width="223.43" height="2"/></clipPath><clipPath id="clip-path-3" transform="translate(-12.5 -11.58)"><rect class="cls-1" x="50.18" y="113" width="223.43" height="2"/></clipPath><clipPath id="clip-path-4" transform="translate(-12.5 -11.58)"><rect class="cls-1" x="50.18" y="54" width="223.43" height="3"/></clipPath><clipPath id="clip-path-5" transform="translate(-12.5 -11.58)"><rect class="cls-1" x="59" y="37.98" width="2" height="205.75"/></clipPath><clipPath id="clip-path-6" transform="translate(-12.5 -11.58)"><rect class="cls-1" x="110" y="37.98" width="2" height="205.75"/></clipPath><clipPath id="clip-path-7" transform="translate(-12.5 -11.58)"><rect class="cls-1" x="161" y="37.98" width="2" height="205.75"/></clipPath><clipPath id="clip-path-8" transform="translate(-12.5 -11.58)"><rect class="cls-1" x="212" y="37.98" width="2" height="205.75"/></clipPath><clipPath id="clip-path-9" transform="translate(-12.5 -11.58)"><rect class="cls-1" x="262" y="37.98" width="3" height="205.75"/></clipPath><clipPath id="clip-path-10" transform="translate(-12.5 -11.58)"><rect class="cls-1" x="320.32" y="233" width="241.27" height="2"/></clipPath><clipPath id="clip-path-11" transform="translate(-12.5 -11.58)"><rect class="cls-1" x="320.32" y="195" width="241.27" height="2"/></clipPath><clipPath id="clip-path-12" transform="translate(-12.5 -11.58)"><rect class="cls-1" x="320.32" y="157" width="241.27" height="2"/></clipPath><clipPath id="clip-path-13" transform="translate(-12.5 -11.58)"><rect class="cls-1" x="320.32" y="119" width="241.27" height="2"/></clipPath><clipPath id="clip-path-14" transform="translate(-12.5 -11.58)"><rect class="cls-1" x="320.32" y="81" width="241.27" height="2"/></clipPath><clipPath id="clip-path-15" transform="translate(-12.5 -11.58)"><rect class="cls-1" x="320.32" y="43" width="241.27" height="2"/></clipPath><clipPath id="clip-path-16" transform="translate(-12.5 -11.58)"><rect class="cls-1" x="329" y="37.98" width="2" height="205.75"/></clipPath><clipPath id="clip-path-17" transform="translate(-12.5 -11.58)"><rect class="cls-1" x="384" y="37.98" width="2" height="205.75"/></clipPath><clipPath id="clip-path-18" transform="translate(-12.5 -11.58)"><rect class="cls-1" x="439" y="37.98" width="2" height="205.75"/></clipPath><clipPath id="clip-path-19" transform="translate(-12.5 -11.58)"><rect class="cls-1" x="494" y="37.98" width="2" height="205.75"/></clipPath><clipPath id="clip-path-20" transform="translate(-12.5 -11.58)"><rect class="cls-1" x="548" y="37.98" width="3" height="205.75"/></clipPath></defs><title>fft_grid</title><g class="cls-2"><line class="cls-3" x1="37.68" y1="218.37" x2="261.1" y2="218.37"/></g><g class="cls-4"><line class="cls-3" x1="37.68" y1="160.22" x2="261.1" y2="160.22"/></g><g class="cls-5"><line class="cls-3" x1="37.68" y1="102.06" x2="261.1" y2="102.06"/></g><g class="cls-6"><line class="cls-3" x1="37.68" y1="43.91" x2="261.1" y2="43.91"/></g><g class="cls-7"><line class="cls-3" x1="47.83" y1="232.15" x2="47.83" y2="26.4"/></g><g class="cls-8"><line class="cls-3" x1="98.61" y1="232.15" x2="98.61" y2="26.4"/></g><g class="cls-9"><line class="cls-3" x1="149.39" y1="232.15" x2="149.39" y2="26.4"/></g><g class="cls-10"><line class="cls-3" x1="200.16" y1="232.15" x2="200.16" y2="26.4"/></g><g class="cls-11"><line class="cls-3" x1="250.95" y1="232.15" x2="250.95" y2="26.4"/></g><polyline class="cls-12" points="47.83 173.03 48.85 192.78 49.86 200.4 50.88 171.05 51.9 156.1 52.91 172.39 53.93 157.67 54.94 133.86 55.96 127.9 56.97 158.76 57.99 163.13 59 135.97 60.02 109.47 61.03 83.29 62.05 82 63.06 105.99 64.08 126.01 65.09 159.32 66.11 213.99 67.13 222.8 68.14 186.31 69.16 150.69 70.17 158.18 71.19 168 72.2 136.66 73.22 108.14 74.23 121.05 75.25 134.41 76.27 125.14 77.28 114.57 78.3 104.16 79.31 117.33 80.33 154.39 81.34 159.86 82.36 130.83 83.38 134.34 84.39 169.52 85.41 140.25 86.42 112.28 87.44 110.95 88.45 134.15 89.47 143.22 90.48 127.49 91.5 126.41 92.52 148.65 93.53 163.85 94.55 163.67 95.56 139.58 96.58 152.33 97.59 178.06 98.61 170.1 99.63 136.15 100.64 118.78 101.66 125.29 102.67 125.85 103.69 100.64 104.7 75.4 105.72 157.9 106.73 197.83 107.75 160.79 108.77 188.49 109.78 207.88 110.8 176.88 111.81 142.64 112.83 148.09 113.84 151.81 114.86 167.97 115.88 139.46 116.89 83.35 117.91 136.08 118.92 140.53 119.94 129.13 120.95 85.63 121.97 106.4 122.98 136.24 124 161.92 125.02 140.81 126.03 155.86 127.05 182.13 128.06 180.31 129.08 167.05 130.09 180.38 131.11 196.92 132.12 171.53 133.14 175.1 134.15 176.74 135.17 162.06 136.18 129.42 137.2 88.6 138.22 74.66 139.23 87.29 140.25 115.04 141.26 121.95 142.28 128.38 143.29 138.52 144.31 147.84 145.32 148.12 146.34 147.92 147.35 149.38 148.37 159.6 149.39 175.78 150.4 176.82 151.42 169.91 152.43 163.96 153.45 156.3 154.47 95.11 155.48 77.99 156.5 92.25 157.51 92.34 158.53 88.18 159.54 94.97 160.56 121.36 161.57 147.27 162.59 149.37 163.6 153.46 164.62 160.97 165.64 165.99 166.65 168.81 167.67 179.27 168.68 204.37 169.7 209.81 170.72 178.94 171.73 159.68 172.75 144.61 173.76 111.82 174.78 95.95 175.79 98.78 176.81 106.83 177.82 104.54 178.84 100.03 179.85 95.07 180.87 153.82 181.89 165.74 182.9 151.43 183.92 141.94 184.93 161.28 185.95 178.35 186.97 158.89 187.98 150.11 189 134.4 190.01 131.38 191.03 126.64 192.04 90.82 193.06 95.6 194.07 116.8 195.09 103.7 196.1 102.31 197.12 103.63 198.14 132.85 199.15 142.22 200.16 150.63 201.18 146.98 202.19 153.79 203.21 181.77 204.23 198.52 205.24 171.88 206.26 150.5 207.27 120.4 208.29 131.27 209.31 95.64 210.32 63.87 211.34 76.23 212.35 75.58 213.37 74.88 214.38 131.76 215.4 156.42 216.41 167.92 217.43 152.17 218.44 142.35 219.46 143.39 220.48 133.74 221.49 169.14 222.51 198.67 223.52 176.34 224.54 164.69 225.56 150.06 226.57 121.18 227.59 99.55 228.6 83.75 229.62 35.75 230.63 55.79 231.65 103.19 232.66 125.67 233.68 125.14 234.69 150.49 235.71 169.01 236.73 169.1 237.74 155.82 238.76 166.44 239.77 177.74 240.79 178.44 241.81 165.63 242.82 127.05 243.84 115.75 244.85 123.08 245.87 130.65 246.88 109.64 247.9 84.28 248.91 104.85 249.93 135.67 250.94 89.15"/><text class="cls-13" transform="translate(16.84 221.65)">-5.4</text><text class="cls-13" transform="translate(16.84 163.5)">-5.3</text><text class="cls-13" transform="translate(16.84 105.35)">-5.2</text><text class="cls-13" transform="translate(16.84 47.19)">-5.1</text><text class="cls-13" transform="translate(45.43 244.09)"><tspan class="cls-14">0</tspan><tspan class="cls-15" x="48.36" y="0">5</tspan><tspan class="cls-16" x="53.17" y="0">0</tspan><tspan x="96.75" y="0">100</tspan></text><text class="cls-13" transform="translate(192.96 244.09)">15<tspan class="cls-17" x="9.6" y="0">0</tspan><tspan x="50.77" y="0">200</tspan></text><text class="cls-18" transform="translate(108.21 258.28)">Samples (20Hz)</text><text class="cls-18" transform="translate(10.1 161.78) rotate(-90)">Acceleration</text><text class="cls-19" transform="translate(37.68 15.17)">Digital Signal</text><g class="cls-20"><line class="cls-3" x1="307.82" y1="222.8" x2="549.1" y2="222.8"/></g><g class="cls-21"><line class="cls-3" x1="307.82" y1="184.77" x2="549.1" y2="184.77"/></g><g class="cls-22"><line class="cls-3" x1="307.82" y1="146.74" x2="549.1" y2="146.74"/></g><g class="cls-23"><line class="cls-3" x1="307.82" y1="108.71" x2="549.1" y2="108.71"/></g><g class="cls-24"><line class="cls-3" x1="307.82" y1="70.68" x2="549.1" y2="70.68"/></g><g class="cls-25"><line class="cls-3" x1="307.82" y1="32.65" x2="549.1" y2="32.65"/></g><g class="cls-26"><line class="cls-3" x1="317.7" y1="232.15" x2="317.7" y2="26.4"/></g><g class="cls-27"><line class="cls-3" x1="372.53" y1="232.15" x2="372.53" y2="26.4"/></g><g class="cls-28"><line class="cls-3" x1="427.37" y1="232.15" x2="427.37" y2="26.4"/></g><g class="cls-29"><line class="cls-3" x1="482.2" y1="232.15" x2="482.2" y2="26.4"/></g><g class="cls-30"><line class="cls-3" x1="537.03" y1="232.15" x2="537.03" y2="26.4"/></g><rect class="cls-31" x="318.79" y="183.03" width="2.2" height="39.77"/><rect class="cls-31" x="320.98" y="209.95" width="2.2" height="12.84"/><rect class="cls-31" x="323.18" y="195.67" width="2.2" height="27.13"/><rect class="cls-31" x="325.37" y="203.44" width="2.2" height="19.36"/><rect class="cls-31" x="327.57" y="203.81" width="2.2" height="18.99"/><rect class="cls-31" x="329.76" y="195.06" width="2.2" height="27.73"/><rect class="cls-31" x="331.95" y="202.7" width="2.2" height="20.1"/><rect class="cls-31" x="334.14" y="202.83" width="2.2" height="19.97"/><rect class="cls-31" x="336.34" y="190.61" width="2.2" height="32.18"/><rect class="cls-31" x="338.53" y="176.28" width="2.2" height="46.52"/><rect class="cls-31" x="340.73" y="35.75" width="2.2" height="187.05"/><rect class="cls-31" x="342.92" y="87.64" width="2.2" height="135.16"/><rect class="cls-31" x="345.11" y="157.95" width="2.2" height="64.85"/><rect class="cls-31" x="347.3" y="179.17" width="2.2" height="43.63"/><rect class="cls-31" x="349.5" y="190.63" width="2.2" height="32.16"/><rect class="cls-31" x="351.69" y="190.89" width="2.2" height="31.91"/><rect class="cls-31" x="353.89" y="196.48" width="2.2" height="26.32"/><rect class="cls-31" x="356.08" y="206.95" width="2.2" height="15.85"/><rect class="cls-31" x="358.27" y="185.61" width="2.2" height="37.19"/><rect class="cls-31" x="360.46" y="189.21" width="2.2" height="33.59"/><rect class="cls-31" x="362.66" y="191.51" width="2.2" height="31.29"/><rect class="cls-31" x="364.86" y="162.98" width="2.2" height="59.82"/><rect class="cls-31" x="367.05" y="171.65" width="2.2" height="51.15"/><rect class="cls-31" x="369.24" y="184.75" width="2.2" height="38.05"/><rect class="cls-31" x="371.43" y="194.03" width="2.2" height="28.77"/><rect class="cls-31" x="373.63" y="192.37" width="2.2" height="30.43"/><rect class="cls-31" x="375.82" y="197.99" width="2.2" height="24.8"/><rect class="cls-31" x="378.02" y="211.04" width="2.2" height="11.76"/><rect class="cls-31" x="380.21" y="207.5" width="2.2" height="15.3"/><rect class="cls-31" x="382.4" y="208.87" width="2.2" height="13.93"/><rect class="cls-31" x="384.59" y="215.27" width="2.2" height="7.53"/><rect class="cls-31" x="386.79" y="210.61" width="2.2" height="12.19"/><rect class="cls-31" x="388.98" y="215.43" width="2.2" height="7.37"/><rect class="cls-31" x="391.18" y="202.42" width="2.2" height="20.38"/><rect class="cls-31" x="393.37" y="194.56" width="2.2" height="28.24"/><rect class="cls-31" x="395.56" y="209.03" width="2.2" height="13.77"/><rect class="cls-31" x="397.75" y="213.17" width="2.2" height="9.63"/><rect class="cls-31" x="399.95" y="199.37" width="2.2" height="23.43"/><rect class="cls-31" x="402.14" y="215.63" width="2.2" height="7.17"/><rect class="cls-31" x="404.34" y="211.4" width="2.2" height="11.4"/><rect class="cls-31" x="406.53" y="221.49" width="2.2" height="1.3"/><rect class="cls-31" x="408.72" y="211.88" width="2.2" height="10.92"/><rect class="cls-31" x="410.91" y="202.04" width="2.2" height="20.75"/><rect class="cls-31" x="413.11" y="208.16" width="2.2" height="14.64"/><rect class="cls-31" x="415.3" y="203.3" width="2.2" height="19.5"/><rect class="cls-31" x="417.5" y="181.21" width="2.2" height="41.59"/><rect class="cls-31" x="419.69" y="179.34" width="2.2" height="43.46"/><rect class="cls-31" x="421.88" y="176.75" width="2.2" height="46.05"/><rect class="cls-31" x="424.07" y="186.65" width="2.2" height="36.15"/><rect class="cls-31" x="426.27" y="206.86" width="2.2" height="15.94"/><rect class="cls-31" x="428.46" y="209.9" width="2.2" height="12.9"/><rect class="cls-31" x="430.66" y="207.12" width="2.2" height="15.68"/><rect class="cls-31" x="432.85" y="207.49" width="2.2" height="15.3"/><rect class="cls-31" x="435.04" y="217.49" width="2.2" height="5.31"/><rect class="cls-31" x="437.23" y="213.68" width="2.2" height="9.12"/><rect class="cls-31" x="439.43" y="213.94" width="2.2" height="8.86"/><rect class="cls-31" x="441.62" y="206.97" width="2.2" height="15.83"/><rect class="cls-31" x="443.82" y="199.2" width="2.2" height="23.6"/><rect class="cls-31" x="446.01" y="213.95" width="2.2" height="8.85"/><rect class="cls-31" x="448.2" y="206.31" width="2.2" height="16.48"/><rect class="cls-31" x="450.4" y="215.94" width="2.2" height="6.86"/><rect class="cls-31" x="452.59" y="210.5" width="2.2" height="12.3"/><rect class="cls-31" x="454.79" y="219.69" width="2.2" height="3.11"/><rect class="cls-31" x="456.98" y="215.5" width="2.2" height="7.3"/><rect class="cls-31" x="459.17" y="206.02" width="2.2" height="16.78"/><rect class="cls-31" x="461.36" y="213.36" width="2.2" height="9.44"/><rect class="cls-31" x="463.56" y="207.88" width="2.2" height="14.92"/><rect class="cls-31" x="465.75" y="214.4" width="2.2" height="8.4"/><rect class="cls-31" x="467.95" y="215.01" width="2.2" height="7.79"/><rect class="cls-31" x="470.14" y="205.13" width="2.2" height="17.67"/><rect class="cls-31" x="472.33" y="218.54" width="2.2" height="4.26"/><rect class="cls-31" x="474.52" y="217.23" width="2.2" height="5.57"/><rect class="cls-31" x="476.72" y="221.84" width="2.2" height="0.96"/><rect class="cls-31" x="478.91" y="209.25" width="2.2" height="13.55"/><rect class="cls-31" x="481.11" y="219.5" width="2.2" height="3.3"/><rect class="cls-31" x="483.3" y="214.89" width="2.2" height="7.91"/><rect class="cls-31" x="485.49" y="213.7" width="2.2" height="9.09"/><rect class="cls-31" x="487.68" y="218.72" width="2.2" height="4.08"/><rect class="cls-31" x="489.88" y="214.76" width="2.2" height="8.04"/><rect class="cls-31" x="492.07" y="213.65" width="2.2" height="9.15"/><rect class="cls-31" x="494.27" y="210.53" width="2.2" height="12.27"/><rect class="cls-31" x="496.46" y="221.92" width="2.2" height="0.88"/><rect class="cls-31" x="498.65" y="217.89" width="2.19" height="4.91"/><rect class="cls-31" x="500.84" y="214.43" width="2.2" height="8.37"/><rect class="cls-31" x="503.04" y="217.03" width="2.2" height="5.77"/><rect class="cls-31" x="505.23" y="218.74" width="2.2" height="4.06"/><rect class="cls-31" x="507.43" y="214.66" width="2.2" height="8.14"/><rect class="cls-31" x="509.62" y="214.97" width="2.2" height="7.83"/><rect class="cls-31" x="511.81" y="217.67" width="2.2" height="5.13"/><rect class="cls-31" x="514" y="215.22" width="2.2" height="7.58"/><rect class="cls-31" x="516.2" y="212.38" width="2.2" height="10.41"/><rect class="cls-31" x="518.39" y="217.66" width="2.2" height="5.14"/><rect class="cls-31" x="520.59" y="217.45" width="2.2" height="5.35"/><rect class="cls-31" x="522.78" y="214.73" width="2.2" height="8.07"/><rect class="cls-31" x="524.97" y="217.44" width="2.2" height="5.36"/><rect class="cls-31" x="527.16" y="217.59" width="2.2" height="5.21"/><rect class="cls-31" x="529.36" y="213.24" width="2.2" height="9.55"/><rect class="cls-31" x="531.55" y="216.81" width="2.2" height="5.99"/><rect class="cls-31" x="533.75" y="213.69" width="2.2" height="9.11"/><rect class="cls-31" x="535.94" y="222.48" width="2.2" height="0.32"/><text class="cls-13" transform="translate(315.3 244.09)"><tspan class="cls-32">0</tspan><tspan x="52.44" y="0">2</tspan><tspan class="cls-33" x="57.24" y="0">5</tspan><tspan x="107.26" y="0">50</tspan></text><text class="cls-13" transform="translate(477.4 244.09)">7<tspan class="cls-34" x="4.8" y="0">5</tspan><tspan x="52.43" y="0">100</tspan></text><text class="cls-18" transform="translate(387.38 258.28)">Frequency (Hz)</text><text class="cls-18" transform="translate(298.1 152.63) rotate(-90)">Intensity</text><text class="cls-19" transform="translate(307.82 15.17)">Fourier Transform</text></svg>