<?xml version="1.0" encoding="utf-8"?>
<!-- Generator: Adobe Illustrator 23.0.1, SVG Export Plug-In . SVG Version: 6.00 Build 0)  -->
<svg version="1.1" id="Layer_1" xmlns="http://www.w3.org/2000/svg" xmlns:xlink="http://www.w3.org/1999/xlink" x="0px" y="0px"
	 viewBox="0 0 576 129.6" style="enable-background:new 0 0 576 129.6;" xml:space="preserve">
<style type="text/css">
	.st0{opacity:0.65;fill:none;stroke:#C6C6C5;stroke-width:0.75;stroke-miterlimit:10;}
	.st1{fill:none;stroke:#FFFFFF;stroke-width:0.75;stroke-miterlimit:10;}
	.st2{fill:none;stroke:#FFFFFF;stroke-miterlimit:10;}
	.st3{stroke:#FFFFFF;stroke-miterlimit:10;}
	.st4{fill:none;stroke:#000000;stroke-miterlimit:10;}
	.st5{fill:#FFFFFF;}
	.st6{font-family:'LMRoman10-Regular';}
	.st7{font-size:12px;}
	.st8{fill:#C6C6C5;stroke:#C6C6C5;stroke-width:0.5;stroke-miterlimit:10;}
	.st9{font-size:8.9578px;}
	.st10{fill:none;stroke:#C6C6C5;stroke-width:0.5;stroke-miterlimit:10;}
	.st11{font-size:16px;}
	.st12{fill:none;stroke:#FFFFFF;stroke-width:0.5;stroke-miterlimit:10;}
</style>
<line class="st0" x1="23.1" y1="42.2" x2="23.1" y2="33.4"/>
<line class="st0" x1="36.3" y1="42.2" x2="36.3" y2="33.4"/>
<line class="st0" x1="49.4" y1="42.2" x2="49.4" y2="33.4"/>
<line class="st0" x1="62.6" y1="42.2" x2="62.6" y2="33.4"/>
<line class="st0" x1="75.8" y1="42.2" x2="75.8" y2="33.4"/>
<line class="st0" x1="88.9" y1="42.2" x2="88.9" y2="33.4"/>
<line class="st0" x1="102.1" y1="42.2" x2="102.1" y2="33.4"/>
<line class="st0" x1="115.2" y1="42.2" x2="115.2" y2="33.4"/>
<line class="st0" x1="128.4" y1="42.2" x2="128.4" y2="33.4"/>
<line class="st0" x1="141.5" y1="42.2" x2="141.5" y2="33.4"/>
<line class="st0" x1="154.7" y1="42.2" x2="154.7" y2="33.4"/>
<line class="st0" x1="167.9" y1="42.2" x2="167.9" y2="33.4"/>
<line class="st0" x1="181" y1="42.2" x2="181" y2="33.4"/>
<line class="st0" x1="194.2" y1="42.2" x2="194.2" y2="33.4"/>
<line class="st0" x1="207.3" y1="42.2" x2="207.3" y2="33.4"/>
<line class="st0" x1="220.5" y1="42.2" x2="220.5" y2="33.4"/>
<line class="st0" x1="233.6" y1="42.2" x2="233.6" y2="33.4"/>
<line class="st0" x1="246.8" y1="42.2" x2="246.8" y2="33.4"/>
<line class="st0" x1="260" y1="42.2" x2="260" y2="33.4"/>
<line class="st0" x1="273.1" y1="42.2" x2="273.1" y2="33.4"/>
<line class="st0" x1="286.3" y1="42.2" x2="286.3" y2="33.4"/>
<line class="st0" x1="299.4" y1="42.2" x2="299.4" y2="33.4"/>
<line class="st0" x1="312.6" y1="42.2" x2="312.6" y2="33.4"/>
<line class="st0" x1="325.7" y1="42.2" x2="325.7" y2="33.4"/>
<line class="st0" x1="338.9" y1="42.2" x2="338.9" y2="33.4"/>
<line class="st0" x1="352.1" y1="42.2" x2="352.1" y2="33.4"/>
<line class="st0" x1="365.2" y1="42.2" x2="365.2" y2="33.4"/>
<line class="st0" x1="378.4" y1="42.2" x2="378.4" y2="33.4"/>
<line class="st0" x1="391.5" y1="42.2" x2="391.5" y2="33.4"/>
<line class="st0" x1="404.7" y1="42.2" x2="404.7" y2="33.4"/>
<line class="st0" x1="417.8" y1="42.2" x2="417.8" y2="33.4"/>
<line class="st0" x1="431" y1="42.2" x2="431" y2="33.4"/>
<line class="st0" x1="444.2" y1="42.2" x2="444.2" y2="33.4"/>
<line class="st0" x1="457.3" y1="42.2" x2="457.3" y2="33.4"/>
<line class="st0" x1="470.5" y1="42.2" x2="470.5" y2="33.4"/>
<line class="st0" x1="483.6" y1="42.2" x2="483.6" y2="33.4"/>
<line class="st0" x1="496.8" y1="42.2" x2="496.8" y2="33.4"/>
<line class="st0" x1="509.9" y1="42.2" x2="509.9" y2="33.4"/>
<line class="st0" x1="523.1" y1="42.2" x2="523.1" y2="33.4"/>
<line class="st0" x1="536.3" y1="42.2" x2="536.3" y2="33.4"/>
<line class="st0" x1="549.4" y1="42.2" x2="549.4" y2="33.4"/>
<g>
	<line class="st1" x1="9.8" y1="54.4" x2="207" y2="54.4"/>
	<line class="st1" x1="9.8" y1="50.1" x2="9.8" y2="58.7"/>
	<line class="st1" x1="207" y1="50.1" x2="207" y2="58.7"/>
</g>
<g>
	<line class="st2" x1="10.3" y1="37.8" x2="562.6" y2="37.8"/>
	<line class="st2" x1="9.8" y1="44.2" x2="9.8" y2="31.5"/>
	<polygon class="st3" points="561,34.8 567.5,37.8 561,40.8 562.6,37.8 	"/>
</g>
<path class="st4" d="M575,32.2"/>
<g>
	<line class="st1" x1="102.4" y1="69.7" x2="299.6" y2="69.7"/>
	<line class="st1" x1="102.4" y1="65.4" x2="102.4" y2="74"/>
	<line class="st1" x1="299.6" y1="65.4" x2="299.6" y2="74"/>
</g>
<g>
	<line class="st1" x1="207.6" y1="86.4" x2="404.9" y2="86.4"/>
	<line class="st1" x1="207.6" y1="82.1" x2="207.6" y2="90.7"/>
	<line class="st1" x1="404.9" y1="82.1" x2="404.9" y2="90.7"/>
</g>
<text transform="matrix(1 0 0 1 214.5115 58.3574)" class="st5 st6 st7">Window 1</text>
<text transform="matrix(1 0 0 1 411.5828 90.3633)" class="st5 st6 st7">Window 3</text>
<text transform="matrix(1 0 0 1 306.3289 73.6602)" class="st5 st6 st7">Window 2</text>
<g>
	<line class="st8" x1="9.5" y1="69.8" x2="94.4" y2="69.8"/>
	<line class="st8" x1="9.8" y1="65.5" x2="9.8" y2="74.1"/>
	<polygon class="st8" points="92.7,66.8 99,69.8 92.7,72.8 94.2,69.8 	"/>
</g>
<text transform="matrix(1 0 0 1 14.9671 85.2188)" class="st5 st6 st9">by : 100 samples</text>
<path class="st10" d="M207.5,92.5c0,0,0.7,10.6,59.2,10.6c43.3,0,43.7,8.1,43.7,8.1s0.1-8.1,49.3-8.1c45.9,0,45.2-10.6,45.2-10.6"/>
<text transform="matrix(1 0 0 1 269.3004 122.5521)" class="st5 st6 st9">window : 200 samples</text>
<text transform="matrix(1 0 0 1 218.7657 20)" class="st5 st6 st11">Discrete Time Signal</text>
<rect x="3" y="2.4" class="st12" width="570.1" height="124.8"/>
</svg>
