<?xml version="1.0" encoding="utf-8"?>
<!-- Generator: Adobe Illustrator 23.0.1, SVG Export Plug-In . SVG Version: 6.00 Build 0)  -->
<svg version="1.1" id="Layer_1" xmlns="http://www.w3.org/2000/svg" xmlns:xlink="http://www.w3.org/1999/xlink" x="0px" y="0px"
	 viewBox="0 0 576 288" style="enable-background:new 0 0 576 288;" xml:space="preserve">
<style type="text/css">
	.st0{fill:#FFFFFF;}
	.st1{fill:#F0F0F0;}
	.st2{clip-path:url(#SVGID_2_);fill:#F0F0F0;}
	.st3{clip-path:url(#SVGID_4_);fill:none;stroke:#D2D2D2;stroke-width:1.164;stroke-linejoin:round;stroke-miterlimit:10;}
	.st4{clip-path:url(#SVGID_6_);fill:none;stroke:#D2D2D2;stroke-width:1.164;stroke-linejoin:round;stroke-miterlimit:10;}
	.st5{clip-path:url(#SVGID_8_);fill:none;stroke:#D2D2D2;stroke-width:1.164;stroke-linejoin:round;stroke-miterlimit:10;}
	.st6{clip-path:url(#SVGID_10_);fill:none;stroke:#D2D2D2;stroke-width:1.164;stroke-linejoin:round;stroke-miterlimit:10;}
	.st7{clip-path:url(#SVGID_12_);fill:none;stroke:#D2D2D2;stroke-width:1.164;stroke-linejoin:round;stroke-miterlimit:10;}
	.st8{clip-path:url(#SVGID_14_);fill:none;stroke:#D2D2D2;stroke-width:1.164;stroke-linejoin:round;stroke-miterlimit:10;}
	.st9{clip-path:url(#SVGID_16_);fill:none;stroke:#D2D2D2;stroke-width:1.164;stroke-linejoin:round;stroke-miterlimit:10;}
	.st10{clip-path:url(#SVGID_18_);fill:none;stroke:#D2D2D2;stroke-width:1.164;stroke-linejoin:round;stroke-miterlimit:10;}
	.st11{clip-path:url(#SVGID_20_);fill:none;stroke:#D2D2D2;stroke-width:1.164;stroke-linejoin:round;stroke-miterlimit:10;}
	.st12{fill:none;stroke:#E2A52B;stroke-width:1.067;stroke-linejoin:round;stroke-miterlimit:10;}
	.st13{fill:#333333;}
	.st14{font-family:'LMRoman10-Regular';}
	.st15{font-size:9.6px;}
	.st16{letter-spacing:43;}
	.st17{letter-spacing:38;}
	.st18{letter-spacing:36;}
	.st19{font-size:13.6444px;}
	.st20{font-size:15.5001px;}
	.st21{font-family:'LMRoman10-Bold';}
	.st22{font-size:18px;}
	.st23{clip-path:url(#SVGID_22_);fill:#F0F0F0;}
	.st24{clip-path:url(#SVGID_24_);fill:none;stroke:#D2D2D2;stroke-width:1.164;stroke-linejoin:round;stroke-miterlimit:10;}
	.st25{clip-path:url(#SVGID_26_);fill:none;stroke:#D2D2D2;stroke-width:1.164;stroke-linejoin:round;stroke-miterlimit:10;}
	.st26{clip-path:url(#SVGID_28_);fill:none;stroke:#D2D2D2;stroke-width:1.164;stroke-linejoin:round;stroke-miterlimit:10;}
	.st27{clip-path:url(#SVGID_30_);fill:none;stroke:#D2D2D2;stroke-width:1.164;stroke-linejoin:round;stroke-miterlimit:10;}
	.st28{clip-path:url(#SVGID_32_);fill:none;stroke:#D2D2D2;stroke-width:1.164;stroke-linejoin:round;stroke-miterlimit:10;}
	.st29{clip-path:url(#SVGID_34_);fill:none;stroke:#D2D2D2;stroke-width:1.164;stroke-linejoin:round;stroke-miterlimit:10;}
	.st30{clip-path:url(#SVGID_36_);fill:none;stroke:#D2D2D2;stroke-width:1.164;stroke-linejoin:round;stroke-miterlimit:10;}
	.st31{clip-path:url(#SVGID_38_);fill:none;stroke:#D2D2D2;stroke-width:1.164;stroke-linejoin:round;stroke-miterlimit:10;}
	.st32{clip-path:url(#SVGID_40_);fill:none;stroke:#D2D2D2;stroke-width:1.164;stroke-linejoin:round;stroke-miterlimit:10;}
	.st33{clip-path:url(#SVGID_42_);fill:none;stroke:#D2D2D2;stroke-width:1.164;stroke-linejoin:round;stroke-miterlimit:10;}
	.st34{clip-path:url(#SVGID_44_);fill:none;stroke:#D2D2D2;stroke-width:1.164;stroke-linejoin:round;stroke-miterlimit:10;}
	.st35{fill:#E2A52B;}
	.st36{letter-spacing:47;}
	.st37{letter-spacing:45;}
	.st38{letter-spacing:42;}
	.st39{font-size:16.6853px;}
</style>
<rect class="st0" width="576" height="288"/>
<rect class="st1" width="288" height="288"/>
<g>
	<defs>
		<rect id="SVGID_1_" x="50.2" y="38" width="223.4" height="205.8"/>
	</defs>
	<clipPath id="SVGID_2_">
		<use xlink:href="#SVGID_1_"  style="overflow:visible;"/>
	</clipPath>
	<rect x="50.2" y="38" class="st2" width="223.4" height="205.8"/>
</g>
<g>
	<defs>
		<rect id="SVGID_3_" x="50.2" y="229" width="223.4" height="2"/>
	</defs>
	<clipPath id="SVGID_4_">
		<use xlink:href="#SVGID_3_"  style="overflow:visible;"/>
	</clipPath>
	<line class="st3" x1="50.2" y1="229.9" x2="273.6" y2="229.9"/>
</g>
<g>
	<defs>
		<rect id="SVGID_5_" x="50.2" y="171" width="223.4" height="2"/>
	</defs>
	<clipPath id="SVGID_6_">
		<use xlink:href="#SVGID_5_"  style="overflow:visible;"/>
	</clipPath>
	<line class="st4" x1="50.2" y1="171.8" x2="273.6" y2="171.8"/>
</g>
<g>
	<defs>
		<rect id="SVGID_7_" x="50.2" y="113" width="223.4" height="2"/>
	</defs>
	<clipPath id="SVGID_8_">
		<use xlink:href="#SVGID_7_"  style="overflow:visible;"/>
	</clipPath>
	<line class="st5" x1="50.2" y1="113.6" x2="273.6" y2="113.6"/>
</g>
<g>
	<defs>
		<rect id="SVGID_9_" x="50.2" y="54" width="223.4" height="3"/>
	</defs>
	<clipPath id="SVGID_10_">
		<use xlink:href="#SVGID_9_"  style="overflow:visible;"/>
	</clipPath>
	<line class="st6" x1="50.2" y1="55.5" x2="273.6" y2="55.5"/>
</g>
<g>
	<defs>
		<rect id="SVGID_11_" x="59" y="38" width="2" height="205.8"/>
	</defs>
	<clipPath id="SVGID_12_">
		<use xlink:href="#SVGID_11_"  style="overflow:visible;"/>
	</clipPath>
	<line class="st7" x1="60.3" y1="243.7" x2="60.3" y2="38"/>
</g>
<g>
	<defs>
		<rect id="SVGID_13_" x="110" y="38" width="2" height="205.8"/>
	</defs>
	<clipPath id="SVGID_14_">
		<use xlink:href="#SVGID_13_"  style="overflow:visible;"/>
	</clipPath>
	<line class="st8" x1="111.1" y1="243.7" x2="111.1" y2="38"/>
</g>
<g>
	<defs>
		<rect id="SVGID_15_" x="161" y="38" width="2" height="205.8"/>
	</defs>
	<clipPath id="SVGID_16_">
		<use xlink:href="#SVGID_15_"  style="overflow:visible;"/>
	</clipPath>
	<line class="st9" x1="161.9" y1="243.7" x2="161.9" y2="38"/>
</g>
<g>
	<defs>
		<rect id="SVGID_17_" x="212" y="38" width="2" height="205.8"/>
	</defs>
	<clipPath id="SVGID_18_">
		<use xlink:href="#SVGID_17_"  style="overflow:visible;"/>
	</clipPath>
	<line class="st10" x1="212.7" y1="243.7" x2="212.7" y2="38"/>
</g>
<g>
	<defs>
		<rect id="SVGID_19_" x="262" y="38" width="3" height="205.8"/>
	</defs>
	<clipPath id="SVGID_20_">
		<use xlink:href="#SVGID_19_"  style="overflow:visible;"/>
	</clipPath>
	<line class="st11" x1="263.4" y1="243.7" x2="263.4" y2="38"/>
</g>
<polyline class="st12" points="60.3,184.6 61.3,204.4 62.4,212 63.4,182.6 64.4,167.7 65.4,184 66.4,169.2 67.4,145.4 68.5,139.5 
	69.5,170.3 70.5,174.7 71.5,147.5 72.5,121.1 73.5,94.9 74.6,93.6 75.6,117.6 76.6,137.6 77.6,170.9 78.6,225.6 79.6,234.4 
	80.6,197.9 81.7,162.3 82.7,169.8 83.7,179.6 84.7,148.2 85.7,119.7 86.7,132.6 87.8,146 88.8,136.7 89.8,126.1 90.8,115.7 
	91.8,128.9 92.8,166 93.8,171.4 94.9,142.4 95.9,145.9 96.9,181.1 97.9,151.8 98.9,123.9 99.9,122.5 101,145.7 102,154.8 103,139.1 
	104,138 105,160.2 106,175.4 107,175.2 108.1,151.2 109.1,163.9 110.1,189.6 111.1,181.7 112.1,147.7 113.1,130.4 114.2,136.9 
	115.2,137.4 116.2,112.2 117.2,87 118.2,169.5 119.2,209.4 120.3,172.4 121.3,200.1 122.3,219.5 123.3,188.5 124.3,154.2 
	125.3,159.7 126.3,163.4 127.4,179.5 128.4,151 129.4,94.9 130.4,147.7 131.4,152.1 132.4,140.7 133.5,97.2 134.5,118 135.5,147.8 
	136.5,173.5 137.5,152.4 138.5,167.4 139.5,193.7 140.6,191.9 141.6,178.6 142.6,192 143.6,208.5 144.6,183.1 145.6,186.7 
	146.7,188.3 147.7,173.6 148.7,141 149.7,100.2 150.7,86.2 151.7,98.9 152.7,126.6 153.8,133.5 154.8,140 155.8,150.1 156.8,159.4 
	157.8,159.7 158.8,159.5 159.9,161 160.9,171.2 161.9,187.4 162.9,188.4 163.9,181.5 164.9,175.5 165.9,167.9 167,106.7 168,89.6 
	169,103.8 170,103.9 171,99.8 172,106.6 173.1,132.9 174.1,158.8 175.1,160.9 176.1,165 177.1,172.5 178.1,177.6 179.2,180.4 
	180.2,190.8 181.2,215.9 182.2,221.4 183.2,190.5 184.2,171.3 185.2,156.2 186.3,123.4 187.3,107.5 188.3,110.4 189.3,118.4 
	190.3,116.1 191.3,111.6 192.4,106.6 193.4,165.4 194.4,177.3 195.4,163 196.4,153.5 197.4,172.9 198.4,189.9 199.5,170.5 
	200.5,161.7 201.5,146 202.5,143 203.5,138.2 204.5,102.4 205.6,107.2 206.6,128.4 207.6,115.3 208.6,113.9 209.6,115.2 
	210.6,144.4 211.7,153.8 212.7,162.2 213.7,158.6 214.7,165.4 215.7,193.3 216.7,210.1 217.7,183.5 218.8,162.1 219.8,132 
	220.8,142.8 221.8,107.2 222.8,75.4 223.8,87.8 224.9,87.2 225.9,86.5 226.9,143.3 227.9,168 228.9,179.5 229.9,163.8 230.9,153.9 
	232,155 233,145.3 234,180.7 235,210.2 236,187.9 237,176.3 238.1,161.6 239.1,132.8 240.1,111.1 241.1,95.3 242.1,47.3 243.1,67.4 
	244.1,114.8 245.2,137.2 246.2,136.7 247.2,162.1 248.2,180.6 249.2,180.7 250.2,167.4 251.3,178 252.3,189.3 253.3,190 
	254.3,177.2 255.3,138.6 256.3,127.3 257.4,134.7 258.4,142.2 259.4,121.2 260.4,95.9 261.4,116.4 262.4,147.2 263.4,100.7 "/>
<text transform="matrix(1 0 0 1 29.3359 233.2305)" class="st13 st14 st15">-5.4</text>
<text transform="matrix(1 0 0 1 29.3359 175.0742)" class="st13 st14 st15">-5.3</text>
<text transform="matrix(1 0 0 1 29.3359 116.9219)" class="st13 st14 st15">-5.2</text>
<text transform="matrix(1 0 0 1 29.3359 58.7656)" class="st13 st14 st15">-5.1</text>
<text transform="matrix(1 0 0 1 57.9336 255.6641)"><tspan x="0" y="0" class="st13 st14 st15 st16">0</tspan><tspan x="48.4" y="0" class="st13 st14 st15">5</tspan><tspan x="53.2" y="0" class="st13 st14 st15 st17">0</tspan><tspan x="96.7" y="0" class="st13 st14 st15">100</tspan></text>
<text transform="matrix(1 0 0 1 205.4648 255.6641)"><tspan x="0" y="0" class="st13 st14 st15">15</tspan><tspan x="9.6" y="0" class="st13 st14 st15 st18">0</tspan><tspan x="50.8" y="0" class="st13 st14 st15">200</tspan></text>
<text transform="matrix(1 0 0 1 102.1168 274.3175)" class="st13 st14 st19">Samples (20Hz)</text>
<text transform="matrix(0 -1 1 0 22.8998 179.0763)" class="st13 st14 st20">Acceleration</text>
<text transform="matrix(1 0 0 1 50.1758 26.75)" class="st13 st21 st22">Digital Signal</text>
<rect x="288" class="st1" width="288" height="288"/>
<g>
	<defs>
		<rect id="SVGID_21_" x="320.3" y="38" width="241.3" height="205.8"/>
	</defs>
	<clipPath id="SVGID_22_">
		<use xlink:href="#SVGID_21_"  style="overflow:visible;"/>
	</clipPath>
	<rect x="320.3" y="38" class="st23" width="241.3" height="205.8"/>
</g>
<g>
	<defs>
		<rect id="SVGID_23_" x="320.3" y="233" width="241.3" height="2"/>
	</defs>
	<clipPath id="SVGID_24_">
		<use xlink:href="#SVGID_23_"  style="overflow:visible;"/>
	</clipPath>
	<line class="st24" x1="320.3" y1="234.4" x2="561.6" y2="234.4"/>
</g>
<g>
	<defs>
		<rect id="SVGID_25_" x="320.3" y="195" width="241.3" height="2"/>
	</defs>
	<clipPath id="SVGID_26_">
		<use xlink:href="#SVGID_25_"  style="overflow:visible;"/>
	</clipPath>
	<line class="st25" x1="320.3" y1="196.3" x2="561.6" y2="196.3"/>
</g>
<g>
	<defs>
		<rect id="SVGID_27_" x="320.3" y="157" width="241.3" height="2"/>
	</defs>
	<clipPath id="SVGID_28_">
		<use xlink:href="#SVGID_27_"  style="overflow:visible;"/>
	</clipPath>
	<line class="st26" x1="320.3" y1="158.3" x2="561.6" y2="158.3"/>
</g>
<g>
	<defs>
		<rect id="SVGID_29_" x="320.3" y="119" width="241.3" height="2"/>
	</defs>
	<clipPath id="SVGID_30_">
		<use xlink:href="#SVGID_29_"  style="overflow:visible;"/>
	</clipPath>
	<line class="st27" x1="320.3" y1="120.3" x2="561.6" y2="120.3"/>
</g>
<g>
	<defs>
		<rect id="SVGID_31_" x="320.3" y="81" width="241.3" height="2"/>
	</defs>
	<clipPath id="SVGID_32_">
		<use xlink:href="#SVGID_31_"  style="overflow:visible;"/>
	</clipPath>
	<line class="st28" x1="320.3" y1="82.3" x2="561.6" y2="82.3"/>
</g>
<g>
	<defs>
		<rect id="SVGID_33_" x="320.3" y="43" width="241.3" height="2"/>
	</defs>
	<clipPath id="SVGID_34_">
		<use xlink:href="#SVGID_33_"  style="overflow:visible;"/>
	</clipPath>
	<line class="st29" x1="320.3" y1="44.2" x2="561.6" y2="44.2"/>
</g>
<g>
	<defs>
		<rect id="SVGID_35_" x="329" y="38" width="2" height="205.8"/>
	</defs>
	<clipPath id="SVGID_36_">
		<use xlink:href="#SVGID_35_"  style="overflow:visible;"/>
	</clipPath>
	<line class="st30" x1="330.2" y1="243.7" x2="330.2" y2="38"/>
</g>
<g>
	<defs>
		<rect id="SVGID_37_" x="384" y="38" width="2" height="205.8"/>
	</defs>
	<clipPath id="SVGID_38_">
		<use xlink:href="#SVGID_37_"  style="overflow:visible;"/>
	</clipPath>
	<line class="st31" x1="385" y1="243.7" x2="385" y2="38"/>
</g>
<g>
	<defs>
		<rect id="SVGID_39_" x="439" y="38" width="2" height="205.8"/>
	</defs>
	<clipPath id="SVGID_40_">
		<use xlink:href="#SVGID_39_"  style="overflow:visible;"/>
	</clipPath>
	<line class="st32" x1="439.9" y1="243.7" x2="439.9" y2="38"/>
</g>
<g>
	<defs>
		<rect id="SVGID_41_" x="494" y="38" width="2" height="205.8"/>
	</defs>
	<clipPath id="SVGID_42_">
		<use xlink:href="#SVGID_41_"  style="overflow:visible;"/>
	</clipPath>
	<line class="st33" x1="494.7" y1="243.7" x2="494.7" y2="38"/>
</g>
<g>
	<defs>
		<rect id="SVGID_43_" x="548" y="38" width="3" height="205.8"/>
	</defs>
	<clipPath id="SVGID_44_">
		<use xlink:href="#SVGID_43_"  style="overflow:visible;"/>
	</clipPath>
	<line class="st34" x1="549.5" y1="243.7" x2="549.5" y2="38"/>
</g>
<g>
	<rect x="331.3" y="194.6" class="st35" width="2.2" height="39.8"/>
	<rect x="333.5" y="221.5" class="st35" width="2.2" height="12.8"/>
	<rect x="335.7" y="207.2" class="st35" width="2.2" height="27.1"/>
	<rect x="337.9" y="215" class="st35" width="2.2" height="19.4"/>
	<rect x="340.1" y="215.4" class="st35" width="2.2" height="19"/>
	<rect x="342.3" y="206.6" class="st35" width="2.2" height="27.7"/>
	<rect x="344.5" y="214.3" class="st35" width="2.2" height="20.1"/>
	<rect x="346.6" y="214.4" class="st35" width="2.2" height="20"/>
	<rect x="348.8" y="202.2" class="st35" width="2.2" height="32.2"/>
	<rect x="351" y="187.9" class="st35" width="2.2" height="46.5"/>
	<rect x="353.2" y="47.3" class="st35" width="2.2" height="187"/>
	<rect x="355.4" y="99.2" class="st35" width="2.2" height="135.2"/>
	<rect x="357.6" y="169.5" class="st35" width="2.2" height="64.8"/>
	<rect x="359.8" y="190.8" class="st35" width="2.2" height="43.6"/>
	<rect x="362" y="202.2" class="st35" width="2.2" height="32.2"/>
	<rect x="364.2" y="202.5" class="st35" width="2.2" height="31.9"/>
	<rect x="366.4" y="208.1" class="st35" width="2.2" height="26.3"/>
	<rect x="368.6" y="218.5" class="st35" width="2.2" height="15.8"/>
	<rect x="370.8" y="197.2" class="st35" width="2.2" height="37.2"/>
	<rect x="373" y="200.8" class="st35" width="2.2" height="33.6"/>
	<rect x="375.2" y="203.1" class="st35" width="2.2" height="31.3"/>
	<rect x="377.4" y="174.6" class="st35" width="2.2" height="59.8"/>
	<rect x="379.5" y="183.2" class="st35" width="2.2" height="51.2"/>
	<rect x="381.7" y="196.3" class="st35" width="2.2" height="38.1"/>
	<rect x="383.9" y="205.6" class="st35" width="2.2" height="28.8"/>
	<rect x="386.1" y="203.9" class="st35" width="2.2" height="30.4"/>
	<rect x="388.3" y="209.6" class="st35" width="2.2" height="24.8"/>
	<rect x="390.5" y="222.6" class="st35" width="2.2" height="11.8"/>
	<rect x="392.7" y="219.1" class="st35" width="2.2" height="15.3"/>
	<rect x="394.9" y="220.4" class="st35" width="2.2" height="13.9"/>
	<rect x="397.1" y="226.8" class="st35" width="2.2" height="7.5"/>
	<rect x="399.3" y="222.2" class="st35" width="2.2" height="12.2"/>
	<rect x="401.5" y="227" class="st35" width="2.2" height="7.4"/>
	<rect x="403.7" y="214" class="st35" width="2.2" height="20.4"/>
	<rect x="405.9" y="206.1" class="st35" width="2.2" height="28.2"/>
	<rect x="408.1" y="220.6" class="st35" width="2.2" height="13.8"/>
	<rect x="410.3" y="224.7" class="st35" width="2.2" height="9.6"/>
	<rect x="412.4" y="210.9" class="st35" width="2.2" height="23.4"/>
	<rect x="414.6" y="227.2" class="st35" width="2.2" height="7.2"/>
	<rect x="416.8" y="223" class="st35" width="2.2" height="11.4"/>
	<rect x="419" y="233.1" class="st35" width="2.2" height="1.3"/>
	<rect x="421.2" y="223.5" class="st35" width="2.2" height="10.9"/>
	<rect x="423.4" y="213.6" class="st35" width="2.2" height="20.8"/>
	<rect x="425.6" y="219.7" class="st35" width="2.2" height="14.6"/>
	<rect x="427.8" y="214.9" class="st35" width="2.2" height="19.5"/>
	<rect x="430" y="192.8" class="st35" width="2.2" height="41.6"/>
	<rect x="432.2" y="190.9" class="st35" width="2.2" height="43.5"/>
	<rect x="434.4" y="188.3" class="st35" width="2.2" height="46"/>
	<rect x="436.6" y="198.2" class="st35" width="2.2" height="36.1"/>
	<rect x="438.8" y="218.4" class="st35" width="2.2" height="15.9"/>
	<rect x="441" y="221.5" class="st35" width="2.2" height="12.9"/>
	<rect x="443.2" y="218.7" class="st35" width="2.2" height="15.7"/>
	<rect x="445.3" y="219.1" class="st35" width="2.2" height="15.3"/>
	<rect x="447.5" y="229.1" class="st35" width="2.2" height="5.3"/>
	<rect x="449.7" y="225.3" class="st35" width="2.2" height="9.1"/>
	<rect x="451.9" y="225.5" class="st35" width="2.2" height="8.9"/>
	<rect x="454.1" y="218.5" class="st35" width="2.2" height="15.8"/>
	<rect x="456.3" y="210.8" class="st35" width="2.2" height="23.6"/>
	<rect x="458.5" y="225.5" class="st35" width="2.2" height="8.9"/>
	<rect x="460.7" y="217.9" class="st35" width="2.2" height="16.5"/>
	<rect x="462.9" y="227.5" class="st35" width="2.2" height="6.9"/>
	<rect x="465.1" y="222.1" class="st35" width="2.2" height="12.3"/>
	<rect x="467.3" y="231.3" class="st35" width="2.2" height="3.1"/>
	<rect x="469.5" y="227.1" class="st35" width="2.2" height="7.3"/>
	<rect x="471.7" y="217.6" class="st35" width="2.2" height="16.8"/>
	<rect x="473.9" y="224.9" class="st35" width="2.2" height="9.4"/>
	<rect x="476.1" y="219.5" class="st35" width="2.2" height="14.9"/>
	<rect x="478.3" y="226" class="st35" width="2.2" height="8.4"/>
	<rect x="480.4" y="226.6" class="st35" width="2.2" height="7.8"/>
	<rect x="482.6" y="216.7" class="st35" width="2.2" height="17.7"/>
	<rect x="484.8" y="230.1" class="st35" width="2.2" height="4.3"/>
	<rect x="487" y="228.8" class="st35" width="2.2" height="5.6"/>
	<rect x="489.2" y="233.4" class="st35" width="2.2" height="1"/>
	<rect x="491.4" y="220.8" class="st35" width="2.2" height="13.6"/>
	<rect x="493.6" y="231.1" class="st35" width="2.2" height="3.3"/>
	<rect x="495.8" y="226.5" class="st35" width="2.2" height="7.9"/>
	<rect x="498" y="225.3" class="st35" width="2.2" height="9.1"/>
	<rect x="500.2" y="230.3" class="st35" width="2.2" height="4.1"/>
	<rect x="502.4" y="226.3" class="st35" width="2.2" height="8"/>
	<rect x="504.6" y="225.2" class="st35" width="2.2" height="9.1"/>
	<rect x="506.8" y="222.1" class="st35" width="2.2" height="12.3"/>
	<rect x="509" y="233.5" class="st35" width="2.2" height="0.9"/>
	<rect x="511.2" y="229.5" class="st35" width="2.2" height="4.9"/>
	<rect x="513.3" y="226" class="st35" width="2.2" height="8.4"/>
	<rect x="515.5" y="228.6" class="st35" width="2.2" height="5.8"/>
	<rect x="517.7" y="230.3" class="st35" width="2.2" height="4.1"/>
	<rect x="519.9" y="226.2" class="st35" width="2.2" height="8.1"/>
	<rect x="522.1" y="226.5" class="st35" width="2.2" height="7.8"/>
	<rect x="524.3" y="229.3" class="st35" width="2.2" height="5.1"/>
	<rect x="526.5" y="226.8" class="st35" width="2.2" height="7.6"/>
	<rect x="528.7" y="224" class="st35" width="2.2" height="10.4"/>
	<rect x="530.9" y="229.2" class="st35" width="2.2" height="5.1"/>
	<rect x="533.1" y="229" class="st35" width="2.2" height="5.4"/>
	<rect x="535.3" y="226.3" class="st35" width="2.2" height="8.1"/>
	<rect x="537.5" y="229" class="st35" width="2.2" height="5.4"/>
	<rect x="539.7" y="229.2" class="st35" width="2.2" height="5.2"/>
	<rect x="541.9" y="224.8" class="st35" width="2.2" height="9.6"/>
	<rect x="544.1" y="228.4" class="st35" width="2.2" height="6"/>
	<rect x="546.2" y="225.3" class="st35" width="2.2" height="9.1"/>
	<rect x="548.4" y="234.1" class="st35" width="2.2" height="0.3"/>
</g>
<text transform="matrix(1 0 0 1 327.7969 255.6641)"><tspan x="0" y="0" class="st13 st14 st15 st36">0</tspan><tspan x="52.4" y="0" class="st13 st14 st15">2</tspan><tspan x="57.2" y="0" class="st13 st14 st15 st37">5</tspan><tspan x="107.3" y="0" class="st13 st14 st15">50</tspan></text>
<text transform="matrix(1 0 0 1 489.8984 255.6641)"><tspan x="0" y="0" class="st13 st14 st15">7</tspan><tspan x="4.8" y="0" class="st13 st14 st15 st38">5</tspan><tspan x="52.4" y="0" class="st13 st14 st15">100</tspan></text>
<text transform="matrix(1 0 0 1 399.289 274.3179)" class="st13 st14 st19">Frequency (Hz)</text>
<text transform="matrix(0 -1 1 0 309.2383 164.2061)" class="st13 st14 st39">Intensity</text>
<text transform="matrix(1 0 0 1 320.3242 26.75)" class="st13 st21 st22">Fourier Transform</text>
</svg>
