<?xml version="1.0" encoding="UTF-8" standalone="yes"?><svg xmlns="http://www.w3.org/2000/svg" xmlns:xlink="http://www.w3.org/1999/xlink" width="297.000mm" height="210.000mm" viewBox="0.000000 0.000000 297.000000 210.000000" stroke-linejoin="round" stroke-linecap="round" fill="none" fill-rule="evenodd"><desc>Composer Export</desc><script type="text/ecmascript"><![CDATA[
if(typeof(top) != "undefined")
{
	top.ShowPaper = ShowPaper;
}
function ShowHotSpot(evt,hotspotid)
{
	var svgDocument = evt.target.ownerDocument;
	var strId = "hotspot."+hotspotid;
	var hotspot = svgDocument.getElementById(strId);
	if(hotspot)
		hotspot.setAttribute("opacity",".5");
}
function HideHotSpot(evt,hotspotid)
{
	var svgDocument = evt.target.ownerDocument;
	var strId = "hotspot."+hotspotid;
	var hotspot = svgDocument.getElementById(strId);
	if(hotspot)
		hotspot.setAttribute("opacity","0");

	var toolTip = svgDocument.getElementById('ToolTip');
	if(toolTip)
		toolTip.setAttribute("visibility","hidden");
}
function ShowToolTip(evt,hotspotid,strTooltip)
{
	if(strTooltip=="")
	return;

	// change text
	var svgDocument = evt.target.ownerDocument;
	var tiptext = svgDocument.getElementById('ToolTipText');
	if( !tiptext )
	return;
	tiptext.firstChild.nodeValue = " " + strTooltip + "  " ;

	// show tooltip before, else some refresh issue

	var toolTip = svgDocument.getElementById('ToolTip');
	if(!toolTip)
	return;

	toolTip.setAttribute("visibility","visible");
	toolTip.setAttribute("opacity",".95");

	// move tooltip
	// get viewbox

	var root = svgDocument.documentElement;
	var vbox = (root.getAttribute("viewBox")).split(' ');
	var x0 = parseFloat(vbox[0]);
	var y0 = parseFloat(vbox[1]);
	var vboxW = parseFloat(vbox[2]);
	var vboxH = parseFloat(vbox[3]);

	// get default width of svg

	var strW = root.getAttribute("width");
	var svgW = parseFloat(strW);
	if(strW.indexOf('mm') != -1)
	svgW *= 3.779;

	var strH = root.getAttribute("height");
	var svgH = parseFloat(strH);
	if(strH.indexOf('mm') != -1)
	svgH *= 3.779;  	// 96 dpi  -> 96/25.4 = 3.779

	// update the viewbox / width / height if svg is embedded in html with zoom fit all
	var realx0 = x0;
	var realy0 = y0;
	var realvboxW = vboxW;
	var realvboxH = vboxH;
	var realsvgW = svgW;
	var realsvgH = svgH;

	if ((typeof(top) == "undefined") || (typeof(top.svgctl1) != "undefined")) // embedded in html
	{
		// get window size in pxl

		svgW = window.innerWidth;
		svgH = window.innerHeight;

		// calculate real viewbox

		realsvgW = svgW;
		realsvgH = svgH;
		if((svgW / svgH) > (vboxW / vboxH))
		{
			realvboxW = (vboxH * svgW) / svgH;
			realvboxH = vboxH;
			realx0 = x0 - (realvboxW - vboxW)/2 ;
		}
		else
		{
			realvboxH = (vboxW * svgH) / svgW;
			realvboxW = vboxW;
			realy0 = y0 - (realvboxH - vboxH)/2 ;
		}
	}

	// get user zoom/pan

	var newScale = root.currentScale;
	var translation = root.currentTranslate;

	// transform pxl to user unit

	var xPos = (((evt.clientX+10- translation.x)/newScale) * realvboxW)/realsvgW  + realx0 ;
	var yPos = (((evt.clientY+5- translation.y)/newScale) * realvboxH)/ realsvgH  + realy0 ;
	var scaleForWidth = ( (1 / newScale) * realvboxH) / realsvgH;

	// move tooltip

	toolTip.setAttribute("transform", "translate(" + xPos + "," + yPos + ")" );

	// resize tooltip

	var fontsize = 12;
	tiptext.setAttribute("font-size",fontsize*scaleForWidth);
	tiptext.setAttribute("y", fontsize*scaleForWidth);
	var tipBG = svgDocument.getElementById('ToolTipBG');
	var outline = tiptext.getBBox();
	if(tipBG)
	{
		tipBG.setAttribute("stroke-width", 1*scaleForWidth);
		tipBG.setAttribute("width", Number(outline.width) );
		tipBG.setAttribute("height", Number(outline.height) + fontsize*.5*scaleForWidth );
	}
	var ToolTipShadow = svgDocument.getElementById('ToolTipShadow');
	if(ToolTipShadow)
	{
		ToolTipShadow.setAttribute("width", Number(outline.width) );
		ToolTipShadow.setAttribute("height", Number(outline.height) + fontsize*.5*scaleForWidth );
		ToolTipShadow.setAttribute("x", 3*scaleForWidth);
		ToolTipShadow.setAttribute("y", 3*scaleForWidth);
	}
}
function ShowPaper()
{
  var svgDocument = getDocument();
  var paper = svgDocument.getElementById("paperID");
  if(paper)
  {
    paper.setAttribute("transform","scale(1)");
    paper.setAttribute("opacity","1");
    paper.setAttribute("visibility","visible");
  }
  var svg = svgDocument.getRootElement();
  if(svg)
  {
    svg.setAttribute("width","307.000mm");
    svg.setAttribute("height","220.000mm");
    svg.setAttribute("viewBox","-5.000000 -5.000000 307.000000 220.000000");
  }
}
]]></script><defs/><g><g id="Actor_.0"><g style="stroke:#000000;stroke-width:0.705"><path d="M83.19,173.83L83.19,187.60L86.07,187.60L86.10,173.83"/><path d="M83.19,162.14L83.19,141.41L83.19,142.46"/><path d="M83.19,141.41L83.19,129.80L83.19,130.85"/><path d="M83.19,129.80L83.19,128.74L83.19,129.80"/><path d="M86.10,158.43L86.10,128.22L83.19,128.22L83.19,128.74"/><path d="M86.10,187.60L87.58,187.60L87.58,173.83"/><path d="M86.10,128.22L87.58,128.22L87.58,158.43"/><path d="M87.58,187.60L97.80,187.60L97.80,173.83"/><path d="M87.58,142.46L87.58,141.41L87.58,142.46"/><path d="M87.58,130.85L87.58,129.80"/><path d="M87.58,128.22L93.41,128.22L93.41,158.43"/><path d="M93.41,187.60L93.41,173.83"/><path d="M93.41,142.46L93.41,141.41"/><path d="M93.41,130.85L93.41,129.80"/><path d="M93.41,128.22L94.89,128.22L94.89,154.72"/><path d="M94.89,187.60L94.89,173.83"/><path d="M94.89,142.46L94.89,141.42L94.89,142.46"/><path d="M94.89,128.22L97.80,128.22L97.80,154.72"/></g></g><g id="Actor_.1"><g style="stroke:#000000;stroke-width:0.353"/><g style="stroke:#000000;stroke-width:0.705"><path d="M97.80,128.22L97.76,127.49L97.80,128.22L83.19,128.22L83.23,127.49"/><path d="M97.76,127.49L83.23,127.49L83.22,127.69"/><path d="M97.76,127.49L97.77,127.69"/></g></g><g id="Actor_.2"><g style="stroke:#000000;stroke-width:0.353"/><g style="stroke:#000000;stroke-width:0.705"><path d="M97.76,188.34L97.79,187.84L97.76,188.34L83.23,188.34L83.20,187.84L83.23,188.34"/><path d="M83.19,187.60L83.20,187.84L83.19,187.60L97.80,187.60L97.79,187.84L97.80,187.60"/><path d="M97.76,188.34L97.80,187.60"/></g></g><g id="Actor_.3"><g style="stroke:#000000;stroke-width:0.353"><path d="M103.58,139.92L103.46,139.91L103.23,139.81L103.05,139.64L102.93,139.42L102.89,139.18L102.93,138.93L103.05,138.72L103.23,138.55L103.46,138.45L103.71,138.43L103.95,138.49L104.16,138.63L104.31,138.82L104.39,139.06L104.40,139.18L104.39,139.30L104.31,139.54L104.16,139.73L103.95,139.87L103.71,139.93L103.58,139.92"/><path d="M104.50,139.32L104.41,139.59L104.24,139.82L104.00,139.98L103.72,140.05L103.58,140.03L103.43,140.02L103.17,139.91L102.96,139.71L102.82,139.46L102.78,139.18L102.82,138.90L102.96,138.65L103.17,138.45L103.43,138.34L103.72,138.31L104.00,138.38L104.24,138.54L104.32,138.65L104.41,138.77L104.50,139.04"/><path d="M103.90,139.57L103.88,139.58L103.76,139.63L103.61,139.64L103.46,139.60L103.41,139.58L103.33,139.52L103.24,139.40L103.19,139.26L103.18,139.18L103.19,139.10L103.24,138.96L103.33,138.84L103.41,138.78L103.46,138.75L103.61,138.72L103.76,138.73L103.88,138.78L103.90,138.79L104.01,138.89L104.08,139.03L104.11,139.18L104.08,139.33L104.01,139.46L103.90,139.57L103.65,139.18L103.41,138.78"/><path d="M103.33,139.52L103.65,139.18L103.18,139.18"/><path d="M104.08,139.03L103.65,139.18"/></g><g style="stroke:#000000;stroke-width:0.705"><path d="M103.17,139.91L103.30,139.98L103.43,140.02L103.57,140.05L103.72,140.05L103.86,140.02L104.00,139.98L104.12,139.91L104.24,139.82L104.33,139.71L104.41,139.59L104.47,139.46L104.50,139.32L104.52,139.18L104.50,139.04L104.47,138.90L104.41,138.77L104.33,138.65L104.24,138.54L104.12,138.45L104.00,138.38L103.86,138.34L103.72,138.31L103.57,138.31L103.43,138.34L103.30,138.38L103.17,138.45L103.06,138.54L102.96,138.65L102.88,138.77L102.82,138.90L102.79,139.04L102.78,139.18L102.79,139.32L102.82,139.46L102.88,139.59L102.96,139.71L103.06,139.82L103.17,139.91"/><path d="M103.58,138.68L103.65,138.64L104.11,138.91L104.11,139.45L103.65,139.72L103.18,139.45L103.18,138.91L103.63,138.65"/><path d="M103.41,139.58L103.23,139.48L103.41,139.58"/><path d="M103.58,139.68L103.63,139.71"/><path d="M103.65,139.71L103.88,139.58L103.65,139.71"/><path d="M103.88,139.58L104.09,139.46L103.88,139.58"/><path d="M104.51,139.14L104.52,139.18L104.51,139.22"/><path d="M103.88,138.78L103.65,138.65L104.09,138.90L103.88,138.78"/></g></g><g id="Actor_.4"><g style="stroke:#000000;stroke-width:0.705"><path d="M83.19,142.83L83.19,128.22"/><path d="M97.80,142.83L108.03,142.83L108.48,142.76L108.86,142.57L109.21,142.23L109.42,141.82L109.49,141.37L109.49,140.73L109.49,129.68L109.42,129.23L109.21,128.82L109.42,129.23"/><path d="M109.21,128.82L108.89,128.50L108.48,128.29L108.03,128.22L97.80,128.22"/><path d="M108.98,142.46L109.21,142.23L109.42,141.82L109.20,142.25"/></g></g><g id="Actor_.5"><g style="stroke:#000000;stroke-width:0.353"><path d="M103.58,132.61L103.46,132.60L103.23,132.50L103.05,132.34L102.93,132.12L102.89,131.87L102.93,131.63L103.05,131.41L103.23,131.24L103.46,131.14L103.71,131.12L103.95,131.18L104.16,131.32L104.31,131.51L104.39,131.75L104.40,131.87L104.39,132.00L104.31,132.23L104.16,132.43L103.95,132.56L103.71,132.62L103.58,132.61"/><path d="M104.50,132.02L104.41,132.29L104.24,132.51L104.00,132.67L103.72,132.74L103.58,132.73L103.43,132.72L103.17,132.60L102.96,132.41L102.82,132.16L102.78,131.87L102.82,131.59L102.96,131.34L103.17,131.15L103.43,131.03L103.72,131.01L104.00,131.08L104.24,131.23L104.41,131.46L104.50,131.73"/><path d="M103.90,132.26L103.88,132.28L103.76,132.32L103.61,132.34L103.46,132.30L103.41,132.28L103.33,132.21L103.24,132.09L103.19,131.95L103.18,131.87L103.19,131.80L103.24,131.65L103.33,131.53L103.41,131.47L103.46,131.45L103.61,131.41L103.76,131.42L103.88,131.47L103.90,131.48L104.01,131.59L104.08,131.72L104.11,131.87L104.08,132.02L104.01,132.16L103.90,132.26L103.65,131.87L103.41,131.47"/><path d="M103.33,132.21L103.65,131.87L103.18,131.87"/><path d="M104.08,131.72L103.65,131.87"/></g><g style="stroke:#000000;stroke-width:0.705"><path d="M104.51,131.83L104.52,131.87L104.50,132.02L104.47,132.16L104.41,132.29L104.33,132.41L104.24,132.51L104.12,132.60L104.00,132.67L103.86,132.72L103.72,132.74L103.57,132.74L103.43,132.72L103.30,132.67L103.17,132.60L103.06,132.51L102.96,132.41L102.88,132.29L102.82,132.16L102.79,132.02L102.78,131.87L102.79,131.73L102.82,131.59L102.88,131.46L102.96,131.34L103.06,131.23L103.17,131.15L103.30,131.08L103.43,131.03L103.57,131.01L103.72,131.01L103.86,131.03L104.00,131.08L104.12,131.15L104.24,131.23L104.33,131.34L104.41,131.46L104.47,131.59L104.50,131.73L104.52,131.87L104.51,131.91"/><path d="M103.18,132.14L103.65,132.41L104.11,132.14L104.11,131.61L103.65,131.34L103.18,131.61L103.18,132.14"/><path d="M103.58,132.37L103.63,132.40"/><path d="M103.41,132.28L103.23,132.17L103.41,132.28"/><path d="M103.41,131.47L103.58,131.38L103.23,131.58L103.41,131.47"/><path d="M103.88,132.27L104.09,132.15L103.88,132.27"/><path d="M103.88,132.28L103.65,132.40L103.88,132.28"/><path d="M103.58,131.38L103.63,131.35"/><path d="M103.80,131.43L103.65,131.34L103.88,131.47L103.80,131.43"/><path d="M103.88,131.47L104.09,131.59L103.88,131.47"/></g></g><g id="Actor_.6"><g style="stroke:#000000;stroke-width:0.705"><path d="M134.68,97.64L120.15,55.45L129.82,52.12L144.35,94.32"/><path d="M137.44,96.70L122.91,54.50"/><path d="M134.18,82.70L134.23,82.84L124.31,54.02"/><path d="M129.82,52.12L131.21,51.64L145.74,93.84"/><path d="M131.21,51.64L133.97,50.69L146.91,88.28L146.67,87.59"/><path d="M134.23,82.84L138.84,96.22"/><path d="M156.87,160.57L157.35,160.40L156.43,160.72L156.87,160.57L156.43,160.72L156.29,160.40L139.70,112.21"/><path d="M157.35,160.40L159.16,159.78L142.45,111.26"/><path d="M142.68,75.98L142.31,74.92"/><path d="M145.18,114.64L160.56,159.30L157.87,160.22"/><path d="M146.91,88.28L160.48,127.69L160.12,126.63"/><path d="M150.68,130.62L150.76,130.85L150.40,129.80L150.68,130.62"/><path d="M166.07,157.40L166.54,157.24L165.64,157.55L166.07,157.40L150.69,112.74"/><path d="M166.54,157.24L167.46,156.92L150.76,108.40"/><path d="M154.76,142.46L154.40,141.41"/><path d="M156.43,160.72L157.31,160.42"/><path d="M157.03,160.51L157.15,160.47L157.03,160.51"/><path d="M157.29,160.42L157.04,160.51"/><path d="M156.95,160.54L157.07,160.50"/><path d="M156.96,160.53L156.98,160.53"/><path d="M157.76,160.26L158.20,160.11L157.43,160.37"/><path d="M157.48,160.35L158.07,160.15L157.86,160.23"/><path d="M157.97,160.19L157.56,160.33L157.70,160.28"/><path d="M158.46,160.02L158.41,160.04"/><path d="M157.56,160.33L158.02,160.17"/><path d="M157.91,160.21L157.84,160.23"/><path d="M157.60,160.32L157.81,160.24"/><path d="M158.62,159.96L159.60,159.63"/><path d="M160.56,159.30L160.46,159.33"/><path d="M160.65,159.26L160.99,159.15L160.65,159.26L160.82,159.21"/><path d="M160.48,127.69L161.57,130.85L160.85,128.74"/><path d="M161.57,130.85L170.22,155.97L168.72,156.49"/><path d="M165.57,142.46L164.88,140.47L165.21,141.41"/><path d="M167.00,157.08L167.26,156.99"/><path d="M167.46,156.92L168.66,156.51"/><path d="M168.73,156.48L168.71,156.49"/><path d="M168.77,156.47L168.44,156.58"/><path d="M168.64,156.51L168.62,156.52"/><path d="M168.88,156.43L168.95,156.41"/><path d="M168.55,156.54L168.49,156.57"/><path d="M169.49,156.22L170.15,155.99L169.78,156.12"/><path d="M169.37,156.26L169.26,156.30"/><path d="M169.61,156.18L169.79,156.12"/><path d="M169.87,156.09L169.80,156.11"/><path d="M170.00,156.04L169.74,156.14"/></g></g><g id="Actor_.7"><g style="stroke:#000000;stroke-width:0.353"/><g style="stroke:#000000;stroke-width:0.705"><path d="M126.50,53.26L120.15,55.45L119.95,54.74L121.65,54.16L119.95,54.74"/><path d="M120.57,54.53L120.49,54.56L121.55,54.19L120.49,54.56L121.55,54.19L120.57,54.53"/><path d="M122.30,53.93L121.55,54.19L123.37,53.57"/><path d="M121.55,54.19L122.60,53.83L121.55,54.19"/><path d="M122.60,53.83L122.64,53.82L122.60,53.83"/><path d="M122.64,53.82L124.72,53.10L123.66,53.47"/><path d="M125.70,52.76L125.78,52.74L124.72,53.10L125.70,52.76L124.72,53.10L125.70,52.76L124.72,53.10L125.19,52.94"/><path d="M125.71,52.76L125.77,52.74"/><path d="M125.74,52.75L125.71,52.76"/><path d="M125.76,52.74L125.76,52.74"/><path d="M125.73,52.76L125.78,52.74L125.74,52.75"/><path d="M126.30,52.56L126.27,52.57L126.83,52.37L125.78,52.74L126.05,52.64"/><path d="M126.49,52.49L125.78,52.74L126.49,52.49L126.46,52.50"/><path d="M126.46,52.50L126.43,52.51"/><path d="M126.42,52.52L126.25,52.57"/><path d="M125.80,52.73L125.82,52.72L125.78,52.74L126.07,52.64"/><path d="M125.82,52.72L125.79,52.73"/><path d="M126.48,52.50L126.40,52.52"/><path d="M126.40,52.52L127.89,52.01L126.74,52.41"/><path d="M126.42,52.52L125.78,52.74"/><path d="M126.35,52.54L126.37,52.53"/><path d="M126.27,52.57L126.27,52.57"/><path d="M126.02,52.65L125.99,52.67"/><path d="M125.93,52.68L125.81,52.73"/><path d="M126.00,52.66L126.83,52.37L126.41,52.52"/><path d="M126.41,52.52L126.99,52.32L126.83,52.37L126.86,52.36"/><path d="M127.07,52.29L126.83,52.37L126.87,52.36"/><path d="M126.83,52.37L126.84,52.37"/><path d="M127.80,52.04L127.89,52.01L127.86,52.02"/><path d="M127.85,52.02L127.89,52.01L127.69,52.08"/><path d="M126.87,52.36L127.08,52.29"/><path d="M127.00,52.32L126.95,52.34"/><path d="M126.99,52.32L127.08,52.29"/><path d="M127.89,52.01L128.77,51.71L127.89,52.01L128.50,51.80L128.25,51.89"/><path d="M127.89,52.01L128.95,51.65L128.77,51.71"/><path d="M129.82,52.12L131.01,51.71L130.45,51.90"/><path d="M129.95,51.30L130.00,51.28L128.95,51.65L130.00,51.28L129.66,51.40"/><path d="M130.00,51.28L133.17,50.19L132.12,50.55"/><path d="M131.01,51.71L131.21,51.64"/><path d="M132.12,50.55L133.70,50.01L133.97,50.69"/><path d="M133.17,50.19L133.70,50.01"/></g></g><g id="Actor_.8"><g style="stroke:#000000;stroke-width:0.353"><path d="M161.15,158.82L161.36,158.36L162.06,157.63L162.95,157.16L163.95,157.01L164.95,157.19L165.83,157.68L166.50,158.44L166.89,159.37L166.96,160.37L166.70,161.35L166.13,162.19L165.33,162.80L164.37,163.11L163.36,163.09L162.41,162.75L161.62,162.12L161.08,161.27L160.85,160.28L160.89,159.78"/><path d="M161.42,161.46L161.25,161.19L161.03,160.27L161.12,159.33L161.52,158.46L162.17,157.77L163.01,157.33L163.95,157.19L164.88,157.36L165.71,157.83L166.34,158.53L166.71,159.41L166.78,160.36L166.53,161.27L166.00,162.06L165.24,162.63L164.34,162.93L163.39,162.91L162.50,162.59L161.76,162.00L161.42,161.46"/></g><g style="stroke:#000000;stroke-width:0.705"><path d="M161.18,161.46L161.31,161.71L161.62,162.12L161.99,162.47L162.41,162.75L162.87,162.96L163.36,163.09L163.86,163.14L164.37,163.11L164.86,162.99L165.33,162.80L165.76,162.52L166.13,162.19L166.45,161.79L166.70,161.35L166.87,160.87L166.96,160.37L166.97,159.87L166.89,159.37L166.74,158.88L166.50,158.44L166.20,158.03L165.83,157.68L165.41,157.40L164.95,157.19L164.46,157.06L163.95,157.01L163.45,157.04L162.95,157.16L162.49,157.35L162.06,157.63L161.68,157.96L161.42,158.29L161.36,158.36L161.12,158.80L160.94,159.28L160.85,159.78L160.85,160.28L160.92,160.78L161.08,161.27L161.18,161.46"/><path d="M160.89,159.78L160.94,159.28L161.01,159.14"/><path d="M161.15,158.82L160.94,159.28L160.94,159.35"/><path d="M163.20,160.74L163.29,160.84L163.07,160.60L162.99,160.40L163.01,160.45"/><path d="M162.99,160.40L162.95,160.30L162.93,159.98L163.01,159.67L163.19,159.40L163.01,159.67L162.96,159.87"/><path d="M163.33,160.87L163.29,160.84L163.57,161.00L163.33,160.87"/><path d="M164.06,161.04L164.21,161.01L164.50,160.86L164.21,161.01L163.89,161.06L163.57,161.00L163.76,161.04"/><path d="M163.19,159.40L163.45,159.20L163.26,159.35"/><path d="M162.95,160.30L162.93,160.04"/><path d="M163.45,159.20L163.76,159.10L163.53,159.18"/><path d="M163.76,159.10L164.08,159.11L164.39,159.21L164.64,159.42L164.82,159.69L164.89,160.01L164.86,160.33L164.72,160.63L164.50,160.86L164.72,160.63L164.80,160.47"/><path d="M164.64,159.42L164.82,159.69L164.86,159.89"/><path d="M164.87,160.22L164.88,160.09"/><path d="M163.83,159.10L163.84,159.10"/><path d="M164.39,159.21L164.30,159.18"/></g></g><g id="Actor_.9"><g style="stroke:#000000;stroke-width:0.353"><path d="M163.33,163.09L162.05,163.53"/></g><g style="stroke:#000000;stroke-width:0.705"><path d="M162.19,163.58L162.22,163.57L162.16,163.59L162.05,163.53L161.77,162.74L161.94,162.68L161.83,162.72L161.88,162.71"/><path d="M162.31,163.54L162.73,163.39L162.16,163.59L162.18,163.58"/><path d="M162.46,163.49L162.22,163.57L162.23,163.56"/><path d="M162.28,163.55L162.22,163.57L162.54,163.46L162.38,163.51"/><path d="M161.82,162.73L161.94,162.68L161.80,162.73"/><path d="M162.02,162.66L161.83,162.72"/><path d="M162.15,162.61L162.18,162.60L162.03,162.65L162.03,162.65"/><path d="M162.18,162.60L161.79,162.74L161.98,162.67L161.94,162.68"/><path d="M162.32,163.54L162.25,163.56L162.73,163.39L162.67,163.41"/><path d="M162.54,163.46L162.54,163.46"/><path d="M162.73,163.39L162.82,163.36"/><path d="M162.63,163.43L162.51,163.47"/><path d="M162.73,163.39L163.00,163.30L162.95,163.32"/><path d="M162.77,163.38L162.82,163.36"/><path d="M162.83,163.36L162.83,163.36"/><path d="M163.00,163.30L163.30,163.20L163.35,163.09"/><path d="M162.77,163.38L163.01,163.30"/><path d="M163.23,163.22L163.11,163.26L163.19,163.24"/><path d="M163.29,163.20L163.27,163.21"/><path d="M163.28,163.20L163.11,163.26L163.15,163.25"/><path d="M162.92,163.33L162.92,163.33"/><path d="M163.03,163.29L163.11,163.26"/></g></g><g id="Actor_.10"><g style="stroke:#000000;stroke-width:0.353"><path d="M169.90,161.05L171.54,160.48"/></g><g style="stroke:#000000;stroke-width:0.705"><path d="M170.06,161.12L170.17,161.08L170.05,161.12L169.90,161.05L169.55,160.06"/><path d="M170.16,161.08L170.12,161.09"/><path d="M169.58,160.05L169.61,160.04"/><path d="M170.95,160.81L171.18,160.73"/><path d="M171.15,160.74L170.48,160.97L170.63,160.92"/><path d="M171.16,160.74L170.77,160.87"/><path d="M170.94,160.81L170.87,160.84L171.07,160.77"/><path d="M170.87,160.84L170.39,161.00"/><path d="M170.76,160.87L171.22,160.71L171.12,160.75L171.13,160.75"/><path d="M170.38,161.00L170.48,160.97L170.36,161.01"/><path d="M170.87,160.84L171.12,160.75L170.17,161.08L170.26,161.04"/><path d="M170.34,161.02L170.17,161.08L170.38,161.00"/><path d="M170.27,161.04L170.38,161.00"/><path d="M170.68,160.90L170.67,160.91"/><path d="M171.19,159.50L171.54,160.48L171.46,160.63L171.22,160.71L171.30,160.69"/><path d="M171.21,160.72L171.12,160.75"/><path d="M171.10,159.53L171.09,159.53"/></g></g><g id="Actor_.11"><g style="stroke:#000000;stroke-width:0.353"><path d="M161.45,161.90L161.49,161.96L161.53,162.00"/><path d="M160.99,161.01L161.01,161.07L161.03,161.12"/><path d="M160.85,160.01L160.84,160.08L160.85,160.13"/><path d="M160.99,159.14L161.00,159.08L161.04,159.02"/><path d="M161.53,158.15L161.48,158.19L161.46,158.24"/><path d="M162.28,162.67L162.23,162.65L162.18,162.60"/><path d="M162.19,157.55L162.23,157.51L162.29,157.48"/><path d="M163.09,163.02L163.16,163.05L163.21,163.06"/><path d="M163.10,157.12L163.15,157.10L163.22,157.10"/><path d="M164.10,163.13L164.16,163.13L164.22,163.12"/><path d="M164.22,157.03L164.16,157.02L164.10,157.02"/><path d="M165.08,162.90L165.14,162.88L165.19,162.85"/><path d="M165.93,162.37L165.99,162.33L166.02,162.29"/><path d="M165.08,157.25L165.14,157.26L165.19,157.30"/><path d="M166.02,157.87L165.98,157.82L165.94,157.78"/><path d="M166.57,161.59L166.61,161.53L166.63,161.48"/><path d="M166.91,160.64L166.93,160.58L166.93,160.52"/><path d="M166.93,159.57L166.93,159.63"/><path d="M166.60,158.61L166.57,158.57"/></g><g style="stroke:#000000;stroke-width:0.705"><path d="M161.56,162.04L161.49,161.96L161.40,161.84"/><path d="M161.27,161.62L161.21,161.54L161.15,161.40"/><path d="M160.87,160.43L160.88,160.58L160.91,160.68"/><path d="M160.97,160.93L161.01,161.07L161.05,161.17"/><path d="M160.85,159.93L160.84,160.08L160.85,160.18"/><path d="M160.87,159.68L160.88,159.57L160.92,159.43"/><path d="M161.06,158.94L161.00,159.08L160.98,159.18"/><path d="M161.17,158.71L161.21,158.62L161.29,158.49"/><path d="M161.59,158.08L161.48,158.19L161.43,158.28"/><path d="M162.77,162.92L162.68,162.89L162.54,162.81"/><path d="M162.32,162.69L162.23,162.65L162.11,162.55"/><path d="M161.73,162.22L161.83,162.33L161.91,162.40"/><path d="M161.95,157.73L161.83,157.82L161.76,157.89"/><path d="M162.15,157.57L162.23,157.51L162.36,157.44"/><path d="M162.81,157.22L162.67,157.27L162.58,157.32"/><path d="M163.76,163.13L163.66,163.13L163.51,163.11"/><path d="M163.26,163.07L163.16,163.05L163.01,163.00"/><path d="M163.30,157.08L163.15,157.10L163.05,157.13"/><path d="M163.80,157.02L163.65,157.02L163.55,157.03"/><path d="M164.51,163.07L164.66,163.05L164.76,163.02"/><path d="M164.26,163.12L164.16,163.13L164.01,163.13"/><path d="M164.56,157.08L164.66,157.10L164.80,157.15"/><path d="M164.05,157.02L164.16,157.02L164.31,157.04"/><path d="M165.46,162.71L165.59,162.64L165.67,162.58"/><path d="M165.00,162.93L165.14,162.88L165.23,162.84"/><path d="M166.06,162.26L165.99,162.33L165.87,162.42"/><path d="M165.04,157.23L165.14,157.26L165.27,157.34"/><path d="M165.49,157.46L165.58,157.50L165.70,157.60"/><path d="M165.90,157.75L165.98,157.82L166.09,157.93"/><path d="M166.52,161.66L166.61,161.53L166.65,161.44"/><path d="M166.39,161.87L166.33,161.96L166.23,162.07"/><path d="M166.90,160.72L166.93,160.58L166.94,160.47"/><path d="M166.84,160.97L166.81,161.07L166.75,161.21"/><path d="M166.91,159.47L166.93,159.57L166.95,159.72"/><path d="M166.96,160.22L166.98,160.07L166.97,159.97"/><path d="M166.41,158.31L166.33,158.19L166.26,158.11"/><path d="M166.55,158.53L166.60,158.61L166.66,158.75"/><path d="M166.77,158.98L166.81,159.08L166.85,159.22"/></g></g><g id="Actor_.12"><g style="stroke:#000000;stroke-width:0.353"><path d="M163.83,160.82L163.59,160.76L163.38,160.62L163.24,160.42L163.16,160.18L163.17,159.93L163.25,159.70L163.41,159.51L163.62,159.38L163.86,159.32L164.11,159.35L164.34,159.46L164.51,159.63L164.63,159.85L164.65,159.97L164.66,160.09L164.61,160.34L164.49,160.55L164.30,160.72L164.07,160.81L163.83,160.82"/><path d="M164.78,160.10L164.72,160.38L164.58,160.63L164.36,160.82L164.10,160.92L163.81,160.94L163.54,160.86L163.42,160.78L163.30,160.70L163.13,160.47L163.05,160.20L163.05,159.91L163.15,159.64L163.33,159.42L163.58,159.27L163.83,159.21L163.86,159.21L164.14,159.24L164.40,159.36L164.61,159.56L164.74,159.81"/><path d="M163.64,160.46L163.73,160.51L163.78,160.52L163.93,160.54L164.08,160.50L164.19,160.44L164.21,160.42L163.91,160.08L163.45,160.14L163.46,160.21L163.53,160.35L163.64,160.46L163.91,160.08L163.62,159.71L163.55,159.78L163.47,159.91L163.44,160.06L163.45,160.14"/><path d="M163.62,159.71L163.66,159.68L163.80,159.62L163.96,159.61L164.08,159.64L164.10,159.66L164.23,159.74L164.32,159.86L164.37,160.01L164.36,160.16L164.31,160.31L164.21,160.42"/><path d="M163.91,160.08L164.32,159.86"/></g><g style="stroke:#000000;stroke-width:0.705"><path d="M163.41,160.79L163.54,160.86L163.67,160.91L163.81,160.94L163.96,160.94L164.10,160.92L164.24,160.88L164.36,160.82L164.48,160.73L164.58,160.63L164.66,160.51L164.72,160.38L164.76,160.24L164.78,160.10L164.77,159.95L164.74,159.81L164.68,159.68L164.61,159.56L164.51,159.45L164.40,159.36L164.28,159.29L164.14,159.24L164.00,159.21L163.86,159.21L163.72,159.23L163.58,159.27L163.45,159.33L163.33,159.42L163.23,159.52L163.15,159.64L163.09,159.77L163.05,159.91L163.04,160.05L163.05,160.20L163.08,160.34L163.13,160.47L163.21,160.59L163.30,160.70L163.41,160.79"/><path d="M164.33,159.75L164.08,159.64L164.33,159.75L164.40,160.28L163.98,160.61L163.48,160.40L163.73,160.51L163.48,160.40L163.41,159.87L163.83,159.54L164.33,159.75L164.35,159.87"/><path d="M163.45,160.14L163.44,160.11"/><path d="M164.19,160.44L163.98,160.61L164.19,160.44"/><path d="M164.24,160.40L164.40,160.28"/><path d="M164.74,159.81L164.77,159.95L164.77,159.99"/><path d="M164.08,159.64L163.83,159.54L164.08,159.64"/></g></g><g id="Actor_.13"><g style="stroke:#000000;stroke-width:0.705"><path d="M160.85,160.16L160.57,159.35L160.63,159.55"/><path d="M160.89,159.18L160.99,159.15L160.55,159.30L160.63,159.55"/><path d="M160.57,159.35L160.55,159.30"/><path d="M161.97,162.67L162.18,162.60L161.74,162.75L161.44,161.89"/><path d="M160.96,159.16L160.99,159.15L160.82,159.21L160.99,159.15"/><path d="M160.77,159.22L160.89,159.18L160.73,159.24L160.77,159.22"/><path d="M160.86,159.19L160.85,159.20L160.94,159.16L160.86,159.19"/><path d="M160.73,159.24L160.89,159.18L160.73,159.24"/><path d="M160.92,159.17L160.89,159.18"/><path d="M160.87,159.19L160.92,159.17L160.73,159.24"/><path d="M160.96,159.16L160.99,159.15L160.89,159.18"/><path d="M160.89,159.18L160.89,159.18"/><path d="M160.92,159.17L160.94,159.16"/><path d="M161.91,162.69L161.94,162.69L161.91,162.69"/><path d="M162.00,162.66L161.86,162.71L161.94,162.68L161.91,162.69"/><path d="M165.88,157.47L165.94,157.44L165.64,157.55L165.88,157.47"/><path d="M165.94,157.44L166.54,157.24L165.64,157.55L167.00,157.08L165.64,157.55L165.94,157.44L165.64,157.55L165.94,157.44L165.83,157.48"/><path d="M166.83,161.00L168.57,160.40L166.83,161.00"/><path d="M166.54,157.24L167.01,157.07"/><path d="M168.05,160.58L168.49,160.43"/><path d="M167.85,156.79L168.05,156.72L167.00,157.08L168.05,156.72L167.00,157.08L167.85,156.79"/><path d="M167.21,157.01L168.05,156.72L167.00,157.08L167.01,157.07"/><path d="M168.56,156.54L168.05,156.72L169.11,156.35L167.00,157.08L168.64,156.51L168.05,156.72L168.19,156.67"/><path d="M167.00,157.08L168.23,156.66L168.05,156.72L168.19,156.67"/><path d="M168.05,156.72L168.78,156.47L168.05,156.72L168.63,156.52"/><path d="M168.97,160.26L168.05,160.58L168.49,160.43"/><path d="M168.57,160.40L169.55,160.06L168.57,160.40"/><path d="M168.91,156.42L168.78,156.47L170.22,155.97L171.41,159.42L168.57,160.40L169.07,160.23"/><path d="M168.42,160.45L168.05,160.58"/><path d="M168.23,156.66L168.63,156.52"/><path d="M168.77,156.47L168.67,156.50"/><path d="M168.62,156.52L168.64,156.51"/><path d="M169.55,160.06L169.11,160.22L169.55,160.06"/><path d="M169.84,159.96L169.11,160.22L169.77,159.99"/><path d="M169.52,156.21L169.11,156.35L169.60,156.18L169.52,156.21"/><path d="M169.45,156.23L169.61,156.18L169.28,156.29"/><path d="M169.82,156.11L169.73,156.14L170.17,155.99L169.82,156.11"/><path d="M170.16,155.99L169.61,156.18L169.71,156.14"/><path d="M169.61,156.18L170.17,155.99L169.75,156.13"/><path d="M169.81,156.11L170.17,155.99L169.78,156.12L169.81,156.11"/><path d="M169.99,156.05L170.17,155.99L169.73,156.14L170.17,155.99"/><path d="M169.72,156.14L169.75,156.13"/><path d="M170.07,156.02L169.74,156.13L170.07,156.02"/><path d="M169.89,156.08L170.17,155.99L169.99,156.05"/><path d="M170.17,155.99L169.74,156.13"/><path d="M169.61,156.18L169.61,156.18"/><path d="M169.89,156.08L170.17,155.99L169.75,156.13"/><path d="M170.22,155.97L169.73,156.14"/><path d="M171.20,159.50L171.19,159.50"/><path d="M171.20,159.50L171.19,159.50"/><path d="M170.84,159.62L170.72,159.66"/><path d="M171.09,159.53L170.96,159.58"/><path d="M171.05,159.55L171.04,159.55"/><path d="M170.22,155.97L170.17,155.99"/></g></g><g id="Actor_.14"><g style="stroke:#000000;stroke-width:0.353"><path d="M132.23,100.27L132.29,100.23L132.36,100.14L132.47,99.87L132.51,99.59L132.50,99.48L132.47,99.40"/><path d="M139.39,102.31L139.46,102.42"/><path d="M139.12,102.77L139.04,102.64"/><path d="M138.96,102.53L138.92,102.43L139.08,101.71L139.31,101.02L139.40,100.96"/><path d="M138.93,102.44L139.02,102.62"/><path d="M139.68,100.85L139.87,100.79L140.27,100.80L140.64,100.93L140.95,101.19L141.16,101.52L141.24,101.91L141.20,102.31L141.03,102.67L140.76,102.95L140.40,103.13L140.01,103.19L139.62,103.11L139.28,102.92L139.15,102.77"/><path d="M139.52,102.74L139.45,102.70L139.25,102.47L139.14,102.19L139.12,101.88L139.15,101.73L139.20,101.59L139.37,101.34L139.62,101.16L139.91,101.06L140.21,101.07L140.50,101.18L140.74,101.37L140.90,101.63L140.97,101.93L140.93,102.23L140.80,102.51L140.59,102.73L140.32,102.87L140.02,102.91L139.72,102.85L139.52,102.74"/><path d="M139.40,102.46L139.59,102.64L139.83,102.75L140.09,102.78L140.34,102.72L140.57,102.58L140.73,102.38L140.81,102.20L140.82,102.13L140.83,101.87L140.75,101.62L140.59,101.41L140.38,101.26L140.13,101.19L139.86,101.20L139.62,101.30L139.42,101.48L139.29,101.70L139.24,101.96L139.28,102.22L139.40,102.46"/><path d="M139.33,101.84L139.32,102.00"/><path d="M139.32,101.01L139.49,100.91"/><path d="M139.77,102.39L139.69,102.32L139.60,102.19L139.56,102.04L139.57,101.88L139.62,101.73L139.73,101.61L139.87,101.53L140.02,101.50"/><path d="M140.31,101.58L140.39,101.64L140.48,101.77L140.52,101.92L140.52,102.08L140.46,102.23L140.35,102.35L140.22,102.44L140.06,102.47"/><path d="M139.74,102.64L139.85,102.68L139.91,102.69"/><path d="M139.71,102.62L139.94,102.70"/><path d="M140.37,101.34L140.14,101.27"/><path d="M140.44,101.38L140.40,101.36"/><path d="M140.17,101.27L140.24,101.28L140.35,101.33"/><path d="M140.35,101.31L140.12,101.24"/><path d="M139.52,100.90L139.66,100.84"/><path d="M140.76,101.97L140.75,102.12"/><path d="M140.69,101.66L140.62,101.54"/></g><g style="stroke:#000000;stroke-width:0.705"><path d="M132.23,100.27L132.03,100.41L131.80,100.48L131.45,100.45L131.23,100.35L130.99,100.11L130.89,99.90L130.86,99.62L130.87,99.47L130.96,99.25L131.13,99.03L131.32,98.90L131.66,98.82L131.90,98.85L132.21,99.01L132.37,99.18L132.47,99.40"/><path d="M132.46,99.38L139.66,100.84L139.87,100.79L140.07,100.78L140.27,100.80L140.46,100.85L140.64,100.93L140.80,101.05L140.95,101.19L141.07,101.35L141.16,101.52L141.22,101.71L141.24,101.91L141.24,102.11L141.20,102.31L141.13,102.49L141.03,102.67L140.91,102.82L140.76,102.95L140.59,103.06L140.40,103.13L140.21,103.18L140.01,103.19L139.81,103.17L139.62,103.11L139.44,103.03L139.28,102.92L139.12,102.77L132.21,100.28"/><path d="M140.75,102.12L140.67,102.35L140.52,102.53L140.31,102.66L140.20,102.69L140.08,102.71L139.85,102.68L139.63,102.58L139.46,102.42"/><path d="M139.43,102.39L139.52,102.49L139.45,102.43L139.41,102.36L139.43,102.39"/><path d="M139.15,102.77L139.02,102.62L138.96,102.53"/><path d="M139.30,101.99L139.30,101.96L139.33,102.21L139.44,102.42L139.62,102.59L139.75,102.66"/><path d="M139.33,101.85L139.32,102.08L139.39,102.31"/><path d="M139.89,101.98L140.09,101.26L140.00,101.26L139.77,101.31L139.56,101.43L139.41,101.62L139.33,101.84"/><path d="M139.44,101.55L139.47,101.51L139.41,101.62L139.44,101.55"/><path d="M139.30,101.96L139.34,101.72L139.47,101.51L139.65,101.35L139.76,101.31L139.65,101.35L139.54,101.45"/><path d="M139.52,101.47L139.65,101.35L139.88,101.26L139.76,101.31"/><path d="M139.68,100.85L139.49,100.91L139.40,100.96"/><path d="M140.02,102.62L140.00,102.67L140.37,101.36"/><path d="M140.02,102.59L140.00,102.68L140.01,102.65"/><path d="M140.00,102.68L139.99,102.70"/><path d="M139.71,102.62L139.74,102.52L139.72,102.60L139.74,102.52L139.73,102.54"/><path d="M140.54,102.53L140.57,102.49L140.46,102.58L140.53,102.53"/><path d="M140.33,102.67L140.53,102.54"/><path d="M139.70,102.63L139.84,102.70L140.08,102.72L140.19,102.70L140.09,102.72L139.84,102.70"/><path d="M140.08,102.72L140.32,102.67"/><path d="M139.74,102.52L139.78,102.36L139.76,102.45"/><path d="M139.79,102.31L139.78,102.36L140.05,101.40"/><path d="M139.86,102.09L139.78,102.36L139.88,102.00"/><path d="M139.74,102.52L139.74,102.52"/><path d="M139.73,102.53L139.76,102.44L139.74,102.49"/><path d="M139.71,102.60L139.72,102.60"/><path d="M140.04,102.52L140.02,102.61"/><path d="M140.27,101.31L140.23,101.29L140.37,101.34L140.34,101.46L140.36,101.39"/><path d="M140.40,101.36L140.37,101.34"/><path d="M140.05,101.39L140.06,101.37"/><path d="M140.06,101.37L140.07,101.31"/><path d="M139.76,101.31L139.77,101.31"/><path d="M140.44,101.38L140.62,101.54"/><path d="M140.20,101.26L140.35,101.31L140.56,101.45L140.46,101.38L140.56,101.45L140.70,101.64L140.78,101.88L140.77,102.01L140.78,101.88L140.70,101.64L140.78,101.88L140.77,102.12L140.68,102.35L140.57,102.49"/><path d="M140.06,101.35L140.06,101.36"/><path d="M140.37,101.37L140.36,101.38"/><path d="M140.09,101.26L140.23,101.29"/><path d="M139.88,101.26L140.12,101.24L140.29,101.29"/><path d="M140.75,102.12L140.76,101.88L140.69,101.66"/><path d="M140.68,102.35L140.73,102.24L140.68,102.35"/></g></g><g id="Actor_.15"><g style="stroke:#000000;stroke-width:0.353"><path d="M142.90,111.10L141.70,107.59"/><path d="M150.31,108.55L149.10,105.04"/></g><g style="stroke:#000000;stroke-width:0.705"><path d="M139.52,111.68L139.70,112.21L141.63,111.54L139.70,112.21L138.49,108.70L139.52,108.34L138.49,108.70"/><path d="M138.50,108.69L143.74,106.89L143.52,106.96"/><path d="M138.95,108.54L138.54,108.68L139.52,108.34L138.50,108.69L139.52,108.34L138.54,108.68L139.52,108.34L138.95,108.54L139.52,108.34L139.14,108.47"/><path d="M139.14,108.47L139.52,108.34L138.54,108.68L139.52,108.34L138.95,108.54"/><path d="M139.61,108.31L139.52,108.34L140.57,107.98L139.52,108.34L140.57,107.98L139.52,108.34L140.57,107.98L139.52,108.34L140.57,107.98L139.52,108.34L140.57,107.98L139.52,108.34L140.57,107.98L139.80,108.25"/><path d="M140.23,108.10L139.52,108.34L140.57,107.98L139.52,108.34L140.31,108.07"/><path d="M139.52,108.34L140.57,107.98L139.52,108.34"/><path d="M139.15,108.47L139.43,108.38"/><path d="M140.57,111.91L140.71,111.86L140.57,111.91L140.71,111.86L140.57,111.91L140.71,111.86L140.62,111.89"/><path d="M142.59,111.21L140.71,111.86L152.97,107.64L150.05,108.64"/><path d="M140.71,111.86L143.16,111.01"/><path d="M140.67,107.95L140.57,107.98L141.57,107.64L140.57,107.98L141.57,107.64L140.57,107.98L141.52,107.66L140.57,107.98L141.48,107.67L141.42,107.69"/><path d="M141.52,107.66L141.57,107.64L140.57,107.98L141.57,107.64L140.57,107.98L141.16,107.78"/><path d="M141.48,107.67L141.57,107.64L140.57,107.98L141.18,107.77"/><path d="M141.50,107.66L140.57,107.98L141.57,107.64L140.57,107.98L141.57,107.64L140.57,107.98L140.87,107.88"/><path d="M141.55,107.64L141.54,107.65"/><path d="M141.57,107.64L141.63,107.62L141.57,107.64"/><path d="M142.25,107.40L140.57,107.98"/><path d="M142.39,107.35L141.63,107.62L142.69,107.25L141.63,107.62L142.69,107.25L141.63,107.62L141.73,107.58"/><path d="M142.26,107.40L142.69,107.25L141.63,107.62L142.26,107.40L142.04,107.47L142.12,107.45"/><path d="M141.63,107.62L142.03,107.48"/><path d="M141.63,107.62L143.74,106.89L141.63,107.62L141.82,107.55"/><path d="M141.63,111.54L142.72,111.17"/><path d="M142.17,107.43L142.69,107.25L142.12,107.45L142.30,107.39"/><path d="M141.77,107.57L141.84,107.54"/><path d="M142.69,107.25L141.86,107.54"/><path d="M142.48,107.32L142.48,107.32"/><path d="M142.49,107.32L142.69,107.25L142.04,107.47"/><path d="M142.41,107.35L142.45,107.34L142.35,107.37L142.39,107.35"/><path d="M142.14,107.44L142.35,107.37L142.29,107.39"/><path d="M142.05,107.47L142.26,107.40L142.16,107.43"/><path d="M144.61,106.59L144.63,106.58L142.45,107.34"/><path d="M142.59,107.28L142.26,107.40"/><path d="M142.69,111.18L143.16,111.01"/><path d="M144.67,106.57L144.80,106.52L143.74,106.89L144.63,106.58L144.43,106.65"/><path d="M143.55,106.96L142.69,107.25L144.62,106.59L143.74,106.89L144.49,106.63"/><path d="M144.50,106.63L143.74,106.89L143.78,106.88"/><path d="M144.12,106.76L143.74,106.89L143.76,106.88"/><path d="M143.79,110.80L144.13,110.68"/><path d="M144.22,110.65L144.26,110.63"/><path d="M143.82,110.79L144.59,110.52"/><path d="M145.16,106.40L144.80,106.52L145.86,106.16L144.63,106.58L144.67,106.57"/><path d="M144.54,106.61L144.71,106.56"/><path d="M144.49,106.63L144.55,106.61"/><path d="M144.83,106.51L145.86,106.16L144.65,106.58"/><path d="M145.24,106.37L144.80,106.52L145.61,106.24"/><path d="M144.80,106.52L145.09,106.42L144.80,106.52L145.09,106.42L144.97,106.47"/><path d="M145.53,106.27L144.80,106.52L145.86,106.16L144.80,106.52L145.86,106.16L145.72,106.21"/><path d="M144.80,106.52L144.88,106.50"/><path d="M145.76,106.20L145.06,106.44"/><path d="M145.59,106.25L145.66,106.23"/><path d="M145.02,106.45L144.86,106.51"/><path d="M145.49,106.29L145.40,106.32"/><path d="M144.85,106.51L144.83,106.51"/><path d="M146.53,105.93L145.86,106.16L146.91,105.80L146.08,106.08L146.86,105.81"/><path d="M145.12,106.41L145.17,106.40"/><path d="M145.09,106.42L144.80,106.52L145.40,106.32L145.09,106.42"/><path d="M145.94,106.13L145.86,106.16L146.91,105.80L145.74,106.20"/><path d="M145.40,106.32L144.80,106.52L145.53,106.27"/><path d="M146.25,106.02L147.90,105.46"/><path d="M146.08,106.08L146.00,106.11"/><path d="M145.89,106.15L146.91,105.80L145.97,106.12"/><path d="M145.93,106.14L145.98,106.12"/><path d="M146.34,105.99L146.91,105.80L146.54,105.92"/><path d="M149.97,104.74L146.91,105.80L147.40,105.63"/><path d="M146.33,106.00L146.31,106.01"/><path d="M146.40,105.98L147.70,105.53L147.25,105.68"/><path d="M147.70,105.53L152.31,103.94L153.22,106.58L152.31,103.94L152.85,105.53"/><path d="M146.91,105.80L147.70,105.53L146.94,105.79"/><path d="M147.70,105.53L147.97,105.43L147.78,105.50"/><path d="M147.70,105.53L148.85,105.13L147.70,105.53"/><path d="M148.15,105.37L148.28,105.33L147.97,105.43L148.76,105.16L147.97,105.43L148.67,105.19L147.97,105.43L148.33,105.31"/><path d="M148.51,105.25L148.51,105.25"/><path d="M148.28,105.33L148.44,105.27L147.97,105.43L148.32,105.31"/><path d="M148.67,105.19L148.95,105.09"/><path d="M148.87,105.12L149.03,105.07L147.97,105.43"/><path d="M148.44,105.27L148.22,105.35"/><path d="M148.30,105.32L148.31,105.31"/><path d="M148.45,105.27L148.59,105.22"/><path d="M148.94,105.10L148.76,105.16"/><path d="M148.94,105.10L150.09,104.70L149.38,104.95L149.45,104.92"/><path d="M149.38,104.95L149.31,104.97"/><path d="M149.25,104.99L150.09,104.70L149.03,105.07L149.24,105.00"/><path d="M149.35,104.96L149.40,104.94"/><path d="M149.11,105.04L149.03,105.07"/><path d="M150.39,108.53L151.14,108.27L150.99,108.32"/><path d="M151.30,104.29L150.09,104.70L150.76,104.47L150.09,104.70L150.35,104.61"/><path d="M151.88,108.01L152.20,107.90L151.14,108.27L151.88,108.01"/><path d="M151.14,108.27L153.26,107.54L152.97,107.64"/><path d="M152.20,107.90L152.97,107.64L152.20,107.90"/><path d="M151.49,104.22L151.14,104.34L151.48,104.23"/><path d="M152.97,107.64L153.51,107.45L153.22,106.58L153.51,107.45"/><path d="M153.14,107.58L153.51,107.45L153.26,106.70"/></g></g><g id="Actor_.16"><g style="stroke:#000000;stroke-width:0.705"><path d="M135.27,99.35L135.29,99.40L135.22,99.20L135.27,99.35"/><path d="M135.29,99.40L135.49,100.00L134.68,97.64L137.40,96.71L136.66,96.96"/><path d="M136.75,103.64L137.40,105.53L136.07,101.67"/><path d="M137.03,104.47L136.67,103.42L137.03,104.47"/><path d="M137.40,105.53L138.12,107.64L137.76,106.58"/><path d="M136.35,102.47L136.67,103.42"/><path d="M137.40,96.71L138.46,96.34L137.40,96.71"/><path d="M138.12,107.64L138.49,108.69L141.57,107.64L141.49,107.67"/><path d="M149.84,96.78L149.95,97.09L148.50,92.89L138.46,96.34L138.91,96.19"/><path d="M141.39,107.70L140.62,107.97"/><path d="M140.57,107.98L141.57,107.64L140.57,107.98"/><path d="M141.57,107.64L141.63,107.62L141.60,107.63"/><path d="M141.64,107.61L142.69,107.25L142.35,107.37"/><path d="M143.65,106.92L142.41,107.35L142.69,107.25L142.43,107.34L142.69,107.25L142.58,107.29"/><path d="M143.64,106.93L143.74,106.89L142.69,107.25"/><path d="M143.60,106.94L144.06,106.78"/><path d="M144.49,106.63L144.63,106.58L143.74,106.89L144.04,106.78"/><path d="M144.63,106.58L147.70,105.53L147.58,105.57"/><path d="M144.96,106.47L144.99,106.46L144.90,106.49L145.15,106.40L144.80,106.52L145.37,106.33"/><path d="M144.80,106.52L144.84,106.51"/><path d="M144.99,106.46L145.04,106.44L144.97,106.47"/><path d="M145.04,106.44L145.28,106.36"/><path d="M144.84,106.51L144.92,106.48"/><path d="M145.36,106.33L145.15,106.40"/><path d="M147.89,105.46L147.97,105.43L147.70,105.53"/><path d="M148.77,105.16L147.97,105.43L148.46,105.27L148.05,105.40"/><path d="M147.97,105.43L149.03,105.07L148.46,105.27L148.61,105.21"/><path d="M148.46,105.27L148.04,105.41"/><path d="M148.31,105.32L148.31,105.32"/><path d="M148.15,105.37L148.30,105.32L148.16,105.37"/><path d="M149.05,105.06L150.09,104.70L149.13,105.03"/><path d="M149.25,104.99L149.24,105.00"/><path d="M149.32,104.97L149.34,104.96"/><path d="M149.58,96.03L149.95,97.09L149.71,96.41"/><path d="M149.95,97.09L152.31,103.94L150.09,104.70L152.20,103.98L151.14,104.34"/><path d="M151.04,100.25L150.67,99.20"/><path d="M150.60,99.00L150.09,97.49"/><path d="M152.13,103.42L151.40,101.31L151.52,101.66"/></g></g><g id="Actor_.17"><g style="stroke:#000000;stroke-width:0.705"><path d="M133.95,100.91L134.02,115.52L134.55,116.25L135.41,116.53L141.19,116.53"/><path d="M134.16,99.73L134.55,99.27L135.16,99.04"/><path d="M173.47,164.74L174.26,164.47L174.59,164.15L174.87,163.29L174.79,100.00L174.26,99.27L173.40,99.00L150.60,99.00"/><path d="M152.95,150.69L152.95,163.22L153.02,163.74L153.55,164.47L154.41,164.75L173.86,164.68"/><path d="M153.26,164.18L153.39,164.31"/><path d="M153.35,106.97L158.51,106.14L158.79,105.88L158.82,105.32L158.57,105.03L158.19,104.95L152.94,105.78"/><path d="M153.85,164.62L153.63,164.51"/><path d="M173.97,164.62L174.18,164.51"/><path d="M174.59,164.15L174.43,164.31"/></g></g><g id="Actor_.18"><g style="stroke:#000000;stroke-width:0.353"><path d="M144.21,114.05L151.09,111.68"/></g><g style="stroke:#000000;stroke-width:0.705"><path d="M147.37,115.59L147.97,115.39L146.98,115.73L144.21,114.05L143.16,111.01"/><path d="M147.93,115.40L146.98,115.73L147.67,115.49"/><path d="M146.98,115.73L147.01,115.71"/><path d="M148.00,115.38L147.97,115.39L148.01,115.37"/><path d="M147.97,115.39L148.39,115.24"/><path d="M148.22,115.30L149.02,115.03L148.90,115.07"/><path d="M149.02,115.03L149.94,114.71L151.09,111.68L150.05,108.64"/><path d="M148.73,115.12L148.17,115.32"/><path d="M149.03,115.02L149.17,114.97L149.15,114.98"/><path d="M149.92,114.72L149.94,114.71L149.17,114.97"/><path d="M149.74,114.78L149.54,114.84"/><path d="M149.70,114.79L149.29,114.93"/><path d="M149.12,114.99L149.55,114.84"/></g></g><g id="Actor_.19"><g style="stroke:#000000;stroke-width:0.353"/><g style="stroke:#000000;stroke-width:0.705"><path d="M236.85,142.20L236.85,141.41L236.85,142.83L233.94,142.83L233.94,103.45"/><path d="M238.33,57.62L238.33,31.49L233.94,31.49L233.94,57.62"/><path d="M236.85,142.83L238.33,142.83L238.33,101.85"/><path d="M236.85,142.17L236.85,142.36L236.85,142.17"/><path d="M236.85,142.46L236.85,142.03L236.85,142.37"/><path d="M236.85,142.12L236.85,140.35L236.85,141.23"/><path d="M236.85,142.08L236.85,141.98"/><path d="M236.85,141.53L236.85,141.73"/><path d="M236.85,141.39L236.85,141.20"/><path d="M236.85,141.41L236.85,141.38"/><path d="M236.85,140.35L236.85,129.80L236.85,130.85"/><path d="M236.85,128.94L236.85,129.80L236.85,128.74L236.85,129.93"/><path d="M236.85,129.80L236.85,129.56"/><path d="M236.85,102.39L236.85,129.11"/><path d="M236.85,57.62L236.85,31.49"/><path d="M238.33,142.83L244.16,142.83L244.16,141.48L244.16,142.37L244.16,142.23"/><path d="M238.33,31.49L245.64,31.49L245.64,57.62"/><path d="M244.16,142.83L245.64,142.83L245.64,99.99"/><path d="M244.16,142.04L244.16,141.72"/><path d="M244.16,142.25L244.16,142.37"/><path d="M244.16,141.98L244.16,142.08"/><path d="M244.16,141.59L244.16,140.35L244.16,141.38L244.16,141.23"/><path d="M244.16,140.35L244.16,128.78"/><path d="M244.16,141.39L244.16,141.38"/><path d="M244.16,141.20L244.16,141.41"/><path d="M244.16,129.80L244.16,128.87"/><path d="M244.16,129.93L244.16,130.85"/><path d="M244.16,129.11L244.16,128.98L244.16,129.56"/><path d="M244.16,128.68L244.16,127.69L244.16,128.68"/><path d="M244.16,128.74L244.16,99.99"/><path d="M244.16,57.62L244.16,31.49"/><path d="M245.64,142.83L248.55,142.83L248.55,31.49L245.64,31.49"/></g></g><g id="Actor_.20"><g style="stroke:#000000;stroke-width:0.705"><path d="M238.33,142.31L236.85,142.31"/><path d="M238.33,141.16L236.85,141.16"/><path d="M245.64,142.32L244.16,142.32"/><path d="M245.64,141.16L244.16,141.16"/></g></g><g id="Actor_.21"><g style="stroke:#000000;stroke-width:0.353"><path d="M227.49,125.86L225.76,125.86"/></g><g style="stroke:#000000;stroke-width:0.705"><path d="M227.49,126.08L227.49,125.86L227.38,125.75L225.88,125.75L225.76,125.86"/><path d="M225.77,126.24L225.76,125.86"/></g></g><g id="Actor_.22"><g style="stroke:#000000;stroke-width:0.705"><path d="M83.19,131.14L48.36,131.14L48.36,142.83L83.19,142.83"/><path d="M48.36,139.92L83.19,139.92"/><path d="M48.36,138.44L83.19,138.44"/><path d="M48.36,132.61L83.19,132.61"/><path d="M48.36,131.14L48.36,128.22L83.19,128.22"/><path d="M108.03,142.83L150.24,142.83"/><path d="M108.03,128.22L145.21,128.22"/><path d="M149.24,139.92L109.49,139.92"/><path d="M109.49,138.44L148.73,138.44"/><path d="M146.72,132.61L109.49,132.61"/><path d="M146.22,131.14L109.49,131.14"/><path d="M174.87,142.83L233.94,142.83L233.94,139.92L174.87,139.92"/><path d="M174.87,138.44L233.94,138.44L233.94,132.61L174.87,132.61"/><path d="M174.87,128.22L233.94,128.22L233.94,131.14L174.87,131.14"/></g></g><g id="Actor_.23"><g style="stroke:#000000;stroke-width:0.353"/><g style="stroke:#000000;stroke-width:0.705"><path d="M48.36,142.83L48.36,128.22L47.63,128.26L47.63,142.46L47.63,142.79L48.36,142.83L47.63,142.79"/><path d="M48.36,128.22L47.63,128.26L48.36,128.22"/></g></g><g id="Actor_.24"><g style="stroke:#000000;stroke-width:0.705"><path d="M238.33,129.89L236.85,129.89"/><path d="M238.33,128.74L236.85,128.74"/><path d="M245.64,129.89L244.16,129.89"/><path d="M245.64,128.74L244.16,128.74"/></g></g><g id="Actor_.25"><g style="stroke:#000000;stroke-width:0.353"><path d="M231.58,116.39L231.58,118.13"/></g><g style="stroke:#000000;stroke-width:0.705"><path d="M232.13,118.13L231.58,118.13L231.46,118.01L231.46,116.51L231.58,116.39L232.29,116.39"/><path d="M233.94,117.84L233.72,117.84"/><path d="M233.94,116.68L233.72,116.68"/></g></g><g id="Actor_.26"><g style="stroke:#000000;stroke-width:0.353"><path d="M171.22,139.93L171.03,139.91L170.80,139.81L170.62,139.64L170.50,139.42L170.46,139.18L170.50,138.93L170.62,138.72L170.80,138.55L171.03,138.45L171.28,138.43L171.52,138.49L171.72,138.63L171.88,138.82L171.96,139.06L171.97,139.18L171.96,139.30L171.88,139.54L171.72,139.73L171.52,139.87L171.28,139.93L171.22,139.93"/><path d="M172.07,139.32L171.98,139.59L171.80,139.82L171.56,139.98L171.29,140.05L171.22,140.04L171.00,140.02L170.74,139.91L170.53,139.71L170.39,139.46L170.34,139.18L170.39,138.90L170.53,138.65L170.74,138.45L171.00,138.34L171.29,138.31L171.56,138.38L171.80,138.54L171.98,138.77L172.07,139.04"/><path d="M171.17,139.64L171.03,139.60L170.98,139.58L170.90,139.52L170.81,139.40L170.76,139.26L170.75,139.18L170.76,139.10L170.81,138.96L170.90,138.84L170.98,138.78L171.03,138.75L171.17,138.72L171.33,138.73L171.45,138.78L171.47,138.79L171.58,138.89L171.65,139.03L171.68,139.18L171.65,139.33L171.58,139.46L171.47,139.57L171.45,139.58L171.33,139.63L171.17,139.64"/><path d="M170.90,139.52L171.21,139.18L171.47,139.57"/><path d="M170.98,138.78L171.21,139.18L170.75,139.18"/><path d="M171.21,139.18L171.65,139.03"/></g><g style="stroke:#000000;stroke-width:0.705"><path d="M171.22,140.05L171.14,140.05L171.00,140.02L170.86,139.98L170.74,139.91L170.62,139.82L170.53,139.71L170.45,139.59L170.39,139.46L170.36,139.32L170.34,139.18L170.36,139.04L170.39,138.90L170.45,138.77L170.53,138.65L170.62,138.54L170.74,138.45L170.86,138.38L171.00,138.34L171.14,138.31L171.29,138.31L171.43,138.34L171.56,138.38L171.69,138.45L171.80,138.54L171.90,138.65L171.98,138.77L172.04,138.90L172.07,139.04L172.08,139.18L172.07,139.32L172.04,139.46L171.98,139.59L171.90,139.71L171.80,139.82L171.69,139.91L171.56,139.98L171.43,140.02L171.29,140.05L171.22,140.05"/><path d="M171.22,139.71L171.22,139.71L171.21,139.72L170.75,139.45L170.75,138.91L171.21,138.64L171.22,138.65L171.22,138.65"/><path d="M170.98,139.58L171.20,139.71L170.98,139.58"/><path d="M170.98,139.58L170.75,139.45L170.98,139.58"/><path d="M171.22,138.65L171.68,138.91L171.68,139.45L171.22,139.71"/><path d="M170.75,139.30L170.75,138.91L170.75,139.18"/><path d="M170.98,138.78L171.20,138.65L170.75,138.91L170.98,138.78"/><path d="M172.07,139.04L172.08,139.18L172.07,139.30"/><path d="M171.68,138.91L171.68,139.30"/></g></g><g id="Actor_.27"><g style="stroke:#000000;stroke-width:0.705"><path d="M104.10,158.43L93.42,158.43L93.42,154.72L107.34,154.72L107.34,158.43L106.86,158.43"/></g></g><g id="Actor_.28"><g style="stroke:#000000;stroke-width:0.353"><path d="M171.22,132.62L171.03,132.60L170.80,132.50L170.62,132.34L170.50,132.12L170.46,131.87L170.50,131.63L170.62,131.41L170.80,131.24L171.03,131.14L171.28,131.12L171.52,131.18L171.72,131.32L171.88,131.51L171.96,131.75L171.97,131.87L171.96,132.00L171.88,132.23L171.72,132.43L171.52,132.56L171.28,132.62L171.22,132.62"/><path d="M172.07,132.02L171.98,132.29L171.80,132.51L171.56,132.67L171.29,132.74L171.14,132.73L171.00,132.72L170.74,132.60L170.53,132.41L170.39,132.16L170.34,131.87L170.39,131.59L170.53,131.34L170.74,131.14L171.00,131.03L171.29,131.01L171.56,131.08L171.80,131.23L171.98,131.46L172.07,131.73"/><path d="M171.17,132.34L171.03,132.30L170.98,132.27L170.90,132.21L170.81,132.09L170.76,131.95L170.75,131.87L170.76,131.80L170.81,131.65L170.90,131.53L170.98,131.47L171.03,131.45L171.17,131.41L171.33,131.42L171.45,131.47L171.47,131.48L171.58,131.59L171.65,131.72L171.68,131.87L171.65,132.02L171.58,132.16L171.47,132.26L171.45,132.27L171.33,132.32L171.17,132.34"/><path d="M170.90,132.21L171.21,131.87L171.47,132.26"/><path d="M170.98,131.47L171.21,131.87L170.75,131.87"/><path d="M171.21,131.87L171.65,131.72"/></g><g style="stroke:#000000;stroke-width:0.705"><path d="M170.39,132.16L170.45,132.29L170.53,132.41L170.62,132.51L170.74,132.60L170.86,132.67L171.00,132.72L171.14,132.74L171.29,132.74L171.43,132.72L171.56,132.67L171.69,132.60L171.80,132.51L171.90,132.41L171.98,132.29L172.04,132.16L172.07,132.02L172.08,131.87L172.07,131.73L172.04,131.59L171.98,131.46L171.90,131.34L171.80,131.23L171.69,131.14L171.56,131.08L171.43,131.03L171.29,131.01L171.14,131.01L171.00,131.03L170.86,131.08L170.74,131.14L170.62,131.23L170.53,131.34L170.45,131.46L170.39,131.59L170.36,131.73L170.34,131.87L170.36,132.02L170.39,132.16"/><path d="M171.22,132.40L171.22,132.40L171.21,132.41L170.75,132.14L170.75,131.61L171.21,131.34L171.22,131.34L171.22,131.34"/><path d="M170.98,132.27L170.75,132.14L171.20,132.40L170.98,132.27"/><path d="M171.20,131.35L170.75,131.60L171.20,131.35"/><path d="M170.75,131.91L170.75,131.61L170.75,131.87"/><path d="M172.08,131.91L172.08,131.87L172.07,131.73"/><path d="M171.45,132.27L171.68,132.14L171.45,132.27"/><path d="M171.45,132.27L171.22,132.40L171.45,132.27"/><path d="M171.22,132.40L171.68,132.14L171.68,131.61L171.68,131.91"/><path d="M171.68,131.61L171.22,131.34"/></g></g><g id="Actor_.29"><g style="stroke:#000000;stroke-width:0.353"><path d="M90.49,162.14L90.49,158.43"/></g><g style="stroke:#000000;stroke-width:0.705"><path d="M83.19,161.46L83.19,162.14L97.80,162.14L97.80,158.43L83.19,158.43L83.19,161.46"/></g></g><g id="Actor_.30"><g style="stroke:#000000;stroke-width:0.705"><path d="M97.80,162.14L97.80,173.83L83.19,173.83L83.19,162.14"/></g></g><g id="Actor_.31"><g style="stroke:#000000;stroke-width:0.353"><path d="M93.96,168.71L94.21,168.74L94.45,168.67L94.66,168.54L94.81,168.34L94.89,168.11L94.90,167.98L94.89,167.86L94.81,167.63L94.66,167.43L94.45,167.30L94.21,167.23L93.96,167.25L93.74,167.35L93.55,167.52L93.44,167.74L93.39,167.98L93.44,168.23L93.55,168.45L93.74,168.62L93.96,168.71"/><path d="M95.01,168.13L94.91,168.40L94.74,168.62L94.50,168.78L94.22,168.85L93.93,168.83L93.80,168.77L93.67,168.71L93.46,168.52L93.33,168.27L93.28,167.98L93.33,167.70L93.46,167.45L93.67,167.26L93.93,167.14L94.22,167.12L94.50,167.19L94.74,167.34L94.91,167.57L95.01,167.84"/><path d="M93.92,167.58L93.83,167.64L93.74,167.76L93.69,167.91L93.68,167.98L93.69,168.06L93.74,168.21L93.83,168.33L93.92,168.39L93.96,168.41L94.11,168.45L94.26,168.43L94.38,168.39L94.40,168.37L94.51,168.27L94.59,168.14L94.61,167.98L94.59,167.83L94.51,167.70L94.40,167.60L94.38,167.58L94.26,167.54L94.11,167.52L93.96,167.56L93.92,167.58L94.15,167.98L94.40,168.37"/><path d="M93.68,167.98L94.15,167.98L94.59,167.83"/><path d="M93.83,168.33L94.15,167.98"/></g><g style="stroke:#000000;stroke-width:0.705"><path d="M94.03,168.84L93.93,168.83L93.80,168.78L93.67,168.71L93.56,168.62L93.46,168.52L93.38,168.40L93.33,168.27L93.29,168.13L93.28,167.98L93.29,167.84L93.33,167.70L93.38,167.57L93.46,167.45L93.56,167.34L93.67,167.26L93.80,167.19L93.93,167.14L94.08,167.12L94.22,167.12L94.36,167.14L94.50,167.19L94.62,167.26L94.74,167.34L94.83,167.45L94.91,167.57L94.97,167.70L95.01,167.84L95.02,167.98L95.01,168.13L94.97,168.27L94.91,168.40L94.83,168.52L94.74,168.62L94.62,168.71L94.50,168.78L94.36,168.83L94.22,168.85L94.08,168.85L94.03,168.84"/><path d="M94.07,167.50L94.15,167.45L94.61,167.72L94.61,168.25L94.15,168.52L93.68,168.25L93.68,167.72L94.14,167.46"/><path d="M93.92,168.39L93.72,168.27L93.92,168.39"/><path d="M95.01,168.03L95.02,167.98L95.01,167.94"/><path d="M94.07,168.47L94.14,168.51"/><path d="M94.38,168.39L94.15,168.52L94.59,168.26L94.38,168.39"/><path d="M94.38,167.58L94.59,167.71L94.15,167.45L94.38,167.58"/></g></g><g id="Actor_.32"><g style="stroke:#000000;stroke-width:0.353"><path d="M106.16,158.07L106.30,158.32L106.35,158.60L106.31,158.89L106.17,159.14L105.96,159.34L105.70,159.45L105.42,159.48L105.14,159.41L104.90,159.26L104.72,159.04L104.62,158.77L104.62,158.62L104.62,158.48L104.71,158.21L104.88,157.98L105.12,157.82L105.40,157.75L105.68,157.77L105.95,157.88"/><path d="M105.62,159.35L105.43,159.37L105.18,159.31L104.98,159.17L104.82,158.98L104.74,158.75L104.74,158.50L104.80,158.29L104.81,158.26L104.96,158.07L105.17,157.93L105.41,157.86L105.66,157.88L105.88,157.98L105.98,158.05L106.07,158.14L106.19,158.36L106.23,158.61L106.19,158.85L106.08,159.07L105.90,159.24L105.67,159.34L105.62,159.35"/><path d="M105.01,159.35L105.01,159.35"/><path d="M105.69,158.65L105.48,158.61L105.03,158.52L105.04,158.47L105.11,158.33L105.22,158.23L105.34,158.17L105.36,158.17L105.51,158.15L105.66,158.19L105.48,158.61L105.17,158.96L105.23,159.01L105.37,159.06L105.52,159.08L105.62,159.06L105.67,159.04L105.80,158.95L105.89,158.83L105.93,158.71L105.94,158.69L105.69,158.65"/><path d="M105.03,158.52L105.02,158.62L105.04,158.77L105.12,158.90L105.17,158.96"/><path d="M105.48,158.61L105.52,159.08"/><path d="M105.66,158.19L105.79,158.27L105.89,158.39L105.94,158.53L105.94,158.69"/></g><g style="stroke:#000000;stroke-width:0.705"><path d="M105.81,157.81L105.68,157.77L105.54,157.75L105.40,157.75L105.26,157.77L105.12,157.82L105.00,157.89L104.88,157.98L104.79,158.09L104.71,158.21L104.65,158.34L104.62,158.48L104.61,158.62L104.62,158.77L104.66,158.91L104.72,159.04L104.80,159.16L104.90,159.26L105.01,159.35L105.14,159.41L105.28,159.46L105.42,159.48L105.56,159.48L105.70,159.45L105.84,159.41L105.96,159.34L106.07,159.25L106.17,159.14L106.25,159.02L106.31,158.89L106.34,158.75L106.35,158.60L106.34,158.47"/><path d="M105.37,159.14L105.88,158.97L105.99,158.45L105.59,158.09L105.08,158.26L105.34,158.17L105.08,158.26L104.97,158.78L105.37,159.14L105.26,159.04"/><path d="M105.07,158.29L105.08,158.27"/><path d="M105.14,158.93L104.97,158.78L105.03,158.52L104.97,158.78L105.14,158.93"/><path d="M105.42,159.12L105.62,159.06L105.42,159.12"/><path d="M105.62,159.06L105.69,159.03L105.62,159.06"/><path d="M105.34,158.17L105.57,158.10L105.34,158.17"/><path d="M106.24,158.20L106.30,158.32L106.33,158.45"/><path d="M105.69,159.03L105.81,158.99"/><path d="M105.99,158.45L105.88,158.96L105.99,158.45L105.69,158.18"/><path d="M106.23,158.18L106.16,158.07L106.06,157.97L105.95,157.88L105.83,157.82"/><path d="M105.99,157.91L106.05,157.96"/><path d="M106.08,157.98L106.07,157.97"/></g></g><g id="Actor_.33"><g style="stroke:#000000;stroke-width:0.705"><path d="M102.12,158.43L102.12,158.80"/><path d="M103.44,154.72L101.94,154.72"/><path d="M103.27,158.43L103.27,158.80"/></g></g><g id="Actor_.34"><g style="stroke:#000000;stroke-width:0.353"><path d="M106.02,157.35L105.84,157.27L105.38,157.23L104.94,157.33L104.55,157.58L104.26,157.93L104.11,158.37L104.10,158.82L104.25,159.26L104.52,159.62L104.90,159.88L105.35,160.00L105.57,159.98"/><path d="M106.42,158.56L106.43,158.63L106.38,158.94L106.22,159.21L105.99,159.42L105.70,159.54L105.39,159.56L105.08,159.48L104.82,159.31L104.64,159.06L104.54,158.76L104.54,158.44L104.65,158.15L104.84,157.90L105.11,157.74L105.41,157.66L105.64,157.68"/><path d="M106.01,159.88L106.22,159.79L106.57,159.48L106.79,159.08L106.87,158.63L106.81,158.21"/><path d="M106.62,157.83L106.59,157.77L106.47,157.66"/><path d="M106.29,157.49L106.26,157.46L106.17,157.42"/><path d="M106.80,158.19L106.77,158.12"/></g><g style="stroke:#000000;stroke-width:0.705"><path d="M104.21,159.18L104.25,159.26L104.37,159.45L104.43,159.52"/><path d="M104.46,159.56L104.52,159.62L104.70,159.77L104.78,159.81"/><path d="M104.13,158.28L104.11,158.37L104.09,158.59L104.09,158.68"/><path d="M104.10,158.73L104.10,158.82L104.16,159.05L104.19,159.12"/><path d="M104.15,158.22L104.17,158.14L104.26,157.93L104.32,157.86"/><path d="M104.62,157.52L104.55,157.58L104.39,157.74L104.35,157.81"/><path d="M104.83,159.84L104.90,159.88L105.12,159.96L105.20,159.97"/><path d="M106.10,159.86L106.02,159.90L105.80,159.97L105.57,159.98"/><path d="M105.66,159.99L105.58,160.00L105.35,160.00L105.26,159.98"/><path d="M104.67,157.49L104.73,157.44L104.94,157.33L105.02,157.30"/><path d="M105.47,157.23L105.38,157.23L105.16,157.26L105.08,157.29"/><path d="M105.92,157.30L105.84,157.27L105.61,157.23L105.53,157.23"/><path d="M106.15,159.83L106.22,159.79L106.41,159.65L106.47,159.59"/><path d="M106.01,159.88L105.80,159.97L105.74,159.97"/><path d="M105.71,159.98L105.80,159.97L105.96,159.90"/><path d="M106.73,159.22L106.69,159.29L106.57,159.48L106.50,159.55"/><path d="M106.37,157.55L106.44,157.60L106.59,157.77L106.64,157.85"/><path d="M106.67,157.90L106.71,157.97L106.81,158.20"/><path d="M106.32,157.51L106.26,157.46L106.04,157.34"/><path d="M106.84,158.32L106.86,158.40L106.87,158.63L106.86,158.72"/><path d="M106.75,159.17L106.79,159.08L106.85,158.86L106.86,158.78"/></g></g><g id="Actor_.35"><g style="stroke:#000000;stroke-width:0.705"><path d="M106.86,158.80L107.34,158.80L107.34,162.51L100.84,162.51L100.84,159.35L100.84,162.51"/><path d="M100.84,161.46L100.84,158.80L104.10,158.80"/><path d="M100.84,159.35L100.84,158.80"/></g></g><g id="Actor_.36"><g style="stroke:#000000;stroke-width:0.353"/><g style="stroke:#000000;stroke-width:0.705"><path d="M104.35,159.40L104.44,159.54L104.49,159.58"/><path d="M104.21,158.10L104.14,158.25L104.13,158.31"/><path d="M104.11,158.54L104.09,158.71L104.10,158.76"/><path d="M104.16,158.99L104.20,159.15L104.23,159.20"/><path d="M104.20,159.15L104.19,159.13"/><path d="M104.44,157.71L104.33,157.83L104.30,157.89"/><path d="M104.33,157.83L104.32,157.86"/><path d="M104.60,157.55L104.64,157.50L104.79,157.42"/><path d="M104.32,157.86L104.33,157.83L104.35,157.81"/><path d="M104.15,158.22L104.14,158.25"/><path d="M105.74,159.97L105.69,159.99L105.52,159.99"/><path d="M105.29,159.98L105.23,159.98L105.26,159.98"/><path d="M105.23,159.98L105.07,159.92"/><path d="M104.83,159.84L104.80,159.83L104.85,159.85"/><path d="M104.80,159.83L104.66,159.72"/><path d="M105.20,159.97L105.23,159.98L105.26,159.98"/><path d="M104.83,159.84L104.80,159.83L104.78,159.81"/><path d="M105.00,157.32L105.05,157.29L105.02,157.30"/><path d="M105.02,157.30L105.05,157.29L105.08,157.29"/><path d="M105.05,157.29L105.22,157.26"/><path d="M105.69,157.26L105.50,157.22L105.44,157.23"/><path d="M106.05,157.35L106.03,157.34L105.57,157.75"/><path d="M105.50,157.22L105.47,157.23"/><path d="M105.47,157.23L105.50,157.22L105.53,157.23"/><path d="M105.96,159.90L106.12,159.85L106.17,159.81"/><path d="M106.35,159.68L106.49,159.57L106.52,159.52"/><path d="M106.85,158.47L106.83,158.29L106.81,158.21L106.35,158.62"/><path d="M106.64,159.35L106.75,159.19L106.76,159.14"/><path d="M106.10,157.38L106.03,157.34L105.95,157.31L105.92,157.30"/><path d="M106.63,157.84L106.66,157.87L106.35,157.53L106.03,157.34L105.95,157.31L105.89,157.29"/><path d="M106.67,157.90L106.66,157.87L106.64,157.85"/><path d="M105.95,157.31L105.92,157.30"/><path d="M106.66,157.87L106.76,158.09"/><path d="M106.82,158.92L106.86,158.75L106.86,158.69"/><path d="M106.82,158.25L106.84,158.32"/><path d="M106.81,158.21L106.75,158.08"/></g></g><g id="Actor_.37"><g style="stroke:#000000;stroke-width:0.353"><path d="M219.15,77.74L217.88,74.25"/><path d="M226.51,75.06L225.24,71.57"/></g><g style="stroke:#000000;stroke-width:0.705"><path d="M215.96,78.90L217.73,78.26L215.96,78.90L214.70,75.41L218.79,73.92L218.66,73.97"/><path d="M216.03,74.92L216.67,74.69L216.10,74.90"/><path d="M216.89,78.56L217.73,78.26L216.67,78.64L217.73,78.26L216.67,78.64L217.02,78.52"/><path d="M216.67,78.64L218.19,78.09L217.73,78.26"/><path d="M217.28,78.42L217.68,78.27"/><path d="M220.46,77.26L216.67,78.64L219.41,77.65L218.79,77.87"/><path d="M216.81,74.64L216.67,74.69L217.73,74.31L216.81,74.64"/><path d="M218.19,78.09L218.99,77.80"/><path d="M218.26,74.11L218.79,73.92L218.11,74.17"/><path d="M218.79,73.92L220.87,73.16L218.93,73.87"/><path d="M217.73,74.31L219.84,73.54L218.98,73.85"/><path d="M218.77,73.93L218.87,73.89"/><path d="M219.41,77.65L218.79,77.87L219.23,77.71"/><path d="M218.79,73.92L219.14,73.79"/><path d="M218.93,73.87L220.90,73.15L218.96,73.86"/><path d="M219.84,73.54L220.87,73.16L219.84,73.54L220.66,73.24L220.64,73.25"/><path d="M220.65,77.19L219.84,77.49L220.55,77.23"/><path d="M219.84,77.49L220.90,77.10L219.84,77.49"/><path d="M220.29,77.33L220.37,77.29"/><path d="M220.99,77.07L220.90,77.10L225.13,75.56L224.83,75.67"/><path d="M221.64,72.88L220.84,73.18"/><path d="M220.71,73.22L220.67,73.24"/><path d="M220.66,73.24L220.75,73.21"/><path d="M221.58,72.90L221.96,72.77L220.90,73.15L221.41,72.97"/><path d="M221.76,72.84L221.83,72.81L221.58,72.90"/><path d="M221.17,73.05L220.90,73.15"/><path d="M221.51,72.93L221.29,73.01"/><path d="M221.86,72.80L221.91,72.78"/><path d="M222.22,72.67L221.96,72.77L222.24,72.66L222.22,72.67"/><path d="M222.24,72.66L222.15,72.70"/><path d="M222.81,72.46L222.34,72.63L223.01,72.38L221.96,72.77"/><path d="M221.96,72.77L227.24,70.84L223.01,72.38L224.53,71.83"/><path d="M222.62,72.53L222.25,72.66L222.41,72.60"/><path d="M222.34,72.63L222.17,72.69"/><path d="M223.01,72.38L223.92,72.06"/><path d="M225.01,71.66L224.07,72.00L224.69,71.77"/><path d="M223.67,72.14L224.07,72.00L223.44,72.23"/><path d="M225.01,75.61L225.13,75.56L224.67,75.73"/><path d="M226.02,75.24L226.19,75.18L225.13,75.56L226.19,75.18L226.05,75.23"/><path d="M225.16,75.55L226.19,75.18L225.13,75.56L226.19,75.18L225.29,75.51"/><path d="M224.31,71.91L224.73,71.76"/><path d="M224.86,71.71L224.73,71.76L225.12,71.62"/><path d="M225.13,71.61L228.43,70.41L229.70,73.90L225.44,75.45"/><path d="M226.43,75.09L226.25,75.15L226.67,75.00"/><path d="M227.56,74.68L226.25,75.15L226.50,75.06"/><path d="M227.27,70.84L226.19,71.23"/><path d="M227.24,70.84L227.63,70.70"/></g></g><g id="Actor_.38"><g style="stroke:#000000;stroke-width:0.705"><path d="M213.50,63.41L213.75,63.32L210.70,64.43L211.55,66.76"/><path d="M214.13,73.87L214.52,74.92L212.15,68.43"/><path d="M212.66,69.82L213.37,71.76L213.05,70.90"/><path d="M214.52,74.92L214.70,75.41"/><path d="M213.75,63.32L215.88,62.54"/><path d="M215.62,62.64L219.54,61.21L219.14,61.35"/><path d="M219.54,61.21L222.44,60.15L221.96,60.33"/><path d="M222.69,60.06L223.01,59.94L222.44,60.15L224.43,59.43L226.08,63.96"/><path d="M225.07,61.21L224.98,60.95"/><path d="M225.84,63.32L228.43,70.41"/><path d="M227.00,66.48L226.61,65.43"/><path d="M228.15,69.65L227.76,68.59L227.95,69.09"/></g></g><g id="Actor_.39"><g style="stroke:#000000;stroke-width:0.353"><path d="M220.51,80.67L227.35,78.18"/></g><g style="stroke:#000000;stroke-width:0.705"><path d="M223.78,82.12L223.54,82.20L224.07,82.01L223.31,82.29L220.51,80.67L219.41,77.65"/><path d="M223.54,82.20L223.32,82.29"/><path d="M223.35,82.28L224.07,82.01L223.46,82.23"/><path d="M224.04,82.02L224.07,82.01L223.44,82.24"/><path d="M225.05,81.66L224.54,81.84L225.41,81.53"/><path d="M225.03,81.66L224.78,81.76L225.02,81.67"/><path d="M224.31,81.93L224.78,81.76"/><path d="M224.54,81.84L224.17,81.98"/><path d="M224.09,82.01L224.07,82.01L224.50,81.86"/><path d="M225.16,81.62L225.13,81.63L225.62,81.45"/><path d="M225.99,81.31L225.47,81.50L226.13,81.26L225.47,81.50L226.01,81.31L225.76,81.40"/><path d="M226.13,81.26L226.15,81.26L226.01,81.31"/><path d="M225.47,81.50L225.86,81.36"/><path d="M226.15,81.26L226.25,81.22L227.35,78.18L226.25,75.15"/><path d="M226.19,81.24L226.19,81.24"/></g></g><g id="Actor_.40"><g style="stroke:#000000;stroke-width:0.353"><path d="M208.29,67.10L208.35,67.05L208.41,66.96L208.52,66.69L208.56,66.41L208.55,66.30L208.51,66.22"/><path d="M215.75,67.54L215.94,67.48L216.33,67.48L216.71,67.61L217.02,67.86L217.24,68.19L217.33,68.58L217.30,68.97L217.13,69.34L216.86,69.63L216.51,69.81L216.12,69.88L215.73,69.81L215.38,69.62L215.25,69.47"/><path d="M215.41,68.54L215.41,68.70"/><path d="M215.49,69.01L215.56,69.12"/><path d="M215.23,69.47L215.14,69.35"/><path d="M215.06,69.23L215.02,69.14L215.16,68.42L215.39,67.72L215.47,67.66"/><path d="M215.11,69.32L215.02,69.15"/><path d="M215.55,69.40L215.35,69.17L215.23,68.89L215.21,68.59L215.23,68.44L215.28,68.29L215.45,68.04L215.69,67.85L215.98,67.75L216.29,67.76L216.58,67.86L216.82,68.05L216.98,68.30L217.05,68.59L217.03,68.90L216.90,69.18L216.69,69.41L216.42,69.55L216.12,69.60L215.82,69.55L215.55,69.40"/><path d="M215.50,69.16L215.69,69.33L215.93,69.44L216.19,69.47L216.44,69.40L216.67,69.26L216.83,69.05L216.90,68.87L216.92,68.81L216.92,68.54L216.83,68.29L216.67,68.09L216.45,67.94L216.20,67.87L215.94,67.89L215.70,68.00L215.50,68.18L215.38,68.41L215.33,68.66L215.37,68.92L215.50,69.16"/><path d="M215.39,67.71L215.56,67.60"/><path d="M215.59,67.59L215.73,67.53"/><path d="M216.10,68.18L215.95,68.22L215.81,68.30L215.71,68.42L215.65,68.57L215.65,68.73L215.69,68.89L215.79,69.01L215.87,69.08"/><path d="M216.39,68.26L216.47,68.32L216.56,68.45L216.61,68.60L216.61,68.76L216.55,68.91L216.45,69.04L216.31,69.12L216.16,69.15"/><path d="M215.83,69.23L215.84,69.18"/><path d="M215.84,69.33L215.95,69.37L216.01,69.38"/><path d="M215.81,69.31L216.04,69.38"/><path d="M216.41,68.18L216.40,68.21"/><path d="M216.45,68.02L216.22,67.95"/><path d="M216.48,68.04L216.52,68.06"/><path d="M216.24,67.96L216.31,67.97L216.43,68.02"/><path d="M216.43,67.99L216.19,67.93"/><path d="M216.85,68.65L216.84,68.80"/><path d="M216.77,68.33L216.70,68.21"/></g><g style="stroke:#000000;stroke-width:0.705"><path d="M208.29,67.10L208.09,67.24L207.86,67.31L207.52,67.29L207.29,67.19L207.05,66.95L206.94,66.75L206.90,66.47L206.92,66.32L207.00,66.10L207.17,65.87L207.36,65.74L207.69,65.65L207.94,65.68L208.24,65.83L208.41,66.00L208.51,66.22"/><path d="M208.51,66.21L215.72,67.53L215.94,67.48L216.14,67.46L216.33,67.48L216.53,67.53L216.71,67.61L216.88,67.72L217.02,67.86L217.14,68.02L217.24,68.19L217.30,68.38L217.33,68.58L217.33,68.78L217.30,68.97L217.23,69.16L217.13,69.34L217.01,69.49L216.86,69.63L216.70,69.73L216.51,69.81L216.32,69.86L216.12,69.88L215.92,69.86L215.73,69.81L215.55,69.73L215.38,69.62L215.23,69.47L208.27,67.11"/><path d="M215.99,68.63L215.81,69.31L215.73,69.28L215.56,69.12"/><path d="M215.42,68.55L215.41,68.78L215.49,69.01"/><path d="M215.54,69.13L215.72,69.29L215.65,69.22L215.72,69.29L215.94,69.39L216.19,69.41"/><path d="M215.71,68.06L215.73,68.05L215.55,68.21L215.43,68.42L215.39,68.66L215.43,68.91L215.54,69.12"/><path d="M215.25,69.47L215.11,69.32L215.06,69.23"/><path d="M215.41,68.54L215.49,68.32L215.64,68.13L215.84,68.00L216.07,67.94L216.16,67.95L215.84,69.21L215.91,68.90"/><path d="M215.75,67.54L215.56,67.60L215.47,67.66"/><path d="M216.12,69.28L216.10,69.38L216.12,69.31L216.10,69.36"/><path d="M216.12,69.31L216.16,69.15L216.10,69.38L216.12,69.39L216.18,69.39L216.42,69.34L216.62,69.21L216.76,69.02L216.84,68.80"/><path d="M216.11,69.34L216.10,69.39"/><path d="M216.16,69.15L216.30,68.59L216.10,69.38L216.12,69.29"/><path d="M215.84,69.18L216.13,68.08"/><path d="M216.10,69.39L215.95,69.37L215.81,69.31"/><path d="M215.80,69.33L215.72,69.29L215.80,69.33"/><path d="M216.63,69.21L216.67,69.16L216.63,69.21"/><path d="M216.86,68.66L216.86,68.80L216.78,69.03L216.62,69.22L216.43,69.35"/><path d="M216.42,69.35L216.19,69.41"/><path d="M216.60,69.24L216.53,69.28L216.63,69.22L216.60,69.24"/><path d="M215.81,69.29L215.83,69.21L215.81,69.30"/><path d="M215.83,69.22L215.83,69.21"/><path d="M215.84,69.21L215.99,68.60"/><path d="M216.04,68.43L216.00,68.59L216.02,68.50"/><path d="M215.83,69.22L215.81,69.31"/><path d="M216.10,69.38L216.11,69.32"/><path d="M216.39,68.27L216.30,68.59L216.43,68.10"/><path d="M216.39,68.26L216.44,68.06"/><path d="M216.42,68.15L216.41,68.18"/><path d="M216.44,68.08L216.42,68.14L216.45,68.03L216.31,67.97"/><path d="M216.45,68.02L216.48,68.04"/><path d="M216.16,67.95L216.30,67.97"/><path d="M216.16,67.97L216.12,68.13L216.13,68.08"/><path d="M216.14,68.05L216.14,68.03L216.10,68.18"/><path d="M216.12,68.13L216.13,68.09"/><path d="M216.70,68.21L216.52,68.06"/><path d="M216.25,67.94L215.95,67.95L215.73,68.05"/><path d="M216.19,67.93L216.43,67.99L216.64,68.13L216.78,68.32L216.86,68.55"/><path d="M216.84,68.79L216.85,68.56L216.77,68.33"/><path d="M216.86,68.80L216.86,68.55"/><path d="M216.78,68.32L216.82,68.44L216.78,68.32"/></g></g><g id="Actor_.41"><g style="stroke:#000000;stroke-width:0.353"><path d="M238.46,61.30L238.41,61.58L238.26,61.83L238.04,62.01L237.78,62.12L237.49,62.13L237.35,62.09L237.22,62.05L236.98,61.89L236.81,61.66L236.73,61.38L236.74,61.10L236.84,60.83L237.03,60.61L237.27,60.46L237.41,60.43L237.55,60.40L237.84,60.43L238.09,60.56L238.30,60.76L238.42,61.01"/><path d="M237.81,61.98L237.75,62.00L237.50,62.02L237.27,61.95L237.06,61.80L236.92,61.60L236.85,61.37L236.85,61.12L236.94,60.89L237.10,60.70L237.31,60.57L237.56,60.52L237.80,60.55L238.03,60.65L238.20,60.83L238.31,61.05L238.34,61.17L238.35,61.29L238.30,61.54L238.17,61.75L237.98,61.91L237.81,61.98"/><path d="M237.81,61.52L237.59,61.27L237.31,60.90L237.35,60.87L237.49,60.81L237.65,60.81L237.77,60.84L237.79,60.85L237.92,60.94L238.01,61.06L238.05,61.21L238.05,61.36L237.99,61.50L237.89,61.62L237.81,61.52"/><path d="M237.89,61.62L237.88,61.64L237.76,61.70L237.61,61.73L237.46,61.71L237.41,61.70L237.33,61.65L237.22,61.54L237.15,61.40L237.13,61.33L237.13,61.25L237.16,61.10L237.24,60.97L237.31,60.90"/><path d="M237.13,61.33L237.59,61.27L237.33,61.65"/><path d="M237.59,61.27L238.01,61.06"/></g><g style="stroke:#000000;stroke-width:0.705"><path d="M236.75,61.49L236.73,61.38L236.72,61.24L236.74,61.10L236.78,60.96L236.84,60.83L236.93,60.71L237.03,60.61L237.14,60.52L237.27,60.46L237.41,60.42L237.55,60.40L237.69,60.40L237.81,60.43L237.84,60.43L237.97,60.48L238.09,60.56L238.20,60.65L238.30,60.76L238.37,60.88L238.42,61.01L238.46,61.16L238.46,61.30L238.45,61.44L238.41,61.58L238.34,61.71L238.26,61.83L238.16,61.93L238.04,62.01L237.91,62.08L237.78,62.12L237.63,62.14L237.49,62.13L237.35,62.10L237.22,62.05L237.09,61.98L236.98,61.89L236.89,61.78L236.81,61.66L236.76,61.52L236.75,61.49"/><path d="M237.66,61.80L237.81,61.69L237.66,61.80L237.17,61.59L237.10,61.06L237.11,61.12"/><path d="M237.81,61.69L238.09,61.47L237.81,61.69"/><path d="M237.60,61.78L237.41,61.70L237.60,61.78"/><path d="M237.41,61.70L237.18,61.60L237.41,61.70"/><path d="M238.02,60.96L238.09,61.47L238.02,60.94L237.52,60.74L237.10,61.06"/><path d="M237.81,60.86L238.01,60.94L237.81,60.86"/><path d="M237.31,60.90L237.52,60.74L237.31,60.90"/><path d="M238.09,61.47L237.88,61.64"/></g></g><g id="Actor_.42"><g style="stroke:#000000;stroke-width:0.353"><path d="M204.77,30.34L204.77,30.34"/><path d="M205.55,30.06L205.55,30.06"/><path d="M205.47,30.09L205.46,30.09"/><path d="M205.44,30.10L205.45,30.10"/></g><g style="stroke:#000000;stroke-width:0.705"><path d="M202.93,31.79L203.29,31.66L199.30,33.11L199.35,33.09"/><path d="M199.31,33.11L199.30,33.11"/><path d="M199.30,33.11L199.09,32.41L199.77,32.16"/><path d="M199.22,32.86L199.30,33.11"/><path d="M199.09,32.41L200.82,31.78L199.76,32.16L199.98,32.09"/><path d="M200.80,31.79L199.76,32.16L201.15,31.66L199.77,32.16L200.65,31.84"/><path d="M201.15,31.66L202.93,31.01L201.15,31.66L201.69,31.46"/><path d="M202.66,31.89L202.04,32.11L202.80,31.84L202.11,32.09"/><path d="M202.93,31.01L205.05,30.24L204.86,30.31L204.95,30.28"/><path d="M202.65,31.11L201.88,31.40"/><path d="M203.42,31.61L203.29,31.66L204.55,31.20L204.43,31.24"/><path d="M204.55,31.20L209.09,29.55L208.90,29.61"/><path d="M204.55,31.20L204.44,31.24"/><path d="M204.55,31.20L204.66,31.16"/><path d="M204.05,30.60L204.89,30.30"/><path d="M204.24,30.53L204.85,30.31"/><path d="M204.77,30.34L205.60,30.04"/><path d="M205.62,30.03L205.05,30.24L206.10,29.86L205.74,29.99"/><path d="M205.05,30.24L205.13,30.21"/><path d="M205.52,30.07L205.57,30.05L205.52,30.07"/><path d="M205.50,30.08L205.44,30.10"/><path d="M205.44,30.10L205.49,30.08"/><path d="M205.57,30.05L205.57,30.05"/><path d="M205.76,29.98L206.10,29.86L205.86,29.94"/><path d="M205.09,30.22L205.60,30.04"/><path d="M206.73,29.63L206.36,29.76L206.95,29.55L206.04,29.88"/><path d="M206.12,29.85L206.11,29.85"/><path d="M206.12,29.85L206.17,29.83"/><path d="M205.07,30.23L205.85,29.95"/><path d="M205.96,29.91L206.10,29.86"/><path d="M206.09,29.86L206.08,29.86"/><path d="M206.95,29.55L207.16,29.47L206.95,29.55L207.16,29.47L206.96,29.55L207.12,29.49"/><path d="M207.28,29.43L207.16,29.47L210.16,28.38"/><path d="M209.27,28.70L209.75,28.53L207.16,29.47L207.29,29.43"/><path d="M207.26,29.44L207.28,29.43"/><path d="M209.09,29.55L213.03,28.11L212.86,28.18"/><path d="M209.53,29.39L210.29,29.11"/><path d="M209.85,28.49L212.74,27.44L213.03,28.11L213.01,28.12"/><path d="M212.85,28.18L213.02,28.12"/></g></g><g id="Actor_.43"><g style="stroke:#000000;stroke-width:0.353"><path d="M244.15,96.32L244.19,96.07L244.32,95.86L244.51,95.70L244.73,95.60L244.98,95.59L245.22,95.66L245.42,95.80L245.57,96.00L245.64,96.24L245.65,96.36L245.64,96.48L245.55,96.72L245.39,96.91L245.18,97.04L244.94,97.09L244.69,97.06L244.47,96.96L244.29,96.78L244.18,96.56L244.15,96.32"/><path d="M245.75,96.51L245.65,96.77L245.47,96.99L245.23,97.14L244.95,97.21L244.80,97.19L244.66,97.17L244.40,97.05L244.20,96.85L244.07,96.60L244.03,96.31L244.08,96.03L244.23,95.78L244.44,95.60L244.71,95.49L245.00,95.47L245.27,95.55L245.51,95.72L245.68,95.95L245.76,96.22"/><path d="M245.34,96.20L245.36,96.35L245.33,96.50L245.26,96.63L245.14,96.73L244.90,96.34L244.68,95.93L244.72,95.91L244.87,95.87L245.03,95.89L245.14,95.94L245.16,95.96L245.27,96.06L245.34,96.20L244.90,96.34L244.44,96.32L244.44,96.40L244.48,96.55L244.57,96.67L244.66,96.73L244.70,96.76L244.85,96.80L245.00,96.79L245.12,96.75L245.14,96.73"/><path d="M244.90,96.34L244.57,96.67"/><path d="M244.44,96.32L244.44,96.25L244.50,96.11L244.59,95.99L244.68,95.93"/></g><g style="stroke:#000000;stroke-width:0.705"><path d="M244.15,96.78L244.12,96.73L244.07,96.60L244.04,96.46L244.03,96.31L244.05,96.17L244.08,96.03L244.15,95.90L244.23,95.78L244.33,95.68L244.44,95.60L244.57,95.53L244.71,95.49L244.85,95.47L245.00,95.47L245.14,95.50L245.27,95.55L245.40,95.62L245.51,95.72L245.60,95.82L245.68,95.95L245.73,96.08L245.76,96.22L245.77,96.36L245.75,96.51L245.71,96.64L245.65,96.77L245.57,96.89L245.47,96.99L245.35,97.08L245.23,97.14L245.09,97.19L244.95,97.21L244.80,97.20L244.66,97.17L244.53,97.12L244.40,97.05L244.29,96.96L244.20,96.85L244.15,96.78"/><path d="M245.12,96.75L245.21,96.70L245.12,96.75"/><path d="M244.89,96.87L245.12,96.75L244.89,96.87"/><path d="M245.36,96.48L245.37,96.08L245.35,96.62L244.88,96.87L244.43,96.59L244.66,96.73L244.43,96.59L244.44,96.23L244.44,96.32"/><path d="M244.43,96.59L244.44,96.06L244.49,96.03L244.47,96.04"/><path d="M244.49,96.03L244.91,95.80L245.37,96.08"/><path d="M244.68,95.93L244.90,95.81L244.68,95.93"/><path d="M245.75,96.51L245.77,96.36L245.77,96.31"/></g></g><g id="Actor_.44"><g style="stroke:#000000;stroke-width:0.705"><path d="M213.00,70.77L206.18,70.77L205.78,70.70L205.32,70.49L204.99,70.16L204.79,69.76L204.71,69.31L204.71,59.10L204.79,58.62L204.99,58.22L205.32,57.89L205.72,57.69L208.22,57.62"/><path d="M211.10,65.52L209.63,66.41"/><path d="M211.50,66.75L211.54,66.73"/><path d="M223.16,99.19L223.05,98.98L222.98,98.17"/><path d="M223.42,99.55L223.52,99.64L223.42,99.55"/><path d="M223.52,99.64L223.26,99.39L223.01,98.75"/><path d="M223.84,57.62L223.77,57.62L224.07,57.62L223.84,57.62"/><path d="M224.07,57.62L227.24,57.62L226.19,57.62"/><path d="M227.24,57.62L235.65,57.62L234.64,57.62L235.44,57.62"/><path d="M234.64,57.62L237.81,57.62L236.75,57.62"/><path d="M244.15,57.62L245.21,57.62L237.81,57.62L238.87,57.62L238.01,57.62"/><path d="M248.55,98.14L248.55,97.09L248.48,98.98L248.27,99.39L247.95,99.71L248.27,99.39L247.95,99.71L247.54,99.92L247.09,99.99L239.19,99.99"/><path d="M245.32,57.62L246.27,57.62L245.21,57.62L245.32,57.62"/><path d="M246.27,57.62L247.09,57.62L247.54,57.69L247.91,57.87"/><path d="M248.55,97.09L248.55,59.10L248.48,58.62L248.27,58.22L247.95,57.89L248.10,58.04"/><path d="M248.55,94.97L248.55,96.03"/><path d="M248.55,92.86L248.55,91.81"/><path d="M248.55,89.70L248.55,88.64"/><path d="M248.55,79.15L248.55,78.09"/><path d="M248.55,72.81L248.55,71.76"/><path d="M248.55,68.59L248.55,67.54"/><path d="M248.55,65.43L248.55,64.37"/><path d="M248.55,62.26L248.55,61.21"/></g></g><g id="Actor_.45"><g style="stroke:#000000;stroke-width:0.353"><path d="M229.62,96.71L229.64,96.68L229.85,96.46L230.10,96.33L230.13,96.32L230.43,96.28L230.68,96.33"/></g><g style="stroke:#000000;stroke-width:0.705"><path d="M230.77,96.30L230.61,96.16L229.59,96.50L229.55,96.74"/><path d="M229.59,96.50L229.59,96.52"/><path d="M230.42,96.22L230.34,96.25"/><path d="M230.61,96.16L230.77,96.30L230.61,96.16"/></g></g><g id="Actor_.46"><g style="stroke:#000000;stroke-width:0.705"><path d="M228.12,101.61L226.97,98.46L227.24,98.36L227.02,98.44"/><path d="M227.11,98.40L228.11,98.04L227.84,98.14L228.10,98.04L227.84,98.14L227.89,98.12"/><path d="M227.24,98.36L227.38,98.31"/><path d="M228.07,98.06L227.84,98.14L228.30,97.97L227.84,98.14L228.11,98.04L227.86,97.35L229.22,96.86"/><path d="M227.84,98.14L228.11,98.04"/><path d="M228.27,97.99L228.27,97.98"/><path d="M228.55,97.88L228.48,97.91"/><path d="M229.24,97.63L228.30,97.97L228.84,97.78L228.68,97.84"/><path d="M228.51,97.90L228.53,97.89"/><path d="M229.35,97.59L229.33,97.60"/><path d="M228.55,97.88L229.36,97.59L228.55,97.88"/><path d="M230.55,97.15L230.74,97.09L229.36,97.59L229.37,97.58"/><path d="M228.60,97.09L229.36,96.81L228.60,97.09L229.01,96.94"/><path d="M229.36,96.81L229.69,96.69"/><path d="M229.48,97.54L229.48,97.54"/><path d="M229.75,97.45L229.74,97.45"/><path d="M229.65,96.71L229.46,96.77L230.41,96.43L230.29,96.47"/><path d="M230.41,96.43L229.38,96.80"/><path d="M229.95,96.60L230.11,96.54"/><path d="M230.41,96.43L230.85,96.27L230.48,96.40"/><path d="M230.44,97.20L230.44,97.19"/><path d="M231.26,96.89L231.25,96.90"/><path d="M230.84,97.05L230.84,97.05"/><path d="M230.99,96.99L231.47,96.82L230.74,97.09L230.99,96.99L230.77,97.07"/><path d="M231.41,96.06L231.50,96.03L230.85,96.27L231.41,96.06L231.18,96.15"/><path d="M231.33,96.87L231.35,96.86"/><path d="M230.67,96.33L230.85,96.27L230.76,96.30"/><path d="M230.85,96.27L231.58,96.00"/><path d="M232.49,96.45L232.44,96.47"/><path d="M231.70,96.74L231.70,96.74"/><path d="M232.46,96.46L231.47,96.82L232.49,96.45"/><path d="M231.80,96.70L232.53,96.43L232.24,96.54"/><path d="M232.03,96.62L232.01,96.62"/><path d="M232.40,96.48L232.42,96.47"/><path d="M233.30,96.15L233.58,96.05L232.72,96.36L232.47,95.68L231.50,96.03"/><path d="M231.74,95.94L232.34,95.72L232.30,95.74"/><path d="M232.34,95.72L232.35,95.72"/><path d="M233.32,96.15L233.58,96.05L232.53,96.43L232.61,96.40"/><path d="M232.88,96.31L232.72,96.36"/><path d="M232.53,96.43L233.43,96.10L232.97,96.27"/><path d="M232.62,96.40L232.62,96.40"/><path d="M234.94,99.13L233.79,95.97L233.60,96.05"/><path d="M233.58,96.05L233.79,95.98"/></g></g><g id="Actor_.47"><g style="stroke:#000000;stroke-width:0.353"><path d="M237.65,98.15L237.59,98.17"/></g><g style="stroke:#000000;stroke-width:0.705"><path d="M199.30,33.11L211.55,66.76L211.45,66.48"/><path d="M213.44,63.43L202.04,32.11"/><path d="M203.42,31.61L214.82,62.92"/><path d="M206.45,52.76L206.10,51.81"/><path d="M220.30,60.93L208.90,29.61"/><path d="M209.91,62.26L209.52,61.21"/><path d="M221.69,60.43L210.29,29.11"/><path d="M225.78,102.47L226.07,102.36L224.69,102.86L212.15,68.43"/><path d="M212.28,55.93L212.11,55.48"/><path d="M212.60,69.65L212.44,69.23L212.60,69.65"/><path d="M224.43,59.43L213.03,28.11"/><path d="M213.75,72.81L214.13,73.87"/><path d="M226.60,102.17L227.43,101.87L218.70,77.90"/><path d="M220.28,90.75L219.90,89.70"/><path d="M221.49,81.23L227.66,98.20"/><path d="M225.26,102.65L225.18,102.69L225.48,102.58"/><path d="M225.39,102.61L225.47,102.58"/><path d="M226.05,102.37L225.84,102.45"/><path d="M225.22,102.67L225.44,102.59"/><path d="M225.25,102.66L225.34,102.63"/><path d="M225.52,102.56L225.80,102.46"/><path d="M226.04,102.37L226.09,102.35"/><path d="M226.37,102.25L226.12,102.34"/><path d="M226.99,102.03L226.68,102.14L227.24,101.93L226.19,102.32"/><path d="M226.74,102.12L226.63,102.16L227.09,101.99"/><path d="M226.22,102.31L226.27,102.29"/><path d="M226.26,102.29L226.24,102.30"/><path d="M233.14,96.21L226.97,79.24"/><path d="M234.94,99.13L235.70,98.86L234.94,99.13L235.70,98.86L226.96,74.90"/><path d="M228.12,101.61L227.24,101.93"/><path d="M229.46,81.78L229.65,82.31"/><path d="M236.67,98.50L236.37,98.61L238.42,97.87L229.70,73.90"/><path d="M235.70,98.86L236.43,98.59"/><path d="M236.02,98.74L236.75,98.47L235.80,98.82"/><path d="M236.37,98.61L237.80,98.09"/><path d="M236.79,98.46L237.11,98.34"/><path d="M236.75,98.47L236.92,98.41"/><path d="M236.77,98.47L237.42,98.23L237.12,98.34"/><path d="M236.86,98.43L237.08,98.35L236.85,98.44"/><path d="M236.95,98.40L237.00,98.38"/><path d="M237.07,98.36L236.96,98.40L237.05,98.36"/><path d="M237.04,98.37L237.30,98.27"/><path d="M237.59,98.17L236.81,98.45"/><path d="M236.82,98.45L236.83,98.44"/><path d="M236.87,98.43L236.91,98.42"/><path d="M237.67,98.14L237.73,98.12"/><path d="M237.92,98.05L238.07,97.99L237.86,98.07"/></g></g><g id="Actor_.48"><g style="stroke:#000000;stroke-width:0.353"><path d="M227.87,101.70L229.14,105.19"/><path d="M236.50,102.51L235.23,99.03"/></g><g style="stroke:#000000;stroke-width:0.705"><path d="M228.09,105.57L225.96,106.35L224.69,102.86L225.13,102.70L225.07,102.72"/><path d="M224.83,102.81L225.13,102.70L224.83,102.81"/><path d="M224.99,102.75L225.44,102.59L224.96,102.77"/><path d="M224.84,102.81L225.13,102.70L224.96,102.77"/><path d="M225.07,102.72L225.72,102.49L225.27,102.65"/><path d="M226.06,106.32L225.96,106.35L226.19,106.27L225.96,106.35L226.07,106.31"/><path d="M226.62,106.11L226.83,106.03L225.96,106.35"/><path d="M226.32,106.22L226.19,106.27L227.24,105.88L226.19,106.27L227.14,105.92L226.19,106.27L226.32,106.22"/><path d="M226.19,106.27L227.24,105.88L226.19,106.27L226.69,106.09L226.19,106.27L226.26,106.24"/><path d="M226.19,106.27L226.59,106.12L226.19,106.27L226.47,106.17"/><path d="M225.96,106.35L226.06,106.32"/><path d="M226.05,102.37L225.81,102.45L226.07,102.36L226.05,102.37"/><path d="M226.51,102.20L227.24,101.93L225.13,102.70L225.81,102.45L225.13,102.70L225.50,102.57"/><path d="M225.27,102.65L225.62,102.52L225.14,102.70"/><path d="M225.35,102.62L225.87,102.43L225.26,102.66"/><path d="M225.29,102.64L225.53,102.56L225.17,102.69"/><path d="M225.53,102.56L226.07,102.36L225.72,102.49"/><path d="M225.16,102.69L225.20,102.68"/><path d="M226.16,102.33L226.07,102.36L226.19,102.32L226.07,102.36L226.17,102.32"/><path d="M226.07,102.36L226.07,102.36"/><path d="M226.53,106.14L226.85,106.03"/><path d="M227.24,105.88L231.12,104.47L230.72,104.62"/><path d="M227.12,105.93L227.24,105.88L227.12,105.93"/><path d="M226.30,106.23L226.20,106.26"/><path d="M227.00,102.02L227.24,101.93L226.25,102.30L227.24,101.93L226.51,102.20"/><path d="M226.25,102.30L227.24,101.94L226.19,102.32L227.24,101.93L226.19,102.32L227.24,101.93L227.14,101.97"/><path d="M227.18,101.96L226.28,102.29L227.24,101.93L227.00,102.02"/><path d="M226.29,102.28L227.24,101.93L226.24,102.30"/><path d="M226.24,102.30L227.24,101.93L226.19,102.32L228.12,101.61"/><path d="M227.24,101.93L228.12,101.61"/><path d="M227.70,105.72L228.09,105.57L227.24,105.88L227.70,105.72"/><path d="M227.39,105.83L227.29,105.87L228.22,105.53L227.24,105.88L227.97,105.62"/><path d="M227.24,105.88L227.97,105.62"/><path d="M228.07,105.58L227.67,105.73L228.07,105.58"/><path d="M228.22,105.53L228.52,105.42"/><path d="M227.69,105.72L227.61,105.75"/><path d="M227.93,101.68L227.24,101.93L228.30,101.55L227.93,101.68"/><path d="M228.29,101.55L228.24,101.57"/><path d="M229.79,101.01L228.34,101.54"/><path d="M228.32,101.54L228.63,101.43L228.30,101.55"/><path d="M229.63,101.06L229.36,101.17L229.51,101.11"/><path d="M229.57,101.09L229.36,101.17L229.53,101.10"/><path d="M229.67,101.05L229.36,101.17L229.62,101.07"/><path d="M229.36,101.17L236.75,98.47L234.94,99.13"/><path d="M230.72,104.62L231.12,104.47L231.01,104.51"/><path d="M230.99,104.52L231.12,104.47L230.65,104.65"/><path d="M231.12,104.47L231.92,104.18L231.12,104.47L231.47,104.35L231.20,104.44"/><path d="M231.91,104.18L232.05,104.14L231.47,104.35L232.53,103.96L231.85,104.21"/><path d="M231.47,104.35L232.53,103.96L232.45,103.99"/><path d="M232.05,104.14L232.18,104.09"/><path d="M232.38,104.01L233.58,103.58L232.63,103.92"/><path d="M232.14,104.10L232.03,104.14"/><path d="M232.78,103.87L233.58,103.58L233.56,103.59"/><path d="M233.33,103.67L233.58,103.58L232.91,103.82"/><path d="M234.02,103.42L234.64,103.19L233.20,103.72"/><path d="M233.94,103.45L233.58,103.58L234.64,103.19L232.53,103.96L233.58,103.58"/><path d="M233.11,103.75L232.53,103.96"/><path d="M233.60,103.57L233.60,103.57"/><path d="M233.67,103.54L233.71,103.53"/><path d="M235.22,102.98L234.02,103.42L234.15,103.37"/><path d="M236.42,102.54L236.06,102.68L236.75,102.42L234.26,103.33"/><path d="M233.67,99.60L233.63,99.61"/><path d="M235.29,102.96L234.64,103.19L235.70,102.81L235.29,102.96"/><path d="M237.78,102.05L237.81,102.04L234.64,103.19L235.70,102.81L234.64,103.19L235.70,102.81L234.64,103.19L235.70,102.81L235.50,102.88"/><path d="M234.64,103.19L235.70,102.81L234.97,103.07"/><path d="M235.15,103.00L239.69,101.35L238.42,97.87L236.75,98.47"/><path d="M235.70,102.81L236.01,102.69"/><path d="M234.99,99.12L235.70,98.86L234.94,99.13L234.99,99.12"/><path d="M236.05,98.73L236.75,98.47L234.94,99.13"/><path d="M235.70,98.86L236.06,98.73"/><path d="M236.06,102.68L237.23,102.25"/><path d="M237.76,98.11L237.81,98.09L236.75,98.47L237.67,98.14L237.56,98.18"/><path d="M236.75,98.47L236.95,98.40"/><path d="M237.75,102.06L237.81,102.04L236.92,102.36L237.81,102.04L236.92,102.36"/><path d="M237.88,102.01L237.81,102.04L238.87,101.65L237.81,102.04L238.87,101.65L237.81,102.04L238.33,101.85"/><path d="M237.81,102.04L238.51,101.78L238.22,101.89"/><path d="M236.90,98.42L236.86,98.44"/><path d="M237.00,98.38L236.95,98.40"/><path d="M238.22,97.94L238.42,97.87L237.76,98.11"/><path d="M237.76,98.11L238.42,97.87L237.81,98.09L238.42,97.87L237.94,98.04"/><path d="M238.87,101.65L238.51,101.78L238.55,101.77"/><path d="M238.66,101.73L238.40,101.82"/><path d="M237.98,101.98L237.94,101.99"/><path d="M238.92,101.63L238.87,101.65L239.41,101.46L238.87,101.65L239.10,101.57L238.95,101.62"/><path d="M237.94,98.04L238.42,97.87L237.81,98.09L238.42,97.87L238.09,97.99"/><path d="M238.02,98.01L238.42,97.87L237.84,98.08L238.02,98.01"/><path d="M237.93,98.04L237.81,98.09L238.42,97.87L238.09,97.99"/><path d="M237.90,98.06L237.82,98.09"/><path d="M239.29,101.50L239.10,101.57"/><path d="M239.53,101.41L239.14,101.55L239.65,101.37L238.99,101.61L239.65,101.37"/><path d="M239.56,101.40L239.51,101.42"/><path d="M239.65,101.37L239.51,101.42L239.65,101.37"/><path d="M239.51,101.42L239.40,101.46"/></g></g><g id="Actor_.49"><g style="stroke:#000000;stroke-width:0.353"><path d="M222.11,125.86L223.84,125.86"/></g><g style="stroke:#000000;stroke-width:0.705"><path d="M222.40,128.22L222.40,128.00"/><path d="M223.85,126.41L223.84,125.86L223.72,125.75L222.23,125.75L222.11,125.86L222.12,126.57"/><path d="M223.56,128.22L223.56,128.00"/></g></g><g id="Actor_.50"><g style="stroke:#000000;stroke-width:0.353"><path d="M222.98,126.49L222.89,126.50"/><path d="M222.05,126.58L222.05,126.58"/><path d="M223.56,126.44L223.64,126.43"/><path d="M223.90,126.41L223.91,126.41"/><path d="M223.91,126.41L223.91,126.41"/><path d="M226.14,126.21L226.10,126.21"/><path d="M226.63,126.16L226.66,126.16"/><path d="M226.31,126.19L226.33,126.19"/><path d="M227.57,126.08L227.58,126.07"/><path d="M227.39,126.09L227.43,126.09"/><path d="M231.79,121.86L231.79,121.87"/><path d="M231.80,121.85L231.80,121.84"/><path d="M231.84,121.41L231.83,121.42"/><path d="M231.89,120.86L231.87,121.05"/><path d="M231.93,120.34L231.94,120.26"/><path d="M231.96,119.99L231.96,119.99"/><path d="M232.13,118.19L232.13,118.19"/><path d="M232.21,117.26L232.22,117.17"/><path d="M232.17,117.76L232.17,117.78"/><path d="M232.30,116.33L232.30,116.33"/></g><g style="stroke:#000000;stroke-width:0.705"><path d="M221.68,126.80L221.67,128.22L222.38,128.22L221.96,128.22L222.38,128.22L222.38,128.00L223.01,128.00L222.40,128.00"/><path d="M221.84,126.61L221.71,126.72L221.68,126.79"/><path d="M221.87,126.60L221.94,126.59"/><path d="M221.81,126.63L222.00,126.58"/><path d="M221.93,126.59L221.93,126.59"/><path d="M222.43,126.54L221.96,126.59L223.01,126.49L221.96,126.59L222.10,126.57"/><path d="M222.98,128.00L222.38,128.00L222.48,128.00"/><path d="M222.57,128.00L222.60,128.00L222.57,128.00"/><path d="M222.62,128.00L222.79,128.00"/><path d="M222.25,126.56L222.13,126.57"/><path d="M222.09,126.57L222.12,126.57"/><path d="M222.11,126.57L222.09,126.57"/><path d="M222.41,126.55L222.32,126.55"/><path d="M223.86,128.00L223.01,128.00L223.86,128.00L223.56,128.00L223.86,128.00L223.86,128.22L229.69,128.22L229.69,128.00L231.16,128.00L231.16,128.22L233.74,128.22L233.94,128.02L233.94,125.44L233.72,125.44L233.72,123.97L233.94,123.97L233.94,118.14L233.72,118.14L233.72,116.66L233.94,116.66L233.94,115.95L232.53,115.96L232.37,116.05L232.31,116.22"/><path d="M223.57,128.00L223.01,128.00"/><path d="M223.17,128.00L223.56,128.00"/><path d="M223.48,128.00L223.34,128.00"/><path d="M223.16,126.48L223.01,126.49L224.07,126.39L223.85,126.41"/><path d="M223.52,126.44L224.07,126.39L223.78,126.42L224.07,126.39L223.91,126.41"/><path d="M224.12,126.39L224.07,126.39L226.19,126.20L225.71,126.24"/><path d="M223.78,126.42L223.76,126.42"/><path d="M225.30,126.28L226.19,126.20L225.13,126.30L225.84,126.23"/><path d="M227.21,126.11L227.24,126.11L225.13,126.30L226.19,126.20L225.90,126.23"/><path d="M227.58,126.07L228.30,126.01L226.19,126.20L227.24,126.11L226.19,126.20L227.24,126.11L226.62,126.16"/><path d="M225.13,126.30L225.77,126.24L225.38,126.28"/><path d="M227.56,126.08L228.30,126.01L227.24,126.11L228.30,126.01L227.24,126.11L228.30,126.01L227.45,126.09"/><path d="M227.24,126.11L228.30,126.01L227.24,126.11"/><path d="M227.28,126.10L229.36,125.91L229.30,125.92"/><path d="M231.18,124.41L231.47,124.11L229.81,125.77L229.69,125.86L229.54,125.90"/><path d="M229.53,125.90L229.54,125.90"/><path d="M229.54,125.90L229.63,125.87L229.36,125.91"/><path d="M229.53,125.90L229.54,125.90"/><path d="M231.56,126.55L231.59,126.59L231.48,126.48L231.41,126.33L231.38,126.17L231.43,125.97"/><path d="M231.41,126.02L231.48,125.87L231.67,125.72"/><path d="M231.47,124.11L231.53,124.04"/><path d="M231.81,126.67L231.89,126.69L231.74,126.66L231.59,126.59L231.62,126.60"/><path d="M232.02,126.67L231.89,126.69L232.05,126.66L232.21,126.57"/><path d="M231.90,125.66L232.05,125.69L231.89,125.66L231.75,125.69"/><path d="M231.89,125.66L231.74,125.69L231.59,125.76L231.53,125.82"/><path d="M232.05,125.69L232.19,125.76L232.31,125.87L232.38,126.02L232.41,126.17L232.38,126.33L232.31,126.48L232.19,126.59"/><path d="M232.19,125.76L232.23,125.80"/><path d="M231.62,123.73L231.62,123.82L231.62,123.75"/><path d="M231.59,123.93L231.63,123.70"/><path d="M231.63,123.69L231.62,123.82L231.63,123.62"/><path d="M231.63,123.65L231.62,123.82L231.62,123.76"/><path d="M231.62,123.75L231.62,123.82L231.63,123.71"/><path d="M231.73,122.60L231.62,123.82L231.58,123.97L231.49,124.09"/><path d="M231.71,122.83L231.65,123.47L231.66,123.34"/><path d="M231.67,123.23L231.65,123.47L231.66,123.37"/><path d="M231.65,123.40L231.65,123.47L231.67,123.20"/><path d="M231.79,121.86L231.65,123.47L231.65,123.41"/><path d="M231.80,121.78L231.80,121.85"/><path d="M231.80,121.84L231.81,121.68L231.74,122.41L231.84,121.36L231.81,121.68"/><path d="M231.81,121.72L231.74,122.41L231.83,121.43"/><path d="M231.86,121.16L231.84,121.36L231.94,120.30L231.74,122.41L231.79,121.86"/><path d="M231.93,120.34L231.93,120.42L231.94,120.30L231.93,120.34"/><path d="M231.93,120.42L231.91,120.62"/><path d="M232.03,119.26L231.97,119.90"/><path d="M231.98,119.82L231.96,119.98L232.03,119.25L231.94,120.30L232.03,119.25L231.96,120.00"/><path d="M231.94,120.30L232.03,119.25L231.94,120.30"/><path d="M231.96,119.99L231.96,120.05L232.11,118.40"/><path d="M231.98,119.78L231.96,120.05"/><path d="M232.07,118.88L232.13,118.20L232.03,119.25L232.13,118.19L232.03,119.25L232.13,118.19L232.03,119.25L232.10,118.48"/><path d="M232.11,118.44L232.03,119.25L232.13,118.19L232.11,118.41"/><path d="M232.12,118.29L232.11,118.43"/><path d="M232.22,117.19L232.22,117.14L232.12,118.30"/><path d="M232.13,118.19L232.22,117.14L232.13,118.19L232.14,118.03"/><path d="M232.11,118.41L232.12,118.25"/><path d="M232.23,117.05L232.28,116.48L232.22,117.14L232.31,116.21L232.13,118.18"/><path d="M232.20,117.44L232.18,117.59"/><path d="M232.31,116.23L232.31,116.21L232.23,117.12L232.31,116.21L232.28,116.48"/><path d="M232.29,116.37L232.29,116.39"/><path d="M232.29,116.38L232.31,116.21L232.30,116.35"/><path d="M232.23,117.04L232.31,116.22"/><path d="M232.24,117.00L232.31,116.21L232.30,116.33"/><path d="M232.24,116.94L232.28,116.47"/><path d="M232.30,116.25L232.31,116.23"/><path d="M232.26,116.76L232.33,116.13L232.31,116.23"/><path d="M232.31,116.22L232.30,116.26"/><path d="M232.31,116.21L232.30,116.32"/><path d="M232.29,116.39L232.30,116.33"/><path d="M232.26,116.74L232.23,117.08"/><path d="M232.27,116.68L232.28,116.54"/></g></g><g id="Actor_.51"><g style="stroke:#000000;stroke-width:0.353"><path d="M231.58,120.05L231.58,121.78"/></g><g style="stroke:#000000;stroke-width:0.705"><path d="M231.80,121.78L231.58,121.78L231.46,121.66L231.46,120.16L231.58,120.05L231.96,120.05"/></g></g><g id="Actor_.52"><g style="stroke:#000000;stroke-width:0.353"/><g style="stroke:#000000;stroke-width:0.705"><path d="M234.64,31.49L236.50,31.49L233.94,31.49L234.64,31.49L233.94,31.49L233.98,30.76"/><path d="M235.57,31.49L235.32,31.49L235.66,31.49L233.94,31.49L234.53,31.49"/><path d="M233.98,30.76L248.51,30.76L248.55,31.42L248.51,30.76"/><path d="M235.66,31.49L235.69,31.49L234.64,31.49L235.70,31.49L235.66,31.49"/><path d="M235.57,31.49L235.69,31.49"/><path d="M235.24,31.49L235.32,31.49L235.04,31.49"/><path d="M235.70,31.49L236.75,31.49L235.70,31.49L235.86,31.49"/><path d="M237.51,31.49L236.75,31.49L237.67,31.49L235.73,31.49"/><path d="M236.75,31.49L239.71,31.49L237.67,31.49"/><path d="M235.92,31.49L235.91,31.49"/><path d="M238.87,31.49L243.10,31.49L242.78,31.49L243.07,31.49"/><path d="M239.64,31.49L239.78,31.49"/><path d="M238.87,31.49L239.42,31.49"/><path d="M242.04,31.49L242.70,31.49L242.04,31.49"/><path d="M242.71,31.49L245.21,31.49L244.15,31.49"/><path d="M242.85,31.49L242.78,31.49"/><path d="M243.10,31.49L244.83,31.49"/><path d="M245.99,31.49L246.27,31.49L244.83,31.49"/><path d="M245.21,31.49L246.27,31.49L245.21,31.49L245.70,31.49"/><path d="M248.11,31.49L248.38,31.49L245.99,31.49"/><path d="M247.25,31.49L246.27,31.49L246.92,31.49"/><path d="M246.27,31.49L247.32,31.49L246.58,31.49L246.63,31.49"/><path d="M248.11,31.49L247.32,31.49L248.38,31.49L247.96,31.49"/><path d="M248.51,30.76L248.55,31.49L247.32,31.49L247.46,31.49"/></g></g><g/><g id="paperID" visibility="hidden" opacity="0.00" transform="scale(0.000100)"><path style="stroke:#000000;stroke-width:0.500;fill:#e6e6e6;fill-rule:evenodd" d="M-2000.00,-2000.00L2297.00,-2000.00L2297.00,2210.00L-2000.00,2210.00zM0.00,0.00L297.00,0.00L297.00,210.00L0.00,210.00z"/><path style="fill:#000000;fill-opacity:0.118" d="M3.00,210.00L297.00,210.00L297.00,3.00L300.00,3.00L300.00,213.00L3.00,213.00z"/></g><g id="ToolTip" visibility="hidden" opacity="0" transform="translate(0,0)"><rect id="ToolTipShadow" opacity="0.20" fill="black" stroke="none" x="0" y="0" width="30" height="8"/><rect id="ToolTipBG" fill="#ffffe1" stroke="black" x="0" y="0" width="30" height="8"/><text xml:space="preserve" id="ToolTipText" fill="black" x="0" y="0" width="30" height="8">tooltip</text></g></g></svg>